<?xml version="1.0" encoding="UTF-8"?><svg id="_イヤー_4" xmlns="http://www.w3.org/2000/svg" viewBox="0 0 930.99 507.64"><defs><style>.cls-1{fill:#fff;}</style></defs><path class="cls-1" d="M116.98,271.96c1.01,0,2.12,.56,3.35,1.67,1.22,1.08,1.84,1.87,1.84,2.38,0,.97-2.11,1.8-6.32,2.48-4.25,.72-8.12,1.08-11.61,1.08-6.62,0-11.38-.95-14.26-2.86-2.88-1.91-4.32-4.21-4.32-6.91,0-1.62,.63-3.54,1.89-5.78,1.3-2.23,2.41-3.35,3.35-3.35,.29,0,.57,.1,.84,.3,.27,.2,.47,.44,.59,.73,.13,.29,.18,.61,.16,.97-.02,.36-.17,.72-.46,1.08-1.22,2.09-1.84,3.85-1.84,5.29,0,2.05,1.17,3.51,3.51,4.37,2.34,.86,5.72,1.3,10.15,1.3,5,0,8.57-.61,10.69-1.84,.94-.61,1.75-.92,2.43-.92Zm-7.51-29.92c.79,0,1.93,.68,3.4,2.05,1.48,1.37,2.21,2.34,2.21,2.92,0,.72-.83,1.21-2.48,1.46-1.62,.22-3.38,.81-5.26,1.78-1.89,.97-3.59,2.12-5.1,3.46-.4,.36-.76,.57-1.08,.62-.32,.05-.61,.02-.86-.11-.25-.12-.46-.3-.62-.54-.16-.23-.26-.48-.3-.73,0-1.04,1.55-2.65,4.64-4.81,.22-.14,.32-.27,.32-.38s-.11-.16-.32-.16c-.79,0-2.97,.43-6.53,1.3-1.33,.29-2.27,.43-2.81,.43-1.4,0-2.43-.83-3.08-2.48-.61-1.73-.92-2.95-.92-3.67,0-.86,.28-1.3,.84-1.3s1.14,.34,1.75,1.03c.65,.68,1.22,1.1,1.73,1.24,.5,.14,1.15,.22,1.94,.22,.4,0,.95-.02,1.67-.05,.72-.04,1.6-.09,2.65-.16,1.04-.07,1.91-.16,2.59-.27,.68-.11,1.22-.2,1.62-.27,.36-.11,.73-.24,1.11-.41s.75-.33,1.11-.51c.36-.18,.69-.33,1-.46,.31-.13,.57-.19,.78-.19Zm5.08-1.3c.65,0,1.73,.22,3.24,.65,1.51,.43,2.66,1.12,3.46,2.05,.65,.65,1.01,1.28,1.08,1.89,.07,.61,0,1.15-.24,1.62s-.59,.85-1.08,1.13c-.49,.29-.96,.43-1.43,.43-.94,0-1.58-.56-1.94-1.67-.14-.58-.48-1.23-1-1.97-.52-.74-1.2-1.39-2.02-1.97-.79-.61-1.19-1.12-1.19-1.54s.38-.62,1.13-.62Zm6.37-3.19c.68,0,1.73,.22,3.13,.65,1.4,.43,2.47,1.12,3.19,2.05,.58,.72,.92,1.4,1.03,2.03s.05,1.19-.16,1.67c-.22,.49-.53,.86-.94,1.13-.41,.27-.86,.41-1.32,.41-.94,0-1.58-.5-1.94-1.51-.79-2.02-1.71-3.33-2.75-3.94-1.04-.61-1.57-1.18-1.57-1.7s.45-.78,1.35-.78Z"/><path class="cls-1" d="M174.82,256.25c-1.04-.07-2.47-.13-4.27-.19-1.8-.05-3.76-.04-5.89,.03-.29,.61-.58,1.25-.86,1.92-.29,.67-.59,1.41-.92,2.24,.58-.07,1.11-.16,1.59-.27,.49-.11,.93-.2,1.32-.27,1.44-.29,2.53-.39,3.27-.3,.74,.09,1.48,.39,2.24,.89,1.8,1.26,2.5,2.24,2.11,2.94-.4,.7-1.58,.96-3.56,.78-2.16-.22-4.33-.36-6.51-.43-2.18-.07-4.2-.07-6.07,0,1.26,1.08,2.56,2.12,3.92,3.13,1.35,1.01,2.55,1.86,3.59,2.54,1.51,.94,3.47,1.94,5.89,3,2.41,1.06,4.97,1.95,7.67,2.67,1.4,.4,2.11,.78,2.13,1.16,.02,.38-.69,.66-2.13,.84-2.81,.4-5,.68-6.59,.84-1.58,.16-2.85,.19-3.81,.08-.95-.11-1.71-.38-2.27-.81-.56-.43-1.18-1.03-1.86-1.78-1.44-1.58-2.81-3.09-4.1-4.51-1.3-1.42-2.54-2.82-3.73-4.18,.07,2.2,.13,4,.19,5.43,.05,1.42,.12,2.67,.19,3.75,.04,.83,0,1.67-.11,2.54-.11,.86-.25,1.62-.43,2.27-.4,1.62-1.02,2.5-1.86,2.65-.85,.14-1.79-.59-2.83-2.21-.61-.94-.94-1.83-1-2.67-.05-.85,.1-1.75,.46-2.73,.14-.43,.29-.89,.43-1.38,.14-.49,.26-1.03,.35-1.65,.09-.61,.17-1.32,.24-2.13,.07-.81,.13-1.77,.16-2.89-1.91,2.59-4.24,4.86-6.99,6.8-2.75,1.94-5.73,3.35-8.94,4.21-2.09,.54-3.15,.67-3.19,.41-.04-.27,.99-1.09,3.08-2.46,2.77-1.84,5.24-3.8,7.4-5.89,2.16-2.09,3.94-4.19,5.35-6.32-1.62,.18-2.87,.35-3.75,.51-.88,.16-1.63,.32-2.24,.46-.94,.22-1.68,.38-2.24,.49-.56,.11-1.03,.15-1.4,.13-.38-.02-.72-.1-1.03-.24-.31-.14-.67-.36-1.11-.65-1.62-1.04-2.4-1.72-2.35-2.03,.05-.3,.94-.46,2.67-.46,.83,0,1.88-.03,3.16-.08,1.28-.05,2.67-.13,4.19-.24-.22-.18-.4-.41-.57-.7s-.28-.67-.35-1.13c-.07-.4-.13-.78-.19-1.16-.05-.38-.12-.75-.19-1.11-1.69,.29-3.26,.56-4.7,.81-.86,.14-1.56,.24-2.08,.3-.52,.05-.97,.07-1.35,.05-.38-.02-.71-.1-1-.24-.29-.14-.59-.32-.92-.54-1.3-.9-1.9-1.49-1.81-1.78,.09-.29,.93-.47,2.51-.54,.94-.04,2.17-.1,3.7-.19,1.53-.09,3.21-.22,5.05-.41-.4-1.3-.83-2.27-1.3-2.92-.68-.9-.86-1.51-.51-1.84,.34-.32,1.39-.31,3.16,.05,.9,.18,1.6,.35,2.11,.51,.5,.16,.86,.35,1.08,.57,.22,.22,.32,.46,.32,.73s-.05,.6-.16,1c-.07,.25-.13,.49-.16,.7-.04,.22-.07,.47-.11,.76l4.86-.49c-.04-1.12-.06-2.11-.08-3-.02-.88-.03-1.68-.03-2.4-1.73,.14-3.17,.24-4.32,.3-1.15,.05-2.09,.08-2.81,.08s-1.27-.04-1.65-.14c-.38-.09-.69-.19-.94-.3-1.01-.47-1.47-.84-1.38-1.11,.09-.27,.66-.44,1.7-.51,1.48-.07,3.02-.19,4.64-.35s3.17-.35,4.64-.57c-.04-.86-.08-1.56-.13-2.08-.05-.52-.12-.94-.19-1.27-.97,.22-1.94,.38-2.89,.49-.95,.11-1.97,.2-3.05,.27-2.05,.07-3.11-.04-3.19-.32-.07-.29,.81-.74,2.65-1.35,3.38-1.15,6.04-2.17,7.96-3.05,1.93-.88,3.03-1.61,3.32-2.19,.29-.58,.56-1.02,.81-1.32,.25-.3,.54-.5,.86-.59,.32-.09,.73-.06,1.21,.08,.49,.14,1.11,.4,1.86,.76,1.3,.61,2.28,1.14,2.94,1.59,.67,.45,1.03,.85,1.11,1.19,.07,.34-.13,.64-.59,.89-.47,.25-1.17,.45-2.11,.59-.61,.11-1.27,.28-1.97,.51-.7,.23-1.22,.39-1.54,.46-.65,.18-1.27,.36-1.86,.54-.59,.18-1.16,.36-1.7,.54,.47,.18,.84,.36,1.11,.54,.27,.18,.44,.38,.51,.59,.07,.22,.08,.49,.03,.81-.05,.32-.17,.72-.35,1.19-.04,.04-.05,.11-.05,.22,1.73-.4,3.14-.72,4.24-.97,1.1-.25,2.02-.41,2.75-.49,.74-.07,1.34-.08,1.81-.03,.47,.05,.94,.17,1.4,.35,1.12,.47,1.63,.93,1.54,1.38-.09,.45-.59,.84-1.48,1.16-.14,.07-.53,.16-1.16,.27-.63,.11-1.41,.24-2.35,.38,.29,.07,.59,.17,.92,.3,.32,.13,.68,.28,1.08,.46,1.48,.61,2.34,1.12,2.59,1.51,.25,.4,.09,.94-.49,1.62-.11,.14-.23,.31-.35,.49-.13,.18-.26,.4-.4,.65,.54-.07,1.09-.16,1.65-.27,.56-.11,1.2-.23,1.92-.38,1.94-.36,3.39-.5,4.35-.41,.95,.09,1.72,.35,2.29,.78,1.66,1.19,2.34,2.16,2.05,2.92-.36,.76-1.64,1.03-3.83,.81Zm-27.92,1.3c0,.61,.05,1.35,.16,2.21,.07,.94-.13,1.69-.59,2.27,1.73-.14,3.51-.31,5.35-.49v-2.4c0-.74-.02-1.47-.05-2.19-.83,.07-1.66,.16-2.48,.27-.83,.11-1.62,.22-2.38,.32Zm9.07-8.8c-.04,.68-.05,1.49-.05,2.4v3c1.15-.14,2.17-.27,3.05-.38,.88-.11,1.68-.2,2.4-.27,.18-1.15,.27-2.02,.27-2.59s-.05-1.06-.16-1.46c-.22-.61-.31-1.06-.27-1.35-.79,.11-1.63,.22-2.51,.32-.88,.11-1.79,.22-2.73,.32Zm4.81,7.51c-.83,.04-1.66,.07-2.48,.11-.83,.04-1.62,.09-2.38,.16v4.59c.65-.07,1.29-.14,1.92-.22,.63-.07,1.23-.14,1.81-.22,.25-.9,.47-1.71,.65-2.43,.18-.72,.34-1.39,.49-2Z"/><path class="cls-1" d="M211.54,242.42c.9-.22,1.76-.43,2.59-.65,.83-.22,1.6-.45,2.32-.7,.79-.29,1.55-.42,2.27-.41,.72,.02,1.39,.21,2,.57,1.26,.72,1.84,1.37,1.76,1.94-.09,.58-.89,1.03-2.4,1.35-.65,.14-1.73,.32-3.24,.54-1.51,.22-3.33,.49-5.45,.81-.04,.4-.05,.81-.05,1.24v1.4c1.62-.29,2.91-.56,3.86-.81,.95-.25,1.63-.47,2.02-.65,.36-.14,.71-.25,1.05-.32,.34-.07,.7-.07,1.08,0,.38,.07,.81,.22,1.3,.43,.49,.22,1.09,.52,1.81,.92,1.01,.54,1.77,1.02,2.3,1.43,.52,.41,.84,.8,.94,1.16,.11,.36,.04,.72-.19,1.08-.23,.36-.6,.76-1.11,1.19-.4,.32-.81,.92-1.24,1.78-.43,.86-.85,1.98-1.24,3.35-.25,.79-.54,1.56-.86,2.29-.32,.74-.63,1.34-.92,1.81-.72,1.12-1.45,1.67-2.19,1.67s-1.36-.5-1.86-1.51c-.07-.14-.19-.25-.35-.32-.16-.07-.41-.12-.76-.14-.34-.02-.81,0-1.4,.05-.59,.05-1.38,.13-2.35,.24v1.97c0,.63-.02,1.23-.05,1.81,1.91-.22,3.75-.45,5.53-.7,1.78-.25,3.09-.47,3.92-.65,1.48-.29,2.69-.49,3.65-.62,.95-.13,1.77-.15,2.46-.08,.68,.07,1.28,.25,1.78,.54,.5,.29,1.06,.68,1.67,1.19,1.44,1.26,1.96,2.24,1.57,2.94-.4,.7-1.91,.86-4.54,.46-1.3-.18-2.46-.32-3.48-.43-1.03-.11-2.11-.17-3.24-.19-1.13-.02-2.43,.02-3.89,.11s-3.27,.21-5.43,.35c-.07,2.99-.22,5.5-.43,7.53s-.58,3.86-1.08,5.48c-.65,2.16-1.16,3.2-1.54,3.13-.38-.07-.77-1.22-1.16-3.46-.36-2.02-.54-4.25-.54-6.7,0-1.04,0-2.02,.03-2.92,.02-.9,.03-1.8,.03-2.7-2.95,.29-5.52,.57-7.69,.84-2.18,.27-3.77,.55-4.78,.84-.83,.22-1.49,.37-2,.46-.5,.09-.97,.1-1.4,.03-.43-.07-.86-.24-1.27-.51-.41-.27-.93-.66-1.54-1.16-1.01-.83-1.47-1.35-1.38-1.57,.09-.22,.85-.32,2.29-.32,.65,0,1.66-.04,3.02-.14,1.37-.09,2.9-.21,4.59-.35,1.69-.14,3.44-.3,5.24-.46,1.8-.16,3.44-.31,4.91-.46v-3.67c-.72,.07-1.47,.16-2.24,.27-.77,.11-1.58,.22-2.4,.32-.18,1.04-.51,1.65-1,1.81-.49,.16-1.05-.03-1.7-.57-.5-.4-.92-.98-1.24-1.75-.32-.77-.67-1.97-1.03-3.59-.14-.65-.32-1.3-.51-1.97-.2-.67-.4-1.3-.62-1.92-.22-.61-.45-1.17-.7-1.67-.25-.5-.49-.9-.7-1.19-.47-.58-.77-1.08-.92-1.51-.14-.43-.06-.74,.24-.92,.31-.18,.88-.25,1.73-.22,.85,.04,2.04,.22,3.59,.54,1.87-.29,3.4-.52,4.59-.7,1.19-.18,2.14-.32,2.86-.43v-2.7c-2.41,.29-4.37,.41-5.89,.38-1.51-.04-2.68-.25-3.51-.65-1.12-.5-1.66-.9-1.62-1.19,.04-.29,.61-.47,1.73-.54,.94-.07,2.2-.2,3.81-.38,1.6-.18,3.39-.43,5.37-.76-.07-1.73-.22-3.08-.43-4.05-.22-.97-.5-1.71-.86-2.21-1.01-1.37-1.3-2.3-.86-2.78,.43-.49,1.78-.42,4.05,.19,1.19,.32,2.11,.64,2.75,.95,.65,.31,1.1,.64,1.35,1,.25,.36,.35,.76,.3,1.19-.05,.43-.19,.92-.4,1.46-.14,.32-.27,.74-.38,1.24-.11,.5-.2,1.17-.27,2Zm-5.08,9.34c-1.04,.14-2,.26-2.86,.35-.86,.09-1.89,.23-3.08,.41,.25,1.58,.48,3.05,.67,4.4,.2,1.35,.39,2.67,.57,3.97,.72-.11,1.48-.22,2.29-.32,.81-.11,1.63-.2,2.46-.27v-2.75c-.83,.07-1.54,.06-2.13-.03-.59-.09-1.09-.22-1.48-.4-.97-.47-1.44-.84-1.4-1.11,.04-.27,.61-.51,1.73-.73,.32-.07,.82-.16,1.48-.27,.67-.11,1.25-.2,1.75-.27v-2.97Zm4.75,7.99c1.04-.14,1.95-.23,2.73-.27,.77-.04,1.3-.02,1.59,.05,.4,.07,.67,.06,.81-.03,.14-.09,.27-.31,.38-.67,.61-1.91,1.08-3.98,1.4-6.21,.14-.94,.14-1.5-.03-1.7-.16-.2-.53-.28-1.11-.24-1.04,.07-2.03,.14-2.97,.22-.94,.07-1.85,.16-2.75,.27v2.43c.72-.18,1.42-.28,2.11-.3,.68-.02,1.28,0,1.78,.08,1.04,.18,1.63,.54,1.76,1.08,.13,.54-.32,1.06-1.32,1.57-.25,.14-.67,.27-1.27,.38-.59,.11-1.63,.25-3.1,.43v2.92Z"/><path class="cls-1" d="M272.07,256.03c2.16,.83,3.89,1.58,5.18,2.24s2.41,1.43,3.35,2.29c1.15,1.08,1.99,2.27,2.51,3.56,.52,1.3,.78,2.7,.78,4.21,0,2.88-.86,5.45-2.59,7.72-1.8,2.34-4.46,4.16-7.99,5.45v-.05c-1.84,.72-3.43,1.24-4.78,1.57-1.35,.32-2.49,.49-3.43,.49-1.55,0-2.32-.49-2.32-1.46,0-.86,.54-1.39,1.62-1.57,3.67-.47,7.07-1.76,10.21-3.89,3.06-2.09,4.59-4.75,4.59-7.99,0-.97-.13-1.92-.41-2.83-.27-.92-.7-1.77-1.3-2.57-.59-.79-1.38-1.5-2.35-2.13-.97-.63-2.16-1.16-3.56-1.59-.72,1.55-1.81,3.41-3.27,5.59-1.46,2.18-3.32,4.69-5.59,7.53,.11,.29,.23,.51,.38,.67,.14,.16,.27,.35,.38,.57,.14,.25,.27,.5,.38,.76,.11,.25,.16,.47,.16,.65s-.07,.38-.22,.59c-.14,.22-.32,.41-.51,.59-.2,.18-.41,.33-.65,.46-.23,.12-.46,.19-.67,.19-.68,0-1.31-.4-1.89-1.19-1.84,1.94-3.74,3.38-5.72,4.32-1.98,.94-3.74,1.4-5.29,1.4-1.73,0-3.14-.67-4.24-2-1.1-1.33-1.65-3.15-1.65-5.45,0-1.66,.34-3.33,1.03-5.02,.68-1.69,1.66-3.4,2.92-5.13,1.26-1.62,2.77-3.05,4.54-4.29,1.76-1.24,3.8-2.26,6.1-3.05,.11-1.12,.21-2.1,.3-2.94,.09-.85,.22-1.79,.4-2.83-2.16,.25-3.88,.43-5.16,.54-1.28,.11-2.15,.16-2.62,.16-2.52,0-4.21-.61-5.08-1.84-.79-1.12-1.19-2.05-1.19-2.81,0-.58,.31-.86,.92-.86,.43,0,1.12,.34,2.05,1.03,.68,.5,2.09,.76,4.21,.76,1.01,0,2.05-.05,3.13-.16l4.21-.38c.18-1.22,.33-2.19,.46-2.89,.13-.7,.22-1.14,.3-1.32,.14-.4,.22-.85,.22-1.35,0-.65-.68-1.57-2.05-2.75-.11-.14-.23-.32-.35-.51-.13-.2-.19-.39-.19-.57,0-.94,.58-1.4,1.73-1.4,.47,0,1.49,.45,3.08,1.35,1.76,.9,2.65,2,2.65,3.29,0,.72-.23,1.44-.7,2.16-.14,.25-.32,.66-.51,1.21-.2,.56-.42,1.29-.67,2.19,1.73-.29,3.21-.6,4.46-.95,1.24-.34,2.33-.76,3.27-1.27,2.02-1.04,3.49-1.57,4.43-1.57,.43,0,.85,.07,1.24,.22,.4,.14,.74,.32,1.03,.54,.29,.22,.51,.45,.68,.7,.16,.25,.24,.49,.24,.7,0,.83-.77,1.51-2.32,2.05-1.4,.5-3.47,1.1-6.21,1.78-2.56,.58-5.08,1.06-7.56,1.46-.18,.72-.32,1.51-.41,2.38-.09,.86-.17,1.85-.24,2.97,.86-.14,1.67-.22,2.43-.24s1.44-.03,2.05-.03c.4,0,.62,0,.67,.03s.22,.03,.51,.03c-.29-.5-.51-1-.68-1.48-.16-.49-.05-.86,.35-1.11h-.05c.25-.25,.61-.38,1.08-.38,.43,0,1.17,.41,2.21,1.24,1.01,.79,1.67,1.53,2,2.21Zm-13.39,16.36c-.25-1.62-.46-3.21-.62-4.78-.16-1.57-.33-3.16-.51-4.78-.07-.5-.1-.9-.08-1.19,.02-.29,.04-.7,.08-1.24-2.99,1.22-5.38,3.1-7.18,5.62-1.87,2.63-2.81,5.38-2.81,8.26-.04,.61,0,1.11,.08,1.49,.09,.38,.24,.67,.46,.86,.22,.2,.49,.34,.84,.43,.34,.09,.73,.15,1.16,.19,1.04,0,2.36-.41,3.94-1.21,1.58-.81,3.13-2.03,4.64-3.64Zm7.34-13.72c-.61,0-1.31,.05-2.08,.14-.77,.09-1.65,.24-2.62,.46-.04,.32-.05,.66-.03,1,.02,.34,.03,.69,.03,1.05,0,1.37,.04,2.64,.13,3.81,.09,1.17,.22,2.33,.41,3.48,.5-.65,1.02-1.4,1.54-2.27,.52-.86,1.09-1.8,1.7-2.81,.68-1.15,1.21-2.08,1.57-2.78,.36-.7,.67-1.38,.92-2.02l-1.57-.05Z"/><path class="cls-1" d="M324.56,239.02c2.56,0,4.64,1.24,6.26,3.73s2.43,6.71,2.43,12.69c0,2.09-.11,4.1-.32,6.05-.22,1.94-.56,3.76-1.03,5.45-.47,1.69-1.08,3.26-1.84,4.7-.76,1.44-1.67,2.7-2.75,3.78-1.12,1.08-2.27,2.05-3.46,2.92-1.19,.86-2.43,1.51-3.73,1.94-2.59,.86-4.58,1.3-5.97,1.3s-2.08-.25-2.08-.76c0-.61,.92-1.3,2.75-2.05,2.77-1.15,5.01-2.38,6.72-3.7,1.71-1.31,3.09-2.91,4.13-4.78,1.8-3.31,2.7-8.19,2.7-14.63,0-4.14-.38-7.25-1.13-9.32-.76-2.07-1.76-3.1-3.02-3.1-.58,0-1.25,.23-2.03,.7-.77,.47-1.68,1.39-2.73,2.75-1.04,1.37-2.05,3.12-3.02,5.26-.97,2.14-1.78,4.33-2.43,6.56-.29,1.04-.54,2.01-.76,2.89-.22,.88-.36,1.67-.43,2.35-.07,.65-.13,1.3-.16,1.94-.04,.65-.05,1.3-.05,1.94,0,1.3-.19,2.2-.57,2.7-.38,.5-.87,.76-1.48,.76-1.26,0-2.57-.95-3.94-2.86-1.37-1.94-2.05-4.72-2.05-8.32s.67-8.28,2-14.04c.11-.43,.16-.85,.16-1.24,0-1.26-.54-2.74-1.62-4.43-.4-.65-.59-1.26-.59-1.84s.36-.86,1.08-.86c.79,0,2.23,.83,4.32,2.48,2.16,1.69,3.24,2.93,3.24,3.73,0,.65-.54,1.8-1.62,3.46-.94,1.51-1.63,3.34-2.08,5.48-.45,2.14-.67,4.56-.67,7.26,0,.61,.02,1.06,.05,1.35s.07,.46,.11,.51c.04,.05,.08,.02,.13-.11,.05-.12,.1-.3,.13-.51,.36-1.76,.81-3.54,1.35-5.32,.54-1.78,1.21-3.54,2-5.26,.79-1.73,1.63-3.28,2.51-4.64,.88-1.37,1.79-2.57,2.73-3.62,.97-1.12,2.03-1.94,3.19-2.48,1.15-.54,2.34-.81,3.56-.81Z"/><path class="cls-1" d="M364.52,249.12c1.26-.36,2.25-.65,2.97-.86,.72-.22,1.44-.32,2.16-.32,2.05,0,3.58,1.1,4.59,3.29,1.01,2.12,1.51,5.27,1.51,9.45s-.76,7.99-2.27,11.56c-1.51,3.49-3.11,5.87-4.81,7.13-1.73,1.26-3.08,1.89-4.05,1.89s-1.46-.47-1.46-1.4c0-.32,.04-.61,.11-.86,.07-.25,.12-.48,.13-.68,.02-.2,0-.38-.03-.54-.04-.16-.16-.32-.38-.46-2.45-1.37-4.07-2.7-4.86-4-.76-1.37-1.13-2.33-1.13-2.89s.23-.84,.7-.84c.43,0,1.12,.43,2.05,1.3,.94,.9,2.11,1.64,3.51,2.21,1.4,.58,2.34,.86,2.81,.86s.86-.16,1.19-.49c.32-.36,.8-1.23,1.43-2.62,.63-1.39,1.14-3.12,1.54-5.21,.43-2.09,.65-4,.65-5.72s-.13-3.22-.38-4.48c-.22-1.26-.49-2.12-.81-2.59-.32-.47-.79-.7-1.4-.7-1.22,0-2.9,.45-5.02,1.35-1.33,3.28-2.65,6.38-3.94,9.31-1.3,2.93-2.59,5.72-3.89,8.34-2.52,5.15-4.14,8.19-4.86,9.13-.72,.94-1.39,1.4-2,1.4s-1.1-.65-1.46-1.94c-.32-1.22-.49-2.45-.49-3.67,0-.43,.05-.79,.16-1.08,.11-.29,.43-.59,.97-.92,2.34-1.3,5.63-7.52,9.88-18.68-3.64,1.4-5.85,2.11-6.64,2.11-.9,0-1.89-.65-2.97-1.94-1.04-1.37-1.57-2.3-1.57-2.81s.15-.78,.46-.84c.3-.05,.73,0,1.27,.13,.54,.14,1.15,.32,1.84,.51,.68,.2,1.4,.3,2.16,.3,1.87,0,4.23-.72,7.07-2.16,1.19-4.21,1.78-6.57,1.78-7.07,0-.9-.29-1.75-.86-2.54-.58-.83-.86-1.48-.86-1.94,0-.72,.45-1.08,1.35-1.08,.61,0,1.44,.29,2.48,.86,2.23,1.19,3.67,2.12,4.32,2.81,.32,.32,.49,.68,.49,1.08s-.23,.85-.7,1.35c-.47,.47-.96,1.19-1.49,2.16-.52,.97-.95,1.91-1.27,2.81Zm12.47-.54c2.2,0,4.15,.48,5.86,1.43,1.71,.96,3.32,2.26,4.83,3.92,1.51,1.62,2.66,3.42,3.43,5.4,.77,1.98,1.16,4,1.16,6.05,.04,.61-.06,1.15-.3,1.62s-.55,.8-.94,1c-.4,.2-.83,.23-1.3,.08-.47-.14-.9-.54-1.3-1.19-.22-.36-.47-.54-.76-.54s-.81,.2-1.57,.59c-1.91,1.04-3.67,1.57-5.29,1.57-.83,0-1.52-.1-2.08-.3-.56-.2-.84-.46-.84-.78,0-.61,.72-1.13,2.16-1.57,1.44-.43,2.79-.97,4.05-1.62,.65-.32,1.15-.6,1.51-.84,.36-.23,.64-.42,.84-.57,.2-.14,.32-.28,.38-.41,.05-.12,.08-.24,.08-.35,0-.47-.47-1.55-1.4-3.24-.94-1.73-2.16-3.28-3.67-4.64-1.51-1.4-2.99-2.32-4.43-2.75-1.84-.47-2.75-1.06-2.75-1.78s.77-1.08,2.32-1.08Zm7.78-6.21c1.37,0,2.5,.11,3.4,.32,.9,.22,1.61,.53,2.13,.94,.52,.42,.89,.92,1.11,1.51,.22,.59,.32,1.27,.32,2.02s-.17,1.3-.51,1.73c-.34,.43-.8,.65-1.38,.65-.5,0-1.15-.36-1.94-1.08-.72-.72-1.62-1.4-2.7-2.05-1.08-.65-2.03-1.06-2.86-1.24-1.62-.36-2.43-.86-2.43-1.51,0-.86,1.62-1.3,4.86-1.3Zm4.43-5.72c1.8,0,3.37,.4,4.7,1.19,1.4,.76,2.11,1.89,2.11,3.4,0,.72-.19,1.31-.57,1.78-.38,.47-.87,.7-1.48,.7-.79,0-1.51-.38-2.16-1.13-.65-.79-1.4-1.48-2.27-2.05-.86-.58-1.69-.94-2.48-1.08-1.55-.36-2.32-.81-2.32-1.35,0-.22,.13-.41,.41-.59,.27-.18,.62-.33,1.05-.46,.43-.12,.91-.22,1.43-.3,.52-.07,1.05-.11,1.59-.11Z"/><path class="cls-1" d="M427.75,256.25c4-1.19,7.19-2.08,9.58-2.67,2.39-.59,3.86-.89,4.4-.89,1.04,0,2.18,.5,3.4,1.51,1.26,.97,1.89,1.75,1.89,2.32,0,.83-1.24,1.24-3.73,1.24-2.27,0-4.68,.21-7.24,.62-2.56,.41-5.13,1.04-7.72,1.86-2.59,.83-4.87,1.64-6.83,2.43-1.96,.79-3.46,1.57-4.51,2.32-1.04,.72-1.83,1.68-2.35,2.89-.52,1.21-.78,2.26-.78,3.16,0,1.15,.32,2.23,.97,3.24,.72,1.01,2.2,1.8,4.43,2.38,2.27,.54,4.68,.81,7.24,.81,2.09,0,4.34-.16,6.75-.49,2.41-.32,4.64-.79,6.7-1.4,1.12-.36,2.02-.54,2.7-.54,.5,0,1.44,.52,2.81,1.57,1.33,1.01,2,1.8,2,2.38s-.38,.99-1.13,1.24c-.68,.32-3.06,.68-7.13,1.08-2.02,.18-4.03,.32-6.05,.43-2.02,.11-3.71,.16-5.08,.16-2.92,0-5.52-.2-7.8-.59-2.29-.4-4.23-1.02-5.83-1.86-1.6-.85-2.83-1.94-3.67-3.27-.85-1.33-1.27-2.92-1.27-4.75,0-1.55,.27-2.99,.81-4.32,.54-1.33,1.39-2.57,2.54-3.7s2.62-2.19,4.4-3.16,3.93-1.89,6.45-2.75c-.4-1.12-.59-3.1-.59-5.94l.16-8.26c0-1.8-.63-3.33-1.89-4.59-.72-.72-1.08-1.3-1.08-1.73,0-.54,.34-.81,1.03-.81s1.89,.31,3.62,.92c1.26,.5,2.21,.89,2.86,1.16,.65,.27,1.07,.57,1.27,.89,.2,.32,.22,.74,.08,1.24-.14,.5-.38,1.24-.7,2.21-.61,1.62-.92,4.79-.92,9.5,0,.79,.02,1.53,.05,2.21,.04,.68,.09,1.33,.16,1.94Z"/><path class="cls-1" d="M496.98,262.35c0,1.26-.24,2.71-.7,4.35-.47,1.64-1.01,3.21-1.62,4.72-.76,1.66-1.65,3.13-2.67,4.43-1.03,1.3-2.15,2.39-3.38,3.29v-.05c-1.19,.86-2.53,1.63-4.02,2.29-1.49,.67-2.92,1.18-4.29,1.54-1.3,.29-2.54,.53-3.73,.73-1.19,.2-2.14,.3-2.86,.3-1.44,0-2.32-.2-2.65-.59-.29-.36-.43-.74-.43-1.13s.14-.76,.43-1.08c.29-.32,.67-.49,1.13-.49,.36,0,.97-.09,1.84-.27,.86-.18,2.02-.45,3.46-.81,1.4-.36,2.74-.86,4.02-1.49,1.28-.63,2.49-1.4,3.65-2.29,1.15-.9,2.14-1.94,2.97-3.13,.83-1.19,1.49-2.48,2-3.89,1.08-2.92,1.62-5.51,1.62-7.78s-.67-4.13-2-5.59c-1.33-1.46-3.19-2.19-5.56-2.19-1.51,0-3.39,.67-5.64,2-2.25,1.33-5.12,3.29-8.61,5.89-1.04,.72-1.93,1.08-2.65,1.08-.79,0-1.6-.31-2.43-.92-.9-.65-1.35-1.51-1.35-2.59,0-.47,.15-.99,.46-1.57,.31-.58,.71-1.15,1.21-1.73,1.12-1.3,2-1.94,2.65-1.94,.4,0,.68,.08,.86,.24,.18,.16,.3,.36,.35,.59s.04,.5-.03,.81c-.07,.31-.16,.59-.27,.84,.47-.47,1.15-.98,2.05-1.54,.9-.56,1.87-1.1,2.92-1.62,1.04-.52,2.11-1.01,3.21-1.46,1.1-.45,2.1-.8,3-1.05,1.15-.29,2.21-.5,3.19-.65,.97-.14,1.8-.22,2.48-.22,3.46,0,6.21,1.28,8.26,3.83,2.09,2.56,3.13,5.6,3.13,9.13Zm-11.18-24.25c.47,0,.93,.11,1.38,.32,.45,.22,.85,.49,1.19,.81,.34,.32,.61,.68,.81,1.08,.2,.4,.3,.77,.3,1.13,0,1.37-1.01,2.25-3.02,2.65-.5,.07-1.04,.2-1.59,.38-.56,.18-1.09,.38-1.59,.59-.54,.25-1.37,.67-2.48,1.24-1.12,.58-2.54,1.33-4.27,2.27-.5,.25-.97,.34-1.4,.27-.43-.07-.78-.23-1.05-.49-.27-.25-.42-.57-.46-.95s.09-.73,.38-1.05c.14-.11,.45-.31,.92-.59,.47-.29,1.01-.63,1.62-1.03,.54-.36,1-.65,1.38-.86,.38-.22,.73-.41,1.05-.59-1.19-.04-2.29-.21-3.32-.51s-1.99-.71-2.89-1.21c-1.87-1.12-2.81-2.2-2.81-3.24,0-1.19,.49-1.78,1.46-1.78,.25,0,.5,.06,.73,.19,.23,.13,.49,.3,.78,.51,1.4,1.19,3.54,1.78,6.43,1.78,.97,0,1.86-.07,2.67-.22,.81-.14,1.52-.29,2.13-.43,.79-.18,1.35-.27,1.67-.27Z"/><path class="cls-1" d="M548.98,271.96c1.01,0,2.12,.56,3.35,1.67,1.22,1.08,1.84,1.87,1.84,2.38,0,.97-2.11,1.8-6.32,2.48-4.25,.72-8.12,1.08-11.61,1.08-6.62,0-11.38-.95-14.26-2.86-2.88-1.91-4.32-4.21-4.32-6.91,0-1.62,.63-3.54,1.89-5.78,1.3-2.23,2.41-3.35,3.35-3.35,.29,0,.57,.1,.84,.3,.27,.2,.47,.44,.59,.73,.13,.29,.18,.61,.16,.97-.02,.36-.17,.72-.46,1.08-1.22,2.09-1.84,3.85-1.84,5.29,0,2.05,1.17,3.51,3.51,4.37,2.34,.86,5.72,1.3,10.15,1.3,5,0,8.57-.61,10.69-1.84,.94-.61,1.75-.92,2.43-.92Zm-7.51-29.92c.79,0,1.93,.68,3.4,2.05,1.48,1.37,2.21,2.34,2.21,2.92,0,.72-.83,1.21-2.48,1.46-1.62,.22-3.38,.81-5.27,1.78-1.89,.97-3.59,2.12-5.1,3.46-.4,.36-.76,.57-1.08,.62s-.61,.02-.86-.11c-.25-.12-.46-.3-.62-.54-.16-.23-.26-.48-.3-.73,0-1.04,1.55-2.65,4.64-4.81,.22-.14,.32-.27,.32-.38s-.11-.16-.32-.16c-.79,0-2.97,.43-6.53,1.3-1.33,.29-2.27,.43-2.81,.43-1.4,0-2.43-.83-3.08-2.48-.61-1.73-.92-2.95-.92-3.67,0-.86,.28-1.3,.84-1.3s1.14,.34,1.75,1.03c.65,.68,1.22,1.1,1.73,1.24,.5,.14,1.15,.22,1.94,.22,.4,0,.95-.02,1.67-.05,.72-.04,1.6-.09,2.65-.16s1.91-.16,2.59-.27c.68-.11,1.22-.2,1.62-.27,.36-.11,.73-.24,1.11-.41s.75-.33,1.11-.51c.36-.18,.69-.33,1-.46,.3-.13,.57-.19,.78-.19Zm5.08-1.3c.65,0,1.73,.22,3.24,.65,1.51,.43,2.66,1.12,3.46,2.05,.65,.65,1.01,1.28,1.08,1.89,.07,.61,0,1.15-.24,1.62-.23,.47-.59,.85-1.08,1.13-.49,.29-.96,.43-1.43,.43-.94,0-1.58-.56-1.94-1.67-.14-.58-.48-1.23-1-1.97-.52-.74-1.2-1.39-2.02-1.97-.79-.61-1.19-1.12-1.19-1.54s.38-.62,1.13-.62Zm6.37-3.19c.68,0,1.73,.22,3.13,.65,1.4,.43,2.47,1.12,3.19,2.05,.58,.72,.92,1.4,1.03,2.03,.11,.63,.05,1.19-.16,1.67-.22,.49-.53,.86-.95,1.13-.41,.27-.86,.41-1.32,.41-.94,0-1.58-.5-1.94-1.51-.79-2.02-1.71-3.33-2.75-3.94-1.04-.61-1.57-1.18-1.57-1.7s.45-.78,1.35-.78Z"/><path class="cls-1" d="M593.8,253.01c.72,1.12,1.83,2.78,3.32,5,1.49,2.21,3.39,4.96,5.7,8.24,.47,.68,.7,1.31,.7,1.89s-.27,1.37-.81,2.38c-.54,.97-1.08,1.46-1.62,1.46s-1.37-.52-2.48-1.57c-1.08-1.04-2.79-1.84-5.13-2.4-2.34-.56-5.09-.84-8.26-.84-1.51,0-2.81,.15-3.89,.46s-1.96,.71-2.65,1.21c-.68,.5-1.19,1.09-1.51,1.75-.32,.67-.49,1.38-.49,2.13,0,1.87,1.19,3.24,3.56,4.1,2.41,.86,4.64,1.29,6.7,1.27,2.05-.02,3.62-.35,4.7-1,1.01-.65,1.87-.97,2.59-.97,.68,0,1.82,.49,3.4,1.46s2.38,1.76,2.38,2.38c0,.76-1.48,1.4-4.43,1.94-2.77,.58-5.33,.86-7.67,.86-4.5,0-8.28-.94-11.34-2.81-3.1-1.91-4.64-4.36-4.64-7.34,0-2.66,1.28-4.91,3.83-6.75,2.52-1.87,5.99-2.81,10.42-2.81,3.46,0,6.43,.54,8.91,1.62,.29,.11,.5,.13,.62,.05s.1-.25-.08-.54c-.94-1.26-1.92-2.73-2.94-4.4-1.03-1.67-2.12-3.48-3.27-5.43-5.26,1.51-9.36,2.27-12.31,2.27-2.7,0-4.57-.85-5.62-2.54-1.01-1.66-1.51-2.95-1.51-3.89s.29-1.3,.86-1.19c.58,.11,1.31,.63,2.21,1.57,.58,.61,1.34,1.07,2.29,1.38,.95,.31,2.04,.47,3.27,.49,1.22,.02,2.56-.11,4-.38,1.44-.27,2.92-.68,4.43-1.22-.76-1.58-1.55-3.06-2.38-4.43-.4-.72-.74-1.28-1.03-1.67-.29-.4-.5-.67-.65-.81-.4-.32-.68-.5-.86-.54-.18-.04-.42-.06-.73-.08-.31-.02-.69-.03-1.16-.03-.94,0-1.6-.13-2-.38-.4-.25-.59-.56-.59-.92,0-.83,.94-1.57,2.81-2.21,1.8-.68,3.19-1.03,4.16-1.03,.9,0,1.6,.25,2.11,.76,.47,.5,.9,1.48,1.3,2.92,.36,1.44,1.51,3.8,3.46,7.07,.61-.32,1.27-.72,1.97-1.19s1.43-1.01,2.19-1.62c.43-.36,.84-.64,1.22-.84,.38-.2,.77-.32,1.19-.38,.41-.05,.87-.04,1.38,.05,.5,.09,1.12,.24,1.84,.46,1.48,.43,2.21,.99,2.21,1.67,0,.32-.23,.68-.7,1.08-.47,.4-1.13,.82-2,1.27-.86,.45-1.89,.93-3.08,1.43-1.19,.5-2.48,1.03-3.89,1.57Zm3.73-14.96c.94,0,2.05,.23,3.35,.7,1.4,.47,2.45,1.08,3.13,1.84,.58,.61,.91,1.18,1,1.7,.09,.52,.04,.98-.16,1.38-.2,.4-.5,.71-.89,.95-.4,.23-.81,.35-1.24,.35-.83,0-1.37-.34-1.62-1.03-.61-1.37-1.55-2.45-2.81-3.24-1.26-.86-1.89-1.52-1.89-1.97s.38-.67,1.13-.67Zm6.26-3.08c2.63,0,4.5,.5,5.62,1.51,1.15,1.04,1.73,1.96,1.73,2.75,0,.43-.18,.86-.54,1.3-.36,.43-.77,.77-1.24,1s-.95,.3-1.43,.19c-.49-.11-.86-.49-1.11-1.13-.36-.83-.81-1.51-1.35-2.05-.29-.25-.62-.49-1-.73-.38-.23-.82-.44-1.32-.62-.97-.36-1.46-.81-1.46-1.35,0-.58,.7-.86,2.11-.86Z"/><path class="cls-1" d="M639.54,262.46c0,.54-.25,1.22-.76,2.05-.29,.47-.64,1.17-1.05,2.11-.42,.94-.91,2.09-1.49,3.46-.61,1.51-1.08,2.66-1.4,3.46s-.52,1.28-.59,1.46c0,.07,0,.13-.03,.16-.02,.04-.03,.07-.03,.11-.04,.11-.05,.27-.05,.49,0,.04,.02,.16,.05,.38,.04,.22,.07,.38,.11,.49v-.05c.11,.32,.16,.74,.16,1.24,0,.54-.21,1.02-.62,1.43s-.94,.62-1.59,.62c-1.37,0-2.88-.79-4.54-2.38-1.51-1.51-2.86-3.98-4.05-7.4-1.08-3.35-1.62-7.27-1.62-11.77,0-1.51,.06-2.96,.19-4.35,.12-1.39,.31-2.8,.57-4.24,.11-.58,.16-1.08,.16-1.51,0-1.12-.23-1.96-.7-2.54-.61-.79-.92-1.4-.92-1.84,0-.9,.5-1.35,1.51-1.35,.79,0,1.89,.49,3.29,1.46,1.48,1.04,2.21,2.02,2.21,2.92s-.25,1.76-.76,2.7v-.05c-.43,.9-.77,2.19-1,3.86-.24,1.67-.35,3.54-.35,5.59,0,4.43,.49,7.99,1.46,10.69,.94,2.56,1.69,3.83,2.27,3.83,.22,0,.45-.23,.7-.7v.05c.36-.72,.81-1.62,1.35-2.7s1.17-2.3,1.89-3.67c.68-1.3,1.25-2.37,1.7-3.21s.71-1.3,.78-1.38v.05c.43-.58,1.01-.86,1.73-.86,.94,0,1.4,.47,1.4,1.4Zm24.35,1.84c0,.58-.02,1.15-.05,1.73-.04,.58-.09,1.12-.16,1.62-.14,1.12-.28,1.94-.4,2.46-.13,.52-.48,.98-1.05,1.38v-.05c-.61,.4-1.19,.59-1.73,.59-.32,0-.64-.07-.95-.22-.31-.14-.57-.4-.78-.76-.25-.4-.37-.85-.35-1.38,.02-.52,.06-1.14,.13-1.86,.04-.43,.07-.9,.11-1.4,.04-.5,.05-1.06,.05-1.67,0-4.32-.72-7.99-2.16-11.02-1.4-2.84-3.6-4.62-6.59-5.35-1.3-.32-1.94-.85-1.94-1.57,0-1.33,.56-2,1.67-2,1.26,0,3.11,.59,5.56,1.78,2.41,1.26,4.46,3.53,6.16,6.8,.79,1.62,1.4,3.36,1.84,5.21,.43,1.85,.65,3.75,.65,5.7Z"/><path class="cls-1" d="M699.7,246.15c.94-.14,1.77-.28,2.51-.41,.74-.13,1.45-.28,2.13-.46,.68-.18,1.39-.4,2.11-.65,.72-.25,1.53-.58,2.43-.97,.72-.36,1.55-.54,2.48-.54,.79,0,1.78,.43,2.97,1.3,1.12,.86,1.67,1.49,1.67,1.89s-.41,.74-1.24,1.03c-.4,.14-.91,.29-1.54,.43s-1.5,.32-2.62,.51c-1.12,.2-2.56,.42-4.32,.67-1.76,.25-3.98,.56-6.64,.92-.07,1.19-.11,2.37-.11,3.54s.02,2.35,.05,3.54c1.73-.29,3.14-.61,4.24-.97,1.1-.36,2.06-.85,2.89-1.46s1.55-.92,2.16-.92c.76,0,1.75,.34,2.97,1.03,1.33,.68,2,1.26,2,1.73s-.34,.88-1.03,1.24c-.32,.18-.95,.42-1.86,.7-.92,.29-2.13,.63-3.65,1.03-.76,.18-1.44,.34-2.05,.49s-1.21,.27-1.78,.38c-.58,.11-1.17,.22-1.78,.32-.61,.11-1.3,.22-2.05,.32,.04,.76,.09,1.94,.16,3.54,.07,1.6,.18,3.27,.32,5,4.28,1.33,7.57,2.76,9.86,4.29,2.29,1.53,3.43,3.41,3.43,5.64,0,1.19-.41,1.78-1.21,1.78s-1.79-.56-2.94-1.67c-1.15-1.15-2.53-2.24-4.13-3.27-1.6-1.03-3.21-1.83-4.83-2.4-.22,2.48-1.15,4.39-2.81,5.72-1.66,1.33-3.96,2-6.91,2s-5.22-.58-7.13-1.73c-1.87-1.19-2.81-2.7-2.81-4.54,0-.9,.25-1.77,.76-2.62,.5-.85,1.23-1.58,2.19-2.21,.95-.63,2.12-1.13,3.51-1.51s2.96-.57,4.73-.57c.61,0,1.22,.03,1.84,.08,.61,.05,1.22,.12,1.84,.19l-.32-7.4c-1.58,.14-2.89,.26-3.92,.35-1.03,.09-2.15,.14-3.38,.14-2.41,0-4.23-.14-5.45-.41-1.22-.27-2.09-.69-2.59-1.27-.5-.58-.76-1.6-.76-3.08s.3-2.27,.92-2.27,1.28,.61,2,1.84c.29,.4,.66,.7,1.11,.92s1.14,.36,2.08,.43c.94,.07,2.19,.06,3.75-.03,1.57-.09,3.61-.24,6.13-.46l-.05-6.91c-3.06,.25-5.75,.42-8.07,.51-2.32,.09-4.35,.14-6.08,.14-1.62,0-2.81-.2-3.56-.59-.76-.4-1.37-1.13-1.84-2.21-.9-2.2-.9-3.29,0-3.29,.47,0,1.06,.27,1.78,.81,.36,.25,.71,.47,1.05,.65,.34,.18,.69,.31,1.05,.38,.4,.07,.95,.13,1.67,.19,.72,.05,1.6,.08,2.65,.08,.54,0,1.12,0,1.75-.03,.63-.02,1.39-.04,2.27-.08,.88-.04,1.92-.09,3.11-.16,1.19-.07,2.63-.16,4.32-.27l.05-3.78c0-1.19-.16-2.11-.49-2.75-.14-.29-.32-.59-.54-.92s-.5-.65-.86-.97c-.65-.58-.97-1.12-.97-1.62,0-.79,.5-1.19,1.51-1.19,.68,0,2.11,.43,4.27,1.3,2.2,.79,3.29,1.67,3.29,2.65,0,.32-.2,.79-.59,1.4-.4,.54-.66,1.35-.78,2.43-.13,1.08-.23,2.11-.3,3.08Zm-4.21,26.24c-.97-.25-2.16-.38-3.56-.38-1.76,0-3.17,.21-4.21,.62-1.04,.42-1.75,.9-2.13,1.46-.38,.56-.44,1.11-.19,1.65s.77,.94,1.57,1.19c1.26,.4,2.61,.59,4.05,.59,1.62,0,2.79-.37,3.51-1.11,.72-.74,1.08-1.74,1.08-3,0-.14,0-.31-.03-.49-.02-.18-.05-.36-.08-.54Z"/><path class="cls-1" d="M768,263.1c0,2.56-.63,5.4-1.89,8.53-1.22,2.95-3.35,5.4-6.37,7.34-2.99,1.91-6.55,2.86-10.69,2.86-4.57,0-7.88-1.04-9.91-3.1-2.03-2.07-3.05-5.07-3.05-8.99,0-2.38,.11-6.14,.32-11.29,.04-1.3,.07-2.6,.11-3.92,.04-1.31,.08-2.53,.13-3.64,.05-1.12,.1-2.06,.13-2.83,.04-.77,.07-1.27,.11-1.49,.11-.79,.16-1.4,.16-1.84,0-1.87-.68-3.49-2.05-4.86-.61-.61-.92-1.15-.92-1.62,0-.58,.38-.86,1.13-.86,.68,0,1.69,.25,3.02,.76,.68,.25,1.27,.5,1.75,.73,.49,.24,.87,.44,1.16,.62,.68,.4,1.22,.77,1.62,1.13,.4,.32,.59,.79,.59,1.4,0,.72-.45,2.27-1.35,4.64-.22,.61-.41,1.58-.59,2.92-.18,1.33-.33,2.86-.46,4.59-.13,1.73-.23,3.59-.3,5.59s-.11,3.97-.11,5.91c0,3.71,.2,6.3,.59,7.78,.4,1.3,1.23,2.23,2.51,2.81,1.28,.58,3.21,.86,5.81,.86,3.92,0,7.16-1.1,9.72-3.29,2.56-2.2,4.54-5.67,5.94-10.42,.58-1.94,1.22-2.92,1.94-2.92,.61,0,.92,.86,.92,2.59Z"/><path class="cls-1" d="M797.22,247.93c.58-.04,1.82-.63,3.73-1.78,.36-.25,.86-.38,1.51-.38,.54,0,1.44,.32,2.7,.97,1.22,.58,1.84,1.15,1.84,1.73,0,.72-1.21,1.46-3.62,2.21-1.19,.4-2.38,.74-3.59,1.03-1.21,.29-2.42,.52-3.65,.7-1.22,4.03-2.35,7.81-3.38,11.34-1.03,3.53-1.97,6.46-2.83,8.8-1.69,4.61-2.77,7.2-3.24,7.78-.5,.61-.97,.92-1.4,.92-.68,0-1.28-.68-1.78-2.05-.43-1.33-.65-2.35-.65-3.05s.32-1.45,.97-2.24c.65-.72,1.25-1.63,1.81-2.73,.56-1.1,1.12-2.46,1.7-4.1,.58-1.64,1.18-3.59,1.81-5.86,.63-2.27,1.32-4.95,2.08-8.05-1.98,.25-3.55,.38-4.7,.38s-2.03-.18-2.65-.54c-.58-.36-1.04-1.04-1.4-2.05-.32-1.01-.49-1.82-.49-2.43,0-.83,.24-1.24,.73-1.24s1.04,.29,1.65,.86c.54,.54,1.06,.9,1.57,1.08,.61,.18,1.22,.27,1.84,.27,.76,0,2.3-.22,4.64-.65,.22-.65,.4-1.29,.54-1.92,.14-.63,.26-1.22,.35-1.78,.09-.56,.16-1.06,.22-1.51,.05-.45,.08-.78,.08-1,0-.94-.23-1.8-.7-2.59-.43-.83-.65-1.57-.65-2.21s.38-.97,1.13-.97,1.98,.65,3.78,1.94c1.8,1.26,2.7,2.2,2.7,2.81,0,.5-.31,1.12-.92,1.84-.14,.14-.29,.39-.43,.73-.14,.34-.29,.72-.43,1.13-.14,.41-.29,.86-.43,1.32-.14,.47-.29,.9-.43,1.3Zm23.17,27.11c.72,0,1.64,.5,2.75,1.51,1.12,1.01,1.67,1.75,1.67,2.21,0,.72-1.19,1.26-3.56,1.62-1.15,.18-2.27,.32-3.35,.41s-2.11,.13-3.08,.13c-4.03,0-7.42-.63-10.15-1.89-2.59-1.22-3.89-3.02-3.89-5.4,0-1.58,.52-2.9,1.57-3.94s1.94-1.62,2.59-1.62c.43,0,.65,.27,.65,.81,0,.25-.06,.54-.19,.86-.13,.32-.27,.67-.43,1.03-.16,.36-.31,.7-.43,1.03-.13,.32-.19,.61-.19,.86,0,1.26,.9,2.21,2.7,2.86,1.84,.61,3.73,.92,5.7,.92s3.75-.29,5.37-.86c.94-.36,1.69-.54,2.27-.54Zm3.67-22.41c0,.65-.65,1.08-1.94,1.3-.61,.07-1.21,.2-1.78,.38-.58,.18-1.15,.42-1.73,.7-.5,.29-1.36,.83-2.57,1.62-1.21,.79-2.75,1.87-4.62,3.24-.94,.65-1.66,.97-2.16,.97-.43,0-.65-.25-.65-.76,0-.54,.65-1.51,1.94-2.92,.61-.68,1.29-1.34,2.03-1.97,.74-.63,1.52-1.23,2.35-1.81,.18-.14,.27-.27,.27-.38s-.18-.16-.54-.16c-.18,0-.49,.03-.92,.08-.43,.05-1.01,.12-1.73,.19-1.44,.18-2.53,.35-3.27,.51-.74,.16-1.32,.24-1.75,.24-1.04,0-1.57-.29-1.57-.86,0-.61,.69-1.3,2.08-2.08,1.39-.77,3.27-1.36,5.64-1.75,1.15-.18,2.17-.32,3.05-.43,.88-.11,1.61-.16,2.19-.16,1.15,0,2.38,.54,3.67,1.62,1.33,1.01,2,1.82,2,2.43Z"/><path class="cls-1" d="M842.96,267.37c1.01,0,1.93,.17,2.75,.51,.83,.34,1.55,.82,2.16,1.43,.61,.61,1.09,1.34,1.43,2.19,.34,.85,.51,1.75,.51,2.73s-.17,1.88-.51,2.73c-.34,.85-.82,1.57-1.43,2.19-.61,.61-1.33,1.09-2.16,1.43-.83,.34-1.75,.51-2.75,.51s-1.93-.17-2.75-.51c-.83-.34-1.55-.82-2.16-1.43-.61-.61-1.09-1.33-1.43-2.16-.34-.83-.51-1.73-.51-2.7,0-1.94,.67-3.58,2-4.91,1.33-1.33,2.95-2,4.86-2Zm0,10.04c.94,0,1.7-.31,2.29-.92,.59-.61,.89-1.37,.89-2.27s-.3-1.66-.89-2.27c-.59-.61-1.34-.92-2.24-.92s-1.67,.32-2.29,.95-.94,1.4-.94,2.29,.3,1.6,.92,2.21c.61,.61,1.37,.92,2.27,.92Z"/></svg>