<?xml version="1.0" encoding="UTF-8"?><svg id="_イヤー_4" xmlns="http://www.w3.org/2000/svg" viewBox="0 0 930.99 507.64"><defs><style>.cls-1{fill:#fff;}</style></defs><path class="cls-1" d="M249.91,229.64c.38,0,.7,.07,.94,.22,.24,.14,.41,.31,.52,.5,.11,.19,.15,.4,.13,.61-.02,.22-.12,.41-.29,.58-.24,.24-.94,.48-2.09,.72-1.15,.26-2.45,.46-3.89,.58-1.44,.12-2.88,.18-4.32,.18-5.09,0-8.45-.56-10.08-1.69-1.63-1.15-2.45-2.52-2.45-4.1,0-.96,.36-2.05,1.08-3.28,.74-1.25,1.26-1.87,1.55-1.87,.22,0,.32,.1,.32,.29,0,.05-.02,.12-.07,.22-1.01,1.44-1.51,2.82-1.51,4.14,0,1.25,.53,2.33,1.58,3.24,1.06,.91,3.32,1.37,6.8,1.37,1.08,0,2.14-.04,3.19-.11,1.04-.07,2.08-.17,3.11-.29,2.04-.24,3.35-.52,3.92-.83,.53-.31,1.04-.47,1.55-.47Zm-5.87-19.62c.55,0,1.18,.2,1.87,.61,.7,.41,1.04,.83,1.04,1.26,0,.53-.5,.79-1.51,.79-.53,0-1.62,.41-3.28,1.22-1.63,.77-2.92,1.52-3.85,2.27-.12,.1-.25,.14-.38,.14s-.2-.06-.2-.18c0-.1,.02-.22,.07-.36,.02-.07,.15-.2,.38-.4,.23-.19,.52-.43,.88-.7s.77-.59,1.22-.94c.46-.35,.94-.7,1.44-1.06,.19-.12,.29-.25,.29-.4s-.17-.22-.5-.22c-.17,0-.5,.02-1.01,.07-.5,.05-1.18,.12-2.02,.22-.84,.1-1.52,.17-2.03,.23-.52,.06-.87,.11-1.06,.16-.34,.07-.66,.11-.97,.11-.84,0-1.57-.35-2.2-1.04-.6-.7-.9-1.16-.9-1.4s.09-.36,.27-.36,.41,.13,.7,.4c.34,.29,.65,.48,.94,.58,.36,.12,1.09,.18,2.2,.18,.58,0,1.24-.02,2-.07,.76-.05,1.6-.12,2.54-.22,1.85-.22,2.9-.42,3.17-.61,.26-.19,.56-.29,.9-.29Z"/><path class="cls-1" d="M273.89,211.39c.41,.77,.61,1.86,.61,3.28,0,2.45-.54,5.23-1.62,8.35-1.08,3.14-2.41,5.62-4,7.42-1.58,1.8-3.07,2.7-4.46,2.7s-2.6-.84-3.64-2.52c-1.03-1.68-1.55-3.53-1.55-5.54,0-2.45,.68-4.88,2.05-7.31,.7-1.22,1.49-2.3,2.39-3.24s1.93-1.74,3.08-2.41c2.28-1.34,4.72-2.02,7.31-2.02s4.98,.52,7.02,1.55c2.06,1.01,3.72,2.5,4.97,4.46,1.25,1.97,1.87,4.1,1.87,6.41s-.78,4.38-2.34,6.37c-1.56,1.99-3.6,3.43-6.12,4.32-2.54,.91-4.87,1.37-6.98,1.37-.29,0-.43-.13-.43-.4s.23-.43,.68-.5c4.22-.53,7.5-1.92,9.83-4.18,2.3-2.26,3.46-4.79,3.46-7.6,0-1.99-.55-3.83-1.66-5.51-1.1-1.7-2.6-2.96-4.48-3.78-1.88-.82-3.88-1.22-5.99-1.22Zm-.65,0c-3.77,.14-6.76,1.54-8.96,4.18-2.18,2.62-3.28,5.72-3.28,9.32,0,1.01,.07,1.94,.22,2.79,.14,.85,.36,1.58,.65,2.18,.29,.6,.64,1.07,1.06,1.4,.42,.34,.91,.5,1.46,.5,1.39,0,2.75-1.06,4.07-3.17,1.39-2.16,2.53-4.82,3.42-7.99,.91-3.24,1.37-6.31,1.37-9.22Z"/><path class="cls-1" d="M302.98,212.51c2.5,.17,6.59-.46,12.28-1.87,1.01-.26,1.88-.4,2.63-.4,.48,0,.92,.13,1.33,.4,.41,.26,.61,.46,.61,.58,0,.24-.58,.44-1.74,.61-1.17,.17-3.21,.52-6.12,1.04-2.92,.53-4.86,.79-5.83,.79s-1.72-.05-2.25-.14c.05,1.75-.14,4.01-.56,6.77-.42,2.76-1.06,5.21-1.91,7.34-.85,2.14-1.74,3.71-2.66,4.73-.92,1.02-1.77,1.87-2.54,2.54-.77,.67-1.27,1.01-1.51,1.01-.1,0-.14-.04-.14-.11,0-.26,.32-.78,.97-1.55,2.28-2.59,3.89-5.79,4.84-9.59,.95-3.8,1.42-7.05,1.42-9.74,0-.65-.05-1.13-.14-1.46-.1-.32-.14-.62-.14-.9s.13-.41,.38-.41,.62,.12,1.1,.36Zm10.04,18.04c1.78,1.25,3.53,2.2,5.26,2.86,1.73,.66,4.36,1.22,7.88,1.67,.77,.1,1.15,.28,1.15,.54,0,.14-.14,.28-.41,.41s-1.15,.33-2.61,.59c-1.46,.26-2.77,.4-3.91,.4s-2.11-.34-2.9-1.01l-5.36-4.36c-1.22,1.13-2.8,2.07-4.73,2.83-1.93,.76-3.59,1.13-4.99,1.13-.38,0-.73-.03-1.03-.09-.3-.06-.45-.14-.45-.25s.28-.22,.83-.34c4.06-1.01,7.06-2.45,9-4.32-1.87-1.37-3.29-2.23-4.25-2.59-.48-.19-.72-.37-.72-.54s.11-.25,.32-.25,.63,.04,1.24,.13c.61,.08,1.2,.27,1.76,.56,.56,.29,1.42,.85,2.57,1.69,.43-.36,.91-1.07,1.42-2.14,.52-1.07,.77-1.68,.77-1.84s-.1-.23-.31-.23-.91,.15-2.12,.45c-1.21,.3-2.15,.45-2.81,.45s-1.17-.08-1.53-.25-.54-.31-.54-.43,.28-.2,.83-.25c1.37-.1,2.72-.32,4.07-.67,1.34-.35,2.21-.63,2.61-.85,.4-.22,.71-.32,.95-.32s.73,.22,1.48,.67c.74,.44,1.12,.77,1.12,.99s-.19,.43-.56,.65c-.37,.22-.64,.43-.81,.63-.17,.2-.53,.7-1.08,1.49-.55,.79-1.27,1.66-2.16,2.59Zm3.1-13.64l1.8-.32c.77-.22,1.41-.32,1.94-.32s1,.14,1.42,.41,.63,.5,.63,.67-.14,.3-.41,.4c-.28,.1-.94,.14-1.98,.14s-2.32,.07-3.83,.22c-.34,1.27-.5,2.02-.5,2.23s.16,.44,.49,.68c.32,.24,.48,.44,.48,.61,0,.26-.35,.44-1.04,.52-.7,.08-2.58,.41-5.65,.99-.14,.38-.32,.58-.54,.58-.43,0-.65-.67-.65-2.02l.04-2.34c-1.73,.38-2.75,.58-3.08,.58s-.67-.08-1.03-.23c-.36-.16-.54-.31-.54-.45s.21-.23,.63-.27,1.77-.25,4.05-.63c-.1-1.06-.37-1.93-.83-2.63-.17-.24-.25-.49-.25-.76s.16-.4,.49-.4,.74,.16,1.26,.49c.52,.32,.77,.67,.77,1.03,0,.1-.01,.2-.04,.32-.05,.29-.07,.86-.07,1.73,1.13-.19,2.65-.49,4.57-.9,.07-.65,.11-1.18,.11-1.58,0-.72-.1-1.22-.29-1.49-.19-.28-.29-.51-.29-.7,0-.29,.14-.43,.41-.43s.79,.19,1.53,.58c.74,.38,1.12,.78,1.12,1.19,0,.19-.07,.43-.22,.72-.14,.29-.31,.76-.5,1.4Zm-6.77-10.33c1.06,0,1.95,.24,2.68,.72,.73,.48,1.1,1.13,1.1,1.94,0,.36-.08,.65-.25,.86-.17,.22-.37,.32-.61,.32s-.49-.08-.74-.25-.82-.71-1.71-1.62c-.89-.91-1.33-1.47-1.33-1.67s.29-.31,.86-.31Zm4.72,11.77c-.79,.1-2.27,.36-4.43,.79,0,1.27,.01,2.29,.04,3.06,2.4-.38,3.65-.72,3.76-1.01,.11-.29,.32-1.24,.63-2.84Z"/><path class="cls-1" d="M338.69,224.6c0,.5-.36,1.62-1.08,3.35-.36,.84-.67,1.56-.94,2.16-.26,.6-.48,1.07-.65,1.4-.31,.65-.47,1.56-.47,2.74l.07,.97c0,.17-.06,.31-.18,.43s-.26,.18-.43,.18c-.55,0-1.16-.72-1.84-2.16-.67-1.37-1.01-3.56-1.01-6.59s.54-7.22,1.62-12.67c.07-.43,.11-.78,.11-1.04,0-.65-.36-1.4-1.08-2.27-.14-.17-.22-.31-.22-.43s.07-.18,.22-.18c.24,0,.85,.32,1.84,.97s1.48,1.3,1.48,1.94c0,.36-.18,.88-.54,1.55-.36,.7-.79,2.46-1.3,5.29-.5,2.86-.76,5.34-.76,7.45,0,1.22,.1,2.15,.29,2.77,.19,.62,.38,.94,.58,.94s.4-.14,.61-.43c.12-.17,.28-.45,.47-.85s.44-.91,.76-1.53c.31-.65,.61-1.3,.88-1.96,.28-.66,.54-1.34,.81-2.03,.12-.34,.28-.5,.47-.5s.29,.17,.29,.5Zm15.05,4c1.56,.48,2.94,1.08,4.14,1.8,1.15,.67,1.92,1.28,2.3,1.82s.58,.91,.58,1.1c0,.26-.16,.45-.47,.56-.31,.11-.6,.03-.86-.23-1.34-1.58-3.2-2.87-5.58-3.85,.02,1.44-.54,2.63-1.69,3.56-1.1,.96-2.45,1.44-4.03,1.44s-2.93-.3-4.1-.9-1.76-1.51-1.76-2.74c0-1.13,.49-2.04,1.48-2.74,1.01-.67,2.15-1.01,3.44-1.01s2.92,.24,4.91,.72c-.24-2.21-.43-4.26-.56-6.16s-.21-3.66-.23-5.29c-2.11,.43-3.82,.65-5.11,.65s-2.29-.26-2.99-.79c-.34-.26-.58-.48-.72-.65-.14-.17-.23-.29-.27-.38-.04-.08-.03-.14,.02-.18,.05-.04,.11-.05,.18-.05s.32,.11,.76,.32c.43,.22,.9,.38,1.4,.5,.48,.1,1.15,.14,2.02,.14,.41,0,1.01-.04,1.8-.11,.79-.07,1.76-.19,2.92-.36,.02-1.44,.09-2.54,.2-3.31,.11-.77,.16-1.3,.16-1.58,0-.31-.12-.61-.36-.9-.24-.29-.67-.62-1.3-1.01-.22-.1-.32-.26-.32-.5,0-.31,.17-.47,.5-.47,.7,0,1.43,.22,2.2,.65,.74,.38,1.12,.97,1.12,1.76,0,.41-.13,.85-.4,1.33-.26,.48-.37,1.72-.32,3.71,1.54-.48,2.75-1.06,3.64-1.73,.41-.31,.79-.47,1.15-.47s.83,.08,1.4,.25c.6,.17,.9,.37,.9,.59s-.24,.4-.72,.52l-6.37,1.8c.12,3.5,.44,7.56,.97,12.17Zm-1.58,.65c-1.51-.46-2.89-.68-4.14-.68s-2.3,.23-3.31,.68c-1.01,.43-1.51,1.08-1.51,1.94,0,.43,.12,.8,.36,1.1,.24,.3,.57,.55,.99,.76,.42,.2,.89,.35,1.42,.45,.53,.1,1.08,.14,1.66,.14,1.15,0,2.18-.4,3.1-1.19,.94-.84,1.42-1.91,1.44-3.2Z"/><path class="cls-1" d="M373.83,228.78c1.51,.07,3.79,.51,6.84,1.31,3.05,.8,5.36,1.32,6.93,1.55,1.57,.23,3.07,.34,4.5,.34s2.67-.04,3.73-.11l2.63-.14c.48,0,.72,.11,.72,.32s-.22,.42-.65,.61c-.43,.19-1.66,.65-3.69,1.37-2.03,.72-3.5,1.08-4.41,1.08-.79,0-1.63-.18-2.52-.54-5.62-2.18-9.19-3.49-10.73-3.91-1.54-.42-2.96-.63-4.28-.63-.62,0-1.2,.08-1.73,.23-.53,.16-1.15,.46-1.87,.92-.6,.34-1.03,.5-1.3,.5s-.59-.22-.99-.65c-.4-.43-.59-.75-.59-.95s.23-.31,.68-.32c.46-.01,1.16-.17,2.11-.47,.95-.3,2.11-.47,3.47-.52,0-.84-.11-1.66-.34-2.45-.23-.79-.46-1.31-.7-1.55-.41-.43-.61-1.11-.61-2.03s.16-1.83,.47-2.72c.07-.22,.11-.39,.11-.52s-.11-.2-.32-.2-.68,.17-1.4,.5c-.72,.34-1.37,.5-1.94,.5s-1-.07-1.28-.22c-.28-.14-.41-.31-.41-.5s.14-.31,.43-.36c1.58-.22,2.82-.73,3.71-1.55,.53-.5,.94-.76,1.22-.76s.85,.2,1.69,.61c.84,.41,1.26,.74,1.26,.99s-.13,.51-.4,.77c-1.06,1.13-1.58,2.27-1.58,3.42,0,.6,.16,1.2,.47,1.8,.58,1.13,.86,2.24,.86,3.35,0,.29-.02,.59-.07,.9Zm-3.64-19.55c1.49,0,2.56,.25,3.2,.74,.65,.49,.97,1.11,.97,1.85,0,.38-.1,.7-.29,.95-.19,.25-.46,.38-.81,.38s-1.1-.54-2.25-1.62c-1.15-1.08-1.73-1.73-1.73-1.96s.3-.34,.9-.34Zm12.13,16.6c0,1.18-.3,1.76-.9,1.76-.31,0-.55-.2-.72-.61-.31-.79-.82-1.81-1.53-3.06-.71-1.25-1.27-2.06-1.69-2.45-.42-.38-.63-.67-.63-.86s.1-.48,.29-.86c.43-.86,.88-2.18,1.35-3.96,.47-1.78,.7-3.02,.7-3.74,0-.17-.08-.43-.23-.77-.16-.35-.23-.62-.23-.81,0-.12,.11-.18,.34-.18s.71,.18,1.46,.54,1.12,.79,1.12,1.3c0,.17-.04,.31-.11,.43-.38,.65-.86,1.68-1.42,3.1-.56,1.42-1.22,2.65-1.96,3.71-.29,.43-.43,.76-.43,.99s.32,.58,.95,1.06c.64,.48,1.29,1.08,1.96,1.8,.67,.72,1.12,1.25,1.35,1.6,.23,.35,.34,.69,.34,1.03Zm5.29-.4c0,.43-.09,.82-.27,1.15-.18,.34-.41,.5-.7,.5s-.5-.2-.65-.61c-1.06-2.76-2.09-4.78-3.1-6.05-.43-.58-.65-.95-.65-1.13s.08-.41,.25-.7c.43-.79,.98-2.18,1.64-4.16,.66-1.98,.94-3.14,.83-3.49-.11-.35-.16-.65-.16-.9s.14-.38,.41-.38,.73,.22,1.37,.65c.64,.43,.95,.76,.95,.99s-.13,.49-.38,.79c-.25,.3-.56,.85-.92,1.64-.36,.79-.81,1.62-1.35,2.48-.54,.86-1.05,1.57-1.53,2.12-.29,.36-.43,.64-.43,.85s.31,.55,.94,1.04c.62,.49,1.31,1.18,2.07,2.05,.76,.88,1.22,1.52,1.4,1.94s.27,.82,.27,1.21Zm6.05-.79c0,.46-.1,.89-.31,1.3s-.44,.61-.72,.61-.56-.32-.85-.95c-.29-.64-.83-1.63-1.62-2.97s-1.42-2.3-1.87-2.86c-.46-.56-.68-.94-.68-1.13s.13-.48,.4-.86c.58-.91,1.22-2.28,1.93-4.1,.71-1.82,1.01-2.95,.9-3.37-.11-.42-.16-.75-.16-.99s.13-.36,.38-.36,.76,.26,1.51,.77c.76,.52,1.13,.9,1.13,1.15s-.11,.47-.34,.67c-.23,.19-.5,.51-.83,.95-.32,.44-.55,.8-.67,1.06-.94,1.78-1.92,3.2-2.95,4.28-.34,.34-.5,.61-.5,.81s.34,.55,1.03,1.03c.68,.48,1.45,1.12,2.29,1.91,.84,.79,1.37,1.38,1.6,1.76,.23,.38,.34,.82,.34,1.3Z"/><path class="cls-1" d="M409.14,222.26c-1.78,1.9-3.4,3.34-4.88,4.32-1.48,.98-2.48,1.48-3.01,1.48-.14,0-.22-.04-.22-.11,0-.14,.3-.46,.9-.94,.6-.48,1.3-1.11,2.11-1.89,.8-.78,1.61-1.61,2.43-2.48,.82-.88,1.51-1.69,2.07-2.45,.56-.76,1.04-1.47,1.44-2.14,.4-.67,.64-1.13,.72-1.39,.08-.25,.13-.53,.13-.85,0-.55,.18-.83,.54-.83s.82,.29,1.39,.86c.56,.58,.85,.97,.85,1.19s-.12,.41-.36,.58c-.62,.41-1.75,1.66-3.38,3.74,.84,.89,1.26,2,1.26,3.35l-.11,2.66c-.05,.84-.07,1.99-.07,3.46s-.13,2.63-.38,3.49c-.25,.86-.53,1.3-.83,1.3s-.58-.31-.83-.92c-.25-.61-.38-1.2-.38-1.76s.11-1.27,.32-2.11c.43-1.78,.65-3.43,.65-4.97s-.12-2.74-.36-3.6Zm5.15-12.46c0,.31-.26,.65-.79,1.03-.53,.37-1.38,1.15-2.56,2.32-2.26,2.16-3.79,3.44-4.61,3.83-.82,.4-1.38,.59-1.69,.59-.12,0-.18-.05-.18-.16s.2-.34,.61-.7c2.02-1.8,3.53-3.41,4.55-4.82,1.02-1.42,1.53-2.44,1.53-3.06l-.04-.54c0-.38,.16-.58,.47-.58s.84,.26,1.58,.77c.74,.52,1.12,.95,1.12,1.31Zm7.67,10.04c-2.06,.38-3.67,.79-4.82,1.22-.58,.19-1.07,.29-1.49,.29s-.9-.11-1.44-.32c-.54-.22-.81-.41-.81-.58s.23-.29,.68-.36c6.31-1.13,11.34-2.24,15.08-3.35,.38-.12,.83-.18,1.33-.18,.91,0,1.7,.17,2.38,.52,.67,.35,1.01,.67,1.01,.97s-.17,.53-.52,.68c-.35,.16-.81,.23-1.39,.23-2.66,0-5.58,.23-8.75,.68,.7,.43,1.21,.79,1.55,1.06,.34,.28,.5,.51,.5,.7s-.05,.4-.16,.61c-.11,.22-.16,.62-.16,1.22s.1,2.02,.31,4.25c.2,2.23,.31,3.82,.31,4.77s-.07,1.69-.22,2.21c-.14,.53-.39,1.11-.74,1.75-.35,.64-.63,1.06-.85,1.26-.22,.2-.46,.31-.72,.31s-.49-.17-.68-.5c-.43-.89-.86-1.57-1.28-2.03s-.89-.91-1.4-1.33c-.52-.42-.77-.7-.77-.83s.1-.2,.29-.2,.41,.04,.65,.11c1.08,.34,1.81,.5,2.18,.5s.64-.07,.81-.22,.29-.65,.38-1.51c.08-.86,.13-1.81,.13-2.84,0-2.38-.13-4.41-.4-6.1-.26-1.69-.59-2.69-.97-3.01Zm4.21-9c.53,0,.99,.08,1.39,.23,.4,.16,.59,.34,.59,.54s-.05,.38-.16,.52c-.11,.14-1.09,.48-2.93,1.01-1.85,.53-3.08,.83-3.69,.9-.61,.07-1.16,.11-1.64,.11s-.93-.07-1.35-.22c-.42-.14-.63-.31-.63-.5s.22-.32,.65-.4c1.01-.22,3.02-.85,6.05-1.91,.48-.19,1.06-.29,1.73-.29Z"/><path class="cls-1" d="M447.37,212.58c-.84,.14-1.64,.22-2.41,.22s-1.4-.11-1.89-.34c-.49-.23-.74-.44-.74-.63,0-.24,.32-.36,.97-.36,.38,0,1.58-.23,3.58-.68,2-.46,4-.95,5.99-1.48,.26-.07,.67-.11,1.22-.11s1.07,.11,1.57,.32c.49,.22,.74,.44,.74,.67s-.16,.42-.49,.58c-.32,.16-1.52,.45-3.6,.88-2.08,.43-3.39,.7-3.94,.79,.89,.7,1.33,1.2,1.33,1.51s-.16,.63-.49,.95-1.05,1.36-2.18,3.11c.53,0,1.13-.08,1.82-.25,.68-.17,1.22-.38,1.6-.63s.77-.38,1.15-.38,.96,.22,1.73,.67c.77,.44,1.15,.81,1.15,1.1,0,.19-.2,.45-.59,.77-.4,.32-.83,1.23-1.31,2.72-.38,1.06-1.05,2.44-2,4.16-.95,1.72-2.18,3.24-3.69,4.57-1.51,1.33-2.96,2.33-4.36,3.01-1.39,.67-2.32,1.01-2.77,1.01-.19,0-.29-.07-.29-.22s.29-.4,.86-.76c2.38-1.39,4.38-3.07,6.01-5.04,1.63-1.97,2.83-3.97,3.6-6.01,.77-2.04,1.15-3.24,1.15-3.6s-.1-.54-.29-.54-.62,.07-1.3,.22c-.67,.14-1.25,.22-1.73,.22s-.9-.07-1.26-.22c-.62,1.03-1.36,1.97-2.2,2.81,1.49,.5,2.44,.95,2.86,1.33,.42,.38,.63,.94,.63,1.66s-.2,1.08-.59,1.08-.96-.46-1.69-1.37c-.73-.91-1.28-1.68-1.64-2.3-.58,.55-1.23,1.12-1.96,1.71-.73,.59-1.19,.88-1.39,.88s-.29-.07-.29-.2,.13-.33,.4-.59c1.63-1.63,3.05-3.46,4.25-5.49,1.2-2.03,2.02-3.94,2.45-5.74Zm12.64,2.84c0,.14-.04,.32-.11,.54-.17,.5-.32,1.45-.45,2.84-.13,1.39-.2,2.52-.2,3.38l.04,1.91c0,1.87-.25,2.81-.76,2.81-.31,0-.62-.29-.94-.88-.31-.59-.47-1.18-.47-1.78,0-.17,.02-.32,.07-.47,.34-1.32,.5-2.89,.5-4.72s-.13-3.34-.4-4.54c-.02-.12-.04-.23-.04-.32,0-.31,.14-.47,.41-.47s.73,.19,1.37,.58c.64,.38,.95,.76,.95,1.12Zm7.16-6.62c0,.22-.14,.58-.43,1.08-.1,.17-.2,.83-.32,1.98-.12,1.15-.18,2.11-.18,2.88,0,2.35,.06,5.18,.18,8.5l.22,7.27c0,2.09-.35,3.74-1.06,4.95-.71,1.21-1.25,1.81-1.64,1.78-.19,0-.38-.17-.58-.5-.7-1.3-1.66-2.66-2.88-4.1-.24-.26-.36-.44-.36-.54s.06-.14,.18-.14,.29,.04,.5,.11c1.44,.53,2.35,.79,2.74,.79,.26,0,.46-.27,.58-.81,.12-.54,.22-1.94,.29-4.21,.07-2.27,.11-4.78,.11-7.54,0-7.39-.35-11.57-1.04-12.53-.24-.31-.36-.58-.36-.79s.19-.32,.56-.32,1.05,.26,2.03,.79c.98,.53,1.48,.98,1.48,1.37Z"/><path class="cls-1" d="M488.67,213.08c-1.22,.17-2.2,.25-2.93,.25s-1.4-.08-2.02-.23-.92-.32-.92-.5,.23-.28,.68-.31c1.3-.1,3.01-.36,5.15-.79-.02-1.27-.11-2.17-.25-2.7-.14-.53-.4-1-.76-1.4-.19-.24-.29-.47-.29-.68s.22-.32,.65-.32,1.07,.16,1.93,.47c.85,.31,1.28,.72,1.28,1.22,0,.14-.04,.3-.11,.47-.22,.5-.34,1.36-.36,2.56,1.22-.26,2.15-.48,2.79-.65,.64-.17,1.13-.25,1.48-.25s.73,.08,1.13,.25,.61,.38,.61,.63-.28,.47-.85,.67c-.56,.19-2.29,.52-5.17,.97,.05,1.18,.07,2.12,.07,2.84,2.3-.41,3.76-.72,4.36-.94,.38-.14,.77-.22,1.15-.22s1.04,.28,1.96,.83c.92,.55,1.39,1.01,1.39,1.37,0,.19-.13,.41-.4,.67-.26,.25-.5,.6-.7,1.04-.2,.44-.46,1.18-.76,2.2-.3,1.02-.66,1.9-1.08,2.63-.42,.73-.85,1.1-1.28,1.1-.29,0-.5-.13-.65-.4-.12-.19-.38-.29-.77-.29s-1.47,.12-3.22,.36v3.06c2.54-.31,4.48-.57,5.81-.77,1.33-.2,2.26-.35,2.77-.43,.52-.08,1.02-.13,1.51-.13s1.09,.24,1.8,.72c.71,.48,1.06,.91,1.06,1.3,0,.43-.41,.61-1.22,.54-2.06-.22-3.87-.32-5.42-.32s-3.65,.14-6.32,.43c0,3.31-.1,5.84-.29,7.6-.19,1.75-.47,2.63-.83,2.63-.1,0-.19-.06-.29-.18-.1-.12-.19-.58-.29-1.39-.1-.8-.16-1.64-.18-2.5l-.04-5.98c-4.7,.55-7.57,.95-8.59,1.21-1.02,.25-1.76,.38-2.21,.38s-.98-.19-1.57-.56-.88-.64-.88-.81,.07-.26,.22-.29c.14-.02,.59-.04,1.33-.04s2.33-.12,4.75-.36c2.42-.24,4.74-.52,6.95-.83v-3.02l-3.92,.61c.05,.36-.14,.54-.58,.54-.19,0-.45-.29-.77-.86-.32-.58-.59-1.31-.81-2.2-.55-2.35-1.13-3.89-1.73-4.61-.29-.34-.43-.62-.43-.85s.22-.34,.67-.34,1.03,.1,1.75,.29l5.65-.9c-.02-.94-.04-1.86-.04-2.77Zm.18,7.63c-.77,.1-1.37,.14-1.82,.14s-.77-.08-.99-.25c-.22-.17-.32-.3-.32-.4s.17-.18,.5-.25c.34-.07,1.2-.28,2.59-.61-.02-1.2-.05-2.02-.07-2.45-1.39,.19-3.02,.5-4.9,.94,.34,1.7,.67,3.64,1.01,5.8l4-.58v-2.34Zm1.94-1.98c.53-.1,1.14-.14,1.84-.14s1.04,.18,1.04,.54c0,.19-.13,.38-.4,.58-.26,.19-1.09,.42-2.48,.68,.05,.74,.05,1.54,0,2.38,2.25-.34,3.43-.49,3.53-.47,.36,.02,.59-.05,.7-.23,.11-.18,.32-.92,.63-2.21,.31-1.3,.47-2.16,.47-2.59s-.07-.71-.22-.83c-.14-.12-.43-.18-.86-.18-1.39,0-2.81,.11-4.25,.32v2.16Z"/><path class="cls-1" d="M528.27,224.06c-.48-.96-.72-1.58-.72-1.87,0-.12,.06-.18,.18-.18,.22,0,.78,.23,1.69,.7,.91,.47,1.37,1.06,1.37,1.78,0,.29-.06,.59-.18,.92-.12,.32-.3,.49-.54,.49s-.64-.34-1.19-1.01c-2.3,.74-4.19,1.62-5.65,2.63-.41,.29-.73,.43-.97,.43s-.61-.22-1.12-.67c-.5-.44-.76-.79-.76-1.03s.37-.58,1.12-1.01c.89-.55,2.39-2.23,4.5-5.04-2.54,.34-4.07,.67-4.57,.99-.5,.32-.88,.49-1.13,.49s-.48-.24-.68-.72c-.2-.48-.31-.87-.31-1.17s.31-.59,.92-.86c.61-.28,1.28-.97,2.02-2.07,.73-1.1,1.51-2.31,2.34-3.62,.83-1.31,1.24-2.44,1.24-3.4,0-.17-.02-.33-.07-.49-.05-.16-.07-.31-.07-.45,0-.34,.17-.5,.5-.5s.86,.35,1.58,1.04c.72,.7,1.08,1.16,1.08,1.4s-.11,.44-.32,.61c-.65,.5-1.3,1.18-1.94,2.02l-4.43,5.9c1.82-.07,3.37-.16,4.64-.25,1.44-1.97,2.08-3.25,1.91-3.85-.05-.14-.07-.31-.07-.49s.15-.27,.45-.27,.76,.23,1.39,.7c.62,.47,.94,.86,.94,1.19s-.18,.58-.54,.77c-.74,.36-3.29,3.13-7.63,8.32,.79-.1,2.47-.58,5.04-1.44Zm-5.58,9.83c0,.5-.13,.97-.38,1.39-.25,.42-.46,.63-.63,.63-.29,0-.73-.85-1.33-2.56-.6-1.7-.9-2.74-.9-3.1,0-.22,.08-.32,.23-.32s.53,.21,1.12,.63c.59,.42,1.05,.92,1.39,1.51s.5,1.19,.5,1.82Zm4.39-2.16c0,.29-.07,.59-.22,.9-.14,.31-.31,.47-.5,.47s-.46-.25-.79-.76-.66-1.12-.97-1.84c-.31-.72-.47-1.13-.47-1.24s.06-.16,.18-.16c.34,0,.88,.25,1.64,.74,.76,.49,1.13,1.12,1.13,1.89Zm4.07-1.4c0,.34-.1,.65-.29,.95-.19,.3-.37,.45-.54,.45-.34,0-.84-.62-1.51-1.85-.67-1.24-1.01-1.97-1.01-2.21,0-.12,.06-.18,.18-.18,.29,0,.89,.29,1.8,.86,.91,.58,1.37,1.24,1.37,1.98Zm7.67-7.52l.11-4.5c-1.85,.36-3.06,.61-3.64,.74-.58,.13-1.05,.2-1.42,.2s-.83-.15-1.37-.45c-.54-.3-.81-.52-.81-.67s.16-.23,.47-.25c1.54-.1,3.79-.38,6.77-.86,.02-1.32,.04-2.54,.04-3.65s-.05-1.94-.14-2.48c-.1-.54-.28-1.01-.54-1.42-.26-.41-.4-.73-.4-.97s.19-.36,.56-.36,1.01,.2,1.93,.59,1.37,.83,1.37,1.31c0,.19-.07,.42-.22,.68-.38,.67-.65,2.66-.79,5.98,1.85-.43,3.09-.73,3.73-.9,.64-.17,1.23-.25,1.78-.25s1.12,.17,1.71,.5c.59,.34,.88,.61,.88,.83s-.11,.38-.34,.49c-.23,.11-.47,.17-.72,.18-.25,.01-1.01,.02-2.29,.02s-2.87,.16-4.79,.47l-.18,4.54c1.75-.29,2.98-.43,3.69-.43s1.23,.16,1.57,.49c.34,.32,.5,.56,.5,.7,0,.34-.83,.5-2.48,.5s-2.96,.05-3.92,.16c-.96,.11-2.11,.32-3.46,.63-.5,.12-.93,.18-1.28,.18s-.77-.14-1.28-.41c-.5-.28-.76-.49-.76-.63s.22-.23,.65-.27c.43-.04,2.12-.26,5.08-.67Zm-2.16,13.1c-.02,.65-.22,.97-.58,.97-.19,0-.38-.16-.58-.47-.19-.31-.32-.73-.4-1.26-.55-3.48-1.12-5.54-1.69-6.19-.17-.19-.25-.37-.25-.54,0-.29,.22-.43,.65-.43s1,.14,1.69,.43c4.3-.5,6.88-1.02,7.74-1.55,.22-.12,.43-.18,.65-.18,.43,0,1.11,.27,2.03,.81,.92,.54,1.39,.98,1.39,1.31,0,.19-.19,.44-.58,.74-.38,.3-.79,.88-1.21,1.75-.42,.86-.63,1.45-.63,1.75s.12,.6,.36,.9c.24,.3,.36,.53,.36,.68s-.1,.28-.29,.38c-.19,.1-1.54,.26-4.03,.5-2.5,.24-4.04,.37-4.64,.4Zm-.61-6.16c.29,1.68,.47,3.3,.54,4.86,1.32-.12,2.55-.27,3.69-.45,1.14-.18,1.83-.32,2.07-.41,.24-.1,.43-.28,.56-.54,.13-.26,.28-.86,.45-1.8s.25-1.54,.25-1.8c0-.55-.3-.83-.9-.83-.07,0-.79,.09-2.16,.27-1.37,.18-2.87,.41-4.5,.7Z"/><path class="cls-1" d="M563.01,219.17c.7,.38,1.04,.72,1.04,1.01,0,.07-.02,.16-.07,.25-.26,.38-.42,.94-.47,1.66,1.37-.41,2.22-.61,2.56-.61s.62,.07,.85,.2c.23,.13,.34,.31,.34,.54s-.19,.41-.58,.54-1.44,.4-3.17,.81l-.04,6.95c2.86-.84,4.54-1.26,5.04-1.26,.26,0,.4,.07,.4,.22s-.3,.32-.9,.54c-4.99,1.92-8.06,3.17-9.22,3.74-.29,.17-.58,.25-.88,.25s-.76-.25-1.39-.74c-.62-.49-.94-.87-.94-1.13s.29-.35,.86-.25c.31,.02,.58,.04,.79,.04,.77,0,2.34-.34,4.72-1.01v-6.98c-.82,.17-1.47,.25-1.96,.25s-.98-.05-1.48-.16-.74-.24-.74-.4,.16-.25,.47-.27c1.13-.12,2.36-.4,3.71-.83,0-1.63-.14-2.68-.43-3.13-.86,.07-1.6,.01-2.2-.18-.74,.94-1.71,1.85-2.88,2.74-1.18,.89-1.94,1.33-2.3,1.33-.12,0-.18-.07-.18-.22s.2-.4,.61-.76c2.09-1.94,3.86-4.28,5.33-7.02s2.2-4.67,2.2-5.8c0-.29-.04-.51-.11-.67-.07-.16-.11-.29-.11-.41,0-.26,.16-.4,.47-.4s.83,.26,1.57,.77c.73,.52,1.1,.91,1.1,1.17,0,.14-.1,.32-.29,.54-.19,.22-.43,.58-.72,1.08,1.78,.46,2.87,.92,3.29,1.4s.63,1.01,.63,1.6-.2,.88-.61,.88c-.24,0-.5-.16-.77-.49-.28-.32-1.23-1.28-2.86-2.86-1.49,2.83-2.74,4.92-3.74,6.26,.6-.05,1.37-.24,2.3-.58,1.37-.53,2.38-.79,3.02-.79,.96,0,1.44,.17,1.44,.5,0,.14-.1,.29-.29,.45-.19,.16-.74,.38-1.64,.68-.9,.3-1.49,.47-1.78,.52Zm-5.29,6.66c.31,0,.85,.22,1.6,.67,.76,.44,1.13,1.12,1.13,2.03,0,.55-.22,.83-.65,.83-.26,0-.53-.19-.81-.56-.28-.37-.58-.88-.92-1.53-.34-.65-.5-1.05-.5-1.21s.05-.23,.14-.23Zm9.68-.07c0,.12-.06,.23-.18,.32l-1.3,1.08c-.74,.62-1.19,1-1.35,1.13s-.28,.2-.36,.2-.13-.04-.13-.11,.04-.17,.11-.29c.74-1.44,1.12-2.4,1.12-2.88,0-.1-.01-.18-.04-.25-.02-.07-.04-.14-.04-.22,0-.26,.16-.4,.47-.4,.22,0,.55,.17,1.01,.52,.46,.35,.68,.64,.68,.88Zm7.13-12.35c-.96,2.47-1.93,4.45-2.92,5.94-.98,1.49-1.96,2.63-2.93,3.42s-1.58,1.19-1.82,1.19c-.07,0-.11-.04-.11-.13s.07-.22,.22-.41c1.85-1.99,3.37-4.48,4.57-7.45,1.2-2.98,1.8-5.16,1.8-6.55,0-.53-.07-.93-.22-1.21-.14-.28-.22-.52-.22-.74s.18-.32,.54-.32,.96,.22,1.8,.67c.84,.44,1.26,.85,1.26,1.21,0,.17-.1,.38-.29,.65-.41,.6-.85,1.49-1.33,2.66,2.59,2.98,4.65,5.04,6.17,6.19,1.52,1.15,3.35,2.03,5.49,2.63,.48,.12,.72,.31,.72,.58,0,.12-.07,.22-.22,.29s-.74,.14-1.78,.22c-1.04,.07-1.9,.11-2.56,.11s-1.18-.07-1.55-.2c-.37-.13-.7-.35-.99-.67-.29-.31-.95-1.21-2-2.68-1.04-1.48-2.26-3.27-3.65-5.38Zm.18,18.79c.91-1.49,1.59-2.76,2.03-3.82,.44-1.06,.67-1.67,.67-1.84s-.08-.25-.25-.25-.67,.12-1.51,.36c-.84,.24-1.93,.65-3.28,1.22-.65,.26-1.16,.4-1.55,.4s-.86-.16-1.44-.47c-.58-.31-.86-.55-.86-.72s.37-.25,1.12-.25,2.03-.26,3.87-.79c1.84-.53,3.04-.98,3.62-1.37,.29-.22,.59-.32,.92-.32s.92,.29,1.8,.88c.88,.59,1.31,1.04,1.31,1.35,0,.19-.26,.43-.79,.7-.53,.28-1.12,.76-1.78,1.44-.66,.68-1.72,1.95-3.19,3.8,1.61,.79,2.41,1.93,2.41,3.42,0,.58-.19,.86-.58,.86-.19,0-.4-.08-.61-.25l-2.56-2.45c-1.49-1.44-2.33-2.26-2.54-2.47-.2-.2-.31-.35-.31-.43s.08-.13,.23-.13,.6,.12,1.33,.36c.73,.24,1.37,.49,1.93,.76Zm-1.91-12.38c.7,0,1.48,.16,2.34,.49,.86,.32,1.3,.99,1.3,2,0,.7-.23,1.04-.68,1.04s-1.15-.47-2.07-1.42c-.92-.95-1.39-1.54-1.39-1.76s.17-.34,.5-.34Z"/><path class="cls-1" d="M604.23,219.24c-2.9-1.44-4.36-3.4-4.36-5.87,0-.74,.16-1.46,.49-2.14s.76-1.3,1.31-1.84c.55-.54,1.2-.97,1.94-1.3,.74-.32,1.54-.49,2.38-.49s1.63,.13,2.36,.4c.73,.26,1.37,.62,1.91,1.08,.54,.46,.96,.99,1.26,1.6,.3,.61,.45,1.27,.45,1.96,0,1.39-.35,2.48-1.06,3.28s-1.75,1.52-3.11,2.2c1.1,.53,2,1.06,2.68,1.58s1.21,1.06,1.58,1.6c.37,.54,.62,1.08,.74,1.62,.12,.54,.18,1.09,.18,1.64,0,.86-.17,1.69-.52,2.47-.35,.78-.83,1.47-1.44,2.07-.61,.6-1.34,1.07-2.18,1.42-.84,.35-1.76,.52-2.77,.52s-1.88-.15-2.68-.45c-.8-.3-1.49-.71-2.07-1.22s-1.02-1.13-1.33-1.85c-.31-.72-.47-1.51-.47-2.38,0-.53,.04-1.04,.13-1.55s.28-1.01,.59-1.51c.31-.5,.78-.99,1.4-1.46,.62-.47,1.49-.93,2.59-1.39Zm.86,.4c-1.22,.6-2.1,1.34-2.63,2.21-.53,.88-.79,2.05-.79,3.51s.42,2.63,1.26,3.51c.84,.88,1.91,1.31,3.2,1.31,.65,0,1.25-.11,1.8-.34,.55-.23,1.04-.55,1.46-.97,.42-.42,.74-.92,.97-1.49,.23-.58,.34-1.21,.34-1.91,0-1.39-.44-2.53-1.31-3.42-.88-.89-2.31-1.69-4.3-2.41Zm1.91-1.94c1.01-.48,1.78-1.16,2.32-2.05,.54-.89,.79-1.88,.74-2.99-.02-.55-.13-1.08-.32-1.58s-.46-.95-.81-1.35c-.35-.4-.77-.71-1.26-.94-.49-.23-1.05-.34-1.67-.34-1.22,0-2.21,.4-2.95,1.21-.74,.8-1.12,1.79-1.12,2.97,0,.36,.06,.77,.18,1.22,.12,.46,.37,.92,.74,1.39,.37,.47,.89,.92,1.55,1.35,.66,.43,1.53,.8,2.61,1.12Z"/><path class="cls-1" d="M617.37,212.87l-.65-.36c.7-1.66,1.53-2.89,2.5-3.69,.97-.8,2.18-1.21,3.62-1.21,.67,0,1.31,.11,1.91,.32,.6,.22,1.12,.49,1.55,.83,.43,.34,.77,.73,1.03,1.19,.25,.46,.38,.91,.38,1.37,0,.94-.31,1.82-.94,2.66-.62,.84-1.62,1.76-2.99,2.77,.91-.05,1.73,.07,2.45,.36,.72,.29,1.33,.7,1.82,1.24s.87,1.19,1.13,1.94c.26,.76,.4,1.57,.4,2.43,0,1.18-.22,2.27-.67,3.28s-1.06,1.88-1.85,2.63c-.79,.74-1.73,1.33-2.81,1.76s-2.24,.65-3.49,.65c-1.66,0-2.92-.2-3.78-.59-.86-.4-1.3-.86-1.3-1.39,0-.17,.06-.34,.18-.52s.29-.31,.5-.38c.22-.07,.48-.07,.79,0,.31,.07,.65,.26,1.01,.58,1.32,1.01,2.46,1.51,3.42,1.51,.79,0,1.52-.18,2.2-.54s1.25-.85,1.75-1.46c.49-.61,.88-1.31,1.17-2.09,.29-.78,.43-1.6,.43-2.47,0-.77-.1-1.48-.31-2.12-.2-.65-.48-1.21-.83-1.67-.35-.47-.77-.83-1.26-1.1-.49-.26-1.03-.4-1.6-.4-.94,0-1.85,.41-2.74,1.22l-.4-.68c.24-.22,.49-.43,.76-.65,.26-.22,.54-.43,.83-.65,2.64-1.94,3.96-3.59,3.96-4.93,0-1.01-.32-1.81-.97-2.39s-1.48-.88-2.48-.88-1.87,.29-2.72,.88-1.52,1.43-2,2.54Z"/><path class="cls-1" d="M655.63,220.14c-3.38,.36-5.67,.67-6.86,.92-1.19,.25-2.02,.38-2.5,.38s-1-.16-1.57-.49c-.56-.32-.85-.58-.85-.76s.44-.27,1.31-.27,4.58-.34,11.11-1.03c6.53-.68,10.34-1.13,11.43-1.33,1.09-.2,1.96-.31,2.59-.31s1.32,.22,2.05,.65c.73,.43,1.1,.82,1.1,1.15,0,.46-.55,.68-1.66,.68-.26,0-.55-.01-.86-.04-1.78-.14-3.81-.22-6.1-.22s-4.95,.17-7.97,.5c.89,.48,1.33,.89,1.33,1.22,0,.12-.07,.24-.22,.36-.82,.82-1.66,1.81-2.52,2.99,1.06-.17,2.18-.39,3.38-.67,1.2-.28,1.95-.47,2.25-.59,.3-.12,.52-.18,.67-.18,.48,0,1.25,.35,2.32,1.06,1.07,.71,1.6,1.27,1.6,1.67,0,.24-.16,.47-.49,.7-.32,.23-.59,.64-.81,1.24-.22,.6-.5,1.79-.85,3.56-.35,1.78-1.01,3.25-1.98,4.43-.97,1.18-1.79,1.76-2.47,1.76-.43,0-.74-.2-.94-.61-.5-.94-1.31-1.92-2.41-2.95-.24-.24-.36-.43-.36-.58s.09-.22,.27-.22,.38,.04,.59,.11c1.1,.34,1.97,.5,2.59,.5s1.1-.18,1.42-.54c.32-.36,.72-1.26,1.19-2.7,.47-1.44,.7-2.81,.7-4.1,0-.46-.16-.83-.47-1.12-.31-.29-.66-.43-1.04-.43s-1.06,.05-2.02,.14c-.96,.1-1.76,.22-2.41,.38-.65,.16-1.32,.46-2.02,.92-.29,.17-.55,.25-.79,.25-.58,0-.86-.33-.86-.99s.27-1.1,.81-1.31c.54-.22,1.06-.72,1.57-1.51s.76-1.55,.76-2.27c0-.14-.01-.28-.04-.4Zm-1.01-10.87c1.22,.02,2.59-.11,4.09-.4,1.5-.29,2.61-.64,3.33-1.04,.22-.14,.5-.22,.86-.22s1.06,.24,2.09,.72c1.03,.48,1.55,.94,1.55,1.37,0,.22-.12,.42-.36,.61-1.25,.96-2.02,1.67-2.32,2.12-.3,.46-.45,.81-.45,1.06s.1,.48,.31,.68c.2,.2,.31,.39,.31,.56s-.11,.3-.32,.4c-.22,.1-1.15,.22-2.81,.38-1.66,.16-3.41,.28-5.26,.38-.07,.77-.3,1.15-.68,1.15-.24,0-.45-.18-.63-.54s-.34-1.18-.49-2.45c-.24-1.92-.72-3.34-1.44-4.25-.22-.26-.32-.5-.32-.72s.2-.32,.61-.32,1.06,.17,1.94,.5Zm.97,5.65c2.52-.29,3.96-.49,4.34-.59,.37-.11,.73-.26,1.08-.45,.35-.19,.62-.71,.81-1.57,.19-.85,.29-1.45,.29-1.78s-.06-.56-.18-.68c-.12-.12-.36-.18-.72-.18-.7,0-2.7,.24-6.01,.72,.19,1.37,.32,2.88,.4,4.54Z"/><path class="cls-1" d="M687.46,223.78c0,.12-.04,.29-.11,.5-.53,1.34-.97,2.5-1.31,3.46-.35,.96-.62,1.75-.81,2.38-.19,.62-.35,1.3-.49,2.02-.13,.72-.25,1.5-.34,2.34-.12,.77-.38,1.15-.79,1.15-.29,0-.52-.16-.68-.47-.19-.29-.41-1.22-.65-2.81-.12-.82-.22-1.6-.29-2.36s-.11-1.49-.11-2.21,.04-1.51,.11-2.38c.07-.86,.19-1.81,.36-2.84,.17-1.03,.39-2.24,.67-3.64,.28-1.39,.62-2.99,1.03-4.79,.1-.36,.14-.77,.14-1.22,0-1.1-.24-1.99-.72-2.66-.07-.1-.11-.2-.11-.32s.08-.18,.25-.18c.22,0,.71,.37,1.48,1.12,.79,.77,1.19,1.38,1.19,1.84,0,.5-.18,1.16-.54,1.98-.7,1.73-1.32,3.94-1.87,6.62-.5,2.64-.76,4.91-.76,6.8s.13,2.84,.4,2.84c.1,0,.19-.07,.27-.2,.08-.13,.19-.36,.31-.68,.12-.32,.28-.76,.49-1.3,.2-.54,.49-1.21,.85-2,.67-1.54,1.13-2.47,1.37-2.81,.24-.29,.41-.43,.52-.43s.16,.08,.16,.25Zm20.95,9c0,.34-.17,.58-.5,.72-.34,.14-1.12,.28-2.34,.4-1.22,.12-2.7,.18-4.43,.18s-3.14-.14-4.25-.41c-1.1-.28-2.09-.7-2.95-1.28-1.78-1.22-2.66-2.84-2.66-4.86,0-.22,.01-.44,.04-.67,.02-.23,.06-.46,.11-.7,.12-.5,.22-.8,.31-.9,.08-.1,.16-.14,.23-.14,.22,0,.32,.17,.32,.5l-.07,.83c0,1.13,.56,2.4,1.69,3.82,1.13,1.42,3.3,2.12,6.52,2.12,1.01,0,1.92-.07,2.74-.22,.82-.14,1.37-.31,1.66-.5,.34-.19,.76-.29,1.26-.29,.26,0,.53,.05,.81,.14,.28,.1,.53,.21,.76,.34,.23,.13,.41,.28,.56,.45,.14,.17,.22,.32,.22,.47Zm-3.74-21.35c.36,0,.82,.14,1.37,.43,.58,.29,.86,.6,.86,.94,0,.41-.26,.62-.79,.65-1.18,.1-2.27,.42-3.28,.97-.98,.55-2.71,1.74-5.18,3.56-.26,.19-.47,.29-.61,.29s-.22-.05-.22-.14c0-.07,.06-.2,.18-.4,.07-.1,.22-.26,.43-.49,.22-.23,.52-.51,.9-.85,.38-.36,.76-.7,1.12-1.03,.36-.32,.72-.62,1.08-.88,.17-.1,.25-.2,.25-.32s-.17-.16-.5-.11c-.55,.1-1.04,.17-1.48,.23-.43,.06-.8,.1-1.12,.13-.29,.02-.62,.04-1.01,.04h-1.3c-.96,0-1.64-.08-2.05-.25-.46-.19-.88-.52-1.26-.97-.41-.48-.61-.8-.61-.97,0-.24,.13-.36,.4-.36,.05,0,.12,.02,.22,.07,.58,.48,1.19,.78,1.85,.9,.66,.12,1.45,.18,2.36,.18s2.23-.14,3.96-.43c1.73-.31,2.92-.64,3.56-.97,.31-.14,.6-.22,.86-.22Z"/><path class="cls-1" d="M90.22,294.08c.38,0,.7,.07,.94,.22,.24,.14,.41,.31,.52,.5,.11,.19,.15,.4,.13,.61s-.12,.41-.29,.58c-.24,.24-.94,.48-2.09,.72-1.15,.26-2.45,.46-3.89,.58s-2.88,.18-4.32,.18c-5.11,0-8.47-.58-10.08-1.73-1.63-1.13-2.45-2.48-2.45-4.07,0-.96,.36-2.05,1.08-3.28,.74-1.25,1.26-1.87,1.55-1.87,.22,0,.32,.1,.32,.29,0,.05-.02,.12-.07,.22-1.01,1.44-1.51,2.82-1.51,4.14,0,1.25,.53,2.33,1.58,3.24,1.06,.91,3.32,1.37,6.8,1.37,1.08,0,2.14-.04,3.19-.11s2.08-.17,3.11-.29c2.04-.24,3.35-.52,3.92-.83,.53-.31,1.04-.47,1.55-.47Zm-5.87-19.62c.55,0,1.18,.2,1.87,.61,.7,.41,1.04,.83,1.04,1.26,0,.53-.52,.79-1.55,.79-.48,0-1.58,.42-3.31,1.26-.84,.41-1.58,.8-2.21,1.17-.64,.37-1.16,.73-1.57,1.06-.12,.1-.25,.14-.38,.14s-.2-.07-.2-.22c0-.19,.05-.34,.14-.43,.12-.12,.52-.44,1.19-.97,.67-.53,1.56-1.2,2.66-2.02,.19-.14,.29-.28,.29-.41s-.17-.2-.5-.2c-.17,0-.5,.02-1.01,.07-.5,.05-1.18,.12-2.02,.22-.84,.1-1.52,.17-2.03,.23-.52,.06-.87,.11-1.06,.16-.34,.07-.66,.11-.97,.11-.84,0-1.57-.35-2.2-1.04-.6-.7-.9-1.16-.9-1.4s.09-.36,.27-.36,.41,.13,.7,.4c.34,.29,.65,.48,.94,.58,.36,.12,1.09,.18,2.2,.18,.58,0,1.24-.02,2-.07,.76-.05,1.6-.12,2.54-.22,1.85-.22,2.9-.42,3.17-.61,.26-.19,.56-.29,.9-.29Zm7.81,1.37c0,.22-.07,.43-.22,.65-.14,.22-.31,.37-.5,.45-.19,.08-.39,.08-.59,0-.2-.08-.35-.31-.45-.67-.1-.43-.36-.94-.79-1.51-.41-.53-.77-.88-1.1-1.04-.32-.17-.49-.32-.49-.47,0-.24,.14-.36,.43-.36,.46,0,1.18,.34,2.16,1.01,1.03,.67,1.55,1.32,1.55,1.94Zm4.43-2.23c0,.19-.07,.38-.22,.56s-.32,.32-.54,.41-.44,.11-.68,.05c-.24-.06-.44-.25-.61-.56-.6-1.22-1.31-2.08-2.12-2.56-.19-.12-.29-.26-.29-.43s.14-.25,.43-.25c.58,0,1.39,.31,2.45,.94,1.06,.62,1.58,1.24,1.58,1.84Z"/><path class="cls-1" d="M112.54,273.71c-1.01,.19-2.02,.37-3.02,.52-1.01,.16-1.6,.23-1.78,.23s-.27-.07-.27-.2,.16-.25,.47-.34c2.38-.77,4.33-1.51,5.85-2.23,1.52-.72,2.37-1.24,2.54-1.55,.31-.58,.66-.86,1.04-.86s1.04,.23,1.96,.7c.92,.47,1.39,.84,1.39,1.12s-.25,.46-.74,.54c-.49,.08-1.08,.25-1.76,.5-.68,.25-2.17,.69-4.45,1.31,1.18,.34,1.76,.8,1.76,1.4,0,.19-.13,.71-.4,1.55,1.51-.22,2.76-.47,3.74-.76,.98-.29,1.85-.43,2.61-.43s1.34,.12,1.75,.36c.41,.24,.61,.45,.61,.63s-.09,.31-.27,.4c-.18,.08-1.03,.23-2.54,.45-1.51,.22-3.5,.47-5.98,.76-.02,.41-.04,1.73-.04,3.96,1.37-.17,2.93-.32,4.68-.47,.17-.98,.25-1.69,.25-2.12s-.06-.76-.18-.99c-.12-.23-.18-.43-.18-.61s.17-.27,.52-.27,.89,.18,1.62,.54c.73,.36,1.1,.7,1.1,1.01,0,.14-.14,.39-.41,.74-.28,.35-.52,.83-.74,1.46,1.34-.17,2.49-.34,3.44-.52,.95-.18,1.75-.27,2.41-.27s1.31,.24,1.96,.72c.65,.48,.97,.88,.97,1.19,0,.46-.64,.63-1.93,.52-1.28-.11-2.54-.16-3.76-.16s-2.44,.02-3.64,.07c-.67,1.82-1.18,3.13-1.51,3.92,1.73-.24,2.84-.43,3.35-.56,.5-.13,1.09-.2,1.76-.2s1.35,.23,2.03,.68,1.03,.85,1.03,1.17-.43,.49-1.3,.49l-1.91-.11c-.84-.02-2.03-.04-3.58-.04s-3.49,.12-5.81,.36c1.85,1.68,3.68,3.16,5.49,4.45,1.81,1.28,3.46,2.19,4.95,2.72,1.49,.53,3.25,.98,5.29,1.37,.6,.1,.9,.26,.9,.5,0,.12-.11,.22-.34,.31s-1.1,.22-2.61,.41c-1.51,.19-2.65,.29-3.42,.29s-1.38-.08-1.84-.25c-.46-.17-.95-.49-1.48-.95-.53-.47-1.6-1.54-3.2-3.22s-2.92-3.13-3.92-4.36l.18,8.32c0,1.34-.11,2.35-.34,3.02-.23,.67-.49,1.01-.79,1.01s-.67-.31-1.1-.94c-.43-.62-.65-1.21-.65-1.76s.11-1.18,.34-1.89c.23-.71,.4-1.63,.5-2.75s.16-2.94,.16-5.44c-1.03,1.94-2.54,3.77-4.54,5.49-1.99,1.72-3.77,2.9-5.35,3.56s-2.61,.99-3.11,.99c-.24,0-.36-.07-.36-.2s.22-.32,.65-.56c2.33-1.32,4.48-2.86,6.46-4.61s3.46-3.46,4.45-5.11c-1.68,.14-3.29,.35-4.84,.61-1.55,.26-2.54,.4-2.97,.4s-.91-.15-1.42-.45c-.52-.3-.77-.54-.77-.72s.32-.27,.97-.27c1.8,0,5.41-.31,10.84-.94,0-2.09-.02-3.47-.07-4.14l-4.07,.47,.11,2.16c.02,.41-.02,.76-.14,1.06s-.26,.45-.43,.45-.34-.12-.5-.36c-.17-.24-.28-.5-.32-.79l-.36-2.3c-1.75,.26-3.07,.49-3.94,.67-.88,.18-1.54,.27-2,.27s-.98-.16-1.57-.47c-.59-.31-.88-.55-.88-.72s.24-.28,.72-.32c.89-.02,3.36-.25,7.42-.68-.19-.94-.35-1.57-.49-1.91-.13-.34-.31-.63-.52-.88s-.32-.49-.32-.7,.19-.32,.56-.32,.91,.15,1.6,.45c.7,.3,1.04,.92,1.04,1.85v1.33l4.1-.47c-.05-2.45-.08-3.77-.11-3.96-2.66,.31-4.38,.47-5.15,.47s-1.41-.1-1.93-.31c-.52-.2-.77-.36-.77-.47s.18-.16,.54-.16c1.51-.05,3.92-.34,7.24-.86-.1-1.56-.28-2.56-.54-2.99Zm5.8,13c.41-1.18,.76-2.52,1.04-4.03-1.15,.05-2.6,.16-4.36,.32v4.14c1.54-.22,2.64-.36,3.31-.43Z"/><path class="cls-1" d="M150.05,276.08c-1.22,.17-2.2,.25-2.93,.25s-1.4-.08-2.02-.23c-.61-.16-.92-.32-.92-.5s.23-.28,.68-.31c1.3-.1,3.01-.36,5.15-.79-.02-1.27-.11-2.17-.25-2.7-.14-.53-.4-1-.76-1.4-.19-.24-.29-.47-.29-.68s.22-.32,.65-.32,1.07,.16,1.93,.47c.85,.31,1.28,.72,1.28,1.22,0,.14-.04,.3-.11,.47-.22,.5-.34,1.36-.36,2.56,1.22-.26,2.15-.48,2.79-.65,.64-.17,1.13-.25,1.48-.25s.73,.08,1.13,.25c.41,.17,.61,.38,.61,.63s-.28,.47-.85,.67c-.56,.19-2.29,.52-5.17,.97,.05,1.18,.07,2.12,.07,2.84,2.3-.41,3.76-.72,4.36-.94,.38-.14,.77-.22,1.15-.22s1.04,.28,1.96,.83c.92,.55,1.39,1.01,1.39,1.37,0,.19-.13,.41-.4,.67s-.5,.6-.7,1.04c-.2,.44-.46,1.18-.76,2.2-.3,1.02-.66,1.9-1.08,2.63s-.85,1.1-1.28,1.1c-.29,0-.5-.13-.65-.4-.12-.19-.38-.29-.77-.29s-1.47,.12-3.22,.36v3.06c2.54-.31,4.48-.57,5.81-.77,1.33-.2,2.26-.35,2.77-.43s1.02-.13,1.51-.13,1.09,.24,1.8,.72c.71,.48,1.06,.91,1.06,1.3,0,.43-.41,.61-1.22,.54-2.06-.22-3.87-.32-5.42-.32s-3.65,.14-6.32,.43c0,3.31-.1,5.84-.29,7.6-.19,1.75-.47,2.63-.83,2.63-.1,0-.19-.06-.29-.18-.1-.12-.19-.58-.29-1.39-.1-.8-.16-1.64-.18-2.5l-.04-5.98c-4.7,.55-7.57,.95-8.59,1.21-1.02,.25-1.76,.38-2.21,.38s-.98-.19-1.57-.56c-.59-.37-.88-.64-.88-.81s.07-.26,.22-.29c.14-.02,.59-.04,1.33-.04s2.33-.12,4.75-.36c2.42-.24,4.74-.52,6.95-.83v-3.02l-3.92,.61c.05,.36-.14,.54-.58,.54-.19,0-.45-.29-.77-.86-.32-.58-.59-1.31-.81-2.2-.55-2.35-1.13-3.89-1.73-4.61-.29-.34-.43-.62-.43-.85s.22-.34,.67-.34,1.03,.1,1.75,.29l5.65-.9c-.02-.94-.04-1.86-.04-2.77Zm.18,7.63c-.77,.1-1.37,.14-1.82,.14s-.77-.08-.99-.25-.32-.3-.32-.4,.17-.18,.5-.25c.34-.07,1.2-.28,2.59-.61-.02-1.2-.05-2.02-.07-2.45-1.39,.19-3.02,.5-4.9,.94,.34,1.7,.67,3.64,1.01,5.8l4-.58v-2.34Zm1.94-1.98c.53-.1,1.14-.14,1.84-.14s1.04,.18,1.04,.54c0,.19-.13,.38-.4,.58-.26,.19-1.09,.42-2.48,.68,.05,.75,.05,1.54,0,2.38,2.26-.34,3.43-.49,3.53-.47,.36,.02,.59-.05,.7-.23,.11-.18,.32-.92,.63-2.21,.31-1.3,.47-2.16,.47-2.59s-.07-.71-.22-.83c-.14-.12-.43-.18-.86-.18-1.39,0-2.81,.11-4.25,.32v2.16Z"/><path class="cls-1" d="M184.43,286.88c0,.17-.13,.48-.4,.94-.22,.38-.7,1.44-1.44,3.17-.36,.84-.66,1.55-.9,2.12-.24,.58-.42,1.03-.54,1.37-.22,.65-.32,1.09-.32,1.33,0,.26,.04,.49,.11,.68,.07,.19,.11,.38,.11,.58s-.08,.37-.23,.52c-.16,.16-.35,.23-.59,.23-.72,0-1.56-.47-2.52-1.4-.98-.91-1.84-2.45-2.56-4.61-.7-2.23-1.04-4.79-1.04-7.67,0-.96,.04-1.91,.11-2.86,.07-.95,.19-1.88,.36-2.79,.07-.38,.11-.74,.11-1.08,0-.91-.26-1.7-.79-2.38-.14-.17-.22-.34-.22-.52s.13-.27,.4-.27c.38,0,.96,.28,1.73,.83,.77,.55,1.15,1.08,1.15,1.58,0,.34-.14,.8-.43,1.4-.29,.6-.52,1.48-.68,2.63-.17,1.15-.25,2.5-.25,4.03s.12,3.02,.36,4.46c.24,1.44,.55,2.63,.94,3.56,.22,.46,.4,.81,.56,1.06s.3,.44,.43,.58c.13,.13,.26,.21,.4,.23,.13,.02,.27,.04,.41,.04,.53,0,.89-.2,1.08-.61l1.98-3.85c1.1-2.14,1.73-3.28,1.87-3.42,.14-.12,.32-.18,.52-.18s.31,.1,.31,.29Zm16.27,1.48c0,.84-.07,1.67-.22,2.48-.14,.82-.37,1.31-.67,1.49-.3,.18-.58,.27-.85,.27-.22,0-.37-.07-.47-.22-.1-.14-.14-.38-.14-.7s.02-.75,.05-1.28c.04-.53,.07-1.19,.09-1.98,0-2.93-.5-5.46-1.51-7.6-.96-2.11-2.57-3.44-4.82-4-.53-.1-.79-.3-.79-.61s.22-.47,.67-.47,1.28,.25,2.5,.76c.94,.34,1.78,.89,2.54,1.67s1.4,1.7,1.94,2.77c.54,1.07,.95,2.24,1.24,3.51,.29,1.27,.43,2.57,.43,3.89Z"/><path class="cls-1" d="M218.12,278.14c1.08-.22,1.87-.43,2.36-.63,.49-.2,.88-.47,1.17-.81,.31-.36,.73-.54,1.26-.54s.92,.13,1.17,.38,.38,.5,.38,.74-.14,.47-.43,.68c-.22,.19-.95,.46-2.2,.79-.6,.14-1.24,.28-1.91,.41s-1.38,.26-2.12,.38c-.48,1.7-1.03,3.52-1.66,5.45-.62,1.93-1.32,4.01-2.09,6.25-1.56,4.44-2.44,6.79-2.63,7.06-.22,.31-.44,.47-.68,.47s-.43-.18-.58-.54c-.12-.36-.18-.83-.18-1.42s.19-1.16,.58-1.71c.41-.55,1.12-2.22,2.12-5,.53-1.39,1.06-2.94,1.6-4.64s1.11-3.58,1.71-5.62c-1.8,.29-3.24,.43-4.32,.43s-1.85-.32-2.3-.97c-.43-.65-.65-1.09-.65-1.31s.07-.34,.22-.34,.38,.14,.72,.43c.34,.29,.73,.5,1.19,.65,.46,.14,1.06,.22,1.8,.22,.38,0,.89-.04,1.51-.11,.62-.07,1.37-.19,2.23-.36,.67-2.33,1.01-3.83,1.01-4.5,0-1.01-.17-1.72-.5-2.12-.12-.12-.18-.25-.18-.4,0-.26,.13-.4,.4-.4s.78,.3,1.55,.9c.77,.62,1.15,1.13,1.15,1.51,0,.41-.16,.78-.47,1.12-.26,.31-.67,1.5-1.22,3.56Zm16.34,17.89c.48,0,.92,.14,1.33,.41,.41,.28,.61,.56,.61,.85,0,.31-.18,.55-.54,.72-.34,.17-.94,.34-1.8,.5-.86,.17-1.84,.25-2.92,.25-2.45,0-4.66-.42-6.62-1.26-1.92-.84-2.88-2.06-2.88-3.67,0-.36,.05-.7,.14-1.01,.1-.31,.22-.58,.36-.81,.14-.23,.29-.4,.43-.52s.26-.18,.36-.18c.19,0,.3,.05,.32,.14,.02,.1,0,.23-.05,.4s-.13,.38-.2,.65c-.07,.26-.11,.55-.11,.86,0,1.08,.6,1.93,1.8,2.56,1.18,.6,2.77,.9,4.79,.9s3.37-.19,4.07-.58c.29-.14,.59-.22,.9-.22Zm1.58-16.16c0,.38-.28,.64-.83,.76-.58,.12-1.15,.31-1.73,.58-.6,.26-1.6,.95-2.99,2.05-.7,.55-1.24,.98-1.64,1.3-.4,.31-.64,.52-.74,.61-.17,.17-.32,.25-.47,.25-.17,0-.27-.05-.31-.14-.04-.1,.03-.27,.2-.52,.17-.25,.44-.59,.83-1.01s.92-.95,1.62-1.6c.91-.89,1.55-1.42,1.91-1.58,.36-.19,.54-.35,.54-.49s-.19-.2-.58-.2c-.53,0-1.05,.01-1.57,.04-.52,.02-1.05,.06-1.6,.11l-2.7,.29c-.31,0-.47-.1-.47-.29,0-.38,.65-.78,1.94-1.19,1.34-.41,2.87-.61,4.57-.61s2.86,.2,3.31,.61c.46,.38,.68,.73,.68,1.04Z"/><path class="cls-1" d="M253.3,278.93c1.68-.41,2.86-.95,3.53-1.62,.29-.29,.59-.46,.92-.5,.32-.05,.62-.02,.9,.07,.28,.1,.51,.25,.7,.45,.19,.2,.29,.41,.29,.63,0,.26-.16,.48-.47,.65-.14,.1-.41,.21-.79,.34-.38,.13-.89,.28-1.51,.45s-1.26,.33-1.91,.49c-.65,.16-1.32,.29-2.02,.41-1.01,4.13-2.16,8.24-3.46,12.35-1.3,4.03-2.05,6.19-2.27,6.48-.19,.29-.43,.43-.72,.43s-.49-.19-.61-.58c-.12-.38-.18-.83-.18-1.35s.18-1.03,.54-1.53c.17-.24,.41-.77,.74-1.6,.32-.83,.7-1.91,1.13-3.24,.43-1.33,.91-2.89,1.42-4.68,.52-1.79,1.06-3.79,1.64-5.99-1.01,.17-1.87,.29-2.57,.38-.71,.08-1.27,.13-1.67,.13-.84,0-1.51-.31-2.02-.94-.48-.65-.72-1.1-.72-1.35s.12-.38,.36-.38c.07,0,.17,.05,.31,.14,.13,.1,.29,.2,.47,.32,.18,.12,.37,.24,.56,.36,.19,.12,.38,.22,.58,.29,.43,.12,.94,.18,1.51,.18,.67,0,1.86-.16,3.56-.47,.62-2.3,.94-3.77,.94-4.39,0-.98-.18-1.69-.54-2.12-.12-.12-.18-.26-.18-.43s.05-.3,.14-.4c.1-.1,.24-.14,.43-.14s.66,.28,1.4,.83c.74,.53,1.12,1.06,1.12,1.58,0,.29-.13,.73-.4,1.33-.12,.29-.28,.72-.47,1.3-.19,.58-.42,1.28-.68,2.12Zm16.99,17.64c.43,0,.83,.13,1.21,.4,.37,.26,.56,.5,.56,.72s-.13,.42-.4,.61c-.12,.07-.34,.16-.67,.27-.32,.11-.72,.2-1.19,.29-.47,.08-1,.16-1.58,.22-.59,.06-1.18,.09-1.78,.09-2.69,0-4.92-.41-6.7-1.22-1.8-.82-2.7-2-2.7-3.56,0-.34,.05-.65,.16-.94,.11-.29,.23-.54,.38-.76,.14-.22,.29-.39,.45-.52s.28-.2,.38-.2c.17,0,.26,.05,.29,.14s.01,.23-.04,.4c-.05,.17-.11,.38-.18,.63s-.11,.53-.11,.85c0,1.15,.62,2.03,1.87,2.63,1.22,.6,2.82,.9,4.79,.9s3.37-.24,4.28-.72c.31-.14,.64-.22,.97-.22Zm.97-16.24c0,.41-.31,.65-.94,.72-.6,.07-1.14,.23-1.62,.49-.48,.25-1.03,.63-1.66,1.13-2.5,2.14-3.86,3.2-4.1,3.2-.07,0-.14-.04-.22-.11-.07-.07-.11-.14-.11-.22,0-.29,.68-1.07,2.05-2.34,1.39-1.27,2.28-2.02,2.66-2.23,.31-.17,.52-.31,.61-.41,.1-.11,.04-.19-.16-.23-.2-.05-.58-.06-1.12-.04-.54,.02-1.28,.08-2.21,.18l-3.28,.36c-.31,0-.47-.11-.47-.32,0-.41,.79-.82,2.38-1.22,1.54-.38,3.19-.58,4.97-.58,.55-.02,1.02,0,1.4,.09,.38,.08,.7,.2,.95,.36s.44,.34,.58,.54,.22,.41,.27,.63Zm-6.48-8.39c.82,0,1.74,.37,2.77,1.12,1.08,.72,1.62,1.33,1.62,1.84,0,.22-.07,.42-.22,.61-.14,.19-.31,.34-.5,.43-.19,.1-.41,.11-.65,.04-.24-.07-.44-.28-.61-.61-.65-1.27-1.52-2.14-2.63-2.59-.24-.1-.36-.24-.36-.43,0-.26,.19-.4,.58-.4Zm4.46-1.76c.36,0,.8,.1,1.31,.31,.52,.2,1.03,.49,1.53,.85,.98,.67,1.48,1.22,1.48,1.66,0,.22-.07,.43-.22,.65-.14,.22-.32,.38-.54,.49-.22,.11-.44,.13-.67,.05-.23-.07-.43-.28-.59-.61-.6-1.18-1.44-2-2.52-2.48-.24-.1-.36-.25-.36-.47,0-.29,.19-.43,.58-.43Z"/><path class="cls-1" d="M299.2,282.02c.67-.17,1.25-.33,1.75-.49,.49-.16,.92-.31,1.28-.45,.36-.14,.67-.29,.94-.43,.26-.14,.52-.29,.76-.43,.5-.33,.97-.55,1.4-.65s.85-.14,1.26-.14c.82,0,1.22,.26,1.22,.79,0,.29-.11,.52-.32,.68-.22,.19-1.09,.55-2.63,1.08-.77,.26-1.56,.51-2.38,.74-.82,.23-1.67,.45-2.56,.67,.48,.91,1.01,1.84,1.6,2.79,.59,.95,1.23,1.93,1.93,2.93,.72,1.06,1.08,1.96,1.08,2.7-.02,.22-.07,.44-.13,.68-.06,.24-.17,.42-.32,.54-.16,.12-.37,.14-.63,.05-.26-.08-.61-.35-1.04-.81-.58-.6-1.62-1.1-3.13-1.51-1.56-.41-3.23-.61-5-.61s-3.38,.25-4.75,.76c-1.37,.5-2.05,1.46-2.05,2.88,0,.62,.16,1.24,.47,1.84,.31,.58,1.19,1.02,2.63,1.33,1.46,.34,2.98,.5,4.55,.5s3.01-.22,4.3-.65c.34-.12,.69-.19,1.06-.2,.37-.01,.71,.02,1.01,.09,.3,.07,.55,.19,.74,.36,.19,.17,.29,.38,.29,.65,0,.31-.14,.58-.43,.79-.26,.22-1.08,.38-2.45,.5-.67,.05-1.36,.09-2.07,.13-.71,.04-1.45,.05-2.21,.05s-1.54-.05-2.32-.14c-.78-.1-1.58-.24-2.39-.43-1.61-.36-2.78-.97-3.51-1.84-.73-.86-1.1-1.75-1.1-2.66s.38-1.82,1.15-2.66c.77-.86,1.85-1.49,3.24-1.87,1.39-.38,2.87-.58,4.43-.58,2.28,0,4.34,.4,6.19,1.19,.17,.07,.33,.11,.49,.11s.28-.03,.36-.09c.08-.06,.1-.16,.05-.29-.05-.13-.19-.29-.43-.49-.58-.5-1.63-2.39-3.17-5.65-2.21,.48-4.33,.88-6.37,1.19-2.06,.29-3.44,.43-4.14,.43-1.34,0-2.36-.28-3.06-.83-.67-.58-1.01-1.06-1.01-1.44,0-.19,.12-.29,.36-.29s.6,.2,1.08,.61c.48,.38,1.3,.58,2.45,.58,2.33,0,5.68-.54,10.04-1.62-.24-.53-.52-1.15-.83-1.87-.31-.72-.66-1.54-1.04-2.45-.6,.14-1.21,.28-1.82,.4-.61,.12-1.23,.23-1.85,.32-.62,.1-1.13,.17-1.51,.22-.38,.05-.65,.07-.79,.07-.53,0-1.01-.07-1.46-.2-.44-.13-.82-.3-1.13-.5-.31-.2-.55-.43-.72-.67-.17-.24-.25-.47-.25-.68,0-.17,.05-.25,.14-.25s.17,.01,.22,.04c.96,.55,2.05,.83,3.28,.83,.62,0,1.38-.07,2.27-.22,.89-.14,1.92-.35,3.1-.61l-1.33-3.28c-.1-.22-.2-.4-.31-.56-.11-.16-.24-.29-.4-.41-.16-.12-.35-.22-.59-.31-.24-.08-.54-.19-.9-.31-.24-.07-.36-.23-.36-.47,0-.5,.5-.76,1.51-.76,.72,0,1.36,.17,1.91,.52,.55,.35,.85,.79,.9,1.31,.05,.89,.38,2.17,1.01,3.85,1.03-.31,2.26-.92,3.67-1.84,.31-.24,.63-.38,.95-.41,.32-.04,.62,0,.88,.09,.26,.1,.47,.22,.63,.38,.16,.16,.23,.31,.23,.45,0,.17-.13,.35-.4,.54-.12,.1-.35,.22-.7,.36-.35,.14-.8,.34-1.35,.58-.55,.22-1.11,.42-1.67,.61-.56,.19-1.15,.37-1.75,.54,.31,.74,.63,1.47,.95,2.18,.32,.71,.67,1.41,1.03,2.11Z"/><path class="cls-1" d="M332.57,291.96c3.62,1.18,6.01,2.2,7.16,3.06,1.22,.86,1.84,1.68,1.84,2.45,0,.43-.2,.65-.61,.65-.29,0-.6-.17-.94-.5-2.28-2.11-4.73-3.56-7.34-4.36,.14,.98,.21,1.58,.21,1.8,0,1.18-.61,2.14-1.84,2.88-1.22,.77-2.58,1.15-4.07,1.15s-2.99-.38-4.5-1.15c-1.13-.55-1.82-1.22-2.09-2-.26-.78-.14-1.52,.36-2.21,.5-.7,1.37-1.28,2.61-1.76,1.24-.48,2.79-.71,4.66-.68,1.08,0,2,.08,2.77,.25-.05-1.94-.09-3.43-.12-4.46-.04-1.03-.05-1.62-.05-1.76-1.2,.17-2.33,.29-3.38,.36-1.05,.07-2.05,.11-2.99,.11-1.87,0-3.11-.23-3.71-.68-.6-.46-.9-.95-.9-1.48,0-.19,.05-.39,.14-.59,.1-.2,.2-.36,.32-.47,.12-.11,.23-.13,.32-.07,.1,.06,.15,.25,.18,.56,.05,.67,.37,1.09,.97,1.26,.31,.07,.71,.13,1.19,.18,.48,.05,1.08,.07,1.8,.07s1.57-.03,2.54-.09c.97-.06,2.13-.16,3.47-.31-.03-.89-.04-1.87-.05-2.93-.01-1.07-.02-2.25-.02-3.55-4.8,.65-8.1,.97-9.9,.97-1.13,0-1.98-.29-2.56-.86-.55-.6-.83-.97-.83-1.12,0-.19,.05-.29,.16-.29s.21,.02,.31,.07c.96,.6,2.3,.9,4.03,.9s4.74-.29,8.82-.86c.02-.53,.04-1.01,.05-1.44,.01-.43,.02-.84,.02-1.22s-.02-.72-.07-1.01c-.05-.29-.13-.55-.25-.79-.12-.24-.29-.47-.5-.7-.22-.23-.49-.47-.83-.74-.21-.17-.32-.35-.32-.54s.16-.29,.47-.29,.97,.25,1.98,.76c1.03,.46,1.55,1.08,1.55,1.87,0,.29-.05,.54-.14,.76-.31,.82-.48,1.86-.5,3.13,1.22-.19,2.23-.35,3.03-.47,.79-.12,1.39-.23,1.8-.32,.41-.1,.78-.2,1.12-.32,.34-.12,.63-.25,.9-.4,.53-.29,1.01-.43,1.44-.43,.21,0,.43,.04,.65,.13,.21,.08,.41,.19,.59,.31,.18,.12,.33,.25,.45,.38,.12,.13,.18,.25,.18,.34,0,.24-.3,.44-.9,.61-.62,.19-3.71,.66-9.25,1.4-.05,1.2-.07,2.33-.07,3.4s.01,2.11,.04,3.11c1.3-.19,2.54-.47,3.73-.83,1.19-.36,2.11-.74,2.75-1.15,.29-.12,.59-.18,.9-.18,.38,0,.76,.12,1.13,.36,.37,.24,.56,.44,.56,.61,0,.14-.14,.29-.43,.43-.29,.17-1.26,.44-2.92,.83-1.63,.38-3.53,.74-5.69,1.08,.02,.91,.08,1.93,.18,3.06,.1,1.13,.23,2.38,.39,3.74Zm-1.73,.86c-1.2-.22-2.35-.32-3.46-.32-1.39-.02-2.55,.14-3.47,.49s-1.57,.76-1.94,1.24c-.37,.48-.47,.97-.29,1.48,.18,.5,.68,.91,1.49,1.22,.77,.41,1.61,.64,2.52,.7s1.76-.02,2.54-.23c.78-.22,1.43-.57,1.95-1.06,.52-.49,.76-1.1,.74-1.82l-.07-1.69Z"/><path class="cls-1" d="M378.36,287.24c0,1.54-.49,3.32-1.48,5.36-.98,2.06-2.45,3.67-4.39,4.82-1.99,1.2-4.25,1.8-6.77,1.8s-4.49-.68-5.83-2.03c-1.34-1.36-2.02-3.27-2.02-5.74,0-1.56,.07-4.21,.22-7.96,.1-1.87,.17-3.37,.23-4.48,.06-1.12,.11-1.87,.16-2.25,.1-.55,.16-1.04,.18-1.48,.02-.43,0-.83-.09-1.21s-.25-.74-.49-1.1c-.24-.36-.59-.74-1.04-1.15-.22-.17-.32-.34-.32-.52s.12-.27,.36-.27c.29,0,.79,.16,1.51,.47,.74,.31,1.3,.72,1.66,1.22,.36,.5,.54,1.15,.54,1.94,0,.72-.13,1.68-.4,2.88-.24,1.1-.46,2.77-.65,5-.1,1.1-.17,2.21-.22,3.33-.05,1.12-.07,2.26-.07,3.44,0,2.26,.17,3.95,.5,5.08,.33,1.08,.96,1.86,1.87,2.34,.91,.48,2.25,.72,4.03,.72,2.71,0,5.16-1.02,7.34-3.06,2.18-2.04,3.59-4.58,4.21-7.63,.05-.22,.12-.38,.22-.5,.1-.12,.2-.17,.31-.14,.11,.02,.2,.13,.29,.31,.08,.18,.13,.45,.13,.81Z"/><path class="cls-1" d="M413.57,272.7c.36,0,.85,.18,1.48,.54,.62,.36,.94,.71,.94,1.04,0,.29-.07,.49-.22,.61-.14,.12-.34,.2-.58,.23-.24,.04-.51,.04-.81,.02-.3-.02-.59-.04-.88-.04-1.73,0-3.28,.34-4.64,1.01-1.44,.7-3.11,1.8-5,3.31-1.94,1.51-3.4,3.1-4.37,4.75-.97,1.66-1.46,3.28-1.46,4.86,0,1.9,.64,3.48,1.91,4.75,1.27,1.25,2.94,1.87,5,1.87,.29,0,.59-.02,.92-.05s.64-.05,.95-.05c.46,0,.9,.05,1.33,.16,.43,.11,.82,.25,1.15,.41s.6,.37,.79,.59c.19,.23,.29,.46,.29,.7,0,.17-.06,.31-.18,.43-.1,.12-.41,.23-.94,.32-.53,.1-1.09,.14-1.69,.14-1.97,0-3.94-.42-5.9-1.26-1.9-.82-3.26-1.96-4.1-3.42-.79-1.46-1.19-2.96-1.19-4.5,0-2.4,.95-4.75,2.84-7.06,1.9-2.3,4.68-4.48,8.35-6.52,.31-.19,.47-.32,.47-.4s-.14-.11-.43-.11c-.48,0-1.36,.09-2.65,.27-1.28,.18-2.99,.44-5.13,.77-2.14,.34-3.84,.65-5.11,.94-1.27,.29-2.14,.53-2.59,.72-.34,.17-.65,.25-.94,.25-.5,0-1.14-.42-1.91-1.26-.77-.84-1.15-1.39-1.15-1.66,0-.29,.11-.43,.32-.43,.12,0,.34,.12,.65,.36,.36,.22,.73,.4,1.1,.56,.37,.16,.94,.23,1.71,.23s2.23-.18,4.39-.54c2.16-.36,5.16-.78,9-1.26,1.94-.24,3.49-.44,4.63-.61,1.14-.17,1.88-.3,2.21-.4,.72-.22,1.2-.32,1.44-.32Z"/><path class="cls-1" d="M433.98,276.91c.41,0,.81,.07,1.21,.2,.4,.13,.59,.27,.59,.41,0,.22-.52,.42-1.55,.61-2.59,.55-5.35,1.34-8.28,2.38-.34,.14-.68,.22-1.04,.22s-.87-.23-1.53-.7c-.66-.47-.99-.79-.99-.95s.42-.25,1.26-.25c1.01,0,2.08-.11,3.22-.32s2.47-.53,4-.95,2.56-.63,3.11-.63Zm-5.29,19.37c.07,1.44-.1,2.16-.5,2.16-.31,0-.58-.5-.79-1.51-.5-2.18-.89-3.65-1.15-4.41-.26-.76-.6-1.33-1.01-1.71-.14-.17-.22-.32-.22-.47,0-.26,.22-.4,.67-.4s.99,.19,1.64,.58c1.82-.22,3.28-.71,4.36-1.48,.19-.14,.42-.22,.68-.22s.76,.2,1.48,.59c.72,.4,1.08,.69,1.08,.88s-.13,.42-.4,.68-.49,.67-.67,1.21-.27,.92-.27,1.15,.12,.44,.36,.63c.24,.19,.36,.4,.36,.63s-.25,.38-.76,.47-2.12,.49-4.86,1.21Zm4.03-11.2c.36,0,.7,.07,1.01,.2,.31,.13,.47,.29,.47,.49,0,.36-.74,.76-2.21,1.19s-2.49,.65-3.04,.65-1.07-.05-1.57-.16c-.49-.11-.74-.23-.74-.36s.28-.25,.83-.34c.82-.1,1.98-.49,3.49-1.19,.67-.31,1.26-.47,1.76-.47Zm.36-4.07c.34,0,.66,.07,.97,.22,.31,.14,.47,.3,.47,.47,0,.38-.74,.79-2.21,1.21-1.48,.42-2.51,.63-3.1,.63s-1.12-.06-1.58-.18c-.47-.12-.7-.25-.7-.4s.3-.25,.9-.31,1.72-.44,3.35-1.13c.79-.34,1.43-.5,1.91-.5Zm-5.11,10.62l.65,3.6c1.82-.6,2.86-1.07,3.1-1.4,.24-.34,.36-.85,.36-1.55s-.04-1.12-.11-1.26c-.07-.14-.23-.22-.47-.22-.38,0-1.56,.28-3.53,.83Zm.97-20.45c.24,0,.82,.13,1.73,.4,.91,.26,1.54,.6,1.89,1.01,.35,.41,.52,.88,.52,1.42s-.08,.92-.25,1.15c-.17,.23-.34,.34-.52,.34s-.34-.05-.49-.14c-.14-.1-.49-.4-1.03-.92-.54-.52-.95-.96-1.22-1.33-.28-.37-.51-.72-.7-1.04s-.29-.55-.29-.68,.12-.2,.36-.2Zm9.68,10.73c.02,.65,.04,1.39,.04,2.23s-.05,1.66-.14,2.45c.86-.17,1.56-.46,2.09-.86,.26-.22,.53-.32,.81-.32s.76,.16,1.44,.49c.68,.32,1.03,.58,1.03,.76s-.07,.37-.22,.56c-.34,.41-.59,1.55-.76,3.42s-.55,3.2-1.15,4c-.6,.79-1.06,1.19-1.39,1.19s-.51-.17-.56-.5c-.05-.33-.17-.67-.38-.99-.2-.32-.51-.69-.92-1.1-.41-.41-.61-.7-.61-.88s.08-.27,.25-.27,.43,.08,.77,.23c.35,.16,.67,.23,.95,.23s.51-.08,.67-.23,.31-.6,.47-1.33c.16-.73,.23-1.72,.23-2.97,0-.48-.11-.72-.34-.72s-.56,.07-1.01,.2-.95,.19-1.53,.16c-.26,1.58-.62,3.02-1.08,4.3s-1,2.39-1.64,3.33c-.64,.94-1.23,1.6-1.78,1.98s-.88,.58-.99,.58-.16-.06-.16-.18,.12-.34,.36-.65c.86-1.1,1.51-2.18,1.94-3.22s.82-2.51,1.17-4.41c.35-1.9,.52-3.36,.52-4.39,0-1.51-.18-2.63-.54-3.35-.17-.31-.25-.59-.25-.85s.18-.38,.54-.38,.91,.2,1.66,.61c1.61-.19,3.36-.63,5.26-1.33-.82-3.7-1.38-6.1-1.67-7.22s-.55-1.78-.74-2c-.58-.5-.86-.88-.86-1.13s.21-.38,.63-.38,.94,.07,1.55,.2,1.07,.3,1.39,.5c.31,.2,.47,.47,.47,.79s-.03,.62-.09,.88c-.06,.26-.09,.55-.09,.86,0,1.37,.3,3.65,.9,6.84,1.73-.67,2.93-1.01,3.6-1.01s1.16,.08,1.48,.23c.31,.16,.47,.35,.47,.58s-.22,.4-.65,.52l-4.61,1.19c.58,2.71,1.42,5.39,2.52,8.03,.91-1.99,1.37-3.62,1.37-4.9,0-.26-.04-.5-.13-.72s-.13-.45-.13-.7,.15-.38,.45-.38,.83,.23,1.58,.7,1.13,.81,1.13,1.03-.1,.42-.29,.61c-.41,.5-.84,1.34-1.3,2.52-.24,.84-.83,2.09-1.76,3.74,.7,1.46,1.43,2.72,2.2,3.78,.77,1.06,1.27,1.58,1.49,1.58s.44-.19,.65-.56c.2-.37,.46-.99,.77-1.85,.31-.86,.58-1.3,.79-1.3s.32,.17,.32,.52-.05,.85-.16,1.49c-.11,.65-.16,1.33-.16,2.05s.07,1.36,.22,1.93c.14,.56,.22,.94,.22,1.13,0,.53-.24,.79-.72,.79s-1.37-.61-2.66-1.82-2.66-3.2-4.1-5.96c-.91,1.22-2,2.29-3.26,3.19-1.26,.9-2.07,1.35-2.43,1.35-.12,0-.18-.06-.18-.18s.18-.32,.54-.61c1.61-1.3,3.11-3.12,4.5-5.47-1.32-3.14-2.3-6.35-2.95-9.61-2.45,.62-4.13,.95-5.04,.97Zm8.57-9.61c1.22,0,2.24,.16,3.06,.49,.82,.32,1.22,1,1.22,2.03,0,.7-.24,1.04-.72,1.04-.43,0-1.22-.52-2.38-1.57-1.15-1.04-1.73-1.64-1.73-1.78s.18-.22,.54-.22Z"/><path class="cls-1" d="M468.07,286.78c0,.12-.04,.29-.11,.5-.53,1.34-.97,2.5-1.31,3.46s-.62,1.75-.81,2.38c-.19,.62-.35,1.3-.49,2.02s-.25,1.5-.34,2.34c-.12,.77-.38,1.15-.79,1.15-.29,0-.52-.16-.68-.47-.19-.29-.41-1.22-.65-2.81-.12-.82-.22-1.6-.29-2.36s-.11-1.49-.11-2.21,.04-1.51,.11-2.38c.07-.86,.19-1.81,.36-2.84,.17-1.03,.39-2.24,.67-3.64,.28-1.39,.62-2.99,1.03-4.79,.1-.36,.14-.77,.14-1.22,0-1.1-.24-1.99-.72-2.66-.07-.1-.11-.2-.11-.32s.08-.18,.25-.18c.22,0,.71,.37,1.48,1.12,.79,.77,1.19,1.38,1.19,1.84,0,.5-.18,1.16-.54,1.98-.7,1.73-1.32,3.94-1.87,6.62-.5,2.64-.76,4.91-.76,6.8s.13,2.84,.4,2.84c.1,0,.19-.07,.27-.2,.08-.13,.19-.36,.31-.68,.12-.32,.28-.76,.49-1.3,.2-.54,.49-1.21,.85-2,.67-1.54,1.13-2.47,1.37-2.81,.24-.29,.41-.43,.52-.43s.16,.08,.16,.25Zm20.95,9c0,.34-.17,.58-.5,.72s-1.12,.28-2.34,.4c-1.22,.12-2.7,.18-4.43,.18s-3.14-.14-4.25-.41c-1.1-.28-2.09-.7-2.95-1.28-1.78-1.22-2.66-2.84-2.66-4.86,0-.22,.01-.44,.04-.67,.02-.23,.06-.46,.11-.7,.12-.5,.22-.8,.31-.9,.08-.1,.16-.14,.23-.14,.22,0,.32,.17,.32,.5l-.07,.83c0,1.13,.56,2.4,1.69,3.82,1.13,1.42,3.3,2.12,6.52,2.12,1.01,0,1.92-.07,2.74-.22,.82-.14,1.37-.31,1.66-.5,.34-.19,.76-.29,1.26-.29,.26,0,.53,.05,.81,.14,.28,.1,.53,.21,.76,.34,.23,.13,.41,.28,.56,.45,.14,.17,.22,.32,.22,.47Zm-3.74-21.35c.36,0,.82,.14,1.37,.43,.58,.29,.86,.6,.86,.94,0,.41-.26,.62-.79,.65-1.18,.1-2.27,.42-3.28,.97-.98,.55-2.71,1.74-5.18,3.56-.26,.19-.47,.29-.61,.29s-.22-.05-.22-.14c0-.07,.06-.2,.18-.4,.07-.1,.22-.26,.43-.49,.22-.23,.52-.51,.9-.85,.38-.36,.76-.7,1.12-1.03s.72-.62,1.08-.88c.17-.1,.25-.2,.25-.32s-.17-.16-.5-.11c-.55,.1-1.04,.17-1.48,.23-.43,.06-.8,.1-1.12,.13-.29,.02-.62,.04-1.01,.04h-1.3c-.96,0-1.64-.08-2.05-.25-.46-.19-.88-.52-1.26-.97-.41-.48-.61-.8-.61-.97,0-.24,.13-.36,.4-.36,.05,0,.12,.02,.22,.07,.58,.48,1.19,.78,1.85,.9s1.45,.18,2.36,.18,2.23-.14,3.96-.43c1.73-.31,2.92-.64,3.56-.97,.31-.14,.6-.22,.86-.22Z"/><path class="cls-1" d="M515.63,283.14c2.42,.46,4.34,1.42,5.76,2.88,1.39,1.42,2.09,3.06,2.09,4.93s-.6,3.43-1.8,4.9c-1.2,1.44-2.99,2.54-5.36,3.31-2.35,.79-4.01,1.19-4.97,1.19-.43,0-.65-.12-.65-.36s.17-.38,.5-.43c2.59-.34,4.98-1.25,7.16-2.74,2.18-1.51,3.28-3.46,3.28-5.83,0-1.49-.46-2.87-1.37-4.14-.91-1.3-2.5-2.21-4.75-2.74-.29,1.42-2.34,4.56-6.16,9.43,.24,.67,.44,1.12,.61,1.35,.17,.23,.25,.4,.25,.52s-.08,.25-.25,.38-.32,.2-.47,.2c-.36,0-.73-.43-1.12-1.3-.62,.72-1.26,1.35-1.91,1.89-.65,.54-1.3,.99-1.94,1.35-.65,.36-1.27,.63-1.87,.83-.6,.19-1.15,.29-1.66,.29-1.01,0-1.82-.38-2.45-1.15-.62-.77-.94-1.84-.94-3.2,0-2.18,.85-4.34,2.56-6.48,1.68-2.11,4.06-3.66,7.13-4.64,.1-1.51,.31-3.24,.65-5.18-1.56,.19-2.87,.34-3.92,.45-1.06,.11-1.86,.16-2.41,.16-1.08,0-1.86-.28-2.34-.83-.43-.58-.65-.98-.65-1.22,0-.1,.05-.14,.16-.14s.28,.1,.52,.29c.6,.46,1.59,.68,2.97,.68s3.31-.12,5.78-.36c.26-1.61,.44-2.64,.54-3.1,.05-.26,.09-.5,.13-.7s.05-.39,.05-.56c0-.31-.11-.64-.34-.97-.23-.34-.64-.77-1.24-1.3-.07-.02-.11-.1-.11-.22,0-.22,.13-.32,.4-.32s.78,.22,1.55,.65c.72,.38,1.19,.72,1.4,1.01,.19,.26,.29,.54,.29,.83,0,.34-.14,.73-.43,1.19-.31,.48-.66,1.58-1.04,3.31,2.74-.43,4.79-.98,6.16-1.66,1.46-.7,2.4-1.04,2.81-1.04s.74,.1,1.01,.29c.26,.17,.4,.34,.4,.5s-.24,.37-.72,.61c-.24,.12-.68,.28-1.33,.47-.65,.19-1.51,.42-2.59,.68-1.08,.26-2.11,.49-3.1,.68-.98,.19-1.92,.35-2.81,.47-.12,.67-.23,1.42-.34,2.25-.11,.83-.19,1.75-.23,2.75,1.1-.24,2.15-.36,3.13-.36s1.8,.02,2.45,.07c-.14-.36-.42-.83-.83-1.4-.07-.09-.11-.22-.11-.36s.08-.22,.25-.22c.19,0,.64,.28,1.33,.83,.72,.55,1.02,1,.9,1.33Zm-7.6,10.58c-.55-1.73-.83-3.91-.83-6.55,0-.41,0-.83,.02-1.26,.01-.43,.03-.88,.05-1.33-2.54,.84-4.51,2.21-5.9,4.1-1.42,1.92-2.12,3.96-2.12,6.12-.02,.53,.02,.95,.13,1.28,.11,.32,.26,.58,.47,.76,.2,.18,.46,.31,.76,.38,.3,.07,.64,.13,1.03,.18,.41,0,.88-.09,1.4-.27,.53-.18,1.07-.43,1.64-.76,.56-.32,1.14-.71,1.73-1.15,.59-.44,1.13-.94,1.64-1.49Zm6.08-9.86c-.6-.07-1.37-.11-2.3-.11s-2.05,.16-3.35,.47c-.05,1.66-.02,3.17,.07,4.54s.28,2.62,.54,3.74c1.1-1.37,2.23-3.06,3.38-5.08,1.1-1.99,1.66-3.18,1.66-3.56Z"/><path class="cls-1" d="M551.05,271.91c1.51,0,2.74,.86,3.69,2.57s1.42,4.4,1.42,8.05c0,2.71-.3,5.22-.9,7.52-.6,2.33-1.63,4.15-3.1,5.47-1.39,1.3-2.94,2.25-4.64,2.88-1.63,.6-2.65,.9-3.06,.9-.38,0-.58-.1-.58-.29s.12-.32,.36-.4c1.03-.38,1.94-.77,2.74-1.15s1.49-.77,2.09-1.15c1.18-.74,2.15-1.72,2.92-2.93,.77-1.21,1.31-2.75,1.62-4.63,.34-1.9,.5-4.38,.5-7.45s-.35-5.24-1.04-6.3c-.7-1.08-1.5-1.62-2.41-1.62-.29,0-.61,.07-.97,.2s-.76,.38-1.19,.74c-.43,.36-.89,.85-1.39,1.46-.49,.61-1.03,1.4-1.6,2.36-.53,.91-1,1.88-1.42,2.9-.42,1.02-.78,2.06-1.08,3.11-.3,1.06-.54,2.09-.7,3.11-.17,1.02-.25,1.99-.25,2.9l.04,.94c0,.34-.1,.6-.29,.79s-.43,.29-.72,.29c-.62,0-1.24-.62-1.84-1.87-.58-1.25-.86-2.94-.86-5.08s.44-5.2,1.33-9.04c.05-.24,.09-.46,.13-.67,.04-.2,.05-.4,.05-.59,0-.98-.46-1.97-1.37-2.95-.1-.12-.14-.25-.14-.4s.1-.22,.29-.22c.22,0,.8,.41,1.76,1.22,.98,.84,1.48,1.67,1.48,2.48,0,.58-.23,1.28-.68,2.12-.48,.86-.88,2.1-1.19,3.71-.31,1.56-.47,3.02-.47,4.39,0,.65,.01,1.22,.04,1.73,.02,.5,.06,.92,.11,1.26,.07,.36,.18,.62,.32,.79,.14,.17,.29,.26,.45,.27,.16,.01,.3-.05,.43-.2,.13-.14,.22-.36,.27-.65,.26-2.04,.78-4.14,1.55-6.3,.79-2.18,1.73-4.13,2.81-5.83,.55-.86,1.07-1.58,1.55-2.14,.48-.56,.94-1.02,1.37-1.37,.43-.35,.86-.59,1.3-.74,.43-.14,.86-.22,1.3-.22Z"/><path class="cls-1" d="M578.02,278.68c.55-.22,1-.39,1.35-.52s.61-.22,.77-.27c.36-.12,.76-.18,1.19-.18,1.54,0,2.72,.65,3.56,1.96,.84,1.31,1.26,3.27,1.26,5.89s-.47,4.94-1.4,7.27c-.94,2.33-1.91,3.92-2.92,4.79-.5,.43-.93,.75-1.28,.95-.35,.2-.64,.32-.86,.36-.23,.04-.4,0-.5-.11-.11-.11-.16-.25-.16-.41,.1-.29,.16-.53,.2-.72,.04-.19,.04-.38,0-.58-.04-.19-.14-.35-.31-.47-.43-.26-.85-.52-1.26-.77s-.82-.51-1.22-.77c-.38-.26-.7-.49-.94-.67-.24-.18-.41-.32-.5-.41-.31-.34-.38-.56-.22-.67,.17-.11,.36-.1,.58,.02,2.3,1.44,3.91,2.16,4.82,2.16,.55,0,1.03-.22,1.44-.65,.22-.22,.43-.54,.65-.97,.22-.43,.43-.93,.65-1.49,.22-.56,.41-1.19,.59-1.87,.18-.68,.33-1.39,.45-2.11,.26-1.46,.4-2.8,.4-4.01s-.06-2.2-.18-2.97c-.1-.77-.4-1.37-.92-1.8-.52-.43-1.18-.65-2-.65-.72,0-1.92,.31-3.6,.94-.34,1.01-.74,2.11-1.22,3.29-.48,1.19-1.06,2.5-1.73,3.94-1.34,2.86-2.64,5.34-3.89,7.45-1.27,2.16-2.02,3.31-2.23,3.46-.19,.17-.4,.25-.61,.25-.55,0-.83-.38-.83-1.15s.11-1.18,.32-1.3c.58-.22,1.72-1.85,3.42-4.9,1.73-3.05,3.35-6.5,4.86-10.37-2.54,.96-4.01,1.55-4.39,1.76-.38,.19-.84,.29-1.37,.29-.26,0-.52-.05-.77-.16-.25-.11-.48-.24-.68-.4s-.37-.34-.5-.54-.2-.41-.2-.63c0-.31,.12-.47,.36-.47,.02,0,.11,.02,.25,.07,.65,.31,1.32,.47,2.02,.47s2.62-.55,5.76-1.66c.19-.58,.38-1.15,.56-1.73s.33-1.15,.45-1.73c.26-1.2,.4-1.87,.4-2.02,0-.46-.32-1.1-.97-1.94-.12-.17-.18-.32-.18-.47s.12-.22,.36-.22c.65,0,1.31,.26,1.98,.79,.72,.5,1.08,1.09,1.08,1.76,0,.22-.05,.41-.14,.58-.62,1.3-1.2,2.72-1.73,4.28Zm19.48,9.18c0,.5-.08,.89-.23,1.15-.16,.26-.33,.44-.52,.54-.19,.1-.38,.12-.56,.07-.18-.05-.29-.13-.34-.25-.19-.34-.52-.5-.97-.5-.1,0-.22,.02-.36,.07-1.97,1.03-3.34,1.55-4.1,1.55-.38,0-.58-.12-.58-.36,0-.07,.07-.17,.22-.29,.1-.05,.31-.16,.63-.34,.32-.18,.76-.4,1.31-.67,1.18-.6,2-.98,2.48-1.15,.53-.17,.79-.61,.79-1.33s-.66-2.03-1.98-3.85c-1.32-1.9-2.81-3.11-4.46-3.64-.36-.12-.54-.29-.54-.5s.25-.32,.76-.32c.98,0,2.16,.54,3.53,1.62,.7,.53,1.33,1.12,1.91,1.78,.58,.66,1.1,1.38,1.58,2.14,.96,1.54,1.44,2.96,1.44,4.28Zm-1.58-11.3c0,.34-.16,.56-.47,.68-.31,.12-.6,.07-.86-.14-1.22-1.15-2.46-1.86-3.71-2.12-.36-.07-.54-.19-.54-.36,0-.29,.32-.43,.97-.43,1.03,0,2.05,.29,3.06,.86,1.03,.53,1.55,1.03,1.55,1.51Zm-1.58-6.12c.98,0,1.98,.23,2.99,.68,1.06,.48,1.58,1.01,1.58,1.58,0,.34-.17,.59-.52,.76s-.75,.05-1.21-.36c-.65-.6-1.2-1.04-1.66-1.31-.46-.28-1.01-.49-1.66-.63-.34-.07-.5-.21-.5-.41s.32-.31,.97-.31Z"/><path class="cls-1" d="M619.6,283.61c.86-.26,1.79-.54,2.77-.83s2.05-.59,3.2-.9c1.15-.31,2.03-.55,2.65-.7,.61-.16,.97-.25,1.06-.27,.12-.02,.22-.04,.31-.05,.08-.01,.17-.02,.27-.02,.5,0,1,.18,1.48,.54,.48,.34,.72,.62,.72,.86,0,.43-.35,.65-1.04,.65-3.12,0-6.73,.65-10.84,1.94-4.06,1.25-6.84,2.56-8.35,3.92-1.46,1.32-2.2,2.69-2.2,4.1,0,1.78,1.02,3.02,3.06,3.74,2.02,.74,4.5,1.12,7.45,1.12s5.86-.43,8.86-1.3c.5-.14,.92-.22,1.26-.22,.36,0,.8,.16,1.33,.47,.58,.34,.86,.67,.86,1.01s-.14,.58-.43,.72c-.31,.17-1.8,.37-4.46,.61-1.37,.12-2.6,.22-3.71,.29-1.1,.07-2.11,.11-3.02,.11-3.14,0-5.68-.37-7.6-1.12-1.97-.72-3.25-1.6-3.85-2.63s-.9-2.09-.9-3.17,.28-2.04,.83-2.88c.29-.43,.68-.88,1.17-1.35,.49-.47,1.1-.94,1.84-1.42,.73-.48,1.61-.97,2.63-1.46,1.02-.49,2.2-.97,3.55-1.42-.14-.24-.27-.49-.38-.76-.11-.26-.19-.56-.23-.9s-.08-.73-.11-1.17c-.02-.44-.04-.98-.04-1.6l.11-5.26c0-.7-.14-1.34-.43-1.94-.29-.6-.65-1.04-1.08-1.33-.17-.1-.25-.26-.25-.5,0-.36,.17-.54,.5-.54,.24,0,.74,.19,1.51,.58,.82,.41,1.36,.77,1.62,1.08,.26,.34,.4,.7,.4,1.08,0,.43-.12,.97-.36,1.62-.24,.65-.36,2.32-.36,5,0,1.75,.07,3.18,.22,4.28Z"/><path class="cls-1" d="M665.39,286.78c0,1.75-.48,3.66-1.44,5.72-.98,2.14-2.27,3.78-3.85,4.93-1.63,1.2-3.46,2.03-5.47,2.48-1.97,.46-3.47,.68-4.5,.68-.67,0-1.01-.16-1.01-.47s.13-.47,.4-.47c.53,0,1.72-.23,3.56-.68,1.92-.48,3.71-1.34,5.36-2.59,1.63-1.25,2.83-2.89,3.6-4.93,.77-2.04,1.15-3.91,1.15-5.6s-.52-3.08-1.55-4.16c-1.01-1.08-2.44-1.62-4.28-1.62s-5.08,1.8-9.76,5.4c-.5,.38-.95,.58-1.33,.58s-.8-.17-1.26-.5c-.43-.31-.65-.71-.65-1.19s.28-1.02,.83-1.69c.58-.65,.96-.97,1.15-.97,.22,0,.32,.07,.32,.22s-.06,.32-.18,.54c-.17,.36-.18,.64-.04,.85,.14,.2,.5,.14,1.08-.2,3.36-2.11,5.82-3.35,7.38-3.71,1.51-.38,2.69-.58,3.53-.58,2.09,0,3.76,.77,5,2.3,1.3,1.56,1.94,3.44,1.94,5.65Zm-6.8-15.48c.46,0,.86,.17,1.21,.52s.52,.69,.52,1.03c0,.6-.47,.98-1.4,1.15-.36,.05-.72,.13-1.08,.25-.36,.12-.73,.26-1.12,.43-.36,.17-.92,.45-1.69,.85-.77,.4-1.74,.91-2.92,1.53-.17,.1-.36,.14-.58,.14-.31,0-.47-.07-.47-.22s.02-.26,.07-.36c.05-.05,.23-.17,.56-.38s.8-.5,1.42-.88l2.16-1.3c.19-.12,.29-.22,.29-.29,0-.12-.05-.19-.16-.22-.11-.02-.41-.04-.92-.04-1.61,0-2.98-.34-4.1-1.01-1.13-.7-1.69-1.3-1.69-1.8,0-.26,.1-.4,.31-.4s.39,.08,.56,.25c1.03,.89,2.63,1.33,4.79,1.33,1.08,0,1.98-.1,2.7-.31,.72-.2,1.24-.31,1.55-.31Z"/><path class="cls-1" d="M702.22,294.08c.38,0,.7,.07,.94,.22,.24,.14,.41,.31,.52,.5,.11,.19,.15,.4,.13,.61-.02,.22-.12,.41-.29,.58-.24,.24-.94,.48-2.09,.72-1.15,.26-2.45,.46-3.89,.58-1.44,.12-2.88,.18-4.32,.18-5.11,0-8.47-.58-10.08-1.73-1.63-1.13-2.45-2.48-2.45-4.07,0-.96,.36-2.05,1.08-3.28,.74-1.25,1.26-1.87,1.55-1.87,.22,0,.32,.1,.32,.29,0,.05-.02,.12-.07,.22-1.01,1.44-1.51,2.82-1.51,4.14,0,1.25,.53,2.33,1.58,3.24,1.06,.91,3.32,1.37,6.8,1.37,1.08,0,2.14-.04,3.19-.11s2.08-.17,3.11-.29c2.04-.24,3.35-.52,3.92-.83,.53-.31,1.04-.47,1.55-.47Zm-5.87-19.62c.55,0,1.18,.2,1.87,.61,.7,.41,1.04,.83,1.04,1.26,0,.53-.52,.79-1.55,.79-.48,0-1.58,.42-3.31,1.26-.84,.41-1.58,.8-2.21,1.17-.64,.37-1.16,.73-1.57,1.06-.12,.1-.25,.14-.38,.14s-.2-.07-.2-.22c0-.19,.05-.34,.14-.43,.12-.12,.52-.44,1.19-.97,.67-.53,1.56-1.2,2.66-2.02,.19-.14,.29-.28,.29-.41s-.17-.2-.5-.2c-.17,0-.5,.02-1.01,.07-.5,.05-1.18,.12-2.02,.22-.84,.1-1.52,.17-2.03,.23-.52,.06-.87,.11-1.06,.16-.34,.07-.66,.11-.97,.11-.84,0-1.57-.35-2.2-1.04-.6-.7-.9-1.16-.9-1.4s.09-.36,.27-.36,.41,.13,.7,.4c.34,.29,.65,.48,.94,.58,.36,.12,1.09,.18,2.2,.18,.58,0,1.24-.02,2-.07,.76-.05,1.6-.12,2.54-.22,1.85-.22,2.9-.42,3.17-.61,.26-.19,.56-.29,.9-.29Zm7.81,1.37c0,.22-.07,.43-.22,.65-.14,.22-.31,.37-.5,.45-.19,.08-.39,.08-.59,0-.2-.08-.35-.31-.45-.67-.1-.43-.36-.94-.79-1.51-.41-.53-.77-.88-1.1-1.04-.32-.17-.49-.32-.49-.47,0-.24,.14-.36,.43-.36,.46,0,1.18,.34,2.16,1.01,1.03,.67,1.55,1.32,1.55,1.94Zm4.43-2.23c0,.19-.07,.38-.22,.56-.14,.18-.32,.32-.54,.41-.22,.1-.44,.11-.68,.05-.24-.06-.44-.25-.61-.56-.6-1.22-1.31-2.08-2.12-2.56-.19-.12-.29-.26-.29-.43s.14-.25,.43-.25c.58,0,1.39,.31,2.45,.94,1.06,.62,1.58,1.24,1.58,1.84Z"/><path class="cls-1" d="M730.26,280.66c.77,1.3,1.47,2.43,2.11,3.4,.64,.97,1.22,1.81,1.75,2.5,1.03,1.37,1.78,2.56,2.23,3.56,.46,1.01,.68,1.82,.68,2.45,0,.53-.23,.79-.68,.79-.29,0-.74-.3-1.37-.9-.62-.62-2.06-1.19-4.32-1.69-2.21-.53-4.31-.79-6.3-.79-.96,0-1.82,.12-2.57,.36-.76,.24-1.39,.57-1.91,.99-.52,.42-.91,.91-1.17,1.48-.26,.56-.4,1.17-.4,1.82,0,.79,.19,1.48,.58,2.07,.38,.59,.93,1.08,1.64,1.48,.71,.4,1.56,.69,2.56,.88s2.11,.29,3.33,.29c1.75,0,3.05-.23,3.89-.68,.67-.34,1.21-.5,1.62-.5,.46,0,.91,.16,1.37,.47,.5,.34,.76,.64,.76,.9,0,.24-.13,.46-.4,.65-.26,.19-1.09,.37-2.48,.54-.7,.1-1.38,.17-2.05,.22s-1.32,.07-1.94,.07c-3.5,0-6.1-.62-7.78-1.87-1.7-1.22-2.56-2.66-2.56-4.32,0-.98,.32-1.91,.97-2.77,.67-.89,1.66-1.62,2.95-2.2,1.27-.6,2.6-.9,4-.9s2.87,.14,4.57,.43c1.68,.29,2.92,.56,3.71,.83,.79,.26,1.24,.4,1.33,.4,.24,0,.36-.11,.36-.34s-.08-.46-.25-.7c-1.3-1.85-2.41-3.47-3.35-4.88-.94-1.4-1.69-2.61-2.27-3.62-3.41,.96-5.68,1.44-6.8,1.44s-2.13-.16-3.15-.49c-1.02-.32-1.83-.73-2.43-1.21-.43-.36-.7-.65-.79-.86-.1-.22-.11-.36-.04-.43s.19-.09,.36-.05c.17,.04,.3,.1,.4,.2,1.3,.96,2.93,1.44,4.91,1.44s4.24-.43,6.79-1.3c-.29-.46-.56-.93-.83-1.42-.26-.49-.52-.96-.76-1.4-.24-.44-.47-.85-.68-1.21-.22-.36-.41-.65-.58-.86-.29-.41-.66-.71-1.12-.9-.36-.17-.86-.25-1.51-.25s-.94-.19-.94-.58c0-.34,.34-.62,1.01-.86,.72-.26,1.31-.4,1.76-.4,1.2,0,1.98,.61,2.34,1.84,.12,.41,.4,1.07,.85,1.98,.44,.91,1.05,2.1,1.82,3.56,.96-.36,1.72-.67,2.29-.94,.56-.26,1.08-.6,1.57-1.01,.5-.41,1.02-.61,1.55-.61s.98,.08,1.37,.25c.41,.14,.61,.32,.61,.52s-.16,.43-.47,.67c-.29,.22-1.1,.6-2.45,1.15-.65,.26-1.28,.5-1.89,.72-.61,.22-1.21,.42-1.78,.61Zm4.25-9.61c.65,0,1.45,.28,2.41,.83,.94,.55,1.4,1.1,1.4,1.66,0,.19-.06,.37-.18,.52-.12,.16-.26,.27-.43,.34-.17,.07-.34,.08-.5,.04-.17-.05-.3-.18-.4-.4-.6-1.08-1.38-1.85-2.34-2.3-.29-.12-.43-.26-.43-.43s.16-.25,.47-.25Zm3.82-2.3c.84,0,1.72,.28,2.63,.83,.94,.55,1.4,1.1,1.4,1.66,0,.22-.06,.39-.18,.52-.12,.13-.26,.23-.41,.29-.16,.06-.32,.07-.5,.02-.18-.05-.33-.16-.45-.32-.7-1.01-1.58-1.78-2.66-2.3-.19-.1-.29-.23-.29-.41s.16-.27,.47-.27Z"/><path class="cls-1" d="M760.43,286.88c0,.17-.13,.48-.4,.94-.22,.38-.7,1.44-1.44,3.17-.36,.84-.66,1.55-.9,2.12-.24,.58-.42,1.03-.54,1.37-.22,.65-.32,1.09-.32,1.33,0,.26,.04,.49,.11,.68,.07,.19,.11,.38,.11,.58s-.08,.37-.23,.52c-.16,.16-.35,.23-.59,.23-.72,0-1.56-.47-2.52-1.4-.98-.91-1.84-2.45-2.56-4.61-.7-2.23-1.04-4.79-1.04-7.67,0-.96,.04-1.91,.11-2.86,.07-.95,.19-1.88,.36-2.79,.07-.38,.11-.74,.11-1.08,0-.91-.26-1.7-.79-2.38-.14-.17-.22-.34-.22-.52s.13-.27,.4-.27c.38,0,.96,.28,1.73,.83,.77,.55,1.15,1.08,1.15,1.58,0,.34-.14,.8-.43,1.4s-.52,1.48-.68,2.63c-.17,1.15-.25,2.5-.25,4.03s.12,3.02,.36,4.46c.24,1.44,.55,2.63,.94,3.56,.22,.46,.4,.81,.56,1.06,.16,.25,.3,.44,.43,.58,.13,.13,.26,.21,.4,.23,.13,.02,.27,.04,.41,.04,.53,0,.89-.2,1.08-.61l1.98-3.85c1.1-2.14,1.73-3.28,1.87-3.42,.14-.12,.32-.18,.52-.18s.31,.1,.31,.29Zm16.27,1.48c0,.84-.07,1.67-.22,2.48-.14,.82-.37,1.31-.67,1.49-.3,.18-.58,.27-.85,.27-.22,0-.37-.07-.47-.22-.1-.14-.14-.38-.14-.7s.02-.75,.05-1.28c.04-.53,.07-1.19,.09-1.98,0-2.93-.5-5.46-1.51-7.6-.96-2.11-2.57-3.44-4.82-4-.53-.1-.79-.3-.79-.61s.22-.47,.67-.47,1.28,.25,2.5,.76c.94,.34,1.78,.89,2.54,1.67,.76,.78,1.4,1.7,1.94,2.77,.54,1.07,.95,2.24,1.24,3.51,.29,1.27,.43,2.57,.43,3.89Z"/><path class="cls-1" d="M800.57,291.96c3.62,1.18,6.01,2.2,7.16,3.06,1.22,.86,1.84,1.68,1.84,2.45,0,.43-.2,.65-.61,.65-.29,0-.6-.17-.94-.5-2.28-2.11-4.73-3.56-7.34-4.36,.14,.98,.22,1.58,.22,1.8,0,1.18-.61,2.14-1.84,2.88-1.22,.77-2.58,1.15-4.07,1.15s-2.99-.38-4.5-1.15c-1.13-.55-1.82-1.22-2.09-2-.26-.78-.14-1.52,.36-2.21,.5-.7,1.37-1.28,2.61-1.76,1.24-.48,2.79-.71,4.66-.68,1.08,0,2,.08,2.77,.25-.05-1.94-.09-3.43-.13-4.46s-.05-1.62-.05-1.76c-1.2,.17-2.33,.29-3.38,.36s-2.05,.11-2.99,.11c-1.87,0-3.11-.23-3.71-.68-.6-.46-.9-.95-.9-1.48,0-.19,.05-.39,.14-.59,.1-.2,.2-.36,.32-.47,.12-.11,.23-.13,.32-.07,.1,.06,.16,.25,.18,.56,.05,.67,.37,1.09,.97,1.26,.31,.07,.71,.13,1.19,.18,.48,.05,1.08,.07,1.8,.07s1.57-.03,2.54-.09c.97-.06,2.13-.16,3.47-.31-.02-.89-.04-1.87-.05-2.93-.01-1.07-.02-2.25-.02-3.55-4.8,.65-8.1,.97-9.9,.97-1.13,0-1.98-.29-2.56-.86-.55-.6-.83-.97-.83-1.12,0-.19,.05-.29,.16-.29s.21,.02,.31,.07c.96,.6,2.3,.9,4.03,.9s4.74-.29,8.82-.86c.02-.53,.04-1.01,.05-1.44,.01-.43,.02-.84,.02-1.22s-.02-.72-.07-1.01c-.05-.29-.13-.55-.25-.79-.12-.24-.29-.47-.5-.7-.22-.23-.49-.47-.83-.74-.22-.17-.32-.35-.32-.54s.16-.29,.47-.29,.97,.25,1.98,.76c1.03,.46,1.55,1.08,1.55,1.87,0,.29-.05,.54-.14,.76-.31,.82-.48,1.86-.5,3.13,1.22-.19,2.23-.35,3.02-.47s1.39-.23,1.8-.32c.41-.1,.78-.2,1.12-.32,.34-.12,.64-.25,.9-.4,.53-.29,1.01-.43,1.44-.43,.22,0,.43,.04,.65,.13,.22,.08,.41,.19,.59,.31,.18,.12,.33,.25,.45,.38,.12,.13,.18,.25,.18,.34,0,.24-.3,.44-.9,.61-.62,.19-3.71,.66-9.25,1.4-.05,1.2-.07,2.33-.07,3.4s.01,2.11,.04,3.11c1.3-.19,2.54-.47,3.73-.83,1.19-.36,2.11-.74,2.75-1.15,.29-.12,.59-.18,.9-.18,.38,0,.76,.12,1.13,.36,.37,.24,.56,.44,.56,.61,0,.14-.14,.29-.43,.43-.29,.17-1.26,.44-2.92,.83-1.63,.38-3.53,.74-5.69,1.08,.02,.91,.08,1.93,.18,3.06,.1,1.13,.23,2.38,.4,3.74Zm-1.73,.86c-1.2-.22-2.35-.32-3.46-.32-1.39-.02-2.55,.14-3.47,.49s-1.57,.76-1.94,1.24c-.37,.48-.47,.97-.29,1.48,.18,.5,.68,.91,1.49,1.22,.77,.41,1.61,.64,2.52,.7s1.76-.02,2.54-.23c.78-.22,1.43-.57,1.94-1.06,.52-.49,.76-1.1,.74-1.82l-.07-1.69Z"/><path class="cls-1" d="M836.86,276.77c1.8-.12,3.47-.26,5.02-.41,1.55-.16,2.98-.33,4.3-.52,.12-.02,.25-.04,.38-.04h.38c.72,0,1.34,.16,1.87,.47,.58,.29,.86,.54,.86,.76s-.12,.41-.36,.58c-.22,.17-.47,.25-.77,.25s-.61-.05-.92-.14c-.29-.1-1.18-.14-2.66-.14-.72,0-1.75,.04-3.1,.11-1.34,.07-3.01,.17-5,.29v3.2c0,.96,.01,1.82,.04,2.59,.48,.46,.85,1.22,1.12,2.3,.12,.53,.21,1.05,.27,1.57,.06,.52,.09,1.01,.09,1.49,0,2.26-.6,4.27-1.8,6.05-1.18,1.73-2.6,2.96-4.28,3.71-1.68,.77-2.94,1.15-3.78,1.15-.26,0-.4-.09-.4-.27s.17-.31,.5-.38c.98-.17,2.17-.7,3.56-1.58,1.37-.86,2.45-2.15,3.24-3.85,.82-1.66,1.22-3.47,1.22-5.44,0-.24,0-.47-.02-.68-.01-.22-.03-.42-.05-.61-.36,1.46-.98,2.6-1.85,3.42-.88,.82-1.97,1.22-3.29,1.22-1.15,0-2.09-.35-2.81-1.04-.72-.7-1.08-1.63-1.08-2.81,0-.38,.05-.81,.14-1.28,.1-.47,.24-.92,.43-1.37,.19-.44,.43-.86,.72-1.24s.64-.71,1.04-.97c.84-.53,1.76-.79,2.77-.79s1.99,.21,2.95,.61c.02-.96,.04-1.85,.04-2.66s-.02-1.57-.07-2.27c-4.51,.31-7.9,.59-10.17,.85-2.27,.25-3.47,.38-3.62,.38-.77,0-1.42-.34-1.94-1.01s-.79-1.1-.79-1.3,.07-.29,.2-.29,.28,.08,.45,.25c.62,.62,1.67,.94,3.13,.94,.6,0,1.91-.1,3.94-.31,2.03-.2,4.95-.44,8.77-.7-.05-.89-.12-1.82-.22-2.81-.07-.98-.19-1.6-.36-1.84-.19-.24-.55-.53-1.08-.86-.19-.12-.29-.29-.29-.52s.14-.34,.43-.34c.7,0,1.44,.19,2.23,.58,.82,.38,1.22,.92,1.22,1.62,0,.31-.1,.64-.29,.97-.19,.29-.3,1.33-.32,3.13Zm-1.33,7.67c-.6-.67-1.43-1.01-2.48-1.01-.67,0-1.37,.17-2.09,.5-.67,.34-1.17,.77-1.49,1.3-.32,.53-.49,1.31-.49,2.34,0,2.09,.88,3.13,2.63,3.13,1.58,0,2.63-.72,3.13-2.16,.48-1.39,.74-2.76,.79-4.1Z"/><path class="cls-1" d="M861.48,289.04c1.22,0,2.23,.4,3.02,1.21,.79,.8,1.19,1.81,1.19,3.01s-.4,2.2-1.19,3.01-1.8,1.21-3.02,1.21-2.23-.4-3.02-1.21-1.19-1.8-1.19-2.99,.41-2.19,1.24-3.01c.83-.82,1.82-1.22,2.97-1.22Zm0,7.34c.91,0,1.66-.3,2.25-.9s.88-1.34,.88-2.23-.29-1.63-.88-2.23-1.33-.9-2.21-.9-1.64,.31-2.25,.92-.92,1.36-.92,2.23,.3,1.61,.9,2.21,1.34,.9,2.23,.9Z"/></svg>