<?xml version="1.0" encoding="UTF-8"?><svg id="_イヤー_4" xmlns="http://www.w3.org/2000/svg" viewBox="0 0 930.99 507.64"><defs><style>.cls-1{fill:#fff;}</style></defs><path class="cls-1" d="M227.21,214.38c.84-.17,1.57-.4,2.18-.68,.61-.29,1.03-.55,1.24-.79,.29-.34,.76-.5,1.4-.5,.41,0,.77,.1,1.1,.29,.32,.19,.49,.37,.49,.54,0,.36-.72,.77-2.16,1.22-1.44,.46-3.01,.82-4.72,1.08-.82,1.94-1.6,3.76-2.36,5.44-.76,1.68-1.49,3.26-2.21,4.75-1.46,2.98-2.27,4.56-2.41,4.75-.19,.19-.36,.29-.5,.29-.17,0-.32-.07-.45-.2-.13-.13-.2-.35-.2-.67,0-.34,.04-.73,.13-1.17,.08-.44,.2-.76,.34-.95,.34-.5,.74-1.16,1.21-1.96,.47-.8,.99-1.77,1.57-2.9,.58-1.15,1.14-2.32,1.69-3.49,.55-1.18,1.09-2.41,1.62-3.71-.12,.02-.25,.04-.38,.05-.13,.01-.26,.02-.38,.02-.89,0-1.7-.28-2.45-.83-.72-.53-1.08-.91-1.08-1.15,0-.22,.07-.32,.2-.32s.23,.04,.31,.11c.53,.46,1.1,.75,1.73,.88,.62,.13,1.45,.17,2.48,.13,.31-.77,.56-1.39,.74-1.87,.18-.48,.29-.82,.34-1.01,.14-.38,.22-.73,.22-1.04,0-.58-.18-1.04-.54-1.4-.05-.02-.1-.09-.14-.2-.05-.11-.04-.19,.02-.23,.06-.05,.2-.03,.41,.05,.22,.08,.56,.31,1.04,.67,.67,.46,1.01,.91,1.01,1.37s-.14,.9-.43,1.33c-.29,.48-.64,1.19-1.04,2.12Zm9.22,16.06c-.7-1.7-1.12-3.31-1.28-4.81-.16-1.5-.02-2.83,.4-3.98,.42-1.15,1.14-2.09,2.16-2.83,1.02-.73,2.35-1.19,3.98-1.39,.31-.02,.47-.11,.47-.25s-.26-.3-.79-.47c-.26-.1-.62-.2-1.08-.32-.46-.12-1.01-.25-1.66-.4-1.22-.31-2.03-.47-2.41-.47-.31,0-.47-.13-.47-.4,0-.12,.05-.21,.16-.27,.11-.06,.34-.09,.7-.09,1.3,0,2.7,.2,4.21,.61,1.51,.38,2.6,.86,3.28,1.42,.67,.56,1.01,1.04,1.01,1.42,0,.31-.16,.49-.47,.54-.31,.05-.68,.04-1.1-.04-.42-.07-.85-.17-1.3-.29-.44-.12-.8-.18-1.06-.18-1.2,0-2.3,.47-3.31,1.4-1.01,.94-1.51,2.32-1.51,4.14s.66,4.19,1.98,7.09c1.66,.46,2.92,.93,3.78,1.42,.86,.49,1.46,.94,1.78,1.33,.32,.4,.43,.73,.32,.99-.11,.26-.29,.4-.56,.4-.19,0-.35-.05-.47-.14-1.61-1.13-3.1-1.96-4.46-2.48,.1,1.32-.43,2.4-1.58,3.24-1.13,.84-2.69,1.26-4.68,1.26s-3.48-.35-4.61-1.04c-.55-.36-.96-.75-1.22-1.17-.26-.42-.4-.85-.4-1.3s.12-.87,.36-1.28c.24-.41,.6-.78,1.08-1.12,.96-.65,2.32-.97,4.07-.97,.86,0,1.69,.04,2.47,.11,.78,.07,1.52,.17,2.21,.29Zm.36,1.37c-1.85-.43-3.7-.65-5.54-.65-.98,0-1.77,.14-2.36,.43-.59,.29-1,.64-1.22,1.04-.23,.41-.26,.83-.11,1.28,.16,.44,.49,.82,.99,1.13,.7,.46,1.82,.68,3.38,.68s2.8-.29,3.64-.88c.84-.59,1.26-1.42,1.26-2.5,0-.24-.01-.42-.04-.54Z"/><path class="cls-1" d="M264.58,223.81c1.32-.89,2.8-1.6,4.43-2.12,1.7-.55,3.23-.83,4.57-.83,2.26,0,4.03,.65,5.33,1.96,1.3,1.31,1.94,3.08,1.94,5.31s-.83,3.97-2.48,5.29c-1.63,1.34-3.58,2.02-5.83,2.02-.72,0-1.35-.07-1.89-.2-.54-.13-.99-.3-1.35-.5-.36-.2-.64-.42-.83-.65-.19-.23-.29-.45-.29-.67s.08-.32,.25-.32,.32,.04,.47,.11c1.03,.55,2.11,.83,3.24,.83,1.78,0,3.32-.6,4.64-1.8,1.3-1.18,1.94-2.82,1.94-4.93,0-1.58-.46-2.83-1.37-3.74-.91-.91-2.12-1.37-3.64-1.37s-3.01,.26-4.64,.77c-1.63,.52-3.13,1.25-4.5,2.21,0,2.54,0,4.5,.02,5.87,.01,1.37,.03,2.15,.05,2.34,.07,.41,.11,.89,.11,1.44,0,.6-.12,1.15-.36,1.66-.24,.53-.53,.79-.86,.79s-.54-.14-.61-.43c-.34-1.08-.68-1.84-1.04-2.27-.41-.43-1.06-1.04-1.94-1.84-.26-.26-.4-.46-.4-.58,0-.22,.12-.32,.36-.32s.47,.08,.68,.25c1.03,.82,1.69,1.22,1.98,1.22,.31,0,.44-.28,.4-.83v-.97c0-.7,.04-2.38,.11-5.04-3.72,3.29-6.26,5.69-7.63,7.2-.14,.17-.34,.25-.58,.25-.41,0-.61-.19-.61-.58,0-.41,.16-1,.47-1.76,.31-.77,.78-1.25,1.4-1.44,.31-.1,.65-.25,1.03-.45,.37-.2,.79-.46,1.24-.77,.46-.34,1.07-.82,1.84-1.46,.77-.64,1.73-1.46,2.88-2.47l.25-6.88c-1.66,.36-3.14,.62-4.45,.77-1.31,.16-2.29,.23-2.93,.23s-1.12-.26-1.48-.79c-.34-.55-.5-.91-.5-1.08,0-.29,.13-.43,.4-.43,.14,0,.31,.06,.5,.18,.58,.43,1.56,.65,2.95,.65s3.25-.31,5.58-.94c.07-1.58,.11-2.86,.11-3.82,0-.5-.02-.92-.05-1.24-.04-.32-.11-.61-.22-.86-.11-.25-.25-.47-.41-.65-.17-.18-.4-.38-.68-.59-.26-.19-.4-.41-.4-.65s.22-.36,.65-.36c.46,0,1.12,.22,1.98,.65,.89,.38,1.33,.96,1.33,1.73,0,.17-.06,.43-.18,.79-.1,.24-.29,1.76-.58,4.57,.5-.14,.96-.28,1.37-.41,.41-.13,.79-.28,1.13-.45,.35-.17,.67-.35,.97-.54,.3-.19,.62-.43,.95-.72,.46-.43,.86-.7,1.22-.79,.36-.1,.67-.11,.94-.04,.26,.07,.47,.19,.61,.34,.14,.16,.24,.28,.29,.38,0,.38-.63,.93-1.89,1.64-1.26,.71-3.16,1.4-5.71,2.07-.1,1.22-.17,2.33-.22,3.33-.05,1-.07,1.9-.07,2.72Zm11.48-11.2c.82,0,1.78,.24,2.88,.72,1.08,.46,1.9,1.03,2.47,1.73,.56,.7,.85,1.36,.85,1.98,0,.26-.11,.5-.32,.72s-.43,.32-.65,.32c-.19,0-.41-.12-.65-.36-.24-.24-.6-.36-1.08-.36s-.93,.06-1.35,.18c-.42,.12-.7,.18-.85,.18-.26,0-.27-.14-.02-.41,.25-.28,.8-.65,1.64-1.13,.24-.1,.36-.32,.36-.68,0-.34-.41-.72-1.22-1.15-.74-.41-1.6-.71-2.56-.9-.14-.02-.26-.08-.36-.18-.1-.1-.13-.19-.11-.29,.02-.1,.11-.18,.25-.25,.14-.07,.38-.11,.72-.11Z"/><path class="cls-1" d="M290.11,225.83c1.75,.67,3.1,1.25,4.03,1.75,.94,.49,1.67,1.04,2.21,1.64,.54,.6,.88,1.04,1.01,1.33,.13,.29,.2,.67,.2,1.15s-.13,.97-.38,1.46c-.25,.49-.55,.74-.9,.74s-.62-.09-.83-.27c-.2-.18-.47-.63-.81-1.35-.79-1.78-2.46-3.72-5-5.83l.47-.61Z"/><path class="cls-1" d="M325.17,227.38c.12,0,.25,.25,.38,.74,.13,.49,.2,1.07,.2,1.75s-.11,1.37-.34,2.11c-.23,.73-.46,1.1-.7,1.1s-.47-.22-.7-.65c-.23-.43-.34-.77-.34-1.03s.15-.58,.45-.99c.3-.41,.52-1.14,.67-2.2,.12-.55,.25-.83,.4-.83Zm3.67,2.92c0,.36-.06,.65-.18,.88-.12,.23-.26,.34-.43,.34-.31,0-.61-.31-.9-.94-.29-.62-.43-1.4-.43-2.34,0-.36,.07-.54,.22-.54s.47,.29,.97,.88c.5,.59,.76,1.16,.76,1.71Zm5.11-6.98c.26-.07,.52-.16,.77-.25,.25-.1,.56-.14,.92-.14s.87,.22,1.53,.67c.66,.44,.99,.76,.99,.95s-.06,.37-.18,.54c-.46,.58-.68,1.67-.68,3.28,0,3.46-.44,5.77-1.33,6.93-.89,1.16-1.55,1.75-1.98,1.75-.26,0-.42-.18-.47-.54-.14-.77-.62-1.61-1.44-2.52-.26-.31-.4-.53-.4-.67s.08-.2,.25-.2c.1,0,.42,.11,.97,.32,.55,.22,.97,.32,1.24,.32s.49-.14,.65-.43c.16-.29,.32-.94,.49-1.94s.25-2.08,.25-3.2-.03-1.97-.09-2.54c-.06-.56-.14-.92-.23-1.06-.1-.14-.34-.22-.74-.22s-1.19,.08-2.39,.25c-1.2,.17-1.94,.31-2.21,.43s-.45,.3-.52,.54c-.24,.7-.46,1.04-.67,1.04s-.39-.21-.56-.63-.25-.82-.25-1.19,.02-.7,.07-.99c.05-.29,.07-2.39,.07-6.3,0-2.59-.2-4.25-.61-4.97-.14-.22-.22-.41-.22-.58,0-.34,.17-.5,.5-.5,.14,0,.45,.08,.92,.25,.47,.17,.79,.38,.95,.65,1.01-.05,2.39-.33,4.14-.85,1.75-.52,2.83-.77,3.22-.77s.78,.07,1.15,.22,.56,.31,.56,.5-.11,.34-.32,.43c-.22,.1-1.46,.35-3.74,.76l-.25,2.66c.62-.22,1.14-.32,1.55-.32s.76,.06,1.04,.18c.29,.12,.43,.25,.43,.4s-.09,.28-.27,.4c-.18,.12-.35,.2-.52,.25l-2.34,.61-.11,2.38c.46-.14,1.03-.22,1.71-.22s1.03,.17,1.03,.5c0,.24-.2,.43-.61,.58-.41,.14-1.14,.34-2.2,.58l-.07,2.66Zm-2.48,6.08c0,.67-.2,1.01-.61,1.01-.38,0-.73-.41-1.04-1.24-.31-.83-.47-1.42-.47-1.78,0-.17,.08-.25,.25-.25s.52,.2,1.06,.61c.54,.41,.81,.96,.81,1.66Zm-1.8-16.16c-.05,3.48-.07,7.15-.07,11.02,1.01-.17,1.93-.34,2.77-.5l.11-2.7c-.31,.05-.65,.07-1.01,.07s-.7-.06-1.03-.18c-.32-.12-.49-.23-.49-.34s.14-.19,.43-.23c.91-.19,1.62-.36,2.12-.5,.02-.65,.04-1.52,.04-2.63-.22,.02-.45,.04-.7,.04s-.62-.05-1.12-.14c-.49-.1-.74-.23-.74-.4s.27-.28,.81-.34c.54-.06,1.12-.21,1.75-.45-.02-1.37-.08-2.34-.18-2.92-1.08,.14-1.98,.22-2.7,.22Zm4.46,15.16c0,.62-.18,.94-.54,.94-.29,0-.68-.42-1.19-1.26-.5-.84-.76-1.37-.76-1.58s.11-.32,.34-.32,.64,.2,1.24,.61c.6,.41,.9,.95,.9,1.62Zm8.14-14.76c1.32-.24,2.53-.55,3.62-.94,1.09-.38,1.9-.76,2.41-1.13,.52-.37,.98-.56,1.4-.56s1.09,.26,2,.79c.91,.53,1.37,.96,1.37,1.3s-.23,.71-.68,1.12c-.96,.84-1.73,2.24-2.3,4.21,.46,.62,.68,1.09,.68,1.39s-.47,.5-1.4,.59c-.34,.02-1.7,.38-4.1,1.08,1.92,3.53,3.43,6.11,4.52,7.74,1.09,1.63,2.11,2.81,3.04,3.55,.94,.73,2.2,1.43,3.78,2.11,.43,.17,.65,.35,.65,.56s-.15,.34-.45,.4c-.3,.06-1.05,.09-2.25,.09s-2.05-.03-2.56-.09c-.5-.06-.88-.16-1.13-.29-.25-.13-.45-.34-.59-.63l-1.3-2.52c-.7-1.39-1.38-2.86-2.05-4.39l-2.7-6.34-1.62,.22c-.5,4.18-1.13,7.2-1.87,9.07-.74,1.87-1.66,3.21-2.74,4.01-1.08,.8-1.74,1.21-1.98,1.21-.05,0-.07-.02-.07-.07,0-.12,.23-.44,.68-.97,1.75-2.02,2.89-4.5,3.42-7.45s.79-5.77,.79-8.44-.13-4.28-.4-4.81c-.26-.53-.4-.91-.4-1.13s.15-.34,.45-.34,.89,.23,1.78,.68Zm.4,7.24c2.28-.67,4.12-1.28,5.51-1.84,.31-.72,.57-1.73,.77-3.02,.2-1.3,.31-2.1,.31-2.41s-.16-.47-.47-.47-.82,.1-1.51,.29c-2.23,.67-3.71,1.06-4.43,1.15,.02,2.14-.04,4.24-.18,6.3Z"/><path class="cls-1" d="M369.56,224.5c0,.12-.04,.29-.11,.5-.53,1.34-.97,2.5-1.31,3.46-.35,.96-.62,1.75-.81,2.38-.19,.62-.35,1.3-.49,2.02-.13,.72-.25,1.5-.34,2.34-.12,.77-.38,1.15-.79,1.15-.29,0-.52-.16-.68-.47-.19-.29-.41-1.22-.65-2.81-.12-.82-.22-1.6-.29-2.36-.07-.76-.11-1.49-.11-2.21s.04-1.51,.11-2.38c.07-.86,.19-1.81,.36-2.84,.17-1.03,.39-2.24,.67-3.64,.28-1.39,.62-2.99,1.03-4.79,.1-.36,.14-.77,.14-1.22,0-1.1-.24-1.99-.72-2.66-.07-.1-.11-.2-.11-.32s.08-.18,.25-.18c.22,0,.71,.37,1.48,1.12,.79,.77,1.19,1.38,1.19,1.84,0,.5-.18,1.16-.54,1.98-.7,1.73-1.32,3.94-1.87,6.62-.5,2.64-.76,4.91-.76,6.8s.13,2.84,.4,2.84c.1,0,.19-.07,.27-.2,.08-.13,.19-.36,.31-.68,.12-.32,.28-.76,.49-1.3,.2-.54,.49-1.21,.85-2,.67-1.54,1.13-2.47,1.37-2.81,.24-.29,.41-.43,.52-.43s.16,.08,.16,.25Zm20.95,9c0,.34-.17,.58-.5,.72-.34,.14-1.12,.28-2.34,.4-1.22,.12-2.7,.18-4.43,.18s-3.14-.14-4.25-.41c-1.1-.28-2.09-.7-2.95-1.28-1.78-1.22-2.66-2.84-2.66-4.86,0-.22,.01-.44,.04-.67s.06-.46,.11-.7c.12-.5,.22-.8,.31-.9,.08-.1,.16-.14,.23-.14,.22,0,.32,.17,.32,.5l-.07,.83c0,1.13,.56,2.4,1.69,3.82,1.13,1.42,3.3,2.12,6.52,2.12,1.01,0,1.92-.07,2.74-.22,.82-.14,1.37-.31,1.66-.5,.34-.19,.76-.29,1.26-.29,.26,0,.53,.05,.81,.14,.28,.1,.53,.21,.76,.34,.23,.13,.41,.28,.56,.45,.14,.17,.22,.32,.22,.47Zm-3.74-21.35c.36,0,.82,.14,1.37,.43,.58,.29,.86,.6,.86,.94,0,.41-.26,.62-.79,.65-1.18,.1-2.27,.42-3.28,.97-.98,.55-2.71,1.74-5.18,3.56-.26,.19-.47,.29-.61,.29s-.22-.05-.22-.14c0-.07,.06-.2,.18-.4,.07-.1,.22-.26,.43-.49,.22-.23,.52-.51,.9-.85,.38-.36,.76-.7,1.12-1.03,.36-.32,.72-.62,1.08-.88,.17-.1,.25-.2,.25-.32s-.17-.16-.5-.11c-.55,.1-1.04,.17-1.48,.23-.43,.06-.8,.1-1.12,.13-.29,.02-.62,.04-1.01,.04h-1.3c-.96,0-1.64-.08-2.05-.25-.46-.19-.88-.52-1.26-.97-.41-.48-.61-.8-.61-.97,0-.24,.13-.36,.4-.36,.05,0,.12,.02,.22,.07,.58,.48,1.19,.78,1.85,.9,.66,.12,1.45,.18,2.36,.18s2.23-.14,3.96-.43c1.73-.31,2.92-.64,3.56-.97,.31-.14,.6-.22,.86-.22Z"/><path class="cls-1" d="M402.89,216.86c-1.46,2.28-2.85,3.98-4.16,5.09-1.31,1.12-2.05,1.67-2.21,1.67s-.25-.08-.25-.23,.11-.34,.32-.56c1.66-1.75,3.31-3.97,4.95-6.64,1.64-2.68,2.47-4.87,2.47-6.57,0-.24-.01-.44-.04-.61-.02-.17-.04-.3-.04-.4,0-.31,.14-.47,.41-.47s.81,.25,1.6,.74c.79,.49,1.19,.91,1.19,1.24,0,.14-.14,.37-.41,.68-.28,.31-.74,1.02-1.39,2.12-.65,1.1-1.25,2.1-1.8,2.99,.46,.38,.79,.73,1.01,1.04,.22,.31,.32,.64,.32,.99s-.02,.71-.07,1.1c-.26,1.97-.41,5.8-.43,11.48,0,.65-.11,1.54-.34,2.68-.23,1.14-.56,1.71-.99,1.71-.26,0-.51-.35-.74-1.04-.23-.7-.34-1.33-.34-1.91s.11-1.24,.34-1.98c.23-.74,.44-2.14,.65-4.18,.2-2.04,.31-4.08,.31-6.12,0-1.39-.12-2.34-.36-2.84Zm6.3,4.93c.62,.02,3.07-.35,7.34-1.13,4.27-.78,6.62-1.27,7.06-1.46,.19-.1,.49-.14,.9-.14s.85,.17,1.33,.5c.48,.34,.98,.74,1.51,1.21,.53,.47,.79,.83,.79,1.1s-.24,.42-.72,.47c-1.13,.12-2.4,.53-3.82,1.22-.12,.05-.24,.07-.36,.07s-.18-.04-.18-.13,.04-.17,.11-.27c.65-1.03,.97-1.67,.97-1.93s-.34-.38-1.01-.38c-1.97,0-5.88,.59-11.74,1.76-.12,.02-.25,.04-.4,.04-.34,0-.96-.13-1.87-.4-.19,1.03-.52,1.99-.99,2.86s-.91,1.31-1.31,1.31c-.22,0-.38-.09-.5-.27-.12-.18-.18-.52-.18-1.03s.06-.84,.18-1.01c.29-.38,.61-.89,.95-1.53,.35-.64,.59-1.19,.72-1.66,.13-.47,.31-.7,.54-.7s.45,.49,.67,1.48Zm6.12,4.28c-1.1,.22-1.82,.37-2.16,.45-.34,.08-.7,.13-1.08,.13s-.83-.1-1.35-.31c-.52-.2-.77-.38-.77-.54s.2-.25,.61-.27c1.92-.19,4.72-.73,8.39-1.62,.41-.1,.97-.14,1.67-.14s1.28,.11,1.71,.34c.43,.23,.65,.45,.65,.67,0,.38-.6,.59-1.8,.61-1.2,.02-2.86,.19-4.97,.5,.65,.38,1.07,.67,1.28,.86,.2,.19,.31,.44,.31,.76l-.07,1.12,.18,4.9c0,.98-.24,1.87-.72,2.66-.48,.79-.94,1.19-1.37,1.19-.29,0-.5-.12-.65-.36-.74-1.03-1.42-1.79-2.03-2.29-.61-.49-.92-.79-.92-.88s.08-.14,.25-.14,.46,.02,.88,.07c.42,.05,.82,.07,1.21,.07s.67-.03,.86-.09c.19-.06,.32-.22,.4-.47,.07-.25,.14-.61,.2-1.08,.06-.47,.09-.95,.09-1.46,0-1.75-.26-3.31-.79-4.68Zm6.26-16.06c.48,0,.87,.1,1.17,.31,.3,.2,.45,.4,.45,.58s-.19,.34-.56,.47c-.37,.13-1.99,.44-4.86,.94-2.87,.49-4.54,.74-5.02,.74-1.58,0-2.38-.18-2.38-.54,0-.17,.25-.3,.76-.4,2.4-.41,5.47-1.06,9.22-1.94,.43-.1,.84-.14,1.22-.14Zm-9.18,5c1.01-.05,2.17-.23,3.49-.54s2.18-.55,2.57-.7c.4-.16,.71-.23,.94-.23s.7,.18,1.42,.54c.72,.36,1.08,.72,1.08,1.08,0,.17-.15,.34-.45,.5-.3,.17-.62,.44-.95,.81-.34,.37-.46,.73-.36,1.06,.07,.14,.11,.26,.11,.36,0,.26-.18,.41-.54,.43-1.63,.17-3.64,.46-6.01,.86-.05,.46-.2,.68-.45,.68s-.5-.42-.76-1.26c-.25-.84-.46-1.47-.63-1.89-.17-.42-.37-.77-.59-1.04-.23-.28-.34-.5-.34-.67s.13-.25,.4-.25,.62,.08,1.08,.25Zm1.19,3.35c2.59-.43,4.1-.73,4.52-.9,.42-.17,.63-.8,.63-1.91,0-.29-.14-.43-.43-.43-.82,0-2.51,.24-5.08,.72l.36,2.52Zm4.75-9.32c0,.36-.08,.65-.23,.88-.16,.23-.37,.34-.63,.34s-.52-.11-.76-.34c-.24-.23-.62-.56-1.13-1.01-.52-.44-.86-.74-1.03-.88s-.25-.28-.25-.4c0-.29,.43-.43,1.3-.43s1.54,.17,2.02,.52c.48,.35,.72,.79,.72,1.31Z"/><path class="cls-1" d="M447.53,213.8c-1.22,.17-2.2,.25-2.93,.25s-1.4-.08-2.02-.23c-.61-.16-.92-.32-.92-.5s.23-.28,.68-.31c1.3-.1,3.01-.36,5.15-.79-.02-1.27-.11-2.17-.25-2.7-.14-.53-.4-1-.76-1.4-.19-.24-.29-.47-.29-.68s.22-.32,.65-.32,1.07,.16,1.93,.47c.85,.31,1.28,.72,1.28,1.22,0,.14-.04,.3-.11,.47-.22,.5-.34,1.36-.36,2.56,1.22-.26,2.15-.48,2.79-.65,.64-.17,1.13-.25,1.48-.25s.73,.08,1.13,.25c.41,.17,.61,.38,.61,.63s-.28,.47-.85,.67c-.56,.19-2.29,.52-5.17,.97,.05,1.18,.07,2.12,.07,2.84,2.3-.41,3.76-.72,4.36-.94,.38-.14,.77-.22,1.15-.22s1.04,.28,1.96,.83c.92,.55,1.39,1.01,1.39,1.37,0,.19-.13,.41-.4,.67s-.5,.6-.7,1.04c-.2,.44-.46,1.18-.76,2.2-.3,1.02-.66,1.9-1.08,2.63-.42,.73-.85,1.1-1.28,1.1-.29,0-.5-.13-.65-.4-.12-.19-.38-.29-.77-.29s-1.47,.12-3.22,.36v3.06c2.54-.31,4.48-.57,5.81-.77,1.33-.2,2.26-.35,2.77-.43,.52-.08,1.02-.13,1.51-.13s1.09,.24,1.8,.72c.71,.48,1.06,.91,1.06,1.3,0,.43-.41,.61-1.22,.54-2.06-.22-3.87-.32-5.42-.32s-3.65,.14-6.32,.43c0,3.31-.1,5.84-.29,7.6-.19,1.75-.47,2.63-.83,2.63-.1,0-.19-.06-.29-.18-.1-.12-.19-.58-.29-1.39-.1-.8-.16-1.64-.18-2.5l-.04-5.98c-4.7,.55-7.57,.95-8.59,1.21-1.02,.25-1.76,.38-2.21,.38s-.98-.19-1.57-.56c-.59-.37-.88-.64-.88-.81s.07-.26,.22-.29,.59-.04,1.33-.04,2.33-.12,4.75-.36c2.42-.24,4.74-.52,6.95-.83v-3.02l-3.92,.61c.05,.36-.14,.54-.58,.54-.19,0-.45-.29-.77-.86-.32-.58-.59-1.31-.81-2.2-.55-2.35-1.13-3.89-1.73-4.61-.29-.34-.43-.62-.43-.85s.22-.34,.67-.34,1.03,.1,1.75,.29l5.65-.9c-.02-.94-.04-1.86-.04-2.77Zm.18,7.63c-.77,.1-1.37,.14-1.82,.14s-.77-.08-.99-.25c-.22-.17-.32-.3-.32-.4s.17-.18,.5-.25c.34-.07,1.2-.28,2.59-.61-.02-1.2-.05-2.02-.07-2.45-1.39,.19-3.02,.5-4.9,.94,.34,1.7,.67,3.64,1.01,5.8l4-.58v-2.34Zm1.94-1.98c.53-.1,1.14-.14,1.84-.14s1.04,.18,1.04,.54c0,.19-.13,.38-.4,.58-.26,.19-1.09,.42-2.48,.68,.05,.74,.05,1.54,0,2.38,2.26-.34,3.43-.49,3.53-.47,.36,.02,.59-.05,.7-.23,.11-.18,.32-.92,.63-2.21,.31-1.3,.47-2.16,.47-2.59s-.07-.71-.22-.83c-.14-.12-.43-.18-.86-.18-1.39,0-2.81,.11-4.25,.32v2.16Z"/><path class="cls-1" d="M495.85,224.96c0,1.54-.49,3.32-1.48,5.36-.98,2.06-2.45,3.67-4.39,4.82-1.99,1.2-4.25,1.8-6.77,1.8s-4.49-.68-5.83-2.03c-1.34-1.36-2.02-3.27-2.02-5.74,0-1.56,.07-4.21,.22-7.96,.1-1.87,.17-3.37,.23-4.48,.06-1.12,.11-1.87,.16-2.25,.1-.55,.16-1.04,.18-1.48,.02-.43,0-.83-.09-1.21-.08-.37-.25-.74-.49-1.1-.24-.36-.59-.74-1.04-1.15-.22-.17-.32-.34-.32-.52s.12-.27,.36-.27c.29,0,.79,.16,1.51,.47,.74,.31,1.3,.72,1.66,1.22,.36,.5,.54,1.15,.54,1.94,0,.72-.13,1.68-.4,2.88-.24,1.1-.46,2.77-.65,5-.1,1.1-.17,2.21-.22,3.33-.05,1.12-.07,2.26-.07,3.44,0,2.26,.17,3.95,.5,5.08,.34,1.08,.96,1.86,1.87,2.34,.91,.48,2.26,.72,4.03,.72,2.71,0,5.16-1.02,7.34-3.06,2.18-2.04,3.59-4.58,4.21-7.63,.05-.22,.12-.38,.22-.5s.2-.17,.31-.14c.11,.02,.2,.13,.29,.31,.08,.18,.13,.45,.13,.81Z"/><path class="cls-1" d="M515.61,215.86c1.08-.22,1.87-.43,2.36-.63,.49-.2,.88-.47,1.17-.81,.31-.36,.73-.54,1.26-.54s.92,.13,1.17,.38,.38,.5,.38,.74-.14,.47-.43,.68c-.22,.19-.95,.46-2.2,.79-.6,.14-1.24,.28-1.91,.41-.67,.13-1.38,.26-2.12,.38-.48,1.7-1.03,3.52-1.66,5.45-.62,1.93-1.32,4.01-2.09,6.25-1.56,4.44-2.44,6.79-2.63,7.06-.22,.31-.44,.47-.68,.47s-.43-.18-.58-.54c-.12-.36-.18-.83-.18-1.42s.19-1.16,.58-1.71c.41-.55,1.12-2.22,2.12-5,.53-1.39,1.06-2.94,1.6-4.64,.54-1.7,1.11-3.58,1.71-5.62-1.8,.29-3.24,.43-4.32,.43s-1.85-.32-2.3-.97c-.43-.65-.65-1.09-.65-1.31s.07-.34,.22-.34,.38,.14,.72,.43c.34,.29,.73,.5,1.19,.65s1.06,.22,1.8,.22c.38,0,.89-.04,1.51-.11,.62-.07,1.37-.19,2.23-.36,.67-2.33,1.01-3.83,1.01-4.5,0-1.01-.17-1.72-.5-2.12-.12-.12-.18-.25-.18-.4,0-.26,.13-.4,.4-.4s.78,.3,1.55,.9c.77,.62,1.15,1.13,1.15,1.51,0,.41-.16,.78-.47,1.12-.26,.31-.67,1.5-1.22,3.56Zm16.34,17.89c.48,0,.92,.14,1.33,.41,.41,.28,.61,.56,.61,.85,0,.31-.18,.55-.54,.72-.34,.17-.94,.34-1.8,.5-.86,.17-1.84,.25-2.92,.25-2.45,0-4.66-.42-6.62-1.26-1.92-.84-2.88-2.06-2.88-3.67,0-.36,.05-.7,.14-1.01,.1-.31,.22-.58,.36-.81,.14-.23,.29-.4,.43-.52,.14-.12,.26-.18,.36-.18,.19,0,.3,.05,.32,.14,.02,.1,0,.23-.05,.4-.06,.17-.13,.38-.2,.65s-.11,.55-.11,.86c0,1.08,.6,1.93,1.8,2.56,1.18,.6,2.77,.9,4.79,.9s3.37-.19,4.07-.58c.29-.14,.59-.22,.9-.22Zm1.58-16.16c0,.38-.28,.64-.83,.76-.58,.12-1.15,.31-1.73,.58-.6,.26-1.6,.95-2.99,2.05-.7,.55-1.24,.98-1.64,1.3-.4,.31-.64,.52-.74,.61-.17,.17-.32,.25-.47,.25-.17,0-.27-.05-.31-.14-.04-.1,.03-.27,.2-.52s.44-.59,.83-1.01c.38-.42,.92-.95,1.62-1.6,.91-.89,1.55-1.42,1.91-1.58,.36-.19,.54-.35,.54-.49s-.19-.2-.58-.2c-.53,0-1.05,.01-1.57,.04-.52,.02-1.05,.06-1.6,.11l-2.7,.29c-.31,0-.47-.1-.47-.29,0-.38,.65-.78,1.94-1.19,1.34-.41,2.87-.61,4.57-.61s2.86,.2,3.31,.61c.46,.38,.68,.73,.68,1.04Z"/><path class="cls-1" d="M555.82,212.69c.46,.05,1.16,.07,2.12,.07s2.17-.1,3.64-.29c.74-.1,1.35-.19,1.82-.29,.47-.1,.8-.19,.99-.29,.46-.19,.78-.29,.97-.29,.22,0,.6,.28,1.15,.83,.55,.55,.83,.92,.83,1.12s-.25,.48-.76,.86c-.53,.41-1.02,1.06-1.48,1.94-1.42,2.71-2.71,4.98-3.89,6.8-1.18,1.82-2.49,3.56-3.94,5.22-1.45,1.66-3.05,3.1-4.81,4.32-.89,.6-1.78,1.14-2.68,1.62-.9,.48-1.81,.89-2.72,1.22-1.87,.7-2.95,1.04-3.24,1.04-.31,0-.47-.1-.47-.29,0-.31,.34-.59,1.01-.83,5.4-2.14,9.82-5.64,13.25-10.51-.53-1.1-1.33-2.15-2.41-3.15-1.08-1-2.45-1.95-4.1-2.86-.89,.96-1.85,1.85-2.88,2.66-.5,.41-.94,.75-1.31,1.03-.37,.28-.69,.5-.95,.67-.72,.41-1.18,.52-1.37,.32-.19-.19-.02-.48,.5-.86,1.08-.74,2.14-1.66,3.17-2.74,1.03-1.08,2.09-2.34,3.17-3.78,2.14-2.86,3.2-4.67,3.2-5.44,0-.17-.04-.34-.13-.52-.08-.18-.18-.35-.29-.5-.11-.16-.2-.31-.29-.45-.08-.14-.13-.28-.13-.4,0-.24,.17-.36,.5-.36,.38,0,.91,.34,1.58,1.01,.7,.65,1.04,1.24,1.04,1.76,0,.31-.12,.54-.36,.68-.24,.14-.49,.36-.76,.65Zm2.99,10.69c1.46-2.04,2.65-4.02,3.56-5.94,.94-1.9,1.4-2.98,1.4-3.24,0-.24-.19-.36-.58-.36-.36,0-1.08,.07-2.16,.22-.55,.07-1.06,.13-1.53,.16-.47,.04-.93,.04-1.39,.02-.46-.02-.92-.09-1.39-.2s-.95-.29-1.46-.56c-.53,.84-1.09,1.66-1.69,2.47s-1.24,1.59-1.91,2.36c1.13,.43,2.1,.84,2.92,1.22,.82,.38,1.51,.77,2.07,1.17,.56,.4,1.01,.82,1.35,1.26,.34,.44,.6,.92,.79,1.42Z"/><path class="cls-1" d="M591.68,219.31c-1.9,2.21-4.25,4.39-7.06,6.55-2.76,2.11-4.46,3.17-5.11,3.17-.24,0-.36-.11-.36-.34s.22-.49,.65-.77c.94-.6,2.12-1.54,3.56-2.81,.74-.62,1.46-1.26,2.14-1.91,.68-.65,1.34-1.3,1.96-1.94s1.28-1.39,1.98-2.21c.7-.83,1.42-1.75,2.16-2.75,.74-1.03,1.38-1.93,1.91-2.68,.53-.76,.95-1.4,1.26-1.93,.34-.53,.6-.95,.79-1.28,.19-.32,.32-.57,.4-.74,.14-.31,.22-.62,.22-.94,0-.5-.22-.92-.65-1.26-.41-.34-.61-.59-.61-.76s.1-.31,.29-.41c.19-.11,.37-.16,.54-.16,.41,0,1.03,.37,1.87,1.12,.89,.74,1.33,1.45,1.33,2.12,0,.46-.2,.89-.61,1.3-.41,.41-.83,.95-1.26,1.62-.6,.91-1.28,1.87-2.05,2.88-.77,1.01-1.61,2.06-2.52,3.17,1.44,.62,2.16,1.31,2.16,2.05,0,.22-.05,.42-.14,.61-.29,.7-.43,4.78-.43,12.24v1.91c0,.5,.01,.86,.04,1.08,.02,.24,.04,.46,.04,.67v.59c0,.38-.11,.74-.32,1.06-.22,.32-.47,.49-.76,.49-.26,0-.56-.31-.9-.94-.31-.6-.47-1.19-.47-1.76,0-.48,.06-1.06,.18-1.73,.09-.6,.17-1.99,.22-4.18l.18-8.39c0-1.15-.2-2.06-.61-2.74Z"/><path class="cls-1" d="M637.04,234.5c0,.14-.04,.32-.11,.52-.07,.2-.19,.35-.36,.45-.17,.1-.38,.1-.65,.02-.26-.08-.59-.33-.97-.74-1.18-1.22-2.99-2.42-5.44-3.6-2.45-1.18-5.26-2.18-8.42-3.02-.58-.17-.86-.41-.86-.72,0-.22,.19-.32,.58-.32,.67,0,2.94,.56,6.8,1.69,3.86,1.13,6.4,2.23,7.6,3.31,1.22,1.08,1.84,1.88,1.84,2.41Zm-2.16-12.02c0,.6-.2,.9-.61,.9-.29,0-.6-.12-.94-.36-1.85-1.22-3.5-2.11-4.97-2.66-1.51-.6-3.32-1.06-5.44-1.37-.55-.1-.83-.28-.83-.54s.26-.4,.79-.4c.98,0,2.78,.26,5.4,.79,2.64,.5,4.4,1.03,5.29,1.58,.86,.55,1.3,1.24,1.3,2.05Zm.83-8.71c0,.65-.18,.97-.54,.97-.22,0-.48-.12-.79-.36-2.47-1.9-6.06-3.28-10.76-4.14-.43-.07-.71-.19-.85-.36-.13-.17-.05-.3,.23-.4,.29-.1,.83-.13,1.62-.09s1.91,.21,3.35,.52c1.49,.29,2.73,.57,3.73,.85,1,.28,1.79,.56,2.38,.86,.59,.3,1.01,.62,1.26,.97,.25,.35,.38,.74,.38,1.17Z"/><path class="cls-1" d="M654.86,209.95c.5,0,1.74,.42,3.71,1.26,1.97,.84,3.19,1.52,3.67,2.05,.5,.55,.76,1.2,.76,1.94,0,.24-.05,.46-.16,.67-.11,.2-.25,.35-.43,.45-.18,.1-.38,.11-.59,.05-.22-.06-.42-.25-.61-.56-1.06-1.68-3.1-3.25-6.12-4.72-.55-.29-.83-.55-.83-.79s.2-.36,.61-.36Zm22.97,4.57c0,.77-1.13,2.58-3.38,5.44-1.13,1.44-2.45,2.89-3.98,4.34-1.52,1.45-3.27,2.93-5.24,4.45-3.94,3-6.28,4.5-7.02,4.5-.48,0-1.09-.43-1.84-1.3-.74-.84-1.12-1.42-1.12-1.73s.12-.47,.36-.47c.12,0,.25,.04,.38,.13,.13,.08,.28,.17,.45,.27,.17,.1,.35,.19,.56,.27,.2,.08,.44,.13,.7,.13,.48,0,.98-.1,1.51-.29,.5-.22,1.62-.9,3.35-2.05,1.32-.89,2.62-1.85,3.91-2.88,1.28-1.03,2.53-2.12,3.73-3.26,1.2-1.14,2.34-2.32,3.42-3.55s2.06-2.45,2.95-3.67c.36-.48,.66-.72,.9-.72s.36,.13,.36,.4Z"/><path class="cls-1" d="M697.59,214.34c.48,.05,1.22,.07,2.21,.07s2.29-.1,3.87-.29c1.51-.22,2.51-.42,2.99-.61,.46-.19,.74-.29,.86-.29,.36,0,.85,.28,1.48,.83,.65,.55,.97,1,.97,1.33,0,.31-.26,.58-.79,.79-.46,.17-.83,.4-1.12,.68-.12,.12-.26,.31-.43,.58-.17,.26-.37,.6-.61,1.01-1.03,1.8-1.99,3.36-2.88,4.68-.89,1.32-1.72,2.44-2.48,3.35-1.82,2.16-3.77,4-5.85,5.51-2.08,1.51-4.35,2.82-6.82,3.92-1.34,.58-2.17,.86-2.48,.86s-.47-.08-.47-.25c0-.26,.34-.58,1.01-.94,2.09-1.03,3.85-2.04,5.29-3.02,1.46-.96,2.86-2.06,4.18-3.29,1.32-1.24,2.57-2.61,3.74-4.12,.6-.77,1.19-1.58,1.78-2.43,.59-.85,1.17-1.78,1.75-2.79,.58-1.01,1.03-1.79,1.35-2.34,.32-.55,.52-.91,.59-1.08,.14-.31,.22-.54,.22-.68,0-.29-.26-.43-.79-.43-.12,0-.32,.01-.59,.04-.28,.02-.65,.06-1.13,.11-.48,.05-.91,.09-1.28,.13-.37,.04-.71,.08-1.03,.13-.29,.05-.58,.08-.86,.11-.29,.02-.56,.04-.83,.04-.53,0-1.33-.25-2.41-.76-1.15,1.44-2.24,2.71-3.28,3.8-1.03,1.09-2,2.02-2.92,2.79-1.85,1.49-3.01,2.23-3.49,2.23-.19,0-.29-.1-.29-.31s.19-.49,.58-.85c.89-.77,1.7-1.49,2.43-2.16s1.37-1.31,1.93-1.91c1.1-1.22,2.15-2.52,3.13-3.89,.94-1.32,1.49-2.15,1.66-2.48,.29-.62,.29-1.16,0-1.62-.07-.14-.12-.32-.14-.52-.02-.2,.01-.35,.11-.45,.1-.1,.28-.1,.54-.02,.26,.08,.66,.34,1.19,.77,.67,.53,1.01,.98,1.01,1.37,0,.36-.17,.65-.5,.86-.29,.19-.74,.71-1.37,1.55Zm10.48-5.83c.26,0,1.06,.35,2.38,1.04,1.32,.7,2.15,1.24,2.48,1.62,.34,.41,.5,.89,.5,1.44,0,.26-.12,.5-.36,.72-.24,.22-.47,.32-.68,.32-.41,0-.73-.25-.97-.76-.65-1.2-1.79-2.39-3.42-3.56-.22-.14-.32-.32-.32-.52s.13-.31,.4-.31Zm9.32,2.74c0,.19-.05,.38-.16,.58-.11,.19-.24,.34-.4,.43-.16,.1-.34,.1-.56,.02-.22-.08-.43-.31-.65-.67-.91-1.39-2.24-2.65-4-3.78-.22-.14-.32-.3-.32-.47,0-.24,.16-.36,.47-.36,.29,0,1.09,.31,2.41,.94,.65,.31,1.18,.63,1.6,.95,.42,.32,.75,.63,.99,.92,.24,.29,.4,.56,.49,.81s.13,.46,.13,.63Z"/><path class="cls-1" d="M745.11,212.04c.41,0,.95,.19,1.62,.58,.67,.36,1.01,.67,1.01,.94,0,.53-.31,.79-.94,.79l-1.55-.07c-1.15,0-2.29,.21-3.4,.63-1.12,.42-2.42,1.1-3.91,2.03-1.46,.94-2.69,1.91-3.69,2.93-1,1.02-1.77,2.15-2.32,3.4-.55,1.22-.83,2.44-.83,3.65s.3,2.36,.9,3.44c.31,.53,.7,1,1.17,1.4,.47,.41,.98,.76,1.53,1.04,.55,.29,1.13,.5,1.75,.65s1.22,.22,1.82,.22c.29,0,.59-.02,.92-.07,.32-.05,.65-.07,.99-.07,.46,0,.89,.05,1.31,.16,.42,.11,.79,.24,1.1,.4s.56,.34,.74,.54c.18,.2,.27,.4,.27,.59,0,.14-.05,.26-.14,.36-.1,.12-.42,.21-.97,.27-.55,.06-1.08,.09-1.58,.09-2.06,0-4.04-.4-5.94-1.19-.96-.38-1.79-.86-2.48-1.42s-1.27-1.19-1.73-1.87-.79-1.4-1.01-2.16c-.22-.76-.32-1.53-.32-2.32,0-2.23,.88-4.4,2.63-6.5,1.75-2.1,4.36-4.05,7.81-5.85,.19-.1,.29-.17,.29-.23s-.07-.09-.22-.09c-.17,0-.76,.08-1.78,.23-1.02,.16-2.47,.39-4.34,.7-1.87,.31-3.54,.61-5,.9s-2.75,.59-3.85,.9c-.26,.07-.5,.11-.72,.11-.65,0-1.37-.41-2.16-1.22-.41-.41-.7-.74-.88-1.01-.18-.26-.28-.47-.31-.63-.02-.16,0-.26,.09-.32,.08-.06,.2-.09,.34-.09,.17,0,.3,.05,.4,.14,.53,.38,1.02,.64,1.48,.77,.46,.13,1.06,.2,1.8,.2s2.29-.14,4.64-.43c1.2-.14,2.47-.31,3.8-.49,1.33-.18,2.75-.39,4.27-.63,1.51-.24,2.81-.46,3.89-.67,1.08-.2,1.97-.4,2.66-.59,.29-.1,.58-.14,.86-.14Zm-.04-3.74c.46,0,1.27,.44,2.45,1.33,1.2,.91,1.8,1.64,1.8,2.2,0,.38-.11,.67-.32,.85-.22,.18-.46,.28-.74,.31-.28,.02-.54-.04-.79-.18s-.4-.35-.45-.61c-.62-1.7-1.3-2.71-2.02-3.02-.24-.1-.36-.26-.36-.5s.14-.36,.43-.36Zm3.13-2.23c.17,0,.39,.03,.67,.09,.28,.06,.56,.14,.85,.23,.29,.1,.57,.21,.85,.34,.28,.13,.52,.27,.74,.41,.43,.29,.77,.6,1.03,.94,.25,.34,.38,.71,.38,1.12,0,.84-.3,1.26-.9,1.26-.24,0-.47-.08-.7-.23-.23-.16-.38-.35-.45-.59-.43-1.25-1.21-2.16-2.34-2.74-.36-.19-.54-.38-.54-.56s.14-.27,.43-.27Z"/><path class="cls-1" d="M221.89,277.09c-3.91,.43-6.36,.79-7.34,1.06-.98,.28-1.73,.41-2.23,.41s-1.09-.18-1.75-.54c-.66-.36-.99-.63-.99-.83s.35-.3,1.04-.32c1.46-.1,4.87-.45,10.22-1.06,5.35-.61,9.04-1.12,11.05-1.53,1.03-.19,1.94-.29,2.74-.29s1.62,.23,2.48,.68c.86,.46,1.3,.88,1.3,1.26,0,.53-.6,.79-1.8,.79l-1.84-.11c-.74-.05-2.11-.07-4.1-.07s-4.34,.12-7.06,.36c.98,.53,1.48,1.06,1.48,1.58,0,.24-.08,.47-.23,.7-.16,.23-.26,.54-.32,.94-.06,.4-.09,1.29-.09,2.68,2.54-.02,4.52,.28,5.94,.9,1.42,.62,2.12,1.55,2.12,2.77,0,.55-.26,.83-.77,.83s-1.29-.3-2.32-.9c-1.03-.6-2.69-1.68-4.97-3.24l.07,12.89c0,1.87-.12,3.18-.36,3.92-.24,.74-.53,1.12-.86,1.12s-.69-.43-1.06-1.28c-.37-.85-.56-1.5-.56-1.94s.1-1,.31-1.66c.2-.66,.39-2.11,.56-4.34,.17-2.23,.25-4.39,.25-6.46s-.03-3.67-.09-4.77c-.06-1.1-.14-1.85-.23-2.23-.1-.38-.29-.83-.58-1.33Z"/><path class="cls-1" d="M258.53,276.8c-1.22,.17-2.2,.25-2.93,.25s-1.4-.08-2.02-.23c-.61-.16-.92-.32-.92-.5s.23-.28,.68-.31c1.3-.1,3.01-.36,5.15-.79-.02-1.27-.11-2.17-.25-2.7-.14-.53-.4-1-.76-1.4-.19-.24-.29-.47-.29-.68s.22-.32,.65-.32,1.07,.16,1.93,.47c.85,.31,1.28,.72,1.28,1.22,0,.14-.04,.3-.11,.47-.22,.5-.34,1.36-.36,2.56,1.22-.26,2.15-.48,2.79-.65,.64-.17,1.13-.25,1.48-.25s.73,.08,1.13,.25c.41,.17,.61,.38,.61,.63s-.28,.47-.85,.67c-.56,.19-2.29,.52-5.17,.97,.05,1.18,.07,2.12,.07,2.84,2.3-.41,3.76-.72,4.36-.94,.38-.14,.77-.22,1.15-.22s1.04,.28,1.96,.83c.92,.55,1.39,1.01,1.39,1.37,0,.19-.13,.41-.4,.67s-.5,.6-.7,1.04c-.2,.44-.46,1.18-.76,2.2-.3,1.02-.66,1.9-1.08,2.63s-.85,1.1-1.28,1.1c-.29,0-.5-.13-.65-.4-.12-.19-.38-.29-.77-.29s-1.47,.12-3.22,.36v3.06c2.54-.31,4.48-.57,5.81-.77,1.33-.2,2.26-.35,2.77-.43s1.02-.13,1.51-.13,1.09,.24,1.8,.72c.71,.48,1.06,.91,1.06,1.3,0,.43-.41,.61-1.22,.54-2.06-.22-3.87-.32-5.42-.32s-3.65,.14-6.32,.43c0,3.31-.1,5.84-.29,7.6-.19,1.75-.47,2.63-.83,2.63-.1,0-.19-.06-.29-.18-.1-.12-.19-.58-.29-1.39-.1-.8-.16-1.64-.18-2.5l-.04-5.98c-4.7,.55-7.57,.95-8.59,1.21-1.02,.25-1.76,.38-2.21,.38s-.98-.19-1.57-.56c-.59-.37-.88-.64-.88-.81s.07-.26,.22-.29c.14-.02,.59-.04,1.33-.04s2.33-.12,4.75-.36c2.42-.24,4.74-.52,6.95-.83v-3.02l-3.92,.61c.05,.36-.14,.54-.58,.54-.19,0-.45-.29-.77-.86-.32-.58-.59-1.31-.81-2.2-.55-2.35-1.13-3.89-1.73-4.61-.29-.34-.43-.62-.43-.85s.22-.34,.67-.34,1.03,.1,1.75,.29l5.65-.9c-.02-.94-.04-1.86-.04-2.77Zm.18,7.63c-.77,.1-1.37,.14-1.82,.14s-.77-.08-.99-.25-.32-.3-.32-.4,.17-.18,.5-.25c.34-.07,1.2-.28,2.59-.61-.02-1.2-.05-2.02-.07-2.45-1.39,.19-3.02,.5-4.9,.94,.34,1.7,.67,3.64,1.01,5.8l4-.58v-2.34Zm1.94-1.98c.53-.1,1.14-.14,1.84-.14s1.04,.18,1.04,.54c0,.19-.13,.38-.4,.58-.26,.19-1.09,.42-2.48,.68,.05,.75,.05,1.54,0,2.38,2.26-.34,3.43-.49,3.53-.47,.36,.02,.59-.05,.7-.23,.11-.18,.32-.92,.63-2.21,.31-1.3,.47-2.16,.47-2.59s-.07-.71-.22-.83c-.14-.12-.43-.18-.86-.18-1.39,0-2.81,.11-4.25,.32v2.16Z"/><path class="cls-1" d="M306.85,287.96c0,1.54-.49,3.32-1.48,5.36-.98,2.06-2.45,3.67-4.39,4.82-1.99,1.2-4.25,1.8-6.77,1.8s-4.49-.68-5.83-2.03c-1.34-1.36-2.02-3.27-2.02-5.74,0-1.56,.07-4.21,.22-7.96,.1-1.87,.17-3.37,.23-4.48,.06-1.12,.11-1.87,.16-2.25,.1-.55,.16-1.04,.18-1.48,.02-.43,0-.83-.09-1.21-.08-.37-.25-.74-.49-1.1-.24-.36-.59-.74-1.04-1.15-.22-.17-.32-.34-.32-.52s.12-.27,.36-.27c.29,0,.79,.16,1.51,.47,.74,.31,1.3,.72,1.66,1.22s.54,1.15,.54,1.94c0,.72-.13,1.68-.4,2.88-.24,1.1-.46,2.77-.65,5-.1,1.1-.17,2.21-.22,3.33-.05,1.12-.07,2.26-.07,3.44,0,2.26,.17,3.95,.5,5.08,.34,1.08,.96,1.86,1.87,2.34,.91,.48,2.26,.72,4.03,.72,2.71,0,5.16-1.02,7.34-3.06,2.18-2.04,3.59-4.58,4.21-7.63,.05-.22,.12-.38,.22-.5,.1-.12,.2-.17,.31-.14,.11,.02,.2,.13,.29,.31,.08,.18,.13,.45,.13,.81Z"/><path class="cls-1" d="M342.05,273.42c.36,0,.85,.18,1.48,.54,.62,.36,.94,.71,.94,1.04,0,.29-.07,.49-.22,.61s-.34,.2-.58,.23c-.24,.04-.51,.04-.81,.02-.3-.02-.59-.04-.88-.04-1.73,0-3.28,.34-4.64,1.01-1.44,.7-3.11,1.8-5,3.31-1.94,1.51-3.4,3.1-4.37,4.75-.97,1.66-1.46,3.28-1.46,4.86,0,1.9,.64,3.48,1.91,4.75,1.27,1.25,2.94,1.87,5,1.87,.29,0,.59-.02,.92-.05,.32-.04,.64-.05,.95-.05,.46,0,.9,.05,1.33,.16,.43,.11,.82,.25,1.15,.41,.34,.17,.6,.37,.79,.59,.19,.23,.29,.46,.29,.7,0,.17-.06,.31-.18,.43-.1,.12-.41,.23-.94,.32-.53,.1-1.09,.14-1.69,.14-1.97,0-3.94-.42-5.9-1.26-1.9-.82-3.26-1.96-4.1-3.42-.79-1.46-1.19-2.96-1.19-4.5,0-2.4,.95-4.75,2.84-7.06,1.9-2.3,4.68-4.48,8.35-6.52,.31-.19,.47-.32,.47-.4s-.14-.11-.43-.11c-.48,0-1.36,.09-2.65,.27-1.28,.18-2.99,.44-5.13,.77-2.14,.34-3.84,.65-5.11,.94-1.27,.29-2.14,.53-2.59,.72-.34,.17-.65,.25-.94,.25-.5,0-1.14-.42-1.91-1.26-.77-.84-1.15-1.39-1.15-1.66,0-.29,.11-.43,.32-.43,.12,0,.34,.12,.65,.36,.36,.22,.73,.4,1.1,.56,.37,.16,.94,.23,1.71,.23s2.23-.18,4.39-.54c2.16-.36,5.16-.78,9-1.26,1.94-.24,3.49-.44,4.63-.61,1.14-.17,1.88-.3,2.21-.4,.72-.22,1.2-.32,1.44-.32Z"/><path class="cls-1" d="M364.91,287.6c0,.17-.13,.48-.4,.94-.22,.38-.7,1.44-1.44,3.17-.36,.84-.66,1.55-.9,2.12-.24,.58-.42,1.03-.54,1.37-.22,.65-.32,1.09-.32,1.33,0,.26,.04,.49,.11,.68,.07,.19,.11,.38,.11,.58s-.08,.37-.23,.52c-.16,.16-.35,.23-.59,.23-.72,0-1.56-.47-2.52-1.4-.98-.91-1.84-2.45-2.56-4.61-.7-2.23-1.04-4.79-1.04-7.67,0-.96,.04-1.91,.11-2.86,.07-.95,.19-1.88,.36-2.79,.07-.38,.11-.74,.11-1.08,0-.91-.26-1.7-.79-2.38-.14-.17-.22-.34-.22-.52s.13-.27,.4-.27c.38,0,.96,.28,1.73,.83,.77,.55,1.15,1.08,1.15,1.58,0,.34-.14,.8-.43,1.4-.29,.6-.52,1.48-.68,2.63-.17,1.15-.25,2.5-.25,4.03s.12,3.02,.36,4.46c.24,1.44,.55,2.63,.94,3.56,.22,.46,.4,.81,.56,1.06s.3,.44,.43,.58c.13,.13,.26,.21,.4,.23,.13,.02,.27,.04,.41,.04,.53,0,.89-.2,1.08-.61l1.98-3.85c1.1-2.14,1.73-3.28,1.87-3.42,.14-.12,.32-.18,.52-.18s.31,.1,.31,.29Zm16.27,1.48c0,.84-.07,1.67-.22,2.48-.14,.82-.37,1.31-.67,1.49-.3,.18-.58,.27-.85,.27-.22,0-.37-.07-.47-.22-.1-.14-.14-.38-.14-.7s.02-.75,.05-1.28c.04-.53,.07-1.19,.09-1.98,0-2.93-.5-5.46-1.51-7.6-.96-2.11-2.57-3.44-4.82-4-.53-.1-.79-.3-.79-.61s.22-.47,.67-.47,1.28,.25,2.5,.76c.94,.34,1.78,.89,2.54,1.67s1.4,1.7,1.94,2.77c.54,1.07,.95,2.24,1.24,3.51,.29,1.27,.43,2.57,.43,3.89Z"/><path class="cls-1" d="M398.61,278.86c1.08-.22,1.87-.43,2.36-.63,.49-.2,.88-.47,1.17-.81,.31-.36,.73-.54,1.26-.54s.92,.13,1.17,.38,.38,.5,.38,.74-.14,.47-.43,.68c-.22,.19-.95,.46-2.2,.79-.6,.14-1.24,.28-1.91,.41s-1.38,.26-2.12,.38c-.48,1.7-1.03,3.52-1.66,5.45-.62,1.93-1.32,4.01-2.09,6.25-1.56,4.44-2.44,6.79-2.63,7.06-.22,.31-.44,.47-.68,.47s-.43-.18-.58-.54c-.12-.36-.18-.83-.18-1.42s.19-1.16,.58-1.71c.41-.55,1.12-2.22,2.12-5,.53-1.39,1.06-2.94,1.6-4.64s1.11-3.58,1.71-5.62c-1.8,.29-3.24,.43-4.32,.43s-1.85-.32-2.3-.97c-.43-.65-.65-1.09-.65-1.31s.07-.34,.22-.34,.38,.14,.72,.43c.34,.29,.73,.5,1.19,.65,.46,.14,1.06,.22,1.8,.22,.38,0,.89-.04,1.51-.11,.62-.07,1.37-.19,2.23-.36,.67-2.33,1.01-3.83,1.01-4.5,0-1.01-.17-1.72-.5-2.12-.12-.12-.18-.25-.18-.4,0-.26,.13-.4,.4-.4s.78,.3,1.55,.9c.77,.62,1.15,1.13,1.15,1.51,0,.41-.16,.78-.47,1.12-.26,.31-.67,1.5-1.22,3.56Zm16.34,17.89c.48,0,.92,.14,1.33,.41,.41,.28,.61,.56,.61,.85,0,.31-.18,.55-.54,.72-.34,.17-.94,.34-1.8,.5-.86,.17-1.84,.25-2.92,.25-2.45,0-4.66-.42-6.62-1.26-1.92-.84-2.88-2.06-2.88-3.67,0-.36,.05-.7,.14-1.01,.1-.31,.22-.58,.36-.81,.14-.23,.29-.4,.43-.52s.26-.18,.36-.18c.19,0,.3,.05,.32,.14,.02,.1,0,.23-.05,.4s-.13,.38-.2,.65c-.07,.26-.11,.55-.11,.86,0,1.08,.6,1.93,1.8,2.56,1.18,.6,2.77,.9,4.79,.9s3.37-.19,4.07-.58c.29-.14,.59-.22,.9-.22Zm1.58-16.16c0,.38-.28,.64-.83,.76-.58,.12-1.15,.31-1.73,.58-.6,.26-1.6,.95-2.99,2.05-.7,.55-1.24,.98-1.64,1.3-.4,.31-.64,.52-.74,.61-.17,.17-.32,.25-.47,.25-.17,0-.27-.05-.31-.14-.04-.1,.03-.27,.2-.52,.17-.25,.44-.59,.83-1.01s.92-.95,1.62-1.6c.91-.89,1.55-1.42,1.91-1.58,.36-.19,.54-.35,.54-.49s-.19-.2-.58-.2c-.53,0-1.05,.01-1.57,.04-.52,.02-1.05,.06-1.6,.11l-2.7,.29c-.31,0-.47-.1-.47-.29,0-.38,.65-.78,1.94-1.19,1.34-.41,2.87-.61,4.57-.61s2.86,.2,3.31,.61c.46,.38,.68,.73,.68,1.04Z"/><path class="cls-1" d="M433.78,279.65c1.68-.41,2.86-.95,3.53-1.62,.29-.29,.59-.46,.92-.5,.32-.05,.62-.02,.9,.07,.28,.1,.51,.25,.7,.45,.19,.2,.29,.41,.29,.63,0,.26-.16,.48-.47,.65-.14,.1-.41,.21-.79,.34-.38,.13-.89,.28-1.51,.45s-1.26,.33-1.91,.49c-.65,.16-1.32,.29-2.02,.41-1.01,4.13-2.16,8.24-3.46,12.35-1.3,4.03-2.05,6.19-2.27,6.48-.19,.29-.43,.43-.72,.43s-.49-.19-.61-.58c-.12-.38-.18-.83-.18-1.35s.18-1.03,.54-1.53c.17-.24,.41-.77,.74-1.6,.32-.83,.7-1.91,1.13-3.24,.43-1.33,.91-2.89,1.42-4.68,.52-1.79,1.06-3.79,1.64-5.99-1.01,.17-1.87,.29-2.57,.38-.71,.08-1.27,.13-1.67,.13-.84,0-1.51-.31-2.02-.94-.48-.65-.72-1.1-.72-1.35s.12-.38,.36-.38c.07,0,.17,.05,.31,.14,.13,.1,.29,.2,.47,.32,.18,.12,.37,.24,.56,.36,.19,.12,.38,.22,.58,.29,.43,.12,.94,.18,1.51,.18,.67,0,1.86-.16,3.56-.47,.62-2.3,.94-3.77,.94-4.39,0-.98-.18-1.69-.54-2.12-.12-.12-.18-.26-.18-.43s.05-.3,.14-.4c.1-.1,.24-.14,.43-.14s.66,.28,1.4,.83c.74,.53,1.12,1.06,1.12,1.58,0,.29-.13,.73-.4,1.33-.12,.29-.28,.72-.47,1.3-.19,.58-.42,1.28-.68,2.12Zm16.99,17.64c.43,0,.83,.13,1.21,.4,.37,.26,.56,.5,.56,.72s-.13,.42-.4,.61c-.12,.07-.34,.16-.67,.27-.32,.11-.72,.2-1.19,.29-.47,.08-1,.16-1.58,.22-.59,.06-1.18,.09-1.78,.09-2.69,0-4.92-.41-6.7-1.22-1.8-.82-2.7-2-2.7-3.56,0-.34,.05-.65,.16-.94,.11-.29,.23-.54,.38-.76,.14-.22,.29-.39,.45-.52s.28-.2,.38-.2c.17,0,.26,.05,.29,.14s.01,.23-.04,.4c-.05,.17-.11,.38-.18,.63s-.11,.53-.11,.85c0,1.15,.62,2.03,1.87,2.63,1.22,.6,2.82,.9,4.79,.9s3.37-.24,4.28-.72c.31-.14,.64-.22,.97-.22Zm.97-16.24c0,.41-.31,.65-.94,.72-.6,.07-1.14,.23-1.62,.49-.48,.25-1.03,.63-1.66,1.13-2.5,2.14-3.86,3.2-4.1,3.2-.07,0-.14-.04-.22-.11-.07-.07-.11-.14-.11-.22,0-.29,.68-1.07,2.05-2.34,1.39-1.27,2.28-2.02,2.66-2.23,.31-.17,.52-.31,.61-.41,.1-.11,.04-.19-.16-.23-.2-.05-.58-.06-1.12-.04-.54,.02-1.28,.08-2.21,.18l-3.28,.36c-.31,0-.47-.11-.47-.32,0-.41,.79-.82,2.38-1.22,1.54-.38,3.19-.58,4.97-.58,.55-.02,1.02,0,1.4,.09,.38,.08,.7,.2,.95,.36s.44,.34,.58,.54,.22,.41,.27,.63Zm-6.48-8.39c.82,0,1.74,.37,2.77,1.12,1.08,.72,1.62,1.33,1.62,1.84,0,.22-.07,.42-.22,.61-.14,.19-.31,.34-.5,.43-.19,.1-.41,.11-.65,.04-.24-.07-.44-.28-.61-.61-.65-1.27-1.52-2.14-2.63-2.59-.24-.1-.36-.24-.36-.43,0-.26,.19-.4,.58-.4Zm4.46-1.76c.36,0,.8,.1,1.31,.31,.52,.2,1.03,.49,1.53,.85,.98,.67,1.48,1.22,1.48,1.66,0,.22-.07,.43-.22,.65-.14,.22-.32,.38-.54,.49-.22,.11-.44,.13-.67,.05-.23-.07-.43-.28-.59-.61-.6-1.18-1.44-2-2.52-2.48-.24-.1-.36-.25-.36-.47,0-.29,.19-.43,.58-.43Z"/><path class="cls-1" d="M483.03,299.16c0,.79-.24,1.19-.72,1.19-.31,0-.56-.17-.76-.5-.7-1.25-2.27-2.88-4.72-4.9-2.45-2.02-5.78-4.44-10.01-7.27-.62-.43-.94-1-.94-1.69,0-.53,.19-.98,.58-1.37,.19-.19,.95-.81,2.29-1.85s3.23-2.5,5.71-4.37c.36-.26,.78-.59,1.26-.99,.48-.4,1.02-.87,1.62-1.42,.6-.55,1.08-1,1.44-1.35,.36-.35,.6-.59,.72-.74,.24-.31,.36-.53,.36-.65,0-.31-.44-.59-1.33-.83-.26-.07-.41-.17-.45-.31-.04-.13-.01-.26,.07-.4,.08-.13,.22-.24,.4-.32,.18-.08,.38-.13,.59-.13,.65,0,1.43,.32,2.34,.97,.89,.6,1.33,1.13,1.33,1.58s-.43,.9-1.3,1.4c-.82,.48-1.8,1.16-2.95,2.05-.55,.43-1.27,.98-2.14,1.64s-1.93,1.43-3.15,2.32l-4.64,3.35c-.34,.24-.6,.43-.79,.58-.19,.14-.32,.26-.4,.36-.12,.17-.18,.38-.18,.63s.26,.55,.79,.88c5.35,3.43,8.81,5.74,10.37,6.91,1.54,1.15,2.69,2.11,3.46,2.88,.77,.77,1.15,1.55,1.15,2.34Z"/><path class="cls-1" d="M523.78,293.36c.38,0,.7,.07,.94,.22,.24,.14,.41,.31,.52,.5,.11,.19,.15,.4,.13,.61-.02,.22-.12,.41-.29,.58-.24,.24-.94,.48-2.09,.72-1.15,.26-2.45,.46-3.89,.58-1.44,.12-2.88,.18-4.32,.18-5.09,0-8.45-.56-10.08-1.69-1.63-1.15-2.45-2.52-2.45-4.1,0-.96,.36-2.05,1.08-3.28,.74-1.25,1.26-1.87,1.55-1.87,.22,0,.32,.1,.32,.29,0,.05-.02,.12-.07,.22-1.01,1.44-1.51,2.82-1.51,4.14,0,1.25,.53,2.33,1.58,3.24,1.06,.91,3.32,1.37,6.8,1.37,1.08,0,2.14-.04,3.19-.11,1.04-.07,2.08-.17,3.11-.29,2.04-.24,3.35-.52,3.92-.83,.53-.31,1.04-.47,1.55-.47Zm-5.87-19.62c.55,0,1.18,.2,1.87,.61,.7,.41,1.04,.83,1.04,1.26,0,.53-.5,.79-1.51,.79-.53,0-1.62,.41-3.28,1.22-1.63,.77-2.92,1.52-3.85,2.27-.12,.1-.25,.14-.38,.14s-.2-.06-.2-.18c0-.1,.02-.22,.07-.36,.02-.07,.15-.2,.38-.4,.23-.19,.52-.43,.88-.7,.36-.28,.77-.59,1.22-.94,.46-.35,.94-.7,1.44-1.06,.19-.12,.29-.25,.29-.4s-.17-.22-.5-.22c-.17,0-.5,.02-1.01,.07s-1.18,.12-2.02,.22c-.84,.1-1.52,.17-2.03,.23-.52,.06-.87,.11-1.06,.16-.34,.07-.66,.11-.97,.11-.84,0-1.57-.35-2.2-1.04-.6-.7-.9-1.16-.9-1.4s.09-.36,.27-.36,.41,.13,.7,.4c.34,.29,.65,.48,.94,.58,.36,.12,1.09,.18,2.2,.18,.58,0,1.24-.02,2-.07,.76-.05,1.6-.12,2.54-.22,1.85-.22,2.9-.42,3.17-.61,.26-.19,.56-.29,.9-.29Z"/><path class="cls-1" d="M548.08,284.33c.86-.26,1.79-.54,2.77-.83,.98-.29,2.05-.59,3.2-.9,1.15-.31,2.03-.55,2.65-.7,.61-.16,.97-.25,1.06-.27,.12-.02,.22-.04,.31-.05,.08-.01,.17-.02,.27-.02,.5,0,1,.18,1.48,.54,.48,.34,.72,.62,.72,.86,0,.43-.35,.65-1.04,.65-3.12,0-6.73,.65-10.84,1.94-4.06,1.25-6.84,2.56-8.35,3.92-1.46,1.32-2.2,2.69-2.2,4.1,0,1.78,1.02,3.02,3.06,3.74,2.02,.74,4.5,1.12,7.45,1.12s5.86-.43,8.86-1.3c.5-.14,.92-.22,1.26-.22,.36,0,.8,.16,1.33,.47,.58,.34,.86,.67,.86,1.01s-.14,.58-.43,.72c-.31,.17-1.8,.37-4.46,.61-1.37,.12-2.6,.22-3.71,.29-1.1,.07-2.11,.11-3.02,.11-3.14,0-5.68-.37-7.6-1.12-1.97-.72-3.25-1.6-3.85-2.63-.6-1.03-.9-2.09-.9-3.17s.28-2.04,.83-2.88c.29-.43,.68-.88,1.17-1.35,.49-.47,1.1-.94,1.84-1.42,.73-.48,1.61-.97,2.63-1.46,1.02-.49,2.2-.97,3.55-1.42-.14-.24-.27-.49-.38-.76-.11-.26-.19-.56-.23-.9-.05-.34-.08-.73-.11-1.17-.02-.44-.04-.98-.04-1.6l.11-5.26c0-.7-.14-1.34-.43-1.94-.29-.6-.65-1.04-1.08-1.33-.17-.1-.25-.26-.25-.5,0-.36,.17-.54,.5-.54,.24,0,.74,.19,1.51,.58,.82,.41,1.36,.77,1.62,1.08,.26,.34,.4,.7,.4,1.08,0,.43-.12,.97-.36,1.62-.24,.65-.36,2.32-.36,5,0,1.75,.07,3.18,.22,4.28Z"/><path class="cls-1" d="M578.5,279.4c.55-.22,1-.39,1.35-.52,.35-.13,.61-.22,.77-.27,.36-.12,.76-.18,1.19-.18,1.54,0,2.72,.65,3.56,1.96,.84,1.31,1.26,3.27,1.26,5.89s-.47,4.94-1.4,7.27c-.94,2.33-1.91,3.92-2.92,4.79-.5,.43-.93,.75-1.28,.95-.35,.2-.64,.32-.86,.36s-.4,0-.5-.11c-.11-.11-.16-.25-.16-.41,.1-.29,.16-.53,.2-.72,.04-.19,.04-.38,0-.58-.04-.19-.14-.35-.31-.47-.43-.26-.85-.52-1.26-.77s-.82-.51-1.22-.77c-.38-.26-.7-.49-.94-.67-.24-.18-.41-.32-.5-.41-.31-.34-.38-.56-.22-.67,.17-.11,.36-.1,.58,.02,2.3,1.44,3.91,2.16,4.82,2.16,.55,0,1.03-.22,1.44-.65,.22-.22,.43-.54,.65-.97,.22-.43,.43-.93,.65-1.49,.22-.56,.41-1.19,.59-1.87s.33-1.39,.45-2.11c.26-1.46,.4-2.8,.4-4.01s-.06-2.2-.18-2.97c-.1-.77-.4-1.37-.92-1.8-.52-.43-1.18-.65-2-.65-.72,0-1.92,.31-3.6,.94-.34,1.01-.74,2.11-1.22,3.29-.48,1.19-1.06,2.5-1.73,3.94-1.34,2.86-2.64,5.34-3.89,7.45-1.27,2.16-2.02,3.31-2.23,3.46-.19,.17-.4,.25-.61,.25-.55,0-.83-.38-.83-1.15s.11-1.18,.32-1.3c.58-.22,1.72-1.85,3.42-4.9,1.73-3.05,3.35-6.5,4.86-10.37-2.54,.96-4.01,1.55-4.39,1.76-.38,.19-.84,.29-1.37,.29-.26,0-.52-.05-.77-.16-.25-.11-.48-.24-.68-.4s-.37-.34-.5-.54-.2-.41-.2-.63c0-.31,.12-.47,.36-.47,.02,0,.11,.02,.25,.07,.65,.31,1.32,.47,2.02,.47s2.62-.55,5.76-1.66c.19-.58,.38-1.15,.56-1.73,.18-.58,.33-1.15,.45-1.73,.26-1.2,.4-1.87,.4-2.02,0-.46-.32-1.1-.97-1.94-.12-.17-.18-.32-.18-.47s.12-.22,.36-.22c.65,0,1.31,.26,1.98,.79,.72,.5,1.08,1.09,1.08,1.76,0,.22-.05,.41-.14,.58-.62,1.3-1.2,2.72-1.73,4.28Zm19.48,9.18c0,.5-.08,.89-.23,1.15-.16,.26-.33,.44-.52,.54-.19,.1-.38,.12-.56,.07s-.29-.13-.34-.25c-.19-.34-.52-.5-.97-.5-.1,0-.22,.02-.36,.07-1.97,1.03-3.34,1.55-4.1,1.55-.38,0-.58-.12-.58-.36,0-.07,.07-.17,.22-.29,.1-.05,.31-.16,.63-.34s.76-.4,1.31-.67c1.18-.6,2-.98,2.48-1.15,.53-.17,.79-.61,.79-1.33s-.66-2.03-1.98-3.85c-1.32-1.9-2.81-3.11-4.46-3.64-.36-.12-.54-.29-.54-.5s.25-.32,.76-.32c.98,0,2.16,.54,3.53,1.62,.7,.53,1.33,1.12,1.91,1.78,.58,.66,1.1,1.38,1.58,2.14,.96,1.54,1.44,2.96,1.44,4.28Zm-1.58-11.3c0,.34-.16,.56-.47,.68s-.6,.07-.86-.14c-1.22-1.15-2.46-1.86-3.71-2.12-.36-.07-.54-.19-.54-.36,0-.29,.32-.43,.97-.43,1.03,0,2.05,.29,3.06,.86,1.03,.53,1.55,1.03,1.55,1.51Zm-1.58-6.12c.98,0,1.98,.23,2.99,.68,1.06,.48,1.58,1.01,1.58,1.58,0,.34-.17,.59-.52,.76-.35,.17-.75,.05-1.21-.36-.65-.6-1.2-1.04-1.66-1.31-.46-.28-1.01-.49-1.66-.63-.34-.07-.5-.21-.5-.41s.32-.31,.97-.31Z"/><path class="cls-1" d="M622.89,275.54c-2.18,.05-4.87,.27-8.05,.67-3.18,.4-5.07,.68-5.67,.86-.6,.18-1.19,.27-1.76,.27s-1.16-.2-1.75-.61c-.59-.41-.88-.7-.88-.88s.06-.29,.18-.32c.12-.04,.48-.05,1.08-.05s2.25-.07,4.95-.22c2.7-.14,6.02-.44,9.95-.88,3.94-.44,6.43-.76,7.49-.95,1.06-.19,1.94-.29,2.66-.29,1.27,0,2.32,.26,3.13,.77,.82,.52,1.22,.95,1.22,1.31s-.48,.54-1.44,.54c-.38,0-.97-.05-1.75-.16-.78-.11-2.09-.16-3.92-.16s-3.39,.02-4.66,.07c1.78,.84,2.66,1.57,2.66,2.2,0,.17-.07,.37-.2,.59-.13,.23-.23,.67-.29,1.33-.06,.66-.09,1.82-.09,3.47l.11,9.4c0,1.51-.08,2.68-.23,3.49-.16,.82-.46,1.61-.92,2.38-.46,.77-.79,1.24-.99,1.4-.2,.17-.43,.25-.67,.25s-.47-.2-.68-.59c-.22-.4-.67-.99-1.35-1.78s-1.25-1.39-1.71-1.8c-.46-.41-.68-.65-.68-.74s.05-.13,.16-.13,.23,.02,.38,.07c1.3,.34,2.26,.5,2.88,.5,.7,0,1.1-.19,1.21-.58,.11-.38,.25-1.75,.41-4.09,.17-2.34,.25-4.79,.25-7.36,0-4.25-.35-6.91-1.04-7.99Zm-9.83,12.28c-.05,1.13-.29,1.69-.72,1.69-.17,0-.32-.15-.47-.45-.14-.3-.23-.71-.25-1.24-.22-3.22-.72-5.24-1.51-6.08-.12-.14-.18-.28-.18-.4,0-.24,.19-.36,.56-.36s.68,.04,.94,.11,.74,.11,1.46,.11,1.54-.1,2.47-.31c.92-.2,1.61-.44,2.05-.72,.44-.28,.77-.41,.97-.41s.68,.21,1.42,.63,1.12,.75,1.12,.99-.16,.52-.49,.85-.67,.87-1.03,1.64c-.36,.77-.54,1.28-.54,1.53s.11,.48,.34,.68c.23,.2,.34,.4,.34,.59s-.09,.33-.27,.41c-.18,.08-.92,.21-2.23,.38-1.31,.17-2.63,.29-3.98,.36Zm0-.94c1.46-.17,2.47-.32,3.02-.47,.55-.14,.89-.33,1.01-.56,.12-.23,.23-.71,.34-1.46,.11-.74,.16-1.49,.16-2.23,0-.43-.25-.65-.76-.65-.22,0-.72,.08-1.51,.25-.79,.17-1.67,.29-2.63,.36,.24,3.14,.36,4.73,.36,4.75Z"/><path class="cls-1" d="M651.33,278.64c-.5-1.18-.76-1.86-.76-2.05s.1-.29,.31-.29,.77,.4,1.71,1.19c.94,.79,1.4,1.58,1.4,2.38,0,.43-.08,.83-.25,1.21-.17,.37-.36,.56-.58,.56s-.41-.11-.59-.34c-.18-.23-.47-.83-.88-1.82-2.06,.67-3.94,1.35-5.63,2.03-1.69,.68-2.79,1.18-3.29,1.49s-.85,.47-1.04,.47c-.43,0-.65-.55-.65-1.66,0-.55,.23-.88,.68-.97,.55-.12,.97-.32,1.24-.59,.28-.28,.84-1.03,1.69-2.25,.85-1.22,1.5-2.3,1.94-3.22,.44-.92,.67-1.65,.67-2.18,0-.19-.02-.35-.07-.47s-.07-.23-.07-.32c0-.24,.17-.36,.5-.36s.85,.23,1.53,.7c.68,.47,1.03,.83,1.03,1.1s-.11,.48-.32,.65c-.48,.36-2.57,2.64-6.26,6.84,2.09-.34,4.66-1.03,7.7-2.09Zm-6.84,6.05c2.23-.48,3.73-.91,4.5-1.3,.29-.12,.59-.18,.9-.18s.82,.22,1.53,.65c.71,.43,1.06,.8,1.06,1.12,0,.17-.11,.35-.34,.54-.23,.19-.34,1.09-.34,2.68s.17,3.88,.5,6.86c.02,.29,.04,.55,.04,.79,0,.82-.24,1.75-.72,2.79-.48,1.04-.86,1.57-1.15,1.57-.19,0-.47-.29-.83-.86-.36-.58-.85-1.24-1.48-1.98-.14-.19-.22-.34-.22-.45s.07-.16,.2-.16,.3,.02,.5,.05c.2,.04,.4,.05,.59,.05,.5,0,.82-.2,.95-.59,.13-.4,.2-1.67,.2-3.83,0-.96-.02-1.98-.07-3.06-.05-1.08-.11-2.02-.2-2.83s-.17-1.28-.25-1.42c-.08-.14-.21-.25-.38-.31-.17-.06-.38-.09-.65-.09-.6,0-1.81,.22-3.64,.65,.05,1.15,.05,2.26,0,3.31,1.46-.5,2.35-.76,2.66-.76s.58,.04,.81,.13c.23,.08,.34,.24,.34,.47s-.32,.41-.95,.56c-.64,.14-1.15,.22-1.55,.22s-.83-.04-1.31-.11c-.1,1.51-.18,2.64-.25,3.38,1.51-.53,2.43-.79,2.75-.79s.61,.07,.86,.22c.25,.14,.38,.31,.38,.49s-.35,.35-1.04,.5c-.7,.16-1.24,.23-1.64,.23s-.85-.06-1.35-.18c-.12,1.15-.38,2.52-.77,4.1-.4,1.58-.79,2.38-1.17,2.38-.22,0-.41-.25-.58-.76-.17-.5-.25-.92-.25-1.26s.06-.64,.18-.9c1.01-2.28,1.51-5.32,1.51-9.11,0-1.06-.07-1.74-.22-2.05-.14-.31-.22-.54-.22-.68s.1-.22,.31-.22,.46,.05,.77,.14Zm12.71-6.12c0,1.44,.05,2.44,.16,2.99,.11,.55,.35,.91,.72,1.06s1.16,.23,2.36,.23,2.17-.25,2.92-.74c.74-.49,1.3-1.31,1.66-2.47,.17-.55,.32-.83,.45-.83s.22,.21,.27,.61c.1,.79,.23,1.41,.41,1.85,.18,.44,.27,.73,.27,.85,0,.62-.55,1.18-1.64,1.66-1.09,.48-2.51,.72-4.27,.72-1.15,0-2.08-.17-2.77-.52-.7-.35-1.2-.94-1.51-1.76-.31-.83-.46-2.01-.43-3.55l.04-2.41c0-2.71-.16-4.31-.47-4.81-.31-.49-.47-.84-.47-1.04s.14-.31,.43-.31,.81,.17,1.57,.52c.76,.35,1.13,.74,1.13,1.17,0,.22-.06,.46-.18,.74s-.25,.98-.38,2.11c-.13,1.13-.22,2.2-.27,3.2,2.76-1.68,4.28-2.77,4.55-3.28,.28-.5,.53-.76,.77-.76s.56,.23,.95,.68c.4,.46,.59,.81,.59,1.06s-.26,.43-.77,.52c-.52,.1-2.55,.92-6.1,2.48Zm.36,12.96c-.05,1.03-.07,1.8-.07,2.3,0,1.27,.23,2.17,.68,2.7,.46,.53,1.42,.79,2.88,.79s2.6-.1,3.42-.29c.82-.19,1.42-.42,1.8-.68,.38-.26,.7-.7,.95-1.3,.25-.6,.5-1.39,.76-2.38,.25-.98,.43-1.48,.52-1.48s.17,.26,.22,.77c.05,.52,.17,1.22,.36,2.12,.19,.9,.35,1.52,.49,1.85,.13,.34,.2,.62,.2,.86,0,.67-.79,1.27-2.38,1.8-1.58,.53-3.13,.79-4.64,.79s-2.63-.11-3.37-.34c-.73-.23-1.34-.59-1.84-1.1-.49-.5-.84-1.12-1.04-1.85-.2-.73-.3-1.67-.29-2.81,.01-1.14,.02-1.84,.02-2.11,0-3.05-.11-4.78-.34-5.18-.23-.41-.34-.71-.34-.9s.11-.29,.32-.29,.66,.18,1.33,.54c.67,.36,1.01,.68,1.01,.97s-.06,.66-.18,1.12c-.12,.46-.26,1.62-.43,3.49,2.88-1.46,4.4-2.53,4.57-3.2,.1-.43,.26-.65,.49-.65s.59,.28,1.1,.85c.5,.56,.76,.94,.76,1.12s-.17,.32-.5,.41l-6.44,2.05Z"/><path class="cls-1" d="M700.11,275.04c.41,0,.95,.19,1.62,.58,.67,.36,1.01,.67,1.01,.94,0,.53-.31,.79-.94,.79l-1.55-.07c-1.15,0-2.29,.21-3.4,.63-1.12,.42-2.42,1.1-3.91,2.03-1.46,.94-2.69,1.91-3.69,2.93s-1.77,2.15-2.32,3.4c-.55,1.22-.83,2.44-.83,3.65s.3,2.36,.9,3.44c.31,.53,.7,1,1.17,1.4,.47,.41,.98,.76,1.53,1.04,.55,.29,1.13,.5,1.75,.65,.61,.14,1.22,.22,1.82,.22,.29,0,.59-.02,.92-.07,.32-.05,.65-.07,.99-.07,.46,0,.89,.05,1.31,.16,.42,.11,.79,.24,1.1,.4s.56,.34,.74,.54c.18,.2,.27,.4,.27,.59,0,.14-.05,.26-.14,.36-.1,.12-.42,.21-.97,.27-.55,.06-1.08,.09-1.58,.09-2.06,0-4.04-.4-5.94-1.19-.96-.38-1.79-.86-2.48-1.42s-1.27-1.19-1.73-1.87c-.46-.68-.79-1.4-1.01-2.16s-.32-1.53-.32-2.32c0-2.23,.88-4.4,2.63-6.5,1.75-2.1,4.36-4.05,7.81-5.85,.19-.1,.29-.17,.29-.23s-.07-.09-.22-.09c-.17,0-.76,.08-1.78,.23-1.02,.16-2.47,.39-4.34,.7s-3.54,.61-5,.9-2.75,.59-3.85,.9c-.26,.07-.5,.11-.72,.11-.65,0-1.37-.41-2.16-1.22-.41-.41-.7-.74-.88-1.01-.18-.26-.28-.47-.31-.63-.02-.16,0-.26,.09-.32,.08-.06,.2-.09,.34-.09,.17,0,.3,.05,.4,.14,.53,.38,1.02,.64,1.48,.77,.46,.13,1.06,.2,1.8,.2s2.29-.14,4.64-.43c1.2-.14,2.47-.31,3.8-.49,1.33-.18,2.75-.39,4.27-.63,1.51-.24,2.81-.46,3.89-.67,1.08-.2,1.97-.4,2.66-.59,.29-.1,.58-.14,.86-.14Zm-.04-3.74c.46,0,1.27,.44,2.45,1.33,1.2,.91,1.8,1.64,1.8,2.2,0,.38-.11,.67-.32,.85s-.46,.28-.74,.31c-.28,.02-.54-.04-.79-.18-.25-.14-.4-.35-.45-.61-.62-1.7-1.3-2.71-2.02-3.02-.24-.1-.36-.26-.36-.5s.14-.36,.43-.36Zm3.13-2.23c.17,0,.39,.03,.67,.09,.28,.06,.56,.14,.85,.23,.29,.1,.57,.21,.85,.34,.28,.13,.52,.27,.74,.41,.43,.29,.77,.6,1.03,.94s.38,.71,.38,1.12c0,.84-.3,1.26-.9,1.26-.24,0-.47-.08-.7-.23-.23-.16-.38-.35-.45-.59-.43-1.25-1.21-2.16-2.34-2.74-.36-.19-.54-.38-.54-.56s.14-.27,.43-.27Z"/><path class="cls-1" d="M729.34,277.49c1.8-.12,3.47-.26,5.02-.41s2.98-.33,4.3-.52c.12-.02,.25-.04,.38-.04h.38c.72,0,1.34,.16,1.87,.47,.58,.29,.86,.54,.86,.76s-.12,.41-.36,.58c-.22,.17-.47,.25-.77,.25s-.61-.05-.92-.14c-.29-.1-1.18-.14-2.66-.14-.72,0-1.75,.04-3.1,.11s-3.01,.17-5,.29v3.2c0,.96,.01,1.82,.04,2.59,.48,.46,.85,1.22,1.12,2.3,.12,.53,.21,1.05,.27,1.57,.06,.52,.09,1.01,.09,1.49,0,2.26-.6,4.27-1.8,6.05-1.18,1.73-2.6,2.96-4.28,3.71-1.68,.77-2.94,1.15-3.78,1.15-.26,0-.4-.09-.4-.27s.17-.31,.5-.38c.98-.17,2.17-.7,3.56-1.58,1.37-.86,2.45-2.15,3.24-3.85,.82-1.66,1.22-3.47,1.22-5.44,0-.24,0-.47-.02-.68-.01-.22-.03-.42-.05-.61-.36,1.46-.98,2.6-1.85,3.42-.88,.82-1.97,1.22-3.29,1.22-1.15,0-2.09-.35-2.81-1.04-.72-.7-1.08-1.63-1.08-2.81,0-.38,.05-.81,.14-1.28,.1-.47,.24-.92,.43-1.37s.43-.86,.72-1.24,.63-.71,1.04-.97c.84-.53,1.76-.79,2.77-.79s1.99,.21,2.95,.61c.02-.96,.04-1.85,.04-2.66s-.02-1.57-.07-2.27c-4.51,.31-7.9,.59-10.17,.85-2.27,.25-3.47,.38-3.62,.38-.77,0-1.42-.34-1.94-1.01-.53-.67-.79-1.1-.79-1.3s.07-.29,.2-.29,.28,.08,.45,.25c.62,.62,1.67,.94,3.13,.94,.6,0,1.91-.1,3.94-.31,2.03-.2,4.95-.44,8.77-.7-.05-.89-.12-1.82-.22-2.81-.07-.98-.19-1.6-.36-1.84-.19-.24-.55-.53-1.08-.86-.19-.12-.29-.29-.29-.52s.14-.34,.43-.34c.7,0,1.44,.19,2.23,.58,.82,.38,1.22,.92,1.22,1.62,0,.31-.1,.64-.29,.97-.19,.29-.3,1.33-.32,3.13Zm-1.33,7.67c-.6-.67-1.43-1.01-2.48-1.01-.67,0-1.37,.17-2.09,.5-.67,.34-1.17,.77-1.49,1.3-.32,.53-.49,1.31-.49,2.34,0,2.09,.88,3.13,2.63,3.13,1.58,0,2.63-.72,3.13-2.16,.48-1.39,.74-2.76,.79-4.1Z"/><path class="cls-1" d="M753.97,289.76c1.22,0,2.23,.4,3.02,1.21,.79,.8,1.19,1.81,1.19,3.01s-.4,2.2-1.19,3.01-1.8,1.21-3.02,1.21-2.23-.4-3.02-1.21-1.19-1.8-1.19-2.99,.41-2.19,1.24-3.01c.83-.82,1.82-1.22,2.97-1.22Zm0,7.34c.91,0,1.66-.3,2.25-.9s.88-1.34,.88-2.23-.29-1.63-.88-2.23-1.33-.9-2.21-.9-1.64,.31-2.25,.92-.92,1.36-.92,2.23,.3,1.61,.9,2.21c.6,.6,1.34,.9,2.23,.9Z"/></svg>