<?xml version="1.0" encoding="UTF-8"?><svg id="_イヤー_4" xmlns="http://www.w3.org/2000/svg" viewBox="0 0 930.99 507.64"><defs><style>.cls-1{fill:#fff;}</style></defs><path class="cls-1" d="M197.51,221.24c.55,0,1.1,.22,1.66,.65,.53,.38,.79,.77,.79,1.15,0,.53-.49,.76-1.48,.68-.12-.02-.25-.04-.4-.04h-.4c-1.87,0-4.14,.49-6.8,1.48-2.57,.96-4.74,2.11-6.52,3.46-1.73,1.34-2.59,2.82-2.59,4.43,0,1.03,.38,1.9,1.15,2.59,.79,.7,1.63,1.16,2.52,1.4,.94,.26,2.29,.4,4.07,.4l3.28-.07c.98,0,1.48,.26,1.48,.79,0,.36-.25,.67-.76,.94s-1.49,.4-2.95,.4-3.1-.23-4.9-.68c-1.82-.48-3.18-1.25-4.07-2.3-.91-1.08-1.37-2.15-1.37-3.2s.38-2.2,1.15-3.42c.82-1.25,2.12-2.38,3.92-3.38,1.82-1.03,3.62-1.9,5.4-2.59,.36-.14,.54-.29,.54-.43s-.22-.22-.65-.22c-.36,0-1.7,.2-4.03,.61-2.28,.41-4.58,.91-6.91,1.51-2.35,.62-3.67,1.04-3.96,1.26-.29,.22-.64,.32-1.04,.32-.38,0-.71-.16-.97-.47-.26-.31-.4-.65-.4-1.01,0-.53,.28-.86,.83-1.01,.58-.14,1.44-.62,2.59-1.44l13-8.64c.19-.14,.29-.26,.29-.36s-.16-.14-.47-.14c-.17,0-.53,.04-1.08,.11-.55,.07-1.32,.19-2.3,.36-1.94,.29-3.01,.49-3.2,.61-.19,.12-.43,.18-.72,.18-.72,0-1.34-.26-1.87-.79-.53-.53-.79-.96-.79-1.3s.12-.5,.36-.5c.07,0,.17,.04,.29,.11,.6,.48,1.37,.72,2.3,.72,.48,0,1.1-.04,1.87-.11,.77-.07,1.69-.17,2.77-.29,2.11-.29,3.4-.6,3.85-.94,.19-.17,.43-.25,.72-.25,.24,0,.56,.2,.97,.61,.38,.38,.58,.72,.58,1.01,0,.48-.44,.9-1.33,1.26-.43,.17-1,.44-1.71,.83-.71,.38-1.52,.85-2.43,1.39s-1.91,1.16-2.99,1.87c-1.08,.71-2.21,1.47-3.38,2.29s-2.08,1.44-2.7,1.87c-.62,.43-.98,.68-1.08,.76-.14,.14-.22,.29-.22,.43,0,.12,.1,.18,.29,.18s.36-.02,.5-.07c1.08-.26,2.21-.52,3.38-.77,1.18-.25,2.42-.47,3.74-.67,2.62-.43,4.9-.72,6.84-.86,.96-.07,1.73-.13,2.32-.18,.59-.05,.98-.08,1.17-.11,.43-.05,.77-.13,1.03-.23s.52-.16,.81-.16Z"/><path class="cls-1" d="M216.88,226.78c-.07,1.22-.11,2.47-.11,3.73s.04,2.39,.11,3.4l.14,2.45c0,.72-.2,1.46-.61,2.23-.38,.77-.74,1.15-1.08,1.15s-.5-.23-.5-.68c-.02-1.01-.16-1.87-.41-2.57s-.63-1.41-1.13-2.11c-.05-.05-.07-.12-.07-.22s.07-.14,.22-.14,.29,.07,.43,.2c.14,.13,.44,.51,.9,1.13,.14,.22,.31,.25,.49,.11,.18-.14,.27-.62,.27-1.44,0-2.28,.04-4.24,.11-5.87-.89,.94-1.71,1.82-2.47,2.66-.76,.84-1.46,1.64-2.11,2.41-.19,.34-.4,.67-.61,1.01-.22,.34-.46,.68-.72,1.04-.26,.36-.47,.63-.61,.81s-.26,.31-.36,.4c-.1,.08-.17,.13-.22,.14-.05,.01-.11,.02-.18,.02-.34,0-.5-.53-.5-1.58s.17-1.64,.5-1.84c.19-.1,.37-.2,.52-.32,.16-.12,.31-.24,.45-.36,.29-.24,.86-.96,1.73-2.16,.86-1.22,1.7-2.52,2.52-3.89,.82-1.37,1.64-2.95,2.48-4.75l.04-.43c-1.54,.29-2.75,.61-3.64,.97-.41,.14-.79,.22-1.15,.22-.74,0-1.39-.28-1.94-.83-.55-.55-.83-.95-.83-1.19,0-.26,.07-.4,.22-.4s.28,.05,.4,.14c.7,.6,1.37,.9,2.02,.9s1.26-.1,1.91-.29c.34-.12,.76-.26,1.28-.41,.52-.16,1.13-.33,1.85-.52l.36-4.68c0-.62-.1-1.15-.31-1.58-.2-.43-.61-.9-1.21-1.4-.12-.12-.18-.24-.18-.36,0-.17,.08-.25,.25-.25,.24,0,.68,.12,1.33,.36,.72,.22,1.24,.48,1.55,.79,.34,.29,.5,.68,.5,1.19s-.12,1.1-.36,1.8c-.24,.67-.47,1.93-.68,3.78,.19-.1,.4-.14,.63-.14s.43,.07,.59,.22c.17,.1,.25,.25,.25,.47,0,.17-.07,.34-.22,.5-.07,.1-.24,.32-.5,.68s-.62,.86-1.08,1.51l-.22,2.84c1.08-1.18,2.07-2.23,2.97-3.15,.9-.92,1.73-1.73,2.5-2.43,.77-.7,1.42-1.25,1.94-1.67,.53-.42,.96-.71,1.3-.88,.67-.34,1.36-.5,2.05-.5,.6,0,1.17,.1,1.71,.31,.54,.2,1.01,.49,1.4,.86s.71,.82,.94,1.35c.23,.53,.34,1.12,.34,1.76,0,.17,0,.34-.02,.5-.01,.17-.03,.34-.05,.5-.48,2.9-.85,5.35-1.1,7.33-.25,1.98-.38,3.52-.38,4.63,0,.96,.2,1.67,.61,2.14,.41,.47,.97,.7,1.69,.7s1.52-.25,2.32-.74,1.65-1.49,2.54-3.01c.14-.24,.34-.36,.58-.36s.36,.13,.36,.4c0,.24-.36,.9-1.08,1.98-1.42,2.16-3.08,3.24-5,3.24-1.01,0-1.87-.36-2.57-1.08-.71-.72-1.06-1.76-1.06-3.13,0-2.23,.47-6.36,1.4-12.38,.02-.12,.04-.25,.05-.38,.01-.13,.02-.26,.02-.38,0-.89-.27-1.6-.81-2.12-.54-.53-1.21-.79-2-.79s-1.46,.17-2.09,.5c-.6,.31-1.61,1.1-3.02,2.38s-3.28,3.13-5.58,5.58Zm-1.22,.22l.14-2.27c-.7,1.03-1.33,2.05-1.89,3.04-.56,1-1.09,1.97-1.57,2.93l3.31-3.71Z"/><path class="cls-1" d="M267.64,214.65c.41,0,.95,.19,1.62,.58,.67,.36,1.01,.67,1.01,.94,0,.53-.31,.79-.94,.79l-1.55-.07c-1.15,0-2.29,.21-3.4,.63-1.12,.42-2.42,1.1-3.91,2.03-1.46,.94-2.69,1.91-3.69,2.93-1,1.02-1.77,2.15-2.32,3.4-.55,1.22-.83,2.44-.83,3.65s.3,2.36,.9,3.44c.31,.53,.7,1,1.17,1.4,.47,.41,.98,.76,1.53,1.04,.55,.29,1.13,.5,1.75,.65,.61,.14,1.22,.22,1.82,.22,.29,0,.59-.02,.92-.07,.32-.05,.65-.07,.99-.07,.46,0,.89,.05,1.31,.16,.42,.11,.79,.24,1.1,.4,.31,.16,.56,.34,.74,.54,.18,.2,.27,.4,.27,.59,0,.14-.05,.26-.14,.36-.1,.12-.42,.21-.97,.27-.55,.06-1.08,.09-1.58,.09-2.06,0-4.04-.4-5.94-1.19-.96-.38-1.79-.86-2.48-1.42-.7-.56-1.27-1.19-1.73-1.87s-.79-1.4-1.01-2.16c-.22-.76-.32-1.53-.32-2.32,0-2.23,.88-4.4,2.63-6.5,1.75-2.1,4.36-4.05,7.81-5.85,.19-.1,.29-.17,.29-.23s-.07-.09-.22-.09c-.17,0-.76,.08-1.78,.23-1.02,.16-2.47,.39-4.34,.7-1.87,.31-3.54,.61-5,.9-1.46,.29-2.75,.59-3.85,.9-.26,.07-.5,.11-.72,.11-.65,0-1.37-.41-2.16-1.22-.41-.41-.7-.74-.88-1.01-.18-.26-.28-.47-.31-.63-.02-.16,0-.26,.09-.32,.08-.06,.2-.09,.34-.09,.17,0,.3,.05,.4,.14,.53,.38,1.02,.64,1.48,.77,.46,.13,1.06,.2,1.8,.2s2.29-.14,4.64-.43c1.2-.14,2.47-.31,3.8-.49,1.33-.18,2.75-.39,4.27-.63,1.51-.24,2.81-.46,3.89-.67,1.08-.2,1.97-.4,2.66-.59,.29-.1,.58-.14,.86-.14Zm-.04-3.74c.46,0,1.27,.44,2.45,1.33,1.2,.91,1.8,1.64,1.8,2.2,0,.38-.11,.67-.32,.85-.22,.18-.46,.28-.74,.31-.28,.02-.54-.04-.79-.18s-.4-.35-.45-.61c-.62-1.7-1.3-2.71-2.02-3.02-.24-.1-.36-.26-.36-.5s.14-.36,.43-.36Zm3.13-2.23c.17,0,.39,.03,.67,.09,.28,.06,.56,.14,.85,.23,.29,.1,.57,.21,.85,.34,.28,.13,.52,.27,.74,.41,.43,.29,.77,.6,1.03,.94,.25,.34,.38,.71,.38,1.12,0,.84-.3,1.26-.9,1.26-.24,0-.47-.08-.7-.23-.23-.16-.38-.35-.45-.59-.43-1.25-1.21-2.16-2.34-2.74-.36-.19-.54-.38-.54-.56s.14-.27,.43-.27Z"/><path class="cls-1" d="M288.09,227.93c0,.5-.36,1.62-1.08,3.35-.36,.84-.67,1.56-.94,2.16-.26,.6-.48,1.07-.65,1.4-.31,.65-.47,1.56-.47,2.74l.07,.97c0,.17-.06,.31-.18,.43-.12,.12-.26,.18-.43,.18-.55,0-1.16-.72-1.84-2.16-.67-1.37-1.01-3.56-1.01-6.59s.54-7.22,1.62-12.67c.07-.43,.11-.78,.11-1.04,0-.65-.36-1.4-1.08-2.27-.14-.17-.22-.31-.22-.43s.07-.18,.22-.18c.24,0,.85,.32,1.84,.97,.98,.65,1.48,1.3,1.48,1.94,0,.36-.18,.88-.54,1.55-.36,.7-.79,2.46-1.3,5.29-.5,2.86-.76,5.34-.76,7.45,0,1.22,.1,2.15,.29,2.77,.19,.62,.38,.94,.58,.94s.4-.14,.61-.43c.12-.17,.28-.45,.47-.85,.19-.4,.44-.91,.76-1.53,.31-.65,.61-1.3,.88-1.96,.28-.66,.55-1.34,.81-2.03,.12-.34,.28-.5,.47-.5s.29,.17,.29,.5Zm15.05,4c1.56,.48,2.94,1.08,4.14,1.8,1.15,.67,1.92,1.28,2.3,1.82,.38,.54,.58,.91,.58,1.1,0,.26-.16,.45-.47,.56-.31,.11-.6,.03-.86-.23-1.34-1.58-3.2-2.87-5.58-3.85,.02,1.44-.54,2.63-1.69,3.56-1.1,.96-2.45,1.44-4.03,1.44s-2.93-.3-4.1-.9c-1.18-.6-1.76-1.51-1.76-2.74,0-1.13,.49-2.04,1.48-2.74,1.01-.67,2.15-1.01,3.44-1.01s2.92,.24,4.91,.72c-.24-2.21-.43-4.26-.56-6.16s-.21-3.66-.23-5.29c-2.11,.43-3.82,.65-5.11,.65s-2.29-.26-2.99-.79c-.34-.26-.58-.48-.72-.65-.14-.17-.23-.29-.27-.38-.04-.08-.03-.14,.02-.18,.05-.04,.11-.05,.18-.05s.32,.11,.76,.32c.43,.22,.9,.38,1.4,.5,.48,.1,1.15,.14,2.02,.14,.41,0,1.01-.04,1.8-.11,.79-.07,1.76-.19,2.92-.36,.02-1.44,.09-2.54,.2-3.31,.11-.77,.16-1.3,.16-1.58,0-.31-.12-.61-.36-.9-.24-.29-.67-.62-1.3-1.01-.22-.1-.32-.26-.32-.5,0-.31,.17-.47,.5-.47,.7,0,1.43,.22,2.2,.65,.74,.38,1.12,.97,1.12,1.76,0,.41-.13,.85-.4,1.33-.26,.48-.37,1.72-.32,3.71,1.54-.48,2.75-1.06,3.64-1.73,.41-.31,.79-.47,1.15-.47s.83,.08,1.4,.25c.6,.17,.9,.37,.9,.59s-.24,.4-.72,.52l-6.37,1.8c.12,3.5,.44,7.56,.97,12.17Zm-1.58,.65c-1.51-.46-2.89-.68-4.14-.68s-2.3,.23-3.31,.68c-1.01,.43-1.51,1.08-1.51,1.94,0,.43,.12,.8,.36,1.1,.24,.3,.57,.55,.99,.76,.42,.2,.89,.35,1.42,.45,.53,.1,1.08,.14,1.66,.14,1.15,0,2.18-.4,3.1-1.19,.94-.84,1.42-1.91,1.44-3.2Z"/><path class="cls-1" d="M316.64,228.44c1.75,.67,3.1,1.25,4.03,1.75,.94,.49,1.67,1.04,2.21,1.64,.54,.6,.88,1.04,1.01,1.33,.13,.29,.2,.67,.2,1.15s-.13,.97-.38,1.46c-.25,.49-.55,.74-.9,.74s-.62-.09-.83-.27c-.2-.18-.47-.63-.81-1.35-.79-1.78-2.46-3.72-5-5.83l.47-.61Z"/><path class="cls-1" d="M368.59,232.29c3.62,1.18,6.01,2.2,7.16,3.06,1.22,.86,1.84,1.68,1.84,2.45,0,.43-.2,.65-.61,.65-.29,0-.6-.17-.94-.5-2.28-2.11-4.73-3.56-7.34-4.36,.14,.98,.22,1.58,.22,1.8,0,1.18-.61,2.14-1.84,2.88-1.22,.77-2.58,1.15-4.07,1.15s-2.99-.38-4.5-1.15c-1.13-.55-1.82-1.22-2.09-2-.26-.78-.14-1.52,.36-2.21,.5-.7,1.37-1.28,2.61-1.76,1.24-.48,2.79-.71,4.66-.68,1.08,0,2,.08,2.77,.25-.05-1.94-.09-3.43-.13-4.46-.04-1.03-.05-1.62-.05-1.76-1.2,.17-2.33,.29-3.38,.36-1.06,.07-2.05,.11-2.99,.11-1.87,0-3.11-.23-3.71-.68-.6-.46-.9-.95-.9-1.48,0-.19,.05-.39,.14-.59,.1-.2,.2-.36,.32-.47s.23-.13,.32-.07c.1,.06,.16,.25,.18,.56,.05,.67,.37,1.09,.97,1.26,.31,.07,.71,.13,1.19,.18,.48,.05,1.08,.07,1.8,.07s1.57-.03,2.54-.09c.97-.06,2.13-.16,3.47-.31-.02-.89-.04-1.87-.05-2.93-.01-1.07-.02-2.25-.02-3.55-4.8,.65-8.1,.97-9.9,.97-1.13,0-1.98-.29-2.56-.86-.55-.6-.83-.97-.83-1.12,0-.19,.05-.29,.16-.29s.21,.02,.31,.07c.96,.6,2.3,.9,4.03,.9s4.74-.29,8.82-.86c.02-.53,.04-1.01,.05-1.44,.01-.43,.02-.84,.02-1.22s-.02-.72-.07-1.01c-.05-.29-.13-.55-.25-.79-.12-.24-.29-.47-.5-.7-.22-.23-.49-.47-.83-.74-.22-.17-.32-.35-.32-.54s.16-.29,.47-.29,.97,.25,1.98,.76c1.03,.46,1.55,1.08,1.55,1.87,0,.29-.05,.54-.14,.76-.31,.82-.48,1.86-.5,3.13,1.22-.19,2.23-.35,3.02-.47s1.39-.23,1.8-.32c.41-.1,.78-.2,1.12-.32,.34-.12,.64-.25,.9-.4,.53-.29,1.01-.43,1.44-.43,.22,0,.43,.04,.65,.13,.22,.08,.41,.19,.59,.31,.18,.12,.33,.25,.45,.38,.12,.13,.18,.25,.18,.34,0,.24-.3,.44-.9,.61-.62,.19-3.71,.66-9.25,1.4-.05,1.2-.07,2.33-.07,3.4s.01,2.11,.04,3.11c1.3-.19,2.54-.47,3.73-.83s2.11-.74,2.75-1.15c.29-.12,.59-.18,.9-.18,.38,0,.76,.12,1.13,.36,.37,.24,.56,.44,.56,.61,0,.14-.14,.29-.43,.43-.29,.17-1.26,.44-2.92,.83-1.63,.38-3.53,.74-5.69,1.08,.02,.91,.08,1.93,.18,3.06,.1,1.13,.23,2.38,.4,3.74Zm-1.73,.86c-1.2-.22-2.35-.32-3.46-.32-1.39-.02-2.55,.14-3.47,.49-.92,.35-1.57,.76-1.94,1.24s-.47,.97-.29,1.48c.18,.5,.68,.91,1.49,1.22,.77,.41,1.61,.64,2.52,.7,.91,.06,1.76-.02,2.54-.23,.78-.22,1.43-.57,1.94-1.06,.52-.49,.76-1.1,.74-1.82l-.07-1.69Z"/><path class="cls-1" d="M398.46,229.84c-.22,1.37-.32,2.61-.32,3.73s.28,2.03,.83,2.75c.55,.72,1.54,1.32,2.95,1.8,1.37,.46,2.71,.68,4.03,.68,2.14,0,3.95-.5,5.44-1.51,1.49-1.01,2.23-2.28,2.23-3.82,0-1.22-.13-2.23-.4-3.02-.24-.7-.79-1.46-1.66-2.3-.82-.79-2.17-1.9-4.07-3.31-.19-.14-.29-.3-.29-.47s.1-.25,.29-.25c.36,0,1.42,.55,3.17,1.66,.89,.55,1.64,1.1,2.25,1.64,.61,.54,1.11,1.13,1.49,1.76,.38,.64,.66,1.32,.83,2.05,.17,.73,.25,1.57,.25,2.5,0,2.21-.88,3.9-2.63,5.08-1.73,1.22-3.78,1.84-6.16,1.84s-4.62-.55-6.73-1.66c-2.09-1.08-3.13-3.1-3.13-6.05,0-.46,.02-.94,.05-1.44,.04-.5,.1-1.06,.2-1.66-.91-.02-1.66-.09-2.23-.2-.58-.11-1.03-.24-1.37-.4-.34-.16-.57-.34-.7-.54-.13-.2-.2-.43-.2-.67,0-.6,.2-1.14,.61-1.62,.43-.48,.76-.72,.97-.72s.32,.07,.32,.22-.07,.26-.22,.36c-.26,.26-.45,.53-.56,.79-.11,.26-.07,.5,.11,.72,.18,.22,.55,.38,1.1,.5,.55,.12,1.34,.17,2.38,.14,.26-1.58,.55-3.1,.85-4.54,.3-1.44,.62-2.84,.95-4.21-1.51,.07-2.8-.02-3.87-.29-1.07-.26-1.9-.65-2.5-1.15-.43-.38-.7-.68-.81-.88-.11-.2-.14-.34-.09-.41,.05-.07,.13-.1,.25-.07,.12,.02,.19,.05,.22,.07,1.56,1.13,3.92,1.66,7.09,1.58,.17-.67,.32-1.32,.47-1.94,.14-.62,.3-1.24,.47-1.84,.34-1.27,.5-1.98,.5-2.12,0-.77-.4-1.43-1.19-1.98-.17-.1-.25-.22-.25-.36,0-.31,.3-.47,.9-.47s1.24,.3,1.84,.9c.62,.58,.94,1.14,.94,1.69s-.18,.95-.54,1.26c-.38,.34-.95,1.9-1.69,4.68,.72-.14,1.55-.47,2.48-.97,.26-.14,.52-.22,.77-.22s.61,.19,1.06,.58c.48,.38,.72,.67,.72,.86s-.13,.36-.4,.5c-.38,.19-.85,.49-1.4,.9-.55,.41-1.2,.92-1.94,1.55-.05,.05-.13,.07-.25,.07-.1,0-.14-.11-.14-.32,0-.24,.4-.72,1.19-1.44,.22-.22,.19-.4-.07-.54-.07-.02-.2-.04-.38-.04s-.38,.02-.61,.05c-.23,.04-.46,.08-.7,.13-.24,.05-.44,.08-.61,.11-.26,1.1-.55,2.39-.86,3.87-.31,1.48-.64,3.15-.97,5.02,1.1-.02,2.18-.13,3.24-.32,1.03-.17,1.72-.35,2.05-.54,.31-.17,.64-.25,.99-.25s.71,.17,1.1,.5c.41,.34,.61,.6,.61,.79s-.1,.34-.29,.43c-.19,.07-1.21,.22-3.06,.43-1.85,.22-3.48,.32-4.9,.32Z"/><path class="cls-1" d="M433.75,216.99c.84-.17,1.57-.4,2.18-.68,.61-.29,1.03-.55,1.24-.79,.29-.34,.76-.5,1.4-.5,.41,0,.77,.1,1.1,.29,.32,.19,.49,.37,.49,.54,0,.36-.72,.77-2.16,1.22-1.44,.46-3.01,.82-4.72,1.08-.82,1.94-1.6,3.76-2.36,5.44-.76,1.68-1.49,3.26-2.21,4.75-1.46,2.98-2.27,4.56-2.41,4.75-.19,.19-.36,.29-.5,.29-.17,0-.32-.07-.45-.2-.13-.13-.2-.35-.2-.67,0-.34,.04-.73,.13-1.17,.08-.44,.2-.76,.34-.95,.34-.5,.74-1.16,1.21-1.96,.47-.8,.99-1.77,1.57-2.9,.58-1.15,1.14-2.32,1.69-3.49,.55-1.18,1.09-2.41,1.62-3.71-.12,.02-.25,.04-.38,.05-.13,.01-.26,.02-.38,.02-.89,0-1.7-.28-2.45-.83-.72-.53-1.08-.91-1.08-1.15,0-.22,.07-.32,.2-.32s.23,.04,.31,.11c.53,.46,1.1,.75,1.73,.88,.62,.13,1.45,.17,2.48,.13,.31-.77,.56-1.39,.74-1.87,.18-.48,.29-.82,.34-1.01,.14-.38,.22-.73,.22-1.04,0-.58-.18-1.04-.54-1.4-.05-.02-.1-.09-.14-.2-.05-.11-.04-.19,.02-.23,.06-.05,.2-.03,.41,.05,.22,.08,.56,.31,1.04,.67,.67,.46,1.01,.91,1.01,1.37s-.14,.9-.43,1.33c-.29,.48-.64,1.19-1.04,2.12Zm9.22,16.06c-.7-1.7-1.12-3.31-1.28-4.81-.16-1.5-.02-2.83,.4-3.98,.42-1.15,1.14-2.09,2.16-2.83,1.02-.73,2.35-1.19,3.98-1.39,.31-.02,.47-.11,.47-.25s-.26-.3-.79-.47c-.26-.1-.62-.2-1.08-.32-.46-.12-1.01-.25-1.66-.4-1.22-.31-2.03-.47-2.41-.47-.31,0-.47-.13-.47-.4,0-.12,.05-.21,.16-.27,.11-.06,.34-.09,.7-.09,1.3,0,2.7,.2,4.21,.61,1.51,.38,2.6,.86,3.28,1.42,.67,.56,1.01,1.04,1.01,1.42,0,.31-.16,.49-.47,.54-.31,.05-.68,.04-1.1-.04-.42-.07-.85-.17-1.3-.29-.44-.12-.8-.18-1.06-.18-1.2,0-2.3,.47-3.31,1.4-1.01,.94-1.51,2.32-1.51,4.14s.66,4.19,1.98,7.09c1.66,.46,2.92,.93,3.78,1.42,.86,.49,1.46,.94,1.78,1.33,.32,.4,.43,.73,.32,.99-.11,.26-.29,.4-.56,.4-.19,0-.35-.05-.47-.14-1.61-1.13-3.1-1.96-4.46-2.48,.1,1.32-.43,2.4-1.58,3.24-1.13,.84-2.69,1.26-4.68,1.26s-3.48-.35-4.61-1.04c-.55-.36-.96-.75-1.22-1.17-.26-.42-.4-.85-.4-1.3s.12-.87,.36-1.28c.24-.41,.6-.78,1.08-1.12,.96-.65,2.32-.97,4.07-.97,.86,0,1.69,.04,2.47,.11,.78,.07,1.52,.17,2.21,.29Zm.36,1.37c-1.85-.43-3.7-.65-5.54-.65-.98,0-1.77,.14-2.36,.43-.59,.29-1,.64-1.22,1.04-.23,.41-.26,.83-.11,1.28,.16,.44,.49,.82,.99,1.13,.7,.46,1.82,.68,3.38,.68s2.8-.29,3.64-.88c.84-.59,1.26-1.42,1.26-2.5,0-.24-.01-.42-.04-.54Z"/><path class="cls-1" d="M482.56,238.77c0,.79-.24,1.19-.72,1.19-.31,0-.56-.17-.76-.5-.7-1.25-2.27-2.88-4.72-4.9-2.45-2.02-5.78-4.44-10.01-7.27-.62-.43-.94-1-.94-1.69,0-.53,.19-.98,.58-1.37,.19-.19,.95-.81,2.29-1.85s3.23-2.5,5.71-4.37c.36-.26,.78-.59,1.26-.99s1.02-.87,1.62-1.42c.6-.55,1.08-1,1.44-1.35,.36-.35,.6-.59,.72-.74,.24-.31,.36-.53,.36-.65,0-.31-.44-.59-1.33-.83-.26-.07-.41-.17-.45-.31-.04-.13-.01-.26,.07-.4,.08-.13,.22-.24,.4-.32,.18-.08,.38-.13,.59-.13,.65,0,1.43,.32,2.34,.97,.89,.6,1.33,1.13,1.33,1.58,0,.43-.43,.9-1.3,1.4-.82,.48-1.8,1.16-2.95,2.05-.55,.43-1.27,.98-2.14,1.64s-1.93,1.43-3.15,2.32l-4.64,3.35c-.34,.24-.6,.43-.79,.58s-.32,.26-.4,.36c-.12,.17-.18,.38-.18,.63s.26,.55,.79,.88c5.35,3.43,8.81,5.74,10.37,6.91,1.54,1.15,2.69,2.11,3.46,2.88,.77,.77,1.15,1.55,1.15,2.34Z"/><path class="cls-1" d="M503.73,220.27c1.97-3.29,2.95-5.06,2.95-5.33s-.12-.4-.36-.4-.53,.07-.86,.22c-1.37,.6-2.27,.9-2.72,.9s-.89-.16-1.33-.49c-.44-.32-.67-.56-.67-.72s.07-.25,.2-.27c.13-.02,.55-.04,1.26-.04s1.46-.11,2.27-.32c.8-.22,1.43-.5,1.87-.85,.44-.35,.79-.52,1.04-.52s.69,.25,1.31,.74c.62,.49,.94,.88,.94,1.15s-.13,.53-.4,.76c-.26,.23-.62,.65-1.06,1.26-.45,.61-.81,1.22-1.1,1.82-.29,.6-.98,1.62-2.07,3.06-1.09,1.44-1.98,2.52-2.66,3.24-.68,.72-1.41,1.32-2.18,1.8-.77,.48-1.63,.97-2.57,1.46-.95,.49-1.48,.74-1.6,.74s-.18-.07-.18-.22,.22-.37,.65-.68c2.06-1.54,3.51-2.71,4.34-3.51,.83-.8,1.61-1.76,2.36-2.86-.7-.17-1.45-.64-2.27-1.4-.82-.77-1.22-1.27-1.22-1.49s.14-.34,.43-.34,.74,.08,1.37,.23c.62,.16,1.1,.36,1.44,.61,.34,.25,.61,.74,.83,1.46Zm2.63,3.64c-.6,0-1.09-.11-1.48-.32-.38-.22-.58-.36-.58-.43s.26-.14,.77-.22c.52-.07,1.43-.23,2.75-.49s2.57-.53,3.76-.85c1.19-.31,2-.47,2.43-.47s.79,.1,1.06,.31c.28,.2,.41,.37,.41,.49,0,.36-1.04,.73-3.13,1.12,.53,.26,.91,.52,1.15,.76,.24,.24,.36,.49,.36,.76s-.05,.53-.14,.81c-.1,.28-.19,.82-.29,1.64,1.7-.36,2.89-.54,3.56-.54s1.25,.2,1.75,.59c.49,.4,.74,.7,.74,.92,0,.31-.37,.47-1.12,.47l-2.56-.07c-.65,0-1.48,.05-2.48,.14-.1,1.32-.14,2.78-.14,4.37s.17,2.64,.52,3.13c.35,.49,1.13,.74,2.36,.74,2.83,0,4.46-.31,4.88-.92s.81-1.97,1.17-4.09c.07-.41,.21-.61,.41-.61s.31,.2,.31,.61c.02,1.06,.11,1.94,.27,2.66,.16,.72,.37,1.19,.63,1.4,.26,.22,.4,.44,.4,.68,0,.48-.65,1.01-1.94,1.58s-2.71,.86-4.25,.86-2.8-.14-3.8-.43c-1-.29-1.66-.71-2-1.28s-.5-1.4-.5-2.5l.14-6.08c-1.49,.14-2.77,.29-3.85,.43-.26,2.35-.84,4.18-1.73,5.49-.89,1.31-2.11,2.38-3.65,3.22-1.55,.84-2.48,1.26-2.79,1.26-.14,0-.22-.06-.22-.18s.13-.26,.4-.43c2.52-1.7,4.13-3.16,4.82-4.36,.7-1.2,1.19-2.8,1.48-4.79-.98,.1-1.58,.18-1.8,.25-.98,.31-1.69,.47-2.11,.47s-.83-.18-1.22-.54c-.4-.36-.59-.59-.59-.68s.05-.16,.14-.18c.1-.02,.44-.04,1.03-.04s2.17-.17,4.73-.5c.1-.74,.14-1.46,.14-2.16s-.07-1.37-.22-2.02Zm5.08-.68c-1.75,.29-3.05,.48-3.89,.58,.72,.48,1.08,.94,1.08,1.37,0,.17-.05,.35-.16,.54-.11,.19-.22,.91-.34,2.16l3.67-.54c0-2.04-.12-3.41-.36-4.1Zm1.19-9.04c1.63-1.39,2.48-2.33,2.56-2.81,.12-.67,.34-1.01,.67-1.01s.78,.23,1.37,.7c.59,.47,.88,.86,.88,1.19s-.22,.51-.65,.56c-.77,.1-2.21,.7-4.32,1.8l2.59,2.99c1.97-1.25,3.07-2.18,3.29-2.81,.23-.62,.49-.94,.79-.94s.78,.27,1.44,.81,.99,.95,.99,1.24c0,.24-.28,.4-.83,.49-.55,.08-2.27,.69-5.15,1.82,1.37,1.61,2.51,2.81,3.42,3.6,.91,.79,1.87,1.42,2.88,1.89,1.01,.47,2.46,1,4.36,1.6,.43,.12,.65,.23,.65,.34s-.1,.2-.31,.27c-.2,.07-.87,.19-2,.34-1.13,.16-2.07,.23-2.83,.23s-1.41-.24-1.96-.72c-.55-.48-1.18-1.19-1.87-2.12l-3.78-4.93c-1.63-2.21-3.04-3.8-4.21-4.79-.17-.14-.25-.28-.25-.4,0-.19,.18-.29,.54-.29s.65,.05,.86,.16,.5,.37,.86,.77Z"/><path class="cls-1" d="M546.07,216.41c-1.22,.17-2.2,.25-2.93,.25s-1.4-.08-2.02-.23-.92-.32-.92-.5,.23-.28,.68-.31c1.3-.1,3.01-.36,5.15-.79-.02-1.27-.11-2.17-.25-2.7-.14-.53-.4-1-.76-1.4-.19-.24-.29-.47-.29-.68s.22-.32,.65-.32,1.07,.16,1.93,.47c.85,.31,1.28,.72,1.28,1.22,0,.14-.04,.3-.11,.47-.22,.5-.34,1.36-.36,2.56,1.22-.26,2.15-.48,2.79-.65s1.13-.25,1.48-.25,.73,.08,1.13,.25c.41,.17,.61,.38,.61,.63s-.28,.47-.85,.67c-.56,.19-2.29,.52-5.17,.97,.05,1.18,.07,2.12,.07,2.84,2.3-.41,3.76-.72,4.36-.94,.38-.14,.77-.22,1.15-.22s1.04,.28,1.96,.83c.92,.55,1.39,1.01,1.39,1.37,0,.19-.13,.41-.4,.67-.26,.25-.5,.6-.7,1.04-.2,.44-.46,1.18-.76,2.2-.3,1.02-.66,1.9-1.08,2.63-.42,.73-.85,1.1-1.28,1.1-.29,0-.5-.13-.65-.4-.12-.19-.38-.29-.77-.29s-1.47,.12-3.22,.36v3.06c2.54-.31,4.48-.57,5.81-.77,1.33-.2,2.26-.35,2.77-.43,.52-.08,1.02-.13,1.51-.13s1.09,.24,1.8,.72c.71,.48,1.06,.91,1.06,1.3,0,.43-.41,.61-1.22,.54-2.06-.22-3.87-.32-5.42-.32s-3.65,.14-6.32,.43c0,3.31-.1,5.84-.29,7.6-.19,1.75-.47,2.63-.83,2.63-.1,0-.19-.06-.29-.18-.1-.12-.19-.58-.29-1.39-.1-.8-.16-1.64-.18-2.5l-.04-5.98c-4.7,.55-7.57,.95-8.59,1.21-1.02,.25-1.76,.38-2.21,.38s-.98-.19-1.57-.56-.88-.64-.88-.81,.07-.26,.22-.29c.14-.02,.59-.04,1.33-.04s2.33-.12,4.75-.36c2.42-.24,4.74-.52,6.95-.83v-3.02l-3.92,.61c.05,.36-.14,.54-.58,.54-.19,0-.45-.29-.77-.86-.32-.58-.59-1.31-.81-2.2-.55-2.35-1.13-3.89-1.73-4.61-.29-.34-.43-.62-.43-.85s.22-.34,.67-.34,1.03,.1,1.75,.29l5.65-.9c-.02-.94-.04-1.86-.04-2.77Zm.18,7.63c-.77,.1-1.37,.14-1.82,.14s-.77-.08-.99-.25c-.22-.17-.32-.3-.32-.4s.17-.18,.5-.25c.34-.07,1.2-.28,2.59-.61-.02-1.2-.05-2.02-.07-2.45-1.39,.19-3.02,.5-4.9,.94,.34,1.7,.67,3.64,1.01,5.8l4-.58v-2.34Zm1.94-1.98c.53-.1,1.14-.14,1.84-.14s1.04,.18,1.04,.54c0,.19-.13,.38-.4,.58-.26,.19-1.09,.42-2.48,.68,.05,.74,.05,1.54,0,2.38,2.26-.34,3.43-.49,3.53-.47,.36,.02,.59-.05,.7-.23,.11-.18,.32-.92,.63-2.21,.31-1.3,.47-2.16,.47-2.59s-.07-.71-.22-.83c-.14-.12-.43-.18-.86-.18-1.39,0-2.81,.11-4.25,.32v2.16Z"/><path class="cls-1" d="M580.45,227.21c0,.17-.13,.48-.4,.94-.22,.38-.7,1.44-1.44,3.17-.36,.84-.66,1.55-.9,2.12s-.42,1.03-.54,1.37c-.22,.65-.32,1.09-.32,1.33,0,.26,.04,.49,.11,.68,.07,.19,.11,.38,.11,.58s-.08,.37-.23,.52c-.16,.16-.35,.23-.59,.23-.72,0-1.56-.47-2.52-1.4-.98-.91-1.84-2.45-2.56-4.61-.7-2.23-1.04-4.79-1.04-7.67,0-.96,.04-1.91,.11-2.86,.07-.95,.19-1.88,.36-2.79,.07-.38,.11-.74,.11-1.08,0-.91-.26-1.7-.79-2.38-.14-.17-.22-.34-.22-.52s.13-.27,.4-.27c.38,0,.96,.28,1.73,.83,.77,.55,1.15,1.08,1.15,1.58,0,.34-.14,.8-.43,1.4-.29,.6-.52,1.48-.68,2.63-.17,1.15-.25,2.5-.25,4.03s.12,3.02,.36,4.46c.24,1.44,.55,2.63,.94,3.56,.22,.46,.4,.81,.56,1.06s.3,.44,.43,.58c.13,.13,.26,.21,.4,.23,.13,.02,.27,.04,.41,.04,.53,0,.89-.2,1.08-.61l1.98-3.85c1.1-2.14,1.73-3.28,1.87-3.42,.14-.12,.32-.18,.52-.18s.31,.1,.31,.29Zm16.27,1.48c0,.84-.07,1.67-.22,2.48-.14,.82-.37,1.31-.67,1.49s-.58,.27-.85,.27c-.22,0-.37-.07-.47-.22-.1-.14-.14-.38-.14-.7s.02-.75,.05-1.28c.04-.53,.07-1.19,.09-1.98,0-2.93-.5-5.46-1.51-7.6-.96-2.11-2.57-3.44-4.82-4-.53-.1-.79-.3-.79-.61s.22-.47,.67-.47,1.28,.25,2.5,.76c.94,.34,1.78,.89,2.54,1.67,.76,.78,1.4,1.7,1.94,2.77s.95,2.24,1.24,3.51c.29,1.27,.43,2.57,.43,3.89Z"/><path class="cls-1" d="M614.14,218.47c1.08-.22,1.87-.43,2.36-.63,.49-.2,.88-.47,1.17-.81,.31-.36,.73-.54,1.26-.54s.92,.13,1.17,.38,.38,.5,.38,.74-.14,.47-.43,.68c-.22,.19-.95,.46-2.2,.79-.6,.14-1.24,.28-1.91,.41-.67,.13-1.38,.26-2.12,.38-.48,1.7-1.03,3.52-1.66,5.45-.62,1.93-1.32,4.01-2.09,6.25-1.56,4.44-2.44,6.79-2.63,7.06-.22,.31-.44,.47-.68,.47s-.43-.18-.58-.54c-.12-.36-.18-.83-.18-1.42s.19-1.16,.58-1.71c.41-.55,1.12-2.22,2.12-5,.53-1.39,1.06-2.94,1.6-4.64,.54-1.7,1.11-3.58,1.71-5.62-1.8,.29-3.24,.43-4.32,.43s-1.85-.32-2.3-.97c-.43-.65-.65-1.09-.65-1.31s.07-.34,.22-.34,.38,.14,.72,.43c.34,.29,.73,.5,1.19,.65s1.06,.22,1.8,.22c.38,0,.89-.04,1.51-.11,.62-.07,1.37-.19,2.23-.36,.67-2.33,1.01-3.83,1.01-4.5,0-1.01-.17-1.72-.5-2.12-.12-.12-.18-.25-.18-.4,0-.26,.13-.4,.4-.4s.78,.3,1.55,.9c.77,.62,1.15,1.13,1.15,1.51,0,.41-.16,.78-.47,1.12-.26,.31-.67,1.5-1.22,3.56Zm16.34,17.89c.48,0,.92,.14,1.33,.41,.41,.28,.61,.56,.61,.85,0,.31-.18,.55-.54,.72-.34,.17-.94,.34-1.8,.5-.86,.17-1.84,.25-2.92,.25-2.45,0-4.66-.42-6.62-1.26-1.92-.84-2.88-2.06-2.88-3.67,0-.36,.05-.7,.14-1.01,.1-.31,.22-.58,.36-.81,.14-.23,.29-.4,.43-.52,.14-.12,.26-.18,.36-.18,.19,0,.3,.05,.32,.14,.02,.1,0,.23-.05,.4-.06,.17-.13,.38-.2,.65s-.11,.55-.11,.86c0,1.08,.6,1.93,1.8,2.56,1.18,.6,2.77,.9,4.79,.9s3.37-.19,4.07-.58c.29-.14,.59-.22,.9-.22Zm1.58-16.16c0,.38-.28,.64-.83,.76-.58,.12-1.15,.31-1.73,.58-.6,.26-1.6,.95-2.99,2.05-.7,.55-1.24,.98-1.64,1.3-.4,.31-.64,.52-.74,.61-.17,.17-.32,.25-.47,.25-.17,0-.27-.05-.31-.14-.04-.1,.03-.27,.2-.52s.44-.59,.83-1.01c.38-.42,.92-.95,1.62-1.6,.91-.89,1.55-1.42,1.91-1.58,.36-.19,.54-.35,.54-.49s-.19-.2-.58-.2c-.53,0-1.05,.01-1.57,.04-.52,.02-1.05,.06-1.6,.11l-2.7,.29c-.31,0-.47-.1-.47-.29,0-.38,.65-.78,1.94-1.19,1.34-.41,2.87-.61,4.57-.61s2.86,.2,3.31,.61c.46,.38,.68,.73,.68,1.04Z"/><path class="cls-1" d="M666.38,227.57c0,1.54-.49,3.32-1.48,5.36-.98,2.06-2.45,3.67-4.39,4.82-1.99,1.2-4.25,1.8-6.77,1.8s-4.49-.68-5.83-2.03c-1.34-1.36-2.02-3.27-2.02-5.74,0-1.56,.07-4.21,.22-7.96,.1-1.87,.17-3.37,.23-4.48,.06-1.12,.11-1.87,.16-2.25,.1-.55,.16-1.04,.18-1.48,.02-.43,0-.83-.09-1.21-.08-.37-.25-.74-.49-1.1-.24-.36-.59-.74-1.04-1.15-.22-.17-.32-.34-.32-.52s.12-.27,.36-.27c.29,0,.79,.16,1.51,.47,.74,.31,1.3,.72,1.66,1.22,.36,.5,.54,1.15,.54,1.94,0,.72-.13,1.68-.4,2.88-.24,1.1-.46,2.77-.65,5-.1,1.1-.17,2.21-.22,3.33-.05,1.12-.07,2.26-.07,3.44,0,2.26,.17,3.95,.5,5.08,.34,1.08,.96,1.86,1.87,2.34,.91,.48,2.26,.72,4.03,.72,2.71,0,5.16-1.02,7.34-3.06,2.18-2.04,3.59-4.58,4.21-7.63,.05-.22,.12-.38,.22-.5s.2-.17,.31-.14c.11,.02,.2,.13,.29,.31,.08,.18,.13,.45,.13,.81Z"/><path class="cls-1" d="M692.59,232.29c3.62,1.18,6.01,2.2,7.16,3.06,1.22,.86,1.84,1.68,1.84,2.45,0,.43-.2,.65-.61,.65-.29,0-.6-.17-.94-.5-2.28-2.11-4.73-3.56-7.34-4.36,.14,.98,.22,1.58,.22,1.8,0,1.18-.61,2.14-1.84,2.88-1.22,.77-2.58,1.15-4.07,1.15s-2.99-.38-4.5-1.15c-1.13-.55-1.82-1.22-2.09-2-.26-.78-.14-1.52,.36-2.21,.5-.7,1.37-1.28,2.61-1.76,1.24-.48,2.79-.71,4.66-.68,1.08,0,2,.08,2.77,.25-.05-1.94-.09-3.43-.13-4.46-.04-1.03-.05-1.62-.05-1.76-1.2,.17-2.33,.29-3.38,.36-1.06,.07-2.05,.11-2.99,.11-1.87,0-3.11-.23-3.71-.68-.6-.46-.9-.95-.9-1.48,0-.19,.05-.39,.14-.59,.1-.2,.2-.36,.32-.47s.23-.13,.32-.07c.1,.06,.16,.25,.18,.56,.05,.67,.37,1.09,.97,1.26,.31,.07,.71,.13,1.19,.18,.48,.05,1.08,.07,1.8,.07s1.57-.03,2.54-.09c.97-.06,2.13-.16,3.47-.31-.02-.89-.04-1.87-.05-2.93-.01-1.07-.02-2.25-.02-3.55-4.8,.65-8.1,.97-9.9,.97-1.13,0-1.98-.29-2.56-.86-.55-.6-.83-.97-.83-1.12,0-.19,.05-.29,.16-.29s.21,.02,.31,.07c.96,.6,2.3,.9,4.03,.9s4.74-.29,8.82-.86c.02-.53,.04-1.01,.05-1.44,.01-.43,.02-.84,.02-1.22s-.02-.72-.07-1.01c-.05-.29-.13-.55-.25-.79-.12-.24-.29-.47-.5-.7s-.49-.47-.83-.74c-.22-.17-.32-.35-.32-.54s.16-.29,.47-.29,.97,.25,1.98,.76c1.03,.46,1.55,1.08,1.55,1.87,0,.29-.05,.54-.14,.76-.31,.82-.48,1.86-.5,3.13,1.22-.19,2.23-.35,3.02-.47s1.39-.23,1.8-.32c.41-.1,.78-.2,1.12-.32s.64-.25,.9-.4c.53-.29,1.01-.43,1.44-.43,.22,0,.43,.04,.65,.13,.22,.08,.41,.19,.59,.31s.33,.25,.45,.38c.12,.13,.18,.25,.18,.34,0,.24-.3,.44-.9,.61-.62,.19-3.71,.66-9.25,1.4-.05,1.2-.07,2.33-.07,3.4s.01,2.11,.04,3.11c1.3-.19,2.54-.47,3.73-.83,1.19-.36,2.11-.74,2.75-1.15,.29-.12,.59-.18,.9-.18,.38,0,.76,.12,1.13,.36,.37,.24,.56,.44,.56,.61,0,.14-.14,.29-.43,.43-.29,.17-1.26,.44-2.92,.83-1.63,.38-3.53,.74-5.69,1.08,.02,.91,.08,1.93,.18,3.06,.1,1.13,.23,2.38,.4,3.74Zm-1.73,.86c-1.2-.22-2.35-.32-3.46-.32-1.39-.02-2.55,.14-3.47,.49-.92,.35-1.57,.76-1.94,1.24s-.47,.97-.29,1.48c.18,.5,.68,.91,1.49,1.22,.77,.41,1.61,.64,2.52,.7,.91,.06,1.76-.02,2.54-.23,.78-.22,1.43-.57,1.94-1.06,.52-.49,.76-1.1,.74-1.82l-.07-1.69Z"/><path class="cls-1" d="M728.87,217.1c1.8-.12,3.47-.26,5.02-.41,1.55-.16,2.98-.33,4.3-.52,.12-.02,.25-.04,.38-.04h.38c.72,0,1.34,.16,1.87,.47,.58,.29,.86,.54,.86,.76s-.12,.41-.36,.58c-.22,.17-.47,.25-.77,.25s-.61-.05-.92-.14c-.29-.1-1.18-.14-2.66-.14-.72,0-1.75,.04-3.1,.11-1.34,.07-3.01,.17-5,.29v3.2c0,.96,.01,1.82,.04,2.59,.48,.46,.85,1.22,1.12,2.3,.12,.53,.21,1.05,.27,1.57s.09,1.01,.09,1.49c0,2.26-.6,4.27-1.8,6.05-1.18,1.73-2.6,2.96-4.28,3.71-1.68,.77-2.94,1.15-3.78,1.15-.26,0-.4-.09-.4-.27s.17-.31,.5-.38c.98-.17,2.17-.7,3.56-1.58,1.37-.86,2.45-2.15,3.24-3.85,.82-1.66,1.22-3.47,1.22-5.44,0-.24,0-.47-.02-.68-.01-.22-.03-.42-.05-.61-.36,1.46-.98,2.6-1.85,3.42-.88,.82-1.97,1.22-3.29,1.22-1.15,0-2.09-.35-2.81-1.04-.72-.7-1.08-1.63-1.08-2.81,0-.38,.05-.81,.14-1.28,.1-.47,.24-.92,.43-1.37,.19-.44,.43-.86,.72-1.24,.29-.38,.63-.71,1.04-.97,.84-.53,1.76-.79,2.77-.79s1.99,.2,2.95,.61c.02-.96,.04-1.85,.04-2.66s-.02-1.57-.07-2.27c-4.51,.31-7.9,.59-10.17,.85-2.27,.25-3.47,.38-3.62,.38-.77,0-1.42-.34-1.94-1.01-.53-.67-.79-1.1-.79-1.3s.07-.29,.2-.29,.28,.08,.45,.25c.62,.62,1.67,.94,3.13,.94,.6,0,1.91-.1,3.94-.31,2.03-.2,4.95-.44,8.77-.7-.05-.89-.12-1.82-.22-2.81-.07-.98-.19-1.6-.36-1.84-.19-.24-.55-.53-1.08-.86-.19-.12-.29-.29-.29-.52s.14-.34,.43-.34c.7,0,1.44,.19,2.23,.58,.82,.38,1.22,.92,1.22,1.62,0,.31-.1,.64-.29,.97-.19,.29-.3,1.33-.32,3.13Zm-1.33,7.67c-.6-.67-1.43-1.01-2.48-1.01-.67,0-1.37,.17-2.09,.5-.67,.34-1.17,.77-1.49,1.3-.32,.53-.49,1.31-.49,2.34,0,2.09,.88,3.13,2.63,3.13,1.58,0,2.63-.72,3.13-2.16,.48-1.39,.74-2.76,.79-4.1Z"/><path class="cls-1" d="M753.5,229.37c1.22,0,2.23,.4,3.02,1.21s1.19,1.81,1.19,3.01-.4,2.2-1.19,3.01-1.8,1.21-3.02,1.21-2.23-.4-3.02-1.21-1.19-1.8-1.19-2.99,.41-2.19,1.24-3.01,1.82-1.22,2.97-1.22Zm0,7.34c.91,0,1.66-.3,2.25-.9s.88-1.34,.88-2.23-.29-1.63-.88-2.23c-.59-.6-1.33-.9-2.21-.9s-1.64,.31-2.25,.92c-.61,.61-.92,1.36-.92,2.23s.3,1.61,.9,2.21c.6,.6,1.34,.9,2.23,.9Z"/><path class="cls-1" d="M96.07,279.41c-1.22,.17-2.2,.25-2.93,.25s-1.4-.08-2.02-.23c-.61-.16-.92-.32-.92-.5s.23-.28,.68-.31c1.3-.1,3.01-.36,5.15-.79-.02-1.27-.11-2.17-.25-2.7-.14-.53-.4-1-.76-1.4-.19-.24-.29-.47-.29-.68s.22-.32,.65-.32,1.07,.16,1.93,.47c.85,.31,1.28,.72,1.28,1.22,0,.14-.04,.3-.11,.47-.22,.5-.34,1.36-.36,2.56,1.22-.26,2.15-.48,2.79-.65,.64-.17,1.13-.25,1.48-.25s.73,.08,1.13,.25c.41,.17,.61,.38,.61,.63s-.28,.47-.85,.67c-.56,.19-2.29,.52-5.17,.97,.05,1.18,.07,2.12,.07,2.84,2.3-.41,3.76-.72,4.36-.94,.38-.14,.77-.22,1.15-.22s1.04,.28,1.96,.83c.92,.55,1.39,1.01,1.39,1.37,0,.19-.13,.41-.4,.67s-.5,.6-.7,1.04c-.2,.44-.46,1.18-.76,2.2-.3,1.02-.66,1.9-1.08,2.63s-.85,1.1-1.28,1.1c-.29,0-.5-.13-.65-.4-.12-.19-.38-.29-.77-.29s-1.47,.12-3.22,.36v3.06c2.54-.31,4.48-.57,5.81-.77,1.33-.2,2.26-.35,2.77-.43s1.02-.13,1.51-.13,1.09,.24,1.8,.72c.71,.48,1.06,.91,1.06,1.3,0,.43-.41,.61-1.22,.54-2.06-.22-3.87-.32-5.42-.32s-3.65,.14-6.32,.43c0,3.31-.1,5.84-.29,7.6-.19,1.75-.47,2.63-.83,2.63-.1,0-.19-.06-.29-.18-.1-.12-.19-.58-.29-1.39-.1-.8-.16-1.64-.18-2.5l-.04-5.98c-4.7,.55-7.57,.95-8.59,1.21-1.02,.25-1.76,.38-2.21,.38s-.98-.19-1.57-.56c-.59-.37-.88-.64-.88-.81s.07-.26,.22-.29c.14-.02,.59-.04,1.33-.04s2.33-.12,4.75-.36c2.42-.24,4.74-.52,6.95-.83v-3.02l-3.92,.61c.05,.36-.14,.54-.58,.54-.19,0-.45-.29-.77-.86-.32-.58-.59-1.31-.81-2.2-.55-2.35-1.13-3.89-1.73-4.61-.29-.34-.43-.62-.43-.85s.22-.34,.67-.34,1.03,.1,1.75,.29l5.65-.9c-.02-.94-.04-1.86-.04-2.77Zm.18,7.63c-.77,.1-1.37,.14-1.82,.14s-.77-.08-.99-.25-.32-.3-.32-.4,.17-.18,.5-.25c.34-.07,1.2-.28,2.59-.61-.02-1.2-.05-2.02-.07-2.45-1.39,.19-3.02,.5-4.9,.94,.34,1.7,.67,3.64,1.01,5.8l4-.58v-2.34Zm1.94-1.98c.53-.1,1.14-.14,1.84-.14s1.04,.18,1.04,.54c0,.19-.13,.38-.4,.58-.26,.19-1.09,.42-2.48,.68,.05,.75,.05,1.54,0,2.38,2.26-.34,3.43-.49,3.53-.47,.36,.02,.59-.05,.7-.23,.11-.18,.32-.92,.63-2.21,.31-1.3,.47-2.16,.47-2.59s-.07-.71-.22-.83c-.14-.12-.43-.18-.86-.18-1.39,0-2.81,.11-4.25,.32v2.16Z"/><path class="cls-1" d="M122.13,296.37c0,1.25-.25,2.27-.76,3.08s-.92,1.21-1.24,1.21-.56-.21-.72-.63c-.16-.42-.23-.82-.23-1.21s.2-.98,.61-1.8c.43-.96,.79-2.06,1.08-3.31,.07-.26,.21-.4,.41-.4s.4,.38,.58,1.13c.18,.76,.27,1.4,.27,1.93Zm.86-16.42c-.36,1.34-.76,2.3-1.19,2.86s-.8,.85-1.12,.85-.56-.14-.76-.41c-.19-.28-.29-.64-.29-1.08s.18-.83,.54-1.17c.77-.82,1.26-1.87,1.48-3.17,.07-.5,.23-.76,.47-.76,.36,0,.73,.59,1.12,1.76,11.21-1.18,17.26-1.96,18.14-2.34,.48-.19,.85-.29,1.12-.29,.55,0,1.37,.43,2.47,1.28,1.09,.85,1.64,1.48,1.64,1.89s-.32,.61-.97,.61c-1.27,0-2.65,.37-4.14,1.12-.22,.1-.42,.14-.61,.14s-.29-.08-.29-.25,.11-.37,.32-.61c.74-.96,1.12-1.56,1.12-1.8s-.16-.36-.47-.36c-.79,0-2.78,.14-5.96,.43s-5.37,.55-6.57,.77c-1.2,.23-3.22,.4-6.05,.52Zm5.29,2.02c0,.14-.08,.26-.25,.36-.34,.22-.95,.91-1.84,2.09-.89,1.18-1.83,2.08-2.83,2.7-1,.62-1.67,.94-2.03,.94-.17,0-.25-.08-.25-.23s.16-.37,.47-.63c1.39-1.22,2.44-2.36,3.15-3.4,.71-1.04,.99-1.81,.85-2.29-.05-.19-.07-.36-.07-.5,0-.36,.16-.54,.49-.54s.79,.19,1.4,.56c.61,.37,.92,.69,.92,.95Zm9.25,7.99c-2.69,.43-4.96,.83-6.8,1.21-1.85,.37-3.12,.73-3.82,1.06-.7,.34-1.2,.5-1.51,.5s-.67-.26-1.08-.79c-.41-.53-.61-.94-.61-1.22,0-.43,.41-.69,1.24-.77s1.96-.95,3.4-2.59,2.16-2.81,2.16-3.49,.19-1.03,.58-1.03c.24,0,.68,.24,1.33,.72,.65,.48,.97,.83,.97,1.06s-.19,.45-.56,.67-.76,.5-1.17,.86c-.41,.36-1.16,1.07-2.25,2.12-1.09,1.06-1.67,1.62-1.73,1.69-.06,.07-.09,.13-.09,.18s.05,.07,.14,.07c.41,0,3.41-.43,9-1.3-.14-.22-.72-.95-1.73-2.2-.24-.29-.36-.51-.36-.67s.1-.23,.29-.23c.38,0,1.14,.34,2.27,1.03,1.13,.68,1.88,1.24,2.27,1.67,.38,.43,.58,.89,.58,1.37s-.07,.94-.2,1.37c-.13,.43-.31,.65-.54,.65s-.43-.1-.61-.31-.57-.75-1.17-1.64Zm.86,5.72c.19,0,.38,.1,.58,.29,1.44,1.51,2.51,2.53,3.2,3.04,.7,.52,1.26,.89,1.69,1.12s.65,.45,.65,.67c0,.48-.87,.92-2.61,1.33-1.74,.41-3.63,.61-5.67,.61s-3.98-.41-5.81-1.22c-1.84-.82-3.16-2.03-3.96-3.64-.8-1.61-1.21-2.7-1.21-3.28,0-.22,.08-.32,.25-.32s.34,.05,.5,.14c.17,.1,.28,.2,.32,.32,.91,2.38,2.18,3.91,3.8,4.59,1.62,.68,3.46,1.03,5.53,1.03,.84,0,1.63-.05,2.36-.16,.73-.11,1.19-.21,1.37-.31,.18-.1,.27-.24,.27-.43,0-.48-.48-1.55-1.44-3.2-.07-.12-.11-.25-.11-.38s.1-.2,.29-.2Zm-8.32-22.68c.29,0,.95,.08,1.98,.23,1.03,.16,1.75,.49,2.16,1.01,.41,.52,.61,.95,.61,1.3s-.11,.65-.34,.9c-.23,.25-.53,.38-.92,.38s-1.13-.53-2.25-1.58c-1.12-1.06-1.67-1.69-1.67-1.91s.14-.32,.43-.32Zm4.64,22.32c0,.38-.08,.74-.23,1.08-.16,.34-.36,.5-.61,.5s-.58-.24-.99-.72l-1.62-1.84c-.7-.77-1.04-1.25-1.04-1.44s.14-.29,.43-.29,.84,.13,1.66,.4,1.42,.57,1.82,.92,.59,.81,.59,1.39Zm.32-15.12c.36,0,1.32,.3,2.88,.9,1.56,.6,2.53,1.18,2.92,1.73,.38,.55,.58,.99,.58,1.31s-.07,.56-.2,.72c-.13,.16-.31,.23-.52,.23s-.41-.07-.58-.22l-2.7-2.09c-1.63-1.25-2.5-1.93-2.61-2.03-.11-.11-.16-.23-.16-.36s.13-.2,.4-.2Zm10.37,15.19c0,.91-.17,1.37-.5,1.37s-.78-.28-1.33-.83l-2.05-2.05c-.79-.79-1.19-1.31-1.19-1.55,0-.14,.13-.22,.4-.22s.88,.16,1.85,.49c.97,.32,1.69,.68,2.14,1.06,.46,.38,.68,.96,.68,1.73Z"/><path class="cls-1" d="M169.29,277.72c.41,.77,.61,1.86,.61,3.28,0,2.45-.54,5.23-1.62,8.35-1.08,3.14-2.41,5.62-4,7.42-1.58,1.8-3.07,2.7-4.46,2.7s-2.6-.84-3.64-2.52c-1.03-1.68-1.55-3.53-1.55-5.54,0-2.45,.68-4.88,2.05-7.31,.7-1.22,1.49-2.3,2.39-3.24,.9-.94,1.93-1.74,3.08-2.41,2.28-1.34,4.72-2.02,7.31-2.02s4.98,.52,7.02,1.55c2.06,1.01,3.72,2.5,4.97,4.46,1.25,1.97,1.87,4.1,1.87,6.41s-.78,4.38-2.34,6.37c-1.56,1.99-3.6,3.43-6.12,4.32-2.54,.91-4.87,1.37-6.98,1.37-.29,0-.43-.13-.43-.4s.23-.43,.68-.5c4.22-.53,7.5-1.92,9.83-4.18,2.3-2.26,3.46-4.79,3.46-7.6,0-1.99-.55-3.83-1.66-5.51-1.1-1.7-2.6-2.96-4.48-3.78-1.88-.82-3.88-1.22-5.99-1.22Zm-.65,0c-3.77,.14-6.76,1.54-8.96,4.18-2.18,2.62-3.28,5.72-3.28,9.32,0,1.01,.07,1.94,.22,2.79,.14,.85,.36,1.58,.65,2.18s.64,1.07,1.06,1.4c.42,.34,.91,.5,1.46,.5,1.39,0,2.75-1.06,4.07-3.17,1.39-2.16,2.53-4.82,3.42-7.99,.91-3.24,1.37-6.31,1.37-9.22Z"/><path class="cls-1" d="M197.19,279.12c0,5.62-.41,10.07-1.24,13.36-.83,3.29-2.17,5.71-4.03,7.27-1.86,1.56-3.01,2.34-3.44,2.34-.12,0-.18-.08-.18-.23s.11-.33,.32-.52c2.26-1.9,3.89-4.3,4.91-7.22,1.02-2.92,1.53-6.59,1.53-11.03,0-1.06-.08-2.09-.25-3.11-.17-1.02-.33-1.65-.49-1.89-.16-.24-.23-.45-.23-.63s.24-.27,.72-.27,1.37,.18,2.66,.54c1.27-.12,3.34-.43,6.21-.92,2.87-.49,4.76-.83,5.67-1.03s1.56-.37,1.94-.54c.41-.17,.78-.25,1.12-.25s.88,.28,1.64,.83c.76,.55,1.13,.94,1.13,1.17s-.19,.47-.58,.74c-.67,.5-1.11,1.31-1.31,2.43s-.31,3.02-.31,5.72,.28,4.97,.85,6.82c.56,1.85,1.36,3.29,2.38,4.34s1.66,1.57,1.91,1.57,.47-.29,.67-.86c.19-.58,.44-1.55,.76-2.92,.1-.46,.24-.68,.43-.68,.26,0,.41,.4,.43,1.19,.1,2.78,.37,4.78,.83,5.98,.1,.24,.14,.46,.14,.65,0,.36-.25,.54-.74,.54s-1.57-.48-3.22-1.44c-1.66-.96-3.11-2.68-4.37-5.17-1.26-2.48-1.89-6.19-1.89-11.11,0-1.32,.04-2.57,.11-3.74l.14-3.02c0-.33-.06-.56-.18-.67-.12-.11-.34-.16-.65-.16-1.39,0-5.86,.65-13.39,1.94Zm3.06,13.61c.02,.55-.07,.83-.27,.83s-.36-.11-.47-.34c-.11-.23-.25-.67-.41-1.31-.43-2.06-.83-3.34-1.19-3.82-.1-.17-.14-.34-.14-.5s.17-.25,.52-.25,.83,.1,1.46,.29c1.3-.14,2.39-.3,3.28-.47-.07-1.58-.28-2.76-.61-3.53-1.25,.22-2.19,.32-2.83,.32s-.95-.07-.95-.2,.44-.32,1.31-.58,1.85-.58,2.93-.97c1.08-.4,1.91-.74,2.48-1.03,.58-.29,.93-.49,1.06-.59,.13-.11,.19-.2,.16-.27v-.22c0-.12,.1-.18,.31-.18s.58,.19,1.12,.58c.54,.38,.81,.74,.81,1.06s-.23,.53-.68,.61c-.46,.08-1.15,.26-2.09,.54-.94,.28-1.66,.47-2.16,.59,.58,.34,.86,.65,.86,.94,0,.07-.02,.17-.07,.29-.1,.22-.16,1-.18,2.34,1.15-.24,1.91-.46,2.27-.67s.68-.31,.95-.31,.76,.2,1.46,.61c.7,.41,1.04,.72,1.04,.94s-.11,.43-.34,.63-.48,.58-.76,1.13-.41,.9-.41,1.04,.08,.31,.25,.5c.17,.19,.25,.39,.25,.59s-.28,.32-.83,.34c-1.03,.05-2.38,.19-4.03,.43-.02,1.7-.06,2.94-.11,3.71,1.1-.17,2.28-.32,3.53-.47-.14-.34-.31-.68-.5-1.03-.19-.35-.29-.56-.29-.65s.05-.13,.14-.13c.19,0,.65,.17,1.39,.5,.73,.34,1.34,.84,1.82,1.51,.48,.67,.72,1.42,.72,2.23s-.2,1.22-.61,1.22c-.22,0-.43-.12-.63-.36-.2-.24-.74-1.1-1.6-2.59-2.16,.5-4.08,1.01-5.76,1.53-1.68,.52-2.8,.93-3.35,1.24-.24,.14-.53,.22-.86,.22s-.77-.24-1.3-.72c-.53-.48-.79-.85-.79-1.12s.17-.4,.5-.4l.79,.11c.7,0,2.53-.3,5.51-.9v-3.74l-2.7,.43Zm-.18-4.03c0,.96,.04,1.9,.11,2.81,.77-.12,1.69-.25,2.77-.4l.07-2.95c-.79,.12-1.78,.3-2.95,.54Zm4.32,2.23c1.06-.14,1.76-.28,2.12-.4,.36-.12,.57-.25,.63-.4,.06-.14,.12-.44,.18-.88,.06-.44,.09-.84,.09-1.19s-.13-.52-.38-.52-.63,.05-1.13,.14c-.5,.1-.97,.18-1.4,.25l-.11,2.99Z"/><path class="cls-1" d="M242.44,284.85c4.51-.5,7.28-.85,8.3-1.03,1.02-.18,1.99-.27,2.9-.27s1.78,.19,2.59,.58c.82,.38,1.22,.77,1.22,1.15,0,.22-.14,.4-.41,.54-.28,.14-.61,.22-1.01,.22s-.77-.04-1.13-.11c-.74-.12-2.2-.18-4.36-.18-4.34,0-8.57,.26-12.69,.77-4.12,.52-6.53,.86-7.24,1.04-.71,.18-1.36,.27-1.96,.27s-1.19-.16-1.78-.49c-.59-.32-.88-.58-.88-.76s.1-.29,.31-.34c.2-.05,.67-.07,1.4-.07s2.32-.12,4.77-.36l8.78-.86c-.62-1.06-1.1-2.09-1.44-3.1-.62,.05-1.3,.12-2.02,.22-.07,.31-.22,.47-.43,.47-.31,0-.56-.28-.76-.83-.41-1.17-.91-2.32-1.49-3.42-.59-1.1-1.06-1.81-1.4-2.12-.35-.31-.52-.56-.52-.76s.13-.29,.4-.29,.6,.07,1.01,.22c1.63-.07,3.78-.3,6.44-.68s4.28-.67,4.84-.86c.56-.19,1.07-.29,1.51-.29s1.09,.26,1.94,.79c.85,.53,1.28,1,1.28,1.4,0,.22-.11,.4-.32,.54-.46,.29-.8,.57-1.04,.85-.24,.28-.52,.76-.85,1.44-.32,.68-.73,1.39-1.21,2.12-.48,.73-.79,1.15-.92,1.26-.13,.11-.29,.16-.47,.16s-.38-.13-.59-.4c-.1-.14-.4-.22-.92-.22s-1.71,.11-3.58,.32c.7,.26,1.2,.53,1.51,.81,.31,.28,.47,.59,.47,.95s-.08,.79-.25,1.3Zm-8.82,9.54c.12,0,.26,.13,.43,.38,.17,.25,.25,.7,.25,1.35,0,1.44-.36,2.59-1.08,3.44-.72,.85-1.31,1.28-1.76,1.28-.26,0-.46-.17-.59-.52-.13-.35-.2-.71-.2-1.08s.32-.95,.95-1.75c.64-.79,1.17-1.68,1.6-2.66,.12-.29,.25-.43,.4-.43Zm2.23-5.65c1.3,0,2.92-.13,4.88-.4,1.96-.26,3.16-.52,3.62-.76,.34-.14,.68-.22,1.03-.22s1.02,.22,2.02,.65c1,.43,1.49,.83,1.49,1.19,0,.1-.03,.17-.09,.23-.06,.06-.37,.29-.92,.7-.55,.41-.89,.7-1.03,.88-.13,.18-.2,.37-.2,.56s.04,.34,.11,.43c.07,.1,.11,.22,.11,.36s-.05,.28-.14,.4c-.1,.12-.22,.19-.38,.2-.16,.01-.28,.02-.38,.02-.41,0-2.06,.14-4.97,.43,.91,.46,1.37,.91,1.37,1.37l-.07,.97,.14,3.96c0,1.68-.29,2.89-.88,3.64-.59,.74-1.02,1.12-1.3,1.12s-.57-.25-.88-.76-.73-1.01-1.24-1.51c-.52-.5-.97-.88-1.37-1.12s-.59-.43-.59-.58,.13-.22,.38-.22,.6,.05,1.04,.14c.44,.1,.95,.14,1.51,.14s.95-.2,1.15-.59c.2-.4,.31-1.34,.31-2.84s-.25-2.71-.76-3.62l-2.2,.22c-.17,.43-.38,.65-.65,.65s-.48-.31-.65-.94c-.7-2.23-1.31-3.59-1.84-4.07-.29-.26-.43-.49-.43-.68s.16-.29,.47-.29,.76,.11,1.33,.32Zm1.87-7.52c3.94-.48,6.02-.72,6.26-.72s.45,.03,.63,.09c.18,.06,.32,.09,.41,.09s.18-.05,.25-.14c.07-.1,.28-.49,.61-1.17,.34-.68,.59-1.43,.77-2.25,.18-.82,.27-1.36,.27-1.62s-.29-.4-.86-.4c-1.08,0-4.42,.37-10.01,1.12,.34,.77,.6,1.5,.79,2.2,3.53-.79,5.74-1.19,6.62-1.19,.29,0,.61,.08,.95,.23,.35,.16,.52,.29,.52,.41,0,.29-.89,.55-2.66,.77-1.78,.23-3.02,.34-3.73,.34s-1.22-.01-1.53-.04l.68,2.27Zm-.11,11.56c2.14-.12,3.59-.26,4.37-.41,.78-.16,1.39-.31,1.82-.45,.43-.14,.75-.52,.95-1.13,.2-.61,.31-1.06,.31-1.35s-.24-.43-.72-.43-2.96,.19-7.45,.58c.22,.65,.46,1.72,.72,3.2Zm7.99,2.99c.38,0,1.13,.17,2.23,.5,1.1,.34,2.02,.81,2.75,1.42,.73,.61,1.1,1.36,1.1,2.25,0,1.06-.28,1.58-.83,1.58-.46,0-1.03-.41-1.73-1.24-.7-.83-1.51-1.71-2.43-2.65-.92-.94-1.39-1.48-1.39-1.64s.1-.23,.29-.23Z"/><path class="cls-1" d="M277.61,286.94c.86-.26,1.79-.54,2.77-.83,.98-.29,2.05-.59,3.2-.9,1.15-.31,2.03-.55,2.65-.7,.61-.16,.97-.25,1.06-.27,.12-.02,.22-.04,.31-.05,.08-.01,.17-.02,.27-.02,.5,0,1,.18,1.48,.54,.48,.34,.72,.62,.72,.86,0,.43-.35,.65-1.04,.65-3.12,0-6.73,.65-10.84,1.94-4.06,1.25-6.84,2.56-8.35,3.92-1.46,1.32-2.2,2.69-2.2,4.1,0,1.78,1.02,3.02,3.06,3.74,2.02,.74,4.5,1.12,7.45,1.12s5.86-.43,8.86-1.3c.5-.14,.92-.22,1.26-.22,.36,0,.8,.16,1.33,.47,.58,.34,.86,.67,.86,1.01s-.14,.58-.43,.72c-.31,.17-1.8,.37-4.46,.61-1.37,.12-2.6,.22-3.71,.29-1.1,.07-2.11,.11-3.02,.11-3.14,0-5.68-.37-7.6-1.12-1.97-.72-3.25-1.6-3.85-2.63-.6-1.03-.9-2.09-.9-3.17s.28-2.04,.83-2.88c.29-.43,.68-.88,1.17-1.35,.49-.47,1.1-.94,1.84-1.42,.73-.48,1.61-.97,2.63-1.46,1.02-.49,2.2-.97,3.55-1.42-.14-.24-.27-.49-.38-.76-.11-.26-.19-.56-.23-.9-.05-.34-.08-.73-.11-1.17-.02-.44-.04-.98-.04-1.6l.11-5.26c0-.7-.14-1.34-.43-1.94-.29-.6-.65-1.04-1.08-1.33-.17-.1-.25-.26-.25-.5,0-.36,.17-.54,.5-.54,.24,0,.74,.19,1.51,.58,.82,.41,1.36,.77,1.62,1.08,.26,.34,.4,.7,.4,1.08,0,.43-.12,.97-.36,1.62-.24,.65-.36,2.32-.36,5,0,1.75,.07,3.18,.22,4.28Z"/><path class="cls-1" d="M313.61,286.94c.86-.26,1.79-.54,2.77-.83,.98-.29,2.05-.59,3.2-.9,1.15-.31,2.03-.55,2.65-.7,.61-.16,.97-.25,1.06-.27,.12-.02,.22-.04,.31-.05,.08-.01,.17-.02,.27-.02,.5,0,1,.18,1.48,.54,.48,.34,.72,.62,.72,.86,0,.43-.35,.65-1.04,.65-3.12,0-6.73,.65-10.84,1.94-4.06,1.25-6.84,2.56-8.35,3.92-1.46,1.32-2.2,2.69-2.2,4.1,0,1.78,1.02,3.02,3.06,3.74,2.02,.74,4.5,1.12,7.45,1.12s5.86-.43,8.86-1.3c.5-.14,.92-.22,1.26-.22,.36,0,.8,.16,1.33,.47,.58,.34,.86,.67,.86,1.01s-.14,.58-.43,.72c-.31,.17-1.8,.37-4.46,.61-1.37,.12-2.6,.22-3.71,.29-1.1,.07-2.11,.11-3.02,.11-3.14,0-5.68-.37-7.6-1.12-1.97-.72-3.25-1.6-3.85-2.63-.6-1.03-.9-2.09-.9-3.17s.28-2.04,.83-2.88c.29-.43,.68-.88,1.17-1.35,.49-.47,1.1-.94,1.84-1.42,.73-.48,1.61-.97,2.63-1.46,1.02-.49,2.2-.97,3.55-1.42-.14-.24-.27-.49-.38-.76-.11-.26-.19-.56-.23-.9-.05-.34-.08-.73-.11-1.17-.02-.44-.04-.98-.04-1.6l.11-5.26c0-.7-.14-1.34-.43-1.94-.29-.6-.65-1.04-1.08-1.33-.17-.1-.25-.26-.25-.5,0-.36,.17-.54,.5-.54,.24,0,.74,.19,1.51,.58,.82,.41,1.36,.77,1.62,1.08,.26,.34,.4,.7,.4,1.08,0,.43-.12,.97-.36,1.62-.24,.65-.36,2.32-.36,5,0,1.75,.07,3.18,.22,4.28Z"/><path class="cls-1" d="M344.46,292.84c-.22,1.37-.32,2.61-.32,3.73s.28,2.03,.83,2.75c.55,.72,1.54,1.32,2.95,1.8,1.37,.46,2.71,.68,4.03,.68,2.14,0,3.95-.5,5.44-1.51,1.49-1.01,2.23-2.28,2.23-3.82,0-1.22-.13-2.23-.4-3.02-.24-.7-.79-1.46-1.66-2.3-.82-.79-2.17-1.9-4.07-3.31-.19-.14-.29-.3-.29-.47s.1-.25,.29-.25c.36,0,1.42,.55,3.17,1.66,.89,.55,1.64,1.1,2.25,1.64,.61,.54,1.11,1.13,1.49,1.76,.38,.64,.66,1.32,.83,2.05,.17,.73,.25,1.57,.25,2.5,0,2.21-.88,3.9-2.63,5.08-1.73,1.22-3.78,1.84-6.16,1.84s-4.62-.55-6.73-1.66c-2.09-1.08-3.13-3.1-3.13-6.05,0-.46,.02-.94,.05-1.44,.04-.5,.1-1.06,.2-1.66-.91-.02-1.66-.09-2.23-.2-.58-.11-1.03-.24-1.37-.4-.34-.16-.57-.34-.7-.54-.13-.2-.2-.43-.2-.67,0-.6,.2-1.14,.61-1.62,.43-.48,.76-.72,.97-.72s.32,.07,.32,.22-.07,.26-.22,.36c-.26,.26-.45,.53-.56,.79-.11,.26-.07,.5,.11,.72,.18,.22,.55,.38,1.1,.5,.55,.12,1.34,.17,2.38,.14,.26-1.58,.55-3.1,.85-4.54,.3-1.44,.62-2.84,.95-4.21-1.51,.07-2.8-.02-3.87-.29-1.07-.26-1.9-.65-2.5-1.15-.43-.38-.7-.68-.81-.88s-.14-.34-.09-.41c.05-.07,.13-.1,.25-.07,.12,.02,.19,.05,.22,.07,1.56,1.13,3.92,1.66,7.09,1.58,.17-.67,.32-1.32,.47-1.94,.14-.62,.3-1.24,.47-1.84,.34-1.27,.5-1.98,.5-2.12,0-.77-.4-1.43-1.19-1.98-.17-.1-.25-.22-.25-.36,0-.31,.3-.47,.9-.47s1.24,.3,1.84,.9c.62,.58,.94,1.14,.94,1.69s-.18,.95-.54,1.26c-.38,.34-.95,1.9-1.69,4.68,.72-.14,1.55-.47,2.48-.97,.26-.14,.52-.22,.77-.22s.61,.19,1.06,.58c.48,.38,.72,.67,.72,.86s-.13,.36-.4,.5c-.38,.19-.85,.49-1.4,.9-.55,.41-1.2,.92-1.94,1.55-.05,.05-.13,.07-.25,.07-.1,0-.14-.11-.14-.32,0-.24,.4-.72,1.19-1.44,.22-.22,.19-.4-.07-.54-.07-.02-.2-.04-.38-.04s-.38,.02-.61,.05c-.23,.04-.46,.08-.7,.13-.24,.05-.44,.08-.61,.11-.26,1.1-.55,2.39-.86,3.87-.31,1.48-.64,3.15-.97,5.02,1.1-.02,2.18-.13,3.24-.32,1.03-.17,1.72-.35,2.05-.54,.31-.17,.64-.25,.99-.25s.71,.17,1.1,.5c.41,.34,.61,.6,.61,.79s-.1,.34-.29,.43c-.19,.07-1.21,.22-3.06,.43-1.85,.22-3.48,.32-4.9,.32Z"/><path class="cls-1" d="M378.09,290.11c0,.12-.04,.29-.11,.5-.53,1.34-.97,2.5-1.31,3.46-.35,.96-.62,1.75-.81,2.38-.19,.62-.35,1.3-.49,2.02-.13,.72-.25,1.5-.34,2.34-.12,.77-.38,1.15-.79,1.15-.29,0-.52-.16-.68-.47-.19-.29-.41-1.22-.65-2.81-.12-.82-.22-1.6-.29-2.36-.07-.76-.11-1.49-.11-2.21s.04-1.51,.11-2.38c.07-.86,.19-1.81,.36-2.84,.17-1.03,.39-2.24,.67-3.64,.28-1.39,.62-2.99,1.03-4.79,.1-.36,.14-.77,.14-1.22,0-1.1-.24-1.99-.72-2.66-.07-.1-.11-.2-.11-.32s.08-.18,.25-.18c.22,0,.71,.37,1.48,1.12,.79,.77,1.19,1.38,1.19,1.84,0,.5-.18,1.16-.54,1.98-.7,1.73-1.32,3.94-1.87,6.62-.5,2.64-.76,4.91-.76,6.8s.13,2.84,.4,2.84c.1,0,.19-.07,.27-.2,.08-.13,.19-.36,.31-.68,.12-.32,.28-.76,.49-1.3,.2-.54,.49-1.21,.85-2,.67-1.54,1.13-2.47,1.37-2.81,.24-.29,.41-.43,.52-.43s.16,.08,.16,.25Zm20.95,9c0,.34-.17,.58-.5,.72-.34,.14-1.12,.28-2.34,.4-1.22,.12-2.7,.18-4.43,.18s-3.14-.14-4.25-.41c-1.1-.28-2.09-.7-2.95-1.28-1.78-1.22-2.66-2.84-2.66-4.86,0-.22,.01-.44,.04-.67,.02-.23,.06-.46,.11-.7,.12-.5,.22-.8,.31-.9,.08-.1,.16-.14,.23-.14,.22,0,.32,.17,.32,.5l-.07,.83c0,1.13,.56,2.4,1.69,3.82,1.13,1.42,3.3,2.12,6.52,2.12,1.01,0,1.92-.07,2.74-.22,.82-.14,1.37-.31,1.66-.5,.34-.19,.76-.29,1.26-.29,.26,0,.53,.05,.81,.14,.28,.1,.53,.21,.76,.34,.23,.13,.41,.28,.56,.45,.14,.17,.22,.32,.22,.47Zm-3.74-21.35c.36,0,.82,.14,1.37,.43,.58,.29,.86,.6,.86,.94,0,.41-.26,.62-.79,.65-1.18,.1-2.27,.42-3.28,.97-.98,.55-2.71,1.74-5.18,3.56-.26,.19-.47,.29-.61,.29s-.22-.05-.22-.14c0-.07,.06-.2,.18-.4,.07-.1,.22-.26,.43-.49,.22-.23,.52-.51,.9-.85,.38-.36,.76-.7,1.12-1.03s.72-.62,1.08-.88c.17-.1,.25-.2,.25-.32s-.17-.16-.5-.11c-.55,.1-1.04,.17-1.48,.23-.43,.06-.8,.1-1.12,.13-.29,.02-.62,.04-1.01,.04h-1.3c-.96,0-1.64-.08-2.05-.25-.46-.19-.88-.52-1.26-.97-.41-.48-.61-.8-.61-.97,0-.24,.13-.36,.4-.36,.05,0,.12,.02,.22,.07,.58,.48,1.19,.78,1.85,.9,.66,.12,1.45,.18,2.36,.18s2.23-.14,3.96-.43c1.73-.31,2.92-.64,3.56-.97,.31-.14,.6-.22,.86-.22Z"/><path class="cls-1" d="M432.23,297.41c.38,0,.7,.07,.94,.22,.24,.14,.41,.31,.52,.5,.11,.19,.15,.4,.13,.61s-.12,.41-.29,.58c-.24,.24-.94,.48-2.09,.72-1.15,.26-2.45,.46-3.89,.58s-2.88,.18-4.32,.18c-5.11,0-8.47-.58-10.08-1.73-1.63-1.13-2.45-2.48-2.45-4.07,0-.96,.36-2.05,1.08-3.28,.74-1.25,1.26-1.87,1.55-1.87,.22,0,.32,.1,.32,.29,0,.05-.02,.12-.07,.22-1.01,1.44-1.51,2.82-1.51,4.14,0,1.25,.53,2.33,1.58,3.24,1.06,.91,3.32,1.37,6.8,1.37,1.08,0,2.14-.04,3.19-.11s2.08-.17,3.11-.29c2.04-.24,3.35-.52,3.92-.83,.53-.31,1.04-.47,1.55-.47Zm-5.87-19.62c.55,0,1.18,.2,1.87,.61,.7,.41,1.04,.83,1.04,1.26,0,.53-.52,.79-1.55,.79-.48,0-1.58,.42-3.31,1.26-.84,.41-1.58,.8-2.21,1.17-.64,.37-1.16,.73-1.57,1.06-.12,.1-.25,.14-.38,.14s-.2-.07-.2-.22c0-.19,.05-.34,.14-.43,.12-.12,.52-.44,1.19-.97,.67-.53,1.56-1.2,2.66-2.02,.19-.14,.29-.28,.29-.41s-.17-.2-.5-.2c-.17,0-.5,.02-1.01,.07-.5,.05-1.18,.12-2.02,.22-.84,.1-1.52,.17-2.03,.23-.52,.06-.87,.11-1.06,.16-.34,.07-.66,.11-.97,.11-.84,0-1.57-.35-2.2-1.04-.6-.7-.9-1.16-.9-1.4s.09-.36,.27-.36,.41,.13,.7,.4c.34,.29,.65,.48,.94,.58,.36,.12,1.09,.18,2.2,.18,.58,0,1.24-.02,2-.07,.76-.05,1.6-.12,2.54-.22,1.85-.22,2.9-.42,3.17-.61,.26-.19,.56-.29,.9-.29Zm7.81,1.37c0,.22-.07,.43-.22,.65-.14,.22-.31,.37-.5,.45-.19,.08-.39,.08-.59,0-.2-.08-.35-.31-.45-.67-.1-.43-.36-.94-.79-1.51-.41-.53-.77-.88-1.1-1.04-.32-.17-.49-.32-.49-.47,0-.24,.14-.36,.43-.36,.46,0,1.18,.34,2.16,1.01,1.03,.67,1.55,1.32,1.55,1.94Zm4.43-2.23c0,.19-.07,.38-.22,.56s-.32,.32-.54,.41-.44,.11-.68,.05c-.24-.06-.44-.25-.61-.56-.6-1.22-1.31-2.08-2.12-2.56-.19-.12-.29-.26-.29-.43s.14-.25,.43-.25c.58,0,1.39,.31,2.45,.94,1.06,.62,1.58,1.24,1.58,1.84Z"/><path class="cls-1" d="M462.15,278.41c2.88,.19,4.97,1.21,6.26,3.06,1.32,1.85,1.98,3.91,1.98,6.19,0,2.59-.8,4.84-2.41,6.73-1.63,1.92-3.85,3.02-6.66,3.31-.72,1.66-1.8,2.95-3.24,3.89-1.42,.96-2.92,1.44-4.5,1.44-.24,0-.36-.07-.36-.2s.12-.25,.36-.34c1.34-.46,2.59-1.12,3.74-1.98,1.25-.91,2.11-1.84,2.59-2.77-2.21-.1-3.94-1-5.18-2.7-1.22-1.68-1.84-3.83-1.84-6.44,0-1.8,.17-2.7,.5-2.7,.07,0,.13,0,.18,.02,.05,.01,.08,.07,.11,.16s.04,.25,.04,.45v.85c0,2.69,.56,4.88,1.69,6.59,1.15,1.7,2.78,2.57,4.9,2.59,.5-2.4,.76-5.82,.76-10.26,0-2.64-.11-4.86-.32-6.66-2.47,.24-4.63,1-6.46,2.27s-3.29,2.88-4.37,4.82c-1.1,1.94-1.85,3.83-2.23,5.65-.41,1.9-.61,3.04-.61,3.42,0,.41,.02,.68,.07,.83,.05,.14,.07,.3,.07,.47,0,.14-.07,.31-.22,.49s-.34,.27-.58,.27c-.62,0-1.22-.88-1.8-2.63-.58-1.75-.86-3.72-.86-5.9s.29-4.88,.86-8.17c.07-.36,.11-.71,.11-1.04,0-1.22-.3-2.17-.9-2.84-.1-.1-.14-.2-.14-.32s.07-.18,.22-.18c.31,0,.89,.5,1.73,1.51,.84,1.03,1.26,1.74,1.26,2.12,0,.36-.2,.8-.61,1.33-.41,.5-.73,1.6-.97,3.28-.12,.84-.21,1.66-.27,2.47-.06,.8-.09,1.56-.09,2.27s.02,1.36,.07,1.94c.05,.59,.13,1.07,.25,1.46,.22,.77,.42,1.15,.61,1.15,.22,0,.48-.7,.79-2.09,.74-3.43,2.41-6.52,5-9.25,2.52-2.66,5.48-4.16,8.89-4.5-.24-1.2-.64-2.03-1.19-2.5-.55-.47-1.13-.7-1.73-.7s-1.14,.24-1.69,.72c-.55,.48-.98,1.15-1.3,2.02-.1,.22-.2,.37-.32,.47s-.21,.1-.27,.02c-.06-.08-.07-.29-.02-.61,.05-.32,.2-.79,.47-1.39,.36-.86,.86-1.57,1.51-2.12,.65-.55,1.38-.83,2.2-.83s1.59,.42,2.32,1.26,1.27,2.05,1.6,3.64Zm-.4,18.07c2.04-.31,3.66-1.28,4.86-2.92,1.18-1.61,1.76-3.53,1.76-5.76,0-1.1-.12-2.14-.36-3.1-.24-.96-.61-1.79-1.12-2.5s-1.13-1.28-1.89-1.73c-.76-.44-1.65-.73-2.68-.85,.12,1.03,.22,2.14,.29,3.31s.11,2.45,.11,3.82c0,4.15-.32,7.39-.97,9.72Z"/><path class="cls-1" d="M503.91,288.34c0,2.83-1.32,4.99-3.96,6.48-2.62,1.46-5.88,2.2-9.79,2.2-.65,0-1.03-.03-1.15-.09-.12-.06-.18-.16-.18-.31s.05-.26,.14-.36,.19-.14,.29-.14c2.47-.1,4.7-.49,6.7-1.19,1.97-.67,3.44-1.54,4.43-2.59,.96-1.03,1.44-2.36,1.44-4s-.53-2.97-1.58-3.94c-1.06-.97-2.56-1.46-4.5-1.46-1.06,0-2.99,.42-5.8,1.26-2.71,.82-4.93,1.64-6.66,2.48-.55,.29-1.03,.43-1.44,.43s-.83-.32-1.26-.97c-.43-.65-.65-1.12-.65-1.4s.12-.43,.36-.43c.12,0,.24,.06,.36,.18,.41,.38,.87,.58,1.39,.58s.97-.07,1.35-.22c1.73-.62,3.97-1.27,6.73-1.94,2.83-.72,4.94-1.08,6.34-1.08,2.28,0,4.08,.62,5.4,1.87,1.37,1.22,2.05,2.77,2.05,4.64Z"/><path class="cls-1" d="M536.56,301.77c0,.79-.24,1.19-.72,1.19-.31,0-.56-.17-.76-.5-.7-1.25-2.27-2.88-4.72-4.9-2.45-2.02-5.78-4.44-10.01-7.27-.62-.43-.94-1-.94-1.69,0-.53,.19-.98,.58-1.37,.19-.19,.95-.81,2.29-1.85s3.23-2.5,5.71-4.37c.36-.26,.78-.59,1.26-.99,.48-.4,1.02-.87,1.62-1.42,.6-.55,1.08-1,1.44-1.35,.36-.35,.6-.59,.72-.74,.24-.31,.36-.53,.36-.65,0-.31-.44-.59-1.33-.83-.26-.07-.41-.17-.45-.31-.04-.13-.01-.26,.07-.4,.08-.13,.22-.24,.4-.32,.18-.08,.38-.13,.59-.13,.65,0,1.43,.32,2.34,.97,.89,.6,1.33,1.13,1.33,1.58s-.43,.9-1.3,1.4c-.82,.48-1.8,1.16-2.95,2.05-.55,.43-1.27,.98-2.14,1.64s-1.93,1.43-3.15,2.32l-4.64,3.35c-.34,.24-.6,.43-.79,.58-.19,.14-.32,.26-.4,.36-.12,.17-.18,.38-.18,.63s.26,.55,.79,.88c5.35,3.43,8.81,5.74,10.37,6.91,1.54,1.15,2.69,2.11,3.46,2.88,.77,.77,1.15,1.55,1.15,2.34Z"/><path class="cls-1" d="M569.07,275.24c1.51,0,2.74,.86,3.69,2.57,.95,1.72,1.42,4.4,1.42,8.05,0,2.71-.3,5.22-.9,7.52-.6,2.33-1.63,4.15-3.1,5.47-1.39,1.3-2.94,2.25-4.64,2.88-1.63,.6-2.65,.9-3.06,.9-.38,0-.58-.1-.58-.29s.12-.32,.36-.4c1.03-.38,1.94-.77,2.74-1.15s1.49-.77,2.09-1.15c1.18-.74,2.15-1.72,2.92-2.93,.77-1.21,1.31-2.75,1.62-4.63,.34-1.9,.5-4.38,.5-7.45s-.35-5.24-1.04-6.3c-.7-1.08-1.5-1.62-2.41-1.62-.29,0-.61,.07-.97,.2-.36,.13-.76,.38-1.19,.74-.43,.36-.89,.85-1.39,1.46-.49,.61-1.03,1.4-1.6,2.36-.53,.91-1,1.88-1.42,2.9-.42,1.02-.78,2.06-1.08,3.11-.3,1.06-.53,2.09-.7,3.11-.17,1.02-.25,1.99-.25,2.9l.04,.94c0,.34-.1,.6-.29,.79s-.43,.29-.72,.29c-.62,0-1.24-.62-1.84-1.87-.58-1.25-.86-2.94-.86-5.08s.44-5.2,1.33-9.04c.05-.24,.09-.46,.13-.67s.05-.4,.05-.59c0-.98-.46-1.97-1.37-2.95-.1-.12-.14-.25-.14-.4s.1-.22,.29-.22c.22,0,.8,.41,1.76,1.22,.98,.84,1.48,1.67,1.48,2.48,0,.58-.23,1.28-.68,2.12-.48,.86-.88,2.1-1.19,3.71-.31,1.56-.47,3.02-.47,4.39,0,.65,.01,1.22,.04,1.73,.02,.5,.06,.92,.11,1.26,.07,.36,.18,.62,.32,.79,.14,.17,.29,.26,.45,.27,.16,.01,.3-.05,.43-.2,.13-.14,.22-.36,.27-.65,.26-2.04,.78-4.14,1.55-6.3,.79-2.18,1.73-4.13,2.81-5.83,.55-.86,1.07-1.58,1.55-2.14,.48-.56,.94-1.02,1.37-1.37,.43-.35,.86-.59,1.3-.74,.43-.14,.86-.22,1.3-.22Z"/><path class="cls-1" d="M597.11,289.42c1.32-.89,2.8-1.6,4.43-2.12,1.7-.55,3.23-.83,4.57-.83,2.26,0,4.03,.65,5.33,1.96,1.3,1.31,1.94,3.08,1.94,5.31s-.83,3.97-2.48,5.29c-1.63,1.34-3.58,2.02-5.83,2.02-.72,0-1.35-.07-1.89-.2-.54-.13-.99-.3-1.35-.5-.36-.21-.64-.42-.83-.65-.19-.23-.29-.45-.29-.67s.08-.32,.25-.32,.32,.04,.47,.11c1.03,.55,2.11,.83,3.24,.83,1.78,0,3.32-.6,4.64-1.8,1.3-1.17,1.94-2.82,1.94-4.93,0-1.58-.46-2.83-1.37-3.74-.91-.91-2.12-1.37-3.64-1.37s-3.01,.26-4.64,.77c-1.63,.52-3.13,1.25-4.5,2.21,0,2.54,0,4.5,.02,5.87,.01,1.37,.03,2.15,.05,2.34,.07,.41,.11,.89,.11,1.44,0,.6-.12,1.15-.36,1.66-.24,.53-.53,.79-.86,.79s-.54-.14-.61-.43c-.34-1.08-.68-1.84-1.04-2.27-.41-.43-1.06-1.04-1.94-1.84-.26-.26-.4-.46-.4-.58,0-.22,.12-.32,.36-.32s.47,.08,.68,.25c1.03,.82,1.69,1.22,1.98,1.22,.31,0,.44-.28,.4-.83v-.97c0-.7,.04-2.38,.11-5.04-3.72,3.29-6.26,5.69-7.63,7.2-.14,.17-.34,.25-.58,.25-.41,0-.61-.19-.61-.58,0-.41,.16-1,.47-1.76,.31-.77,.78-1.25,1.4-1.44,.31-.1,.65-.25,1.03-.45,.37-.2,.79-.46,1.24-.77,.46-.34,1.07-.82,1.84-1.46,.77-.64,1.73-1.46,2.88-2.47l.25-6.88c-1.66,.36-3.14,.62-4.45,.77-1.31,.16-2.29,.23-2.93,.23s-1.12-.26-1.48-.79c-.34-.55-.5-.91-.5-1.08,0-.29,.13-.43,.4-.43,.14,0,.31,.06,.5,.18,.58,.43,1.56,.65,2.95,.65s3.25-.31,5.58-.94c.07-1.58,.11-2.86,.11-3.82,0-.5-.02-.92-.05-1.24-.04-.32-.11-.61-.22-.86-.11-.25-.25-.47-.41-.65-.17-.18-.4-.38-.68-.59-.26-.19-.4-.41-.4-.65s.22-.36,.65-.36c.46,0,1.12,.22,1.98,.65,.89,.38,1.33,.96,1.33,1.73,0,.17-.06,.43-.18,.79-.1,.24-.29,1.76-.58,4.57,.5-.14,.96-.28,1.37-.41s.79-.28,1.13-.45c.35-.17,.67-.35,.97-.54,.3-.19,.62-.43,.95-.72,.46-.43,.86-.7,1.22-.79,.36-.1,.67-.11,.94-.04,.26,.07,.47,.19,.61,.34,.14,.16,.24,.28,.29,.38,0,.38-.63,.93-1.89,1.64-1.26,.71-3.16,1.4-5.71,2.07-.1,1.22-.17,2.33-.22,3.33-.05,1-.07,1.9-.07,2.72Zm11.48-11.2c.82,0,1.78,.24,2.88,.72,1.08,.46,1.9,1.03,2.47,1.73,.56,.7,.85,1.36,.85,1.98,0,.26-.11,.5-.32,.72-.22,.22-.43,.32-.65,.32-.19,0-.41-.12-.65-.36-.24-.24-.6-.36-1.08-.36s-.93,.06-1.35,.18-.7,.18-.85,.18c-.26,0-.27-.14-.02-.41,.25-.28,.8-.65,1.64-1.13,.24-.1,.36-.32,.36-.68,0-.34-.41-.72-1.22-1.15-.74-.41-1.6-.71-2.56-.9-.14-.02-.26-.08-.36-.18-.1-.1-.13-.19-.11-.29,.02-.1,.11-.18,.25-.25,.14-.07,.38-.11,.72-.11Z"/><path class="cls-1" d="M630.81,285.82c1.63-.12,3.52-.32,5.65-.61s3.4-.52,3.8-.7c.4-.18,.74-.27,1.04-.27s.86,.19,1.67,.58c.82,.38,1.22,.71,1.22,.97s-.19,.59-.56,.97c-.37,.38-.59,1.56-.65,3.53s-.23,3.22-.5,3.74c-.28,.53-.48,.79-.61,.79s-.43-.25-.88-.76c-.84,.05-1.45,.1-1.84,.14,.5,.41,.76,.73,.76,.97s-.05,.47-.14,.68c-.36,.79-.54,1.57-.54,2.32s.13,1.28,.4,1.58c.26,.3,.76,.52,1.49,.65s1.81,.2,3.24,.2,2.48-.13,3.15-.38c.67-.25,1.19-.73,1.57-1.42,.37-.7,.63-1.74,.77-3.13,.02-.36,.12-.54,.29-.54s.28,.18,.32,.54c.17,1.97,.53,3.36,1.08,4.18,.12,.22,.18,.41,.18,.58,0,.36-.36,.74-1.08,1.13-.72,.4-1.7,.68-2.93,.85s-2.42,.25-3.55,.25-2.36-.16-3.71-.49c-1.34-.32-2.13-.79-2.36-1.39-.23-.6-.34-1.26-.34-1.98l.18-3.24c0-.6-.11-1.02-.32-1.26l-3.17,.22c.58,.48,.86,.82,.86,1.01s-.17,.37-.5,.54c-.24,.12-.8,.7-1.67,1.73s-1.87,1.91-2.97,2.65c-1.1,.73-2.27,1.29-3.51,1.67-1.24,.38-2.03,.58-2.39,.58s-.54-.07-.54-.22,.19-.29,.58-.43c2.11-.91,4.06-2.17,5.83-3.78s2.62-2.82,2.52-3.64c-.43,.05-.96,.1-1.58,.14-.14,.43-.27,.65-.38,.65s-.28-.07-.5-.22c-.23-.14-.34-.59-.32-1.33,.01-.74,.02-1.47,.02-2.18s-.02-1.53-.05-2.47-.08-1.54-.14-1.82c-.06-.28-.19-.58-.38-.9s-.29-.58-.29-.77,.15-.29,.45-.29,.75,.12,1.35,.36Zm-2.88-7.85l5.36-.54c2.9-.29,5.2-.54,6.89-.76,1.69-.22,2.89-.38,3.58-.5,.7-.12,1.18-.22,1.44-.31s.46-.13,.58-.13c.5,0,1.34,.4,2.52,1.19,1.17,.79,1.76,1.39,1.76,1.8,0,.14-.07,.26-.22,.36-.14,.1-.5,.14-1.08,.14-1.15,0-2.51,.22-4.07,.65-.31,.1-.56,.14-.76,.14s-.29-.04-.29-.13,.06-.19,.18-.31c1.1-.98,1.66-1.58,1.66-1.8s-.21-.32-.63-.32-1.91,.12-4.46,.36c-2.56,.24-5.05,.5-7.49,.77-2.44,.28-3.85,.41-4.23,.41s-.66-.01-.83-.04c-.53,1.66-1.05,2.9-1.57,3.73s-.95,1.24-1.31,1.24c-.22,0-.38-.16-.5-.49-.12-.32-.18-.7-.18-1.12s.2-.89,.59-1.4c.4-.52,.74-1.08,1.04-1.69,.3-.61,.5-1.16,.59-1.64,.1-.41,.22-.61,.36-.61s.49,.32,1.04,.97Zm10.84,3.2c.22-.58,.32-1,.32-1.26s-.04-.49-.13-.67c-.08-.18-.13-.35-.13-.52s.17-.25,.5-.25,.79,.11,1.37,.32c.58,.22,.86,.46,.86,.72,0,.12-.07,.25-.22,.4s-.36,.47-.65,.97c1.25-.24,2.12-.36,2.61-.36s.96,.13,1.4,.38c.44,.25,.67,.47,.67,.65s-.11,.3-.32,.36c-.22,.06-.76,.09-1.62,.09-1.03,0-2.16,.05-3.38,.14-.38,.67-.88,1.28-1.48,1.82s-1.04,.81-1.33,.81c-.1,0-.14-.03-.14-.09s.01-.11,.04-.16c.53-.82,.92-1.55,1.19-2.2-1.92,.19-3.43,.38-4.54,.58,.12,.43,.18,.83,.18,1.21s-.06,.7-.18,.97c-.12,.28-.24,.41-.36,.41s-.32-.34-.61-1.03c-.29-.68-.44-1.13-.47-1.35-.1,0-.54,.08-1.33,.23s-1.37,.23-1.75,.23-.79-.1-1.26-.31-.7-.38-.7-.52,.14-.23,.43-.25c.89-.02,2.33-.16,4.32-.4-.19-.67-.59-1.2-1.19-1.58-.29-.22-.43-.4-.43-.56s.28-.23,.85-.23,1.09,.06,1.57,.18c.48,.12,.7,.41,.67,.86s-.03,.84,.02,1.15l5.22-.76Zm-7.45,7.16c2.74-.26,4.5-.5,5.29-.72,.7-.17,1.18-.25,1.46-.25s.57,.08,.88,.23c.31,.16,.47,.31,.47,.45s-.32,.28-.95,.41c-.64,.13-3.01,.4-7.11,.81v1.87c1.61-.07,3.05-.23,4.34-.47,1.28-.24,2.09-.36,2.43-.36s.65,.07,.95,.2c.3,.13,.45,.28,.45,.45s-.14,.29-.41,.36c-.28,.07-1.07,.19-2.39,.36-1.32,.17-3.11,.3-5.36,.4-.02,.94-.05,1.54-.07,1.8,4.68-.36,7.87-.65,9.58-.86,.17-.79,.25-2.26,.25-4.39,0-1.37-.04-2.18-.13-2.43-.08-.25-.4-.38-.95-.38s-1.76,.1-3.64,.31c-1.87,.2-3.56,.45-5.08,.74v1.48Zm6.98-12.56v.11c0,.24-.08,.43-.23,.58-.16,.14-.33,.22-.52,.22-.36,0-1.08-.52-2.16-1.57-1.08-1.04-1.62-1.67-1.62-1.87s.16-.31,.47-.31,.87,.08,1.67,.25c.8,.17,1.4,.43,1.8,.79,.4,.36,.59,.96,.59,1.8Z"/><path class="cls-1" d="M675.05,285.71c.7-.19,1.3-.37,1.8-.52s.91-.29,1.22-.41c.58-.24,1.13-.53,1.66-.86,.53-.34,1.01-.55,1.44-.65,.43-.1,.85-.14,1.26-.14,.82,0,1.22,.26,1.22,.79,0,.29-.11,.52-.32,.68-.22,.19-1.09,.55-2.63,1.08-.77,.26-1.56,.51-2.38,.74-.82,.23-1.67,.45-2.56,.67,.48,.91,1.01,1.84,1.6,2.79,.59,.95,1.23,1.93,1.93,2.93,.72,1.06,1.08,1.96,1.08,2.7-.02,.22-.07,.44-.13,.68s-.17,.42-.32,.54c-.16,.12-.37,.14-.63,.05-.26-.08-.61-.35-1.04-.81-.58-.6-1.62-1.1-3.13-1.51-1.56-.41-3.23-.61-5-.61s-3.38,.25-4.75,.76-2.05,1.46-2.05,2.88c0,.65,.16,1.25,.47,1.8,.34,.62,1.21,1.09,2.63,1.4,1.46,.34,2.98,.5,4.55,.5s3.01-.23,4.3-.68c.36-.12,.73-.19,1.1-.2,.37-.01,.7,.02,.99,.09s.53,.19,.72,.36,.29,.38,.29,.65c0,.31-.14,.58-.43,.79-.22,.22-1.08,.38-2.59,.5-.72,.05-1.45,.09-2.18,.13s-1.48,.05-2.25,.05c-1.51,0-3.02-.19-4.54-.58-1.54-.38-2.67-1-3.4-1.85-.73-.85-1.1-1.73-1.1-2.65s.38-1.82,1.15-2.66c.77-.86,1.85-1.49,3.24-1.87,1.39-.38,2.87-.58,4.43-.58,2.28,0,4.34,.4,6.19,1.19,.17,.07,.33,.11,.49,.13,.16,.01,.27-.01,.34-.07,.07-.06,.08-.16,.04-.29s-.18-.31-.4-.52c-.58-.5-1.63-2.39-3.17-5.65-2.21,.48-4.33,.88-6.37,1.19-2.06,.29-3.44,.43-4.14,.43-1.34,0-2.36-.28-3.06-.83-.67-.58-1.01-1.06-1.01-1.44,0-.19,.12-.29,.36-.29s.6,.2,1.08,.61c.48,.38,1.3,.58,2.45,.58,2.33,0,5.68-.54,10.04-1.62-.31-.67-.62-1.37-.94-2.09-.31-.72-.62-1.46-.94-2.23-.6,.14-1.21,.28-1.82,.4-.61,.12-1.23,.23-1.85,.32-.62,.1-1.13,.17-1.51,.22s-.65,.07-.79,.07c-.53,0-1.01-.07-1.46-.2-.44-.13-.82-.3-1.13-.5-.31-.2-.55-.43-.72-.67-.17-.24-.25-.47-.25-.68,0-.17,.05-.25,.14-.25s.17,.01,.22,.04c.96,.55,2.05,.83,3.28,.83,.62,0,1.38-.07,2.27-.22,.89-.14,1.92-.35,3.1-.61l-1.33-3.28c-.1-.22-.2-.4-.31-.56-.11-.16-.24-.29-.4-.41-.16-.12-.35-.22-.59-.31s-.54-.19-.9-.31c-.24-.07-.36-.23-.36-.47,0-.5,.5-.76,1.51-.76,.72,0,1.36,.17,1.91,.52,.55,.35,.85,.79,.9,1.31,.02,.46,.12,1,.29,1.64,.17,.64,.41,1.37,.72,2.21,1.08-.31,2.3-.92,3.67-1.84,.31-.24,.63-.38,.95-.41,.32-.04,.62,0,.88,.09,.26,.1,.47,.22,.63,.38s.23,.31,.23,.45c0,.17-.13,.35-.4,.54-.12,.1-.35,.22-.7,.36-.35,.14-.8,.34-1.35,.58-.55,.22-1.11,.42-1.67,.61-.56,.19-1.15,.37-1.75,.54,.31,.75,.63,1.47,.95,2.18s.67,1.41,1.03,2.11Zm5.87-9.47c.22,0,.64,.18,1.26,.54,.62,.34,1.18,.82,1.66,1.44,.5,.62,.76,1.08,.76,1.37,0,.19-.06,.35-.18,.49s-.26,.23-.43,.29c-.17,.06-.34,.07-.5,.02-.17-.05-.3-.17-.4-.36-.41-.91-.77-1.59-1.1-2.03-.32-.44-.74-.83-1.24-1.17-.12-.07-.18-.17-.18-.29,0-.19,.12-.29,.36-.29Zm3.6-2.38c.24,0,.67,.14,1.3,.43s1.26,.77,1.91,1.44c.34,.34,.58,.61,.74,.83s.25,.4,.27,.56c.02,.16,0,.29-.07,.41s-.16,.23-.25,.32c-.19,.19-.43,.29-.7,.29s-.49-.18-.63-.54c-.14-.36-.52-.88-1.12-1.55-.55-.67-1.12-1.21-1.69-1.62-.12-.12-.18-.22-.18-.29,0-.19,.14-.29,.43-.29Z"/><path class="cls-1" d="M716.56,301.77c0,.79-.24,1.19-.72,1.19-.31,0-.56-.17-.76-.5-.7-1.25-2.27-2.88-4.72-4.9-2.45-2.02-5.78-4.44-10.01-7.27-.62-.43-.94-1-.94-1.69,0-.53,.19-.98,.58-1.37,.19-.19,.95-.81,2.29-1.85s3.23-2.5,5.71-4.37c.36-.26,.78-.59,1.26-.99,.48-.4,1.02-.87,1.62-1.42,.6-.55,1.08-1,1.44-1.35,.36-.35,.6-.59,.72-.74,.24-.31,.36-.53,.36-.65,0-.31-.44-.59-1.33-.83-.26-.07-.41-.17-.45-.31-.04-.13-.01-.26,.07-.4,.08-.13,.22-.24,.4-.32,.18-.08,.38-.13,.59-.13,.65,0,1.43,.32,2.34,.97,.89,.6,1.33,1.13,1.33,1.58s-.43,.9-1.3,1.4c-.82,.48-1.8,1.16-2.95,2.05-.55,.43-1.27,.98-2.14,1.64s-1.93,1.43-3.15,2.32l-4.64,3.35c-.34,.24-.6,.43-.79,.58-.19,.14-.32,.26-.4,.36-.12,.17-.18,.38-.18,.63s.26,.55,.79,.88c5.35,3.43,8.81,5.74,10.37,6.91,1.54,1.15,2.69,2.11,3.46,2.88,.77,.77,1.15,1.55,1.15,2.34Z"/><path class="cls-1" d="M739.31,282.26c1.68-.41,2.86-.95,3.53-1.62,.29-.29,.59-.46,.92-.5,.32-.05,.62-.02,.9,.07,.28,.1,.51,.25,.7,.45,.19,.2,.29,.41,.29,.63,0,.26-.16,.48-.47,.65-.14,.1-.41,.21-.79,.34-.38,.13-.89,.28-1.51,.45s-1.26,.33-1.91,.49c-.65,.16-1.32,.29-2.02,.41-1.01,4.13-2.16,8.24-3.46,12.35-1.3,4.03-2.05,6.19-2.27,6.48-.19,.29-.43,.43-.72,.43s-.49-.19-.61-.58c-.12-.38-.18-.83-.18-1.35s.18-1.03,.54-1.53c.17-.24,.41-.77,.74-1.6s.7-1.91,1.13-3.24c.43-1.33,.91-2.89,1.42-4.68,.52-1.79,1.06-3.79,1.64-5.99-1.01,.17-1.87,.29-2.57,.38-.71,.08-1.27,.13-1.67,.13-.84,0-1.51-.31-2.02-.94-.48-.65-.72-1.1-.72-1.35s.12-.38,.36-.38c.07,0,.17,.05,.31,.14s.29,.2,.47,.32c.18,.12,.37,.24,.56,.36,.19,.12,.38,.22,.58,.29,.43,.12,.94,.18,1.51,.18,.67,0,1.86-.16,3.56-.47,.62-2.3,.94-3.77,.94-4.39,0-.98-.18-1.69-.54-2.12-.12-.12-.18-.26-.18-.43s.05-.3,.14-.4,.24-.14,.43-.14,.66,.28,1.4,.83c.74,.53,1.12,1.06,1.12,1.58,0,.29-.13,.73-.4,1.33-.12,.29-.28,.72-.47,1.3-.19,.58-.42,1.28-.68,2.12Zm16.99,17.64c.43,0,.83,.13,1.21,.4,.37,.26,.56,.5,.56,.72s-.13,.42-.4,.61c-.12,.07-.34,.16-.67,.27-.32,.11-.72,.2-1.19,.29-.47,.08-1,.16-1.58,.22-.59,.06-1.18,.09-1.78,.09-2.69,0-4.92-.41-6.7-1.22-1.8-.82-2.7-2-2.7-3.56,0-.34,.05-.65,.16-.94,.11-.29,.23-.54,.38-.76,.14-.22,.29-.39,.45-.52s.28-.2,.38-.2c.17,0,.26,.05,.29,.14,.02,.1,.01,.23-.04,.4-.05,.17-.11,.38-.18,.63-.07,.25-.11,.53-.11,.85,0,1.15,.62,2.03,1.87,2.63,1.22,.6,2.82,.9,4.79,.9s3.37-.24,4.28-.72c.31-.14,.64-.22,.97-.22Zm.97-16.24c0,.41-.31,.65-.94,.72-.6,.07-1.14,.23-1.62,.49-.48,.25-1.03,.63-1.66,1.13-2.5,2.14-3.86,3.2-4.1,3.2-.07,0-.14-.04-.22-.11-.07-.07-.11-.14-.11-.22,0-.29,.68-1.07,2.05-2.34,1.39-1.27,2.28-2.02,2.66-2.23,.31-.17,.52-.31,.61-.41,.1-.11,.04-.19-.16-.23-.2-.05-.58-.06-1.12-.04-.54,.02-1.28,.08-2.21,.18l-3.28,.36c-.31,0-.47-.11-.47-.32,0-.41,.79-.82,2.38-1.22,1.54-.38,3.19-.58,4.97-.58,.55-.02,1.02,0,1.4,.09,.38,.08,.7,.2,.95,.36s.44,.34,.58,.54,.22,.41,.27,.63Zm-6.48-8.39c.82,0,1.74,.37,2.77,1.12,1.08,.72,1.62,1.33,1.62,1.84,0,.22-.07,.42-.22,.61-.14,.19-.31,.34-.5,.43-.19,.1-.41,.11-.65,.04-.24-.07-.44-.28-.61-.61-.65-1.27-1.52-2.14-2.63-2.59-.24-.1-.36-.24-.36-.43,0-.26,.19-.4,.58-.4Zm4.46-1.76c.36,0,.8,.1,1.31,.31,.52,.2,1.03,.49,1.53,.85,.98,.67,1.48,1.22,1.48,1.66,0,.22-.07,.43-.22,.65-.14,.22-.32,.38-.54,.49s-.44,.13-.67,.05c-.23-.07-.43-.28-.59-.61-.6-1.18-1.44-2-2.52-2.48-.24-.1-.36-.25-.36-.47,0-.29,.19-.43,.58-.43Z"/><path class="cls-1" d="M783.81,282.44c.55,.91,1.18,1.85,1.87,2.83,.7,.97,1.45,2,2.27,3.08,.53,.7,.98,1.31,1.35,1.84,.37,.53,.68,.98,.92,1.37,.48,.77,.72,1.5,.72,2.2s-.25,1.08-.76,1.08c-.36,0-.84-.3-1.44-.9-.58-.58-1.86-1.1-3.85-1.58-1.9-.46-3.84-.68-5.83-.68-2.42,0-4.1,.48-5.04,1.44-.91,.96-1.37,1.99-1.37,3.1,0,1.58,.78,2.74,2.34,3.46,1.54,.72,3.26,1.08,5.18,1.08s3.19-.22,3.89-.65c.7-.41,1.28-.61,1.76-.61,.24,0,.5,.04,.77,.13,.28,.08,.52,.2,.74,.34,.22,.14,.4,.29,.54,.45,.14,.16,.22,.31,.22,.45,0,.26-.13,.49-.4,.68-.29,.19-1.1,.4-2.45,.61-1.34,.24-2.62,.36-3.82,.36-2.62,0-5.03-.55-7.24-1.66-2.21-1.13-3.31-2.62-3.31-4.46,0-1.56,.82-2.94,2.45-4.14,1.61-1.18,3.71-1.76,6.3-1.76s5.32,.48,8.17,1.44c.38,.14,.64,.18,.77,.11,.13-.07,.05-.28-.23-.61-.91-1.08-1.86-2.32-2.84-3.73-.98-1.4-2.03-2.99-3.13-4.77-1.08,.34-2.22,.66-3.42,.97l-2.02,.5c-.24,.05-.53,.07-.86,.07-1.03,0-2.16-.19-3.38-.58-1.2-.38-2.05-.79-2.56-1.22-.36-.34-.58-.61-.67-.83s-.09-.37-.02-.47,.19-.13,.34-.11c.16,.02,.29,.11,.41,.25,1.18,.89,2.83,1.33,4.97,1.33s4.25-.4,6.41-1.19c-1.2-1.97-1.99-3.36-2.38-4.18-.19-.38-.38-.69-.56-.92-.18-.23-.38-.4-.59-.5-.22-.11-.46-.17-.72-.2-.26-.02-.58-.04-.94-.04-.72,0-1.08-.17-1.08-.5s.34-.62,1.01-.86c.72-.26,1.33-.4,1.84-.4,1.27,0,2.05,.62,2.34,1.87,.17,.62,.45,1.36,.85,2.21,.4,.85,.93,1.84,1.6,2.97,1.51-.67,2.84-1.42,4-2.23,.41-.31,.88-.47,1.4-.47s1,.09,1.49,.27c.49,.18,.74,.37,.74,.56s-.2,.42-.61,.68c-.19,.12-.49,.28-.9,.47-.41,.19-.92,.42-1.55,.68-.62,.26-1.24,.51-1.85,.74-.61,.23-1.23,.44-1.85,.63Z"/><path class="cls-1" d="M814.45,290.21c0,.17-.13,.48-.4,.94-.22,.38-.7,1.44-1.44,3.17-.36,.84-.66,1.55-.9,2.12s-.42,1.03-.54,1.37c-.22,.65-.32,1.09-.32,1.33,0,.26,.04,.49,.11,.68,.07,.19,.11,.38,.11,.58s-.08,.37-.23,.52-.35,.23-.59,.23c-.72,0-1.56-.47-2.52-1.4-.98-.91-1.84-2.45-2.56-4.61-.7-2.23-1.04-4.79-1.04-7.67,0-.96,.04-1.91,.11-2.86,.07-.95,.19-1.88,.36-2.79,.07-.38,.11-.74,.11-1.08,0-.91-.26-1.7-.79-2.38-.14-.17-.22-.34-.22-.52s.13-.27,.4-.27c.38,0,.96,.28,1.73,.83,.77,.55,1.15,1.08,1.15,1.58,0,.34-.14,.8-.43,1.4s-.52,1.48-.68,2.63c-.17,1.15-.25,2.5-.25,4.03s.12,3.02,.36,4.46c.24,1.44,.55,2.63,.94,3.56,.22,.46,.4,.81,.56,1.06s.3,.44,.43,.58c.13,.13,.26,.21,.4,.23,.13,.02,.27,.04,.41,.04,.53,0,.89-.2,1.08-.61l1.98-3.85c1.1-2.14,1.73-3.28,1.87-3.42,.14-.12,.32-.18,.52-.18s.31,.1,.31,.29Zm16.27,1.48c0,.84-.07,1.67-.22,2.48-.14,.82-.37,1.31-.67,1.49-.3,.18-.58,.27-.85,.27-.22,0-.37-.07-.47-.22-.1-.14-.14-.38-.14-.7s.02-.75,.05-1.28c.04-.53,.07-1.19,.09-1.98,0-2.93-.5-5.46-1.51-7.6-.96-2.11-2.57-3.44-4.82-4-.53-.1-.79-.3-.79-.61s.22-.47,.67-.47,1.28,.25,2.5,.76c.94,.34,1.78,.89,2.54,1.67s1.4,1.7,1.94,2.77c.54,1.07,.95,2.24,1.24,3.51,.29,1.27,.43,2.57,.43,3.89Z"/><path class="cls-1" d="M843.5,292.37c1.22,0,2.23,.4,3.02,1.21,.79,.8,1.19,1.81,1.19,3.01s-.4,2.2-1.19,3.01-1.8,1.21-3.02,1.21-2.23-.4-3.02-1.21-1.19-1.8-1.19-2.99,.41-2.19,1.24-3.01c.83-.82,1.82-1.22,2.97-1.22Zm0,7.34c.91,0,1.66-.3,2.25-.9s.88-1.34,.88-2.23-.29-1.63-.88-2.23-1.33-.9-2.21-.9-1.64,.31-2.25,.92-.92,1.36-.92,2.23,.3,1.61,.9,2.21c.6,.6,1.34,.9,2.23,.9Z"/></svg>