<?xml version="1.0" encoding="UTF-8"?><svg id="_イヤー_4" xmlns="http://www.w3.org/2000/svg" viewBox="0 0 930.99 507.64"><defs><style>.cls-1{fill:#fff;}</style></defs><path class="cls-1" d="M25.47,221.4c2.04,2.81,4.19,5.11,6.46,6.91,2.27,1.8,4.65,3.14,7.15,4.01,2.5,.88,3.74,1.43,3.74,1.67,0,.1-.13,.17-.38,.23-.25,.06-1.02,.13-2.3,.2-1.28,.07-2.3,.11-3.04,.11s-1.35-.07-1.82-.2c-.47-.13-.95-.46-1.46-.97-.5-.52-1.36-1.48-2.57-2.9-1.21-1.42-2.3-2.75-3.26-4.01-.96-1.26-1.81-2.44-2.56-3.55l-.14,9.83c.48-.1,.93-.19,1.35-.29,.42-.1,.89-.14,1.42-.14,1.06,0,1.75,.13,2.09,.4,.34,.26,.5,.5,.5,.72,0,.53-.88,.85-2.63,.97l-2.77,.18c0,2.04,.01,3.22,.04,3.53,.02,.31,.04,.79,.04,1.44s-.09,1.22-.27,1.73c-.18,.5-.42,.76-.72,.76s-.59-.34-.86-1.03c-.28-.68-.41-1.3-.41-1.84s.07-1.15,.22-1.84c.14-.68,.26-1.57,.36-2.65-.86,.12-1.67,.18-2.41,.18s-1.39-.12-1.94-.36c-.55-.24-.83-.44-.83-.59s.34-.25,1.03-.27c.68-.02,2.12-.23,4.3-.61,.22-4.18,.32-7.42,.32-9.72-1.15,2.52-2.69,4.85-4.63,6.98-1.93,2.14-3.73,3.73-5.38,4.77-1.66,1.04-2.78,1.57-3.38,1.57-.14,0-.22-.05-.22-.16s.13-.26,.4-.45c2.18-1.49,4.5-3.64,6.95-6.44,2.45-2.81,4.38-5.76,5.8-8.86-.53,.05-.95,.11-1.26,.18-1.51,.29-2.68,.43-3.51,.43s-1.55-.11-2.16-.34c-.61-.23-.92-.4-.92-.52,0-.19,.41-.32,1.22-.4,.82-.07,3.18-.44,7.09-1.12,0-1.99-.07-3.55-.2-4.66-.13-1.12-.39-1.93-.77-2.43-.22-.29-.32-.54-.32-.76,0-.34,.25-.5,.74-.5s1.16,.18,2.02,.54c.85,.36,1.28,.82,1.28,1.37,0,.19-.07,.41-.22,.65-.14,.24-.32,.91-.54,2-.22,1.09-.38,2.26-.5,3.51,1.22-.22,2.52-.49,3.89-.83,1.37-.34,2.37-.5,3.01-.5s1.19,.11,1.67,.32c.48,.22,.72,.46,.72,.74s-.18,.51-.54,.7c-.36,.19-1.09,.34-2.18,.43-1.09,.1-3.31,.4-6.64,.9-.02,.19-.04,.52-.04,.97Z"/><path class="cls-1" d="M54.77,216.68c-.84,.14-1.64,.22-2.41,.22s-1.4-.11-1.89-.34c-.49-.23-.74-.44-.74-.63,0-.24,.32-.36,.97-.36,.38,0,1.58-.23,3.58-.68,2-.46,4-.95,5.99-1.48,.26-.07,.67-.11,1.22-.11s1.07,.11,1.57,.32c.49,.22,.74,.44,.74,.67s-.16,.42-.49,.58c-.32,.16-1.52,.45-3.6,.88-2.08,.43-3.39,.7-3.94,.79,.89,.7,1.33,1.2,1.33,1.51s-.16,.63-.49,.95c-.32,.32-1.05,1.36-2.18,3.11,.53,0,1.13-.08,1.82-.25,.68-.17,1.22-.38,1.6-.63,.38-.25,.77-.38,1.15-.38s.96,.22,1.73,.67c.77,.44,1.15,.81,1.15,1.1,0,.19-.2,.45-.59,.77-.4,.32-.83,1.23-1.31,2.72-.38,1.06-1.05,2.44-2,4.16-.95,1.72-2.18,3.24-3.69,4.57-1.51,1.33-2.96,2.33-4.36,3.01-1.39,.67-2.32,1.01-2.77,1.01-.19,0-.29-.07-.29-.22s.29-.4,.86-.76c2.38-1.39,4.38-3.07,6.01-5.04,1.63-1.97,2.83-3.97,3.6-6.01,.77-2.04,1.15-3.24,1.15-3.6s-.1-.54-.29-.54-.62,.07-1.3,.22c-.67,.14-1.25,.22-1.73,.22s-.9-.07-1.26-.22c-.62,1.03-1.36,1.97-2.2,2.81,1.49,.5,2.44,.95,2.86,1.33,.42,.38,.63,.94,.63,1.66s-.2,1.08-.59,1.08-.96-.46-1.69-1.37c-.73-.91-1.28-1.68-1.64-2.3-.58,.55-1.23,1.12-1.96,1.71-.73,.59-1.19,.88-1.39,.88s-.29-.07-.29-.2,.13-.33,.4-.59c1.63-1.63,3.05-3.46,4.25-5.49,1.2-2.03,2.02-3.94,2.45-5.74Zm12.64,2.84c0,.14-.04,.32-.11,.54-.17,.5-.32,1.45-.45,2.84-.13,1.39-.2,2.52-.2,3.38l.04,1.91c0,1.87-.25,2.81-.76,2.81-.31,0-.62-.29-.94-.88-.31-.59-.47-1.18-.47-1.78,0-.17,.02-.32,.07-.47,.34-1.32,.5-2.89,.5-4.72s-.13-3.34-.4-4.54c-.02-.12-.04-.23-.04-.32,0-.31,.14-.47,.41-.47s.73,.19,1.37,.58c.64,.38,.95,.76,.95,1.12Zm7.16-6.62c0,.22-.14,.58-.43,1.08-.1,.17-.2,.83-.32,1.98s-.18,2.11-.18,2.88c0,2.35,.06,5.18,.18,8.5l.22,7.27c0,2.09-.35,3.74-1.06,4.95-.71,1.21-1.25,1.81-1.64,1.78-.19,0-.38-.17-.58-.5-.7-1.3-1.66-2.66-2.88-4.1-.24-.26-.36-.44-.36-.54s.06-.14,.18-.14,.29,.04,.5,.11c1.44,.53,2.35,.79,2.74,.79,.26,0,.46-.27,.58-.81,.12-.54,.22-1.94,.29-4.21,.07-2.27,.11-4.78,.11-7.54,0-7.39-.35-11.57-1.04-12.53-.24-.31-.36-.58-.36-.79s.19-.32,.56-.32,1.05,.26,2.03,.79c.98,.53,1.48,.98,1.48,1.37Z"/><path class="cls-1" d="M96.07,217.19c-1.22,.17-2.2,.25-2.93,.25s-1.4-.08-2.02-.23c-.61-.16-.92-.32-.92-.5s.23-.28,.68-.31c1.3-.1,3.01-.36,5.15-.79-.02-1.27-.11-2.17-.25-2.7-.14-.53-.4-1-.76-1.4-.19-.24-.29-.47-.29-.68s.22-.32,.65-.32,1.07,.16,1.93,.47c.85,.31,1.28,.72,1.28,1.22,0,.14-.04,.3-.11,.47-.22,.5-.34,1.36-.36,2.56,1.22-.26,2.15-.48,2.79-.65,.64-.17,1.13-.25,1.48-.25s.73,.08,1.13,.25c.41,.17,.61,.38,.61,.63s-.28,.47-.85,.67c-.56,.19-2.29,.52-5.17,.97,.05,1.18,.07,2.12,.07,2.84,2.3-.41,3.76-.72,4.36-.94,.38-.14,.77-.22,1.15-.22s1.04,.28,1.96,.83c.92,.55,1.39,1.01,1.39,1.37,0,.19-.13,.41-.4,.67s-.5,.6-.7,1.04c-.2,.44-.46,1.18-.76,2.2-.3,1.02-.66,1.9-1.08,2.63-.42,.73-.85,1.1-1.28,1.1-.29,0-.5-.13-.65-.4-.12-.19-.38-.29-.77-.29s-1.47,.12-3.22,.36v3.06c2.54-.31,4.48-.57,5.81-.77,1.33-.2,2.26-.35,2.77-.43,.52-.08,1.02-.13,1.51-.13s1.09,.24,1.8,.72c.71,.48,1.06,.91,1.06,1.3,0,.43-.41,.61-1.22,.54-2.06-.22-3.87-.32-5.42-.32s-3.65,.14-6.32,.43c0,3.31-.1,5.84-.29,7.6-.19,1.75-.47,2.63-.83,2.63-.1,0-.19-.06-.29-.18-.1-.12-.19-.58-.29-1.39-.1-.8-.16-1.64-.18-2.5l-.04-5.98c-4.7,.55-7.57,.95-8.59,1.21-1.02,.25-1.76,.38-2.21,.38s-.98-.19-1.57-.56c-.59-.37-.88-.64-.88-.81s.07-.26,.22-.29,.59-.04,1.33-.04,2.33-.12,4.75-.36c2.42-.24,4.74-.52,6.95-.83v-3.02l-3.92,.61c.05,.36-.14,.54-.58,.54-.19,0-.45-.29-.77-.86-.32-.58-.59-1.31-.81-2.2-.55-2.35-1.13-3.89-1.73-4.61-.29-.34-.43-.62-.43-.85s.22-.34,.67-.34,1.03,.1,1.75,.29l5.65-.9c-.02-.94-.04-1.86-.04-2.77Zm.18,7.63c-.77,.1-1.37,.14-1.82,.14s-.77-.08-.99-.25c-.22-.17-.32-.3-.32-.4s.17-.18,.5-.25c.34-.07,1.2-.28,2.59-.61-.02-1.2-.05-2.02-.07-2.45-1.39,.19-3.02,.5-4.9,.94,.34,1.7,.67,3.64,1.01,5.8l4-.58v-2.34Zm1.94-1.98c.53-.1,1.14-.14,1.84-.14s1.04,.18,1.04,.54c0,.19-.13,.38-.4,.58-.26,.19-1.09,.42-2.48,.68,.05,.74,.05,1.54,0,2.38,2.26-.34,3.43-.49,3.53-.47,.36,.02,.59-.05,.7-.23,.11-.18,.32-.92,.63-2.21,.31-1.3,.47-2.16,.47-2.59s-.07-.71-.22-.83c-.14-.12-.43-.18-.86-.18-1.39,0-2.81,.11-4.25,.32v2.16Z"/><path class="cls-1" d="M126.09,228.71c0,.5-.36,1.62-1.08,3.35-.36,.84-.67,1.56-.94,2.16-.26,.6-.48,1.07-.65,1.4-.31,.65-.47,1.56-.47,2.74l.07,.97c0,.17-.06,.31-.18,.43-.12,.12-.26,.18-.43,.18-.55,0-1.16-.72-1.84-2.16-.67-1.37-1.01-3.56-1.01-6.59s.54-7.22,1.62-12.67c.07-.43,.11-.78,.11-1.04,0-.65-.36-1.4-1.08-2.27-.14-.17-.22-.31-.22-.43s.07-.18,.22-.18c.24,0,.85,.32,1.84,.97,.98,.65,1.48,1.3,1.48,1.94,0,.36-.18,.88-.54,1.55-.36,.7-.79,2.46-1.3,5.29-.5,2.86-.76,5.34-.76,7.45,0,1.22,.1,2.15,.29,2.77,.19,.62,.38,.94,.58,.94s.4-.14,.61-.43c.12-.17,.28-.45,.47-.85,.19-.4,.44-.91,.76-1.53,.31-.65,.61-1.3,.88-1.96,.28-.66,.55-1.34,.81-2.03,.12-.34,.28-.5,.47-.5s.29,.17,.29,.5Zm15.05,4c1.56,.48,2.94,1.08,4.14,1.8,1.15,.67,1.92,1.28,2.3,1.82,.38,.54,.58,.91,.58,1.1,0,.26-.16,.45-.47,.56-.31,.11-.6,.03-.86-.23-1.34-1.58-3.2-2.87-5.58-3.85,.02,1.44-.54,2.63-1.69,3.56-1.1,.96-2.45,1.44-4.03,1.44s-2.93-.3-4.1-.9c-1.18-.6-1.76-1.51-1.76-2.74,0-1.13,.49-2.04,1.48-2.74,1.01-.67,2.15-1.01,3.44-1.01s2.92,.24,4.91,.72c-.24-2.21-.43-4.26-.56-6.16s-.21-3.66-.23-5.29c-2.11,.43-3.82,.65-5.11,.65s-2.29-.26-2.99-.79c-.34-.26-.58-.48-.72-.65-.14-.17-.23-.29-.27-.38-.04-.08-.03-.14,.02-.18,.05-.04,.11-.05,.18-.05s.32,.11,.76,.32c.43,.22,.9,.38,1.4,.5,.48,.1,1.15,.14,2.02,.14,.41,0,1.01-.04,1.8-.11,.79-.07,1.76-.19,2.92-.36,.02-1.44,.09-2.54,.2-3.31,.11-.77,.16-1.3,.16-1.58,0-.31-.12-.61-.36-.9-.24-.29-.67-.62-1.3-1.01-.22-.1-.32-.26-.32-.5,0-.31,.17-.47,.5-.47,.7,0,1.43,.22,2.2,.65,.74,.38,1.12,.97,1.12,1.76,0,.41-.13,.85-.4,1.33-.26,.48-.37,1.72-.32,3.71,1.54-.48,2.75-1.06,3.64-1.73,.41-.31,.79-.47,1.15-.47s.83,.08,1.4,.25c.6,.17,.9,.37,.9,.59s-.24,.4-.72,.52l-6.37,1.8c.12,3.5,.44,7.56,.97,12.17Zm-1.58,.65c-1.51-.46-2.89-.68-4.14-.68s-2.3,.23-3.31,.68c-1.01,.43-1.51,1.08-1.51,1.94,0,.43,.12,.8,.36,1.1,.24,.3,.57,.55,.99,.76,.42,.2,.89,.35,1.42,.45,.53,.1,1.08,.14,1.66,.14,1.15,0,2.18-.4,3.1-1.19,.94-.84,1.42-1.91,1.44-3.2Z"/><path class="cls-1" d="M154.64,229.21c1.75,.67,3.1,1.25,4.03,1.75,.94,.49,1.67,1.04,2.21,1.64,.54,.6,.88,1.04,1.01,1.33,.13,.29,.2,.67,.2,1.15s-.13,.97-.38,1.46c-.25,.49-.55,.74-.9,.74s-.62-.09-.83-.27c-.2-.18-.47-.63-.81-1.35-.79-1.78-2.46-3.72-5-5.83l.47-.61Z"/><path class="cls-1" d="M201.11,227.2c1.32-.89,2.8-1.6,4.43-2.12,1.7-.55,3.23-.83,4.57-.83,2.26,0,4.03,.65,5.33,1.96,1.3,1.31,1.94,3.08,1.94,5.31s-.83,3.97-2.48,5.29c-1.63,1.34-3.58,2.02-5.83,2.02-.72,0-1.35-.07-1.89-.2-.54-.13-.99-.3-1.35-.5-.36-.2-.64-.42-.83-.65-.19-.23-.29-.45-.29-.67s.08-.32,.25-.32,.32,.04,.47,.11c1.03,.55,2.11,.83,3.24,.83,1.78,0,3.32-.6,4.64-1.8,1.3-1.18,1.94-2.82,1.94-4.93,0-1.58-.46-2.83-1.37-3.74-.91-.91-2.12-1.37-3.64-1.37s-3.01,.26-4.64,.77c-1.63,.52-3.13,1.25-4.5,2.21,0,2.54,0,4.5,.02,5.87,.01,1.37,.03,2.15,.05,2.34,.07,.41,.11,.89,.11,1.44,0,.6-.12,1.15-.36,1.66-.24,.53-.53,.79-.86,.79s-.54-.14-.61-.43c-.34-1.08-.68-1.84-1.04-2.27-.41-.43-1.06-1.04-1.94-1.84-.26-.26-.4-.46-.4-.58,0-.22,.12-.32,.36-.32s.47,.08,.68,.25c1.03,.82,1.69,1.22,1.98,1.22,.31,0,.44-.28,.4-.83v-.97c0-.7,.04-2.38,.11-5.04-3.72,3.29-6.26,5.69-7.63,7.2-.14,.17-.34,.25-.58,.25-.41,0-.61-.19-.61-.58,0-.41,.16-1,.47-1.76,.31-.77,.78-1.25,1.4-1.44,.31-.1,.65-.25,1.03-.45,.37-.2,.79-.46,1.24-.77,.46-.34,1.07-.82,1.84-1.46,.77-.64,1.73-1.46,2.88-2.47l.25-6.88c-1.66,.36-3.14,.62-4.45,.77-1.31,.16-2.29,.23-2.93,.23s-1.12-.26-1.48-.79c-.34-.55-.5-.91-.5-1.08,0-.29,.13-.43,.4-.43,.14,0,.31,.06,.5,.18,.58,.43,1.56,.65,2.95,.65s3.25-.31,5.58-.94c.07-1.58,.11-2.86,.11-3.82,0-.5-.02-.92-.05-1.24-.04-.32-.11-.61-.22-.86-.11-.25-.25-.47-.41-.65-.17-.18-.4-.38-.68-.59-.26-.19-.4-.41-.4-.65s.22-.36,.65-.36c.46,0,1.12,.22,1.98,.65,.89,.38,1.33,.96,1.33,1.73,0,.17-.06,.43-.18,.79-.1,.24-.29,1.76-.58,4.57,.5-.14,.96-.28,1.37-.41,.41-.13,.79-.28,1.13-.45,.35-.17,.67-.35,.97-.54,.3-.19,.62-.43,.95-.72,.46-.43,.86-.7,1.22-.79,.36-.1,.67-.11,.94-.04,.26,.07,.47,.19,.61,.34,.14,.16,.24,.28,.29,.38,0,.38-.63,.93-1.89,1.64-1.26,.71-3.16,1.4-5.71,2.07-.1,1.22-.17,2.33-.22,3.33-.05,1-.07,1.9-.07,2.72Zm11.48-11.2c.82,0,1.78,.24,2.88,.72,1.08,.46,1.9,1.03,2.47,1.73,.56,.7,.85,1.36,.85,1.98,0,.26-.11,.5-.32,.72s-.43,.32-.65,.32c-.19,0-.41-.12-.65-.36-.24-.24-.6-.36-1.08-.36s-.93,.06-1.35,.18c-.42,.12-.7,.18-.85,.18-.26,0-.27-.14-.02-.41,.25-.28,.8-.65,1.64-1.13,.24-.1,.36-.32,.36-.68,0-.34-.41-.72-1.22-1.15-.74-.41-1.6-.71-2.56-.9-.14-.02-.26-.08-.36-.18-.1-.1-.13-.19-.11-.29,.02-.1,.11-.18,.25-.25,.14-.07,.38-.11,.72-.11Z"/><path class="cls-1" d="M242.26,226.8c3.7,1.94,6.49,3.24,8.37,3.89,1.88,.65,4.28,1.16,7.18,1.55,.6,.07,.9,.22,.9,.43,0,.12-.1,.23-.31,.34-.2,.11-1.12,.32-2.75,.65-1.63,.32-2.76,.49-3.38,.49s-1.13-.05-1.53-.16-.86-.35-1.39-.74c-3.58-2.59-6.24-4.42-7.99-5.47-2.28,2.09-4.38,3.72-6.3,4.9l1.12,.65c1.27-.02,2.74-.16,4.39-.41,1.66-.25,2.66-.44,3.01-.58,.35-.13,.59-.2,.74-.2,.41,0,1.19,.35,2.36,1.04,1.16,.7,1.75,1.16,1.75,1.39s-.12,.46-.36,.7c-1.27,1.18-1.91,1.97-1.91,2.38,0,.24,.17,.5,.5,.79,.22,.19,.32,.4,.32,.61s-.28,.38-.83,.5c-.55,.12-3.61,.26-9.18,.43-.1,.74-.19,1.24-.29,1.48-.1,.24-.26,.36-.49,.36s-.46-.21-.7-.63c-.24-.42-.36-.89-.36-1.42,0-3.14-.35-5.32-1.04-6.52-1.73,.98-3.38,1.74-4.97,2.27-1.58,.53-2.76,.79-3.53,.79-.19,0-.29-.05-.29-.16s.23-.26,.68-.45c5.45-2.26,10.07-5.23,13.86-8.93-1.13-.67-2.42-1.39-3.89-2.16-1.08,.89-1.94,1.51-2.59,1.85-.65,.35-1.05,.52-1.21,.52s-.23-.07-.23-.22,.19-.37,.58-.68c1.63-1.34,2.86-2.6,3.69-3.76,.83-1.16,1.24-2.17,1.24-3.01,0-.22-.02-.4-.07-.54-.05-.14-.07-.26-.07-.36,0-.31,.17-.47,.5-.47s.85,.2,1.53,.61c.68,.41,1.03,.72,1.03,.94,0,.12-.23,.44-.68,.97-.46,.53-.78,.91-.97,1.15,.7,.02,1.53-.09,2.5-.34,.97-.25,1.67-.51,2.11-.77s.77-.4,1.01-.4,.71,.25,1.42,.74c.71,.49,1.06,.87,1.06,1.13s-.22,.53-.65,.79c-.43,.26-.9,.7-1.4,1.31-.5,.61-1.33,1.52-2.48,2.72Zm-9.5-10.33c.98,0,3.72-.27,8.21-.81s7.03-.89,7.63-1.04c.6-.16,.98-.23,1.15-.23,.48,0,1.24,.41,2.29,1.24,1.04,.83,1.57,1.48,1.57,1.96s-.31,.73-.94,.76c-1.58,.05-2.89,.32-3.92,.83-.31,.14-.54,.22-.68,.22s-.22-.06-.22-.18,.07-.29,.22-.5c.72-1.15,1.08-1.88,1.08-2.2s-.25-.47-.74-.47-2.02,.13-4.59,.38c-2.57,.25-4.72,.52-6.46,.81-1.74,.29-2.89,.43-3.44,.43s-.95-.01-1.19-.04c-.22,.7-.54,1.48-.97,2.36s-.77,1.43-1.01,1.67c-.24,.24-.47,.36-.68,.36-.55,0-.83-.58-.83-1.73,0-.77,.22-1.4,.65-1.91,.19-.24,.43-.63,.72-1.17,.29-.54,.52-1.06,.7-1.57,.18-.5,.4-.76,.65-.76s.52,.53,.81,1.58Zm4.18,22.43c3.5-.31,5.52-.57,6.05-.77,.53-.2,.94-.77,1.24-1.69,.3-.92,.45-1.6,.45-2.03s-.32-.65-.97-.65c-.89,0-3.25,.23-7.09,.68l.32,4.46Zm3.67-12.96c.82-.91,1.43-1.7,1.85-2.36,.42-.66,.63-1.06,.63-1.21,0-.34-.24-.44-.72-.32-1.3,.34-2.25,.5-2.86,.5s-1.07-.07-1.39-.22c-.48,.6-.94,1.1-1.37,1.51,1.42,.79,2.7,1.49,3.85,2.09Zm2.45-12.82c0,.46-.12,.82-.36,1.1-.24,.28-.55,.41-.92,.41s-.7-.17-.99-.5c-.29-.34-.73-.92-1.33-1.75-.6-.83-.9-1.35-.9-1.57s.22-.32,.65-.32c1.13,0,2.05,.24,2.77,.72,.72,.48,1.08,1.12,1.08,1.91Z"/><path class="cls-1" d="M267.39,220.61c.07-4.27-.22-6.8-.86-7.6-.31-.34-.47-.62-.47-.85s.2-.34,.61-.34c.43,0,1.04,.16,1.84,.47,.84,.29,1.26,.7,1.26,1.22,0,.14-.04,.34-.11,.58-.19,.6-.35,1.4-.49,2.41-.13,1.01-.25,2.23-.34,3.67,1.15-.31,1.9-.47,2.23-.47s.62,.09,.86,.27c.24,.18,.36,.35,.36,.52,0,.41-.54,.73-1.62,.97l-1.94,.47-.11,3.67c1.49-.02,2.44,.18,2.84,.61,.22,.22,.37,.45,.47,.7,.1,.25,.14,.48,.14,.68s-.05,.38-.16,.52c-.11,.14-.27,.22-.49,.22-.55,0-1.49-.7-2.81-2.09-.02,3.05-.02,5.88,0,8.5,.02,1.3,.01,2.37-.04,3.22-.05,.85-.13,1.48-.25,1.89-.22,.84-.47,1.26-.76,1.26-.31,0-.62-.32-.94-.97-.31-.62-.47-1.23-.47-1.82s.06-1.04,.18-1.35c.31-.91,.52-2.21,.61-3.89,.07-.86,.14-1.93,.2-3.2,.06-1.27,.11-2.76,.16-4.46-1.32,2.74-2.74,4.85-4.25,6.34-1.56,1.49-2.52,2.23-2.88,2.23-.12,0-.18-.07-.18-.2s.1-.31,.29-.52c.62-.7,1.24-1.46,1.85-2.3,.61-.84,1.19-1.73,1.75-2.66,.55-.94,1.07-1.91,1.57-2.92,.49-1.01,.92-2.02,1.28-3.02-.84,.17-1.54,.29-2.11,.36-.56,.07-1.01,.11-1.35,.11-.65,0-1.19-.07-1.62-.22-.89-.34-.88-.56,.04-.68,1.08-.14,2.98-.59,5.69-1.33Zm6.59,16.78c-.46,.86-.83,1.3-1.12,1.31-.29,.01-.64-.61-1.04-1.85-.31-.91-.41-1.46-.31-1.64,.11-.18,.44-.23,.99-.16,.24,.05,.51,.01,.81-.11,.3-.12,.65-.32,1.06-.59,.41-.28,.88-.64,1.42-1.1,.54-.46,1.17-1.01,1.89-1.66,.36-.31,.67-.55,.92-.72,.25-.17,.41-.23,.49-.18,.07,.05,.04,.2-.09,.47s-.4,.66-.81,1.19c-1.13,1.27-2.06,2.33-2.81,3.17-.74,.84-1.21,1.46-1.4,1.87Zm5.58-16.85l-.07-1.98c-.6,.1-1.15,.16-1.64,.2-.49,.04-.88,.05-1.17,.05-.58,0-1.04-.06-1.4-.18-.36-.12-.54-.26-.54-.43,0-.22,.28-.35,.83-.4,.29-.02,.73-.08,1.31-.16,.59-.08,1.33-.2,2.21-.34,1.8-.31,3.23-.61,4.28-.88,1.06-.28,1.88-.41,2.48-.41s1.12,.07,1.48,.22,.54,.31,.54,.5c0,.17-.3,.34-.9,.5-.29,.1-.9,.23-1.84,.4-.94,.17-2.22,.38-3.85,.65,.24,.19,.38,.32,.41,.4,.04,.07,0,.22-.13,.43-.05,.12-.09,.24-.13,.36-.04,.12-.07,.32-.09,.61,.46-.14,.86-.25,1.22-.32,.36-.07,.73-.11,1.12-.11,1.1,0,1.66,.18,1.66,.54,0,.22-.2,.4-.61,.54-.19,.05-.55,.14-1.08,.27-.53,.13-1.3,.29-2.3,.49l-.07,2.16,2.05-.43c1.39-.31,2.56-.47,3.49-.47,.89,0,1.58,.17,2.09,.5,.5,.34,.76,.61,.76,.83,0,.31-.43,.47-1.3,.47l-1.62-.07c-.48,0-.93,0-1.35,.02-.42,.01-.84,.04-1.26,.07s-.86,.08-1.31,.13c-.46,.05-.97,.11-1.55,.18-.02,.38-.04,.89-.05,1.53-.01,.64,0,1.48,.05,2.54,.31,.31,.59,.57,.83,.77,.24,.2,.44,.37,.61,.49,.91-.6,1.67-1.2,2.27-1.8s.94-1.03,1.01-1.3c.17-.62,.37-.94,.59-.95,.23-.01,.67,.31,1.31,.95,.55,.55,.8,.97,.76,1.24-.05,.28-.31,.46-.79,.56-.31,.05-.81,.19-1.49,.43-.68,.24-1.71,.71-3.08,1.4,.89,.72,1.72,1.34,2.48,1.87,.77,.53,1.48,.96,2.12,1.3,.67,.31,1.4,.6,2.2,.86,.79,.26,1.67,.5,2.63,.72,.26,.05,.47,.16,.61,.32,.14,.17,.08,.32-.18,.47-.17,.1-.82,.19-1.94,.29-.58,.05-1.08,.09-1.51,.13-.43,.04-.79,.05-1.08,.05-1.1,0-1.87-.23-2.3-.68l-5.04-5.87,.11,5.36c.02,.91-.03,1.75-.16,2.5s-.34,1.37-.63,1.85c-.41,.74-.77,1.13-1.1,1.15-.32,.02-.61-.18-.85-.61-.19-.34-.45-.73-.77-1.17-.32-.44-.76-.94-1.31-1.49-.34-.34-.47-.58-.41-.72,.06-.14,.43-.07,1.1,.22,.46,.19,.87,.29,1.24,.29s.63-.23,.77-.68c.19-.43,.3-1.42,.32-2.95,.07-1.58,.11-3.17,.11-4.75s-.02-2.96-.07-4.14c-1.75,.24-3.14,.46-4.16,.65-1.02,.19-1.71,.29-2.07,.29-.26,0-.53-.05-.81-.14-.28-.1-.48-.21-.61-.34-.13-.13-.15-.26-.05-.4,.1-.13,.38-.22,.86-.27,1.27-.12,2.48-.25,3.64-.4,1.15-.14,2.21-.31,3.17-.5v-2.12c-1.73,.29-2.88,.3-3.46,.04-.29-.14-.43-.31-.43-.49s.26-.29,.79-.34c.6-.07,1.17-.14,1.71-.22,.54-.07,.99-.16,1.35-.25Zm-3.71,9.61c-.34-.19-.69-.43-1.06-.72-.37-.29-.77-.66-1.21-1.12-.36-.41-.53-.65-.52-.72,.01-.07,.34-.08,.99-.04,2.11,.17,3.24,.76,3.38,1.76,.14,.79,.07,1.21-.23,1.26-.3,.05-.75-.1-1.35-.43Zm.5-17.24c.55,0,1.19,.18,1.91,.54,.74,.36,1.12,.95,1.12,1.76,0,.58-.24,.86-.72,.86s-1.04-.4-1.69-1.19c-.65-.79-.97-1.36-.97-1.69,0-.19,.12-.29,.36-.29Zm10.66,0c0,.24-.17,.42-.5,.54-.34,.12-1.67,.88-4,2.27-.22,.12-.42,.2-.61,.25-.19,.05-.32,.05-.4,0-.07-.05-.05-.16,.05-.34,.11-.18,.34-.44,.7-.77,.58-.5,1.02-1,1.33-1.48,.17-.26,.28-.48,.34-.65,.06-.17,.09-.31,.09-.41s-.01-.19-.04-.23c-.02-.05-.04-.1-.04-.14,0-.31,.17-.47,.5-.47,.29,0,.79,.17,1.51,.5,.7,.34,1.04,.65,1.04,.94Z"/><path class="cls-1" d="M313.29,215.5c.41,.77,.61,1.86,.61,3.28,0,2.45-.54,5.23-1.62,8.35-1.08,3.14-2.41,5.62-4,7.42-1.58,1.8-3.07,2.7-4.46,2.7s-2.6-.84-3.64-2.52c-1.03-1.68-1.55-3.53-1.55-5.54,0-2.45,.68-4.88,2.05-7.31,.7-1.22,1.49-2.3,2.39-3.24s1.93-1.74,3.08-2.41c2.28-1.34,4.72-2.02,7.31-2.02s4.98,.52,7.02,1.55c2.06,1.01,3.72,2.5,4.97,4.46,1.25,1.97,1.87,4.1,1.87,6.41s-.78,4.38-2.34,6.37c-1.56,1.99-3.6,3.43-6.12,4.32-2.54,.91-4.87,1.37-6.98,1.37-.29,0-.43-.13-.43-.4s.23-.43,.68-.5c4.22-.53,7.5-1.92,9.83-4.18,2.3-2.26,3.46-4.79,3.46-7.6,0-1.99-.55-3.83-1.66-5.51-1.1-1.7-2.6-2.96-4.48-3.78-1.88-.82-3.88-1.22-5.99-1.22Zm-.65,0c-3.77,.14-6.76,1.54-8.96,4.18-2.18,2.62-3.28,5.72-3.28,9.32,0,1.01,.07,1.94,.22,2.79,.14,.85,.36,1.58,.65,2.18,.29,.6,.64,1.07,1.06,1.4,.42,.34,.91,.5,1.46,.5,1.39,0,2.75-1.06,4.07-3.17,1.39-2.16,2.53-4.82,3.42-7.99,.91-3.24,1.37-6.31,1.37-9.22Z"/><path class="cls-1" d="M351.13,227.23c2.33,1.2,4.42,2.5,6.26,3.89,1.9,1.42,3.12,2.51,3.67,3.28,.58,.77,.86,1.43,.86,1.98-.02,.36-.1,.67-.23,.94-.13,.26-.3,.44-.5,.54-.21,.1-.41,.1-.63,0-.22-.1-.42-.34-.61-.72-.89-1.58-2.2-3.2-3.92-4.86-1.75-1.7-3.61-3.1-5.58-4.18-3.07,3.67-6.06,6.34-8.96,7.99-2.93,1.63-4.78,2.45-5.54,2.45-.22,0-.32-.07-.32-.22,0-.22,.35-.53,1.04-.94,2.69-1.44,4.92-2.88,6.7-4.32,.89-.74,1.76-1.55,2.61-2.43,.85-.88,1.69-1.84,2.5-2.9,.84-1.08,1.6-2.14,2.27-3.17,.67-1.03,1.27-2.08,1.8-3.13,1.08-2.09,1.62-3.36,1.62-3.82,0-.26-.14-.4-.43-.4-.31,0-1.97,.42-4.97,1.26-1.49,.41-2.64,.73-3.46,.97-.82,.24-1.31,.4-1.48,.47-.34,.14-.62,.22-.86,.22-.53,0-1.07-.38-1.62-1.15-.55-.77-.83-1.27-.83-1.51s.1-.36,.29-.36,.37,.08,.54,.25c.46,.41,1.12,.61,1.98,.61,.22,0,.45-.01,.7-.04,.25-.02,.52-.06,.81-.11l3.89-.86c1.03-.24,1.9-.44,2.59-.61,.7-.17,1.25-.31,1.66-.43,.79-.26,1.34-.49,1.66-.68,.31-.24,.58-.36,.79-.36s.67,.25,1.37,.76c.7,.5,1.04,.88,1.04,1.13s-.18,.49-.54,.7c-.34,.19-.59,.39-.77,.59-.18,.2-.4,.58-.67,1.13-1.63,3.36-3.2,6.04-4.72,8.03Z"/><path class="cls-1" d="M383.42,217.12c.94-.02,1.87-.07,2.81-.14,.94-.07,1.86-.19,2.77-.36,1.9-.34,3.02-.61,3.38-.83,.41-.26,.74-.4,1.01-.4,.24,0,.73,.28,1.48,.83,.74,.53,1.12,.97,1.12,1.33,0,.34-.34,.66-1.01,.97-.65,.31-1.32,1.15-2.02,2.52-1.42,2.88-2.6,4.99-3.56,6.34-1.49,2.11-3.28,4.12-5.38,6.03-2.1,1.91-4.64,3.61-7.61,5.09-1.87,.91-2.95,1.37-3.24,1.37-.34,0-.5-.13-.5-.4s.28-.54,.83-.83c3.19-1.63,6.06-3.61,8.6-5.94,2.57-2.35,4.85-5.23,6.84-8.64,1.99-3.43,2.99-5.38,2.99-5.83,0-.26-.23-.4-.68-.4-.24,0-.69,.05-1.35,.14-.66,.1-1.55,.24-2.68,.43-1.01,.17-1.86,.25-2.56,.25s-1.32-.2-1.87-.61c-.77,1.13-1.6,2.21-2.5,3.24-.9,1.03-1.89,2.05-2.97,3.06-2.14,1.94-3.49,2.92-4.07,2.92-.24,0-.36-.11-.36-.34s.17-.49,.5-.77c1.25-1.08,2.39-2.19,3.44-3.33,1.04-1.14,2.01-2.33,2.9-3.58,1.78-2.54,2.66-4.19,2.66-4.93,0-.31-.08-.58-.25-.79-.17-.22-.25-.41-.25-.58,0-.31,.19-.47,.56-.47s.93,.28,1.67,.83c.77,.55,1.15,1.01,1.15,1.37,0,.17-.05,.32-.14,.47-.1,.14-.22,.3-.38,.47-.16,.17-.35,.37-.58,.61-.23,.24-.47,.54-.74,.9Z"/><path class="cls-1" d="M411.93,217.48c.7,0,1.44-.02,2.23-.07,.79-.05,1.62-.12,2.48-.22l7.13-.68c1.51-.12,2.74-.24,3.69-.36s1.65-.24,2.11-.36c.31-.07,.55-.11,.72-.11,.46,0,1,.29,1.62,.86,.6,.55,.9,.94,.9,1.17s-.1,.41-.29,.56c-.41,.34-.79,1.08-1.15,2.23-.34,1.08-1.24,5.27-2.7,12.56,.55,.14,1.03,.35,1.42,.61,.4,.26,.59,.52,.59,.76,0,.31-.34,.47-1.01,.47-.34,0-.7-.04-1.08-.11-1.15-.22-2.96-.32-5.44-.32s-5.57,.13-9.29,.4c.1,1.39-.1,2.09-.58,2.09-.14,0-.3-.08-.47-.23s-.36-.5-.58-1.03c-.12-.26-.21-.5-.27-.7-.06-.2-.1-.38-.13-.52-.02-.17-.04-.4-.04-.7v-1.13c0-1.1-.05-2.33-.14-3.67-.1-1.34-.24-2.83-.43-4.46-.19-1.63-.37-2.94-.52-3.92-.16-.98-.29-1.66-.41-2.02-.22-.72-.53-1.25-.94-1.58-.38-.34-.58-.6-.58-.79s.12-.29,.36-.29c.22,0,.67,.18,1.37,.54,.67,.36,1.14,.71,1.4,1.04Zm15.12,15.44c.67-3.17,1.25-6.26,1.73-9.29,.5-3.05,.76-4.75,.76-5.11s-.1-.61-.29-.76c-.19-.14-.64-.22-1.33-.22-.34,0-.94,.03-1.82,.09-.88,.06-2.03,.15-3.47,.27-1.44,.12-2.64,.22-3.6,.31-.96,.08-1.72,.17-2.27,.27-.55,.1-1.03,.16-1.44,.2-.41,.04-.77,.05-1.08,.05-.6,0-1.27-.25-2.02-.76,.05,.12,.08,.23,.09,.32,.01,.1,.03,.19,.05,.29l.47,5.69c.17,1.82,.33,3.49,.49,5,.16,1.51,.31,2.89,.45,4.14,1.01-.02,2.09-.06,3.26-.11,1.16-.05,2.42-.11,3.76-.18,2.69-.17,4.78-.24,6.26-.22Z"/><path class="cls-1" d="M467.12,225.29c-1.15,0-2.66,.05-4.52,.14-1.86,.1-4.1,.24-6.71,.43-2.62,.19-4.7,.37-6.26,.54-1.56,.17-2.62,.34-3.17,.5-.43,.12-.77,.18-1.01,.18-.6,0-1.2-.32-1.8-.97-.62-.67-.94-1.14-.94-1.4,0-.31,.12-.47,.36-.47s.47,.11,.68,.32c.43,.36,1.19,.54,2.27,.54,.19,0,.41,0,.65-.02,.24-.01,.49-.03,.76-.05l7.92-.76c2.11-.19,3.8-.34,5.08-.43,1.27-.1,2.15-.17,2.63-.22,.48-.02,.95-.06,1.4-.11,.46-.05,.87-.09,1.24-.13,.37-.04,.68-.07,.92-.11,.24-.04,.4-.07,.47-.09,.41-.14,.85-.22,1.33-.22s1.06,.24,1.73,.72c.7,.48,1.04,.91,1.04,1.28s-.43,.56-1.3,.56c-.48,0-.93-.04-1.35-.13s-.89-.13-1.42-.13Z"/><path class="cls-1" d="M488,216.79c0,.07-.02,.2-.07,.4-.24,.79-.36,1.62-.36,2.48-.07,4.51-.5,7.9-1.3,10.15-.82,2.33-2.16,4.32-4.03,5.98-1.9,1.7-3.06,2.56-3.49,2.56-.19,0-.29-.08-.29-.25s.14-.37,.43-.61c2.66-2.18,4.46-4.49,5.4-6.91,.96-2.38,1.44-6.17,1.44-11.38,0-.55,0-1-.02-1.33-.01-.34-.03-.59-.05-.76-.02-.29-.16-.59-.4-.9-.19-.29-.45-.52-.77-.7-.32-.18-.49-.38-.49-.59,0-.29,.2-.43,.61-.43s1.07,.25,1.98,.76c.94,.48,1.4,1,1.4,1.55Zm21.35,4.93c0,.6-.97,2.21-2.92,4.82-1.9,2.62-4.22,4.96-6.98,7.02-2.71,2.06-4.36,3.1-4.93,3.1-.31,0-.7-.29-1.15-.86-.22-.29-.37-.53-.47-.74-.1-.2-.16-.38-.18-.52-.02-.14-.02-.27,0-.38,.02-.11,.04-.22,.04-.34,.05-.34,.08-.77,.11-1.3,.02-.53,.04-1.18,.04-1.94s0-1.84,.02-3.2c.01-1.37,.03-3.06,.05-5.08l.04-5c0-.77-.1-1.28-.29-1.55-.19-.31-.5-.6-.94-.86-.46-.31-.68-.59-.68-.83,0-.26,.2-.4,.61-.4,.38,0,1.09,.28,2.12,.83,1.03,.53,1.55,1.09,1.55,1.69,0,.12-.04,.28-.11,.49-.07,.2-.16,.57-.25,1.1-.05,.26-.1,.98-.14,2.16-.05,1.18-.1,2.84-.14,5-.07,4.3-.11,6.85-.11,7.67s.22,1.22,.65,1.22c.6,0,2.18-.96,4.75-2.88,2.59-1.94,5.35-4.99,8.28-9.14,.24-.34,.47-.5,.7-.5s.34,.14,.34,.43Z"/><path class="cls-1" d="M522.09,227.88c0,.12-.04,.29-.11,.5-.53,1.34-.97,2.5-1.31,3.46-.35,.96-.62,1.75-.81,2.38-.19,.62-.35,1.3-.49,2.02-.13,.72-.25,1.5-.34,2.34-.12,.77-.38,1.15-.79,1.15-.29,0-.52-.16-.68-.47-.19-.29-.41-1.22-.65-2.81-.12-.82-.22-1.6-.29-2.36s-.11-1.49-.11-2.21,.04-1.51,.11-2.38c.07-.86,.19-1.81,.36-2.84,.17-1.03,.39-2.24,.67-3.64,.28-1.39,.62-2.99,1.03-4.79,.1-.36,.14-.77,.14-1.22,0-1.1-.24-1.99-.72-2.66-.07-.1-.11-.2-.11-.32s.08-.18,.25-.18c.22,0,.71,.37,1.48,1.12,.79,.77,1.19,1.38,1.19,1.84,0,.5-.18,1.16-.54,1.98-.7,1.73-1.32,3.94-1.87,6.62-.5,2.64-.76,4.91-.76,6.8s.13,2.84,.4,2.84c.1,0,.19-.07,.27-.2,.08-.13,.19-.36,.31-.68,.12-.32,.28-.76,.49-1.3,.2-.54,.49-1.21,.85-2,.67-1.54,1.13-2.47,1.37-2.81,.24-.29,.41-.43,.52-.43s.16,.08,.16,.25Zm20.95,9c0,.34-.17,.58-.5,.72-.34,.14-1.12,.28-2.34,.4-1.22,.12-2.7,.18-4.43,.18s-3.14-.14-4.25-.41c-1.1-.28-2.09-.7-2.95-1.28-1.78-1.22-2.66-2.84-2.66-4.86,0-.22,.01-.44,.04-.67,.02-.23,.06-.46,.11-.7,.12-.5,.22-.8,.31-.9,.08-.1,.16-.14,.23-.14,.22,0,.32,.17,.32,.5l-.07,.83c0,1.13,.56,2.4,1.69,3.82,1.13,1.42,3.3,2.12,6.52,2.12,1.01,0,1.92-.07,2.74-.22,.82-.14,1.37-.31,1.66-.5,.34-.19,.76-.29,1.26-.29,.26,0,.53,.05,.81,.14,.28,.1,.53,.21,.76,.34,.23,.13,.41,.28,.56,.45,.14,.17,.22,.32,.22,.47Zm-3.74-21.35c.36,0,.82,.14,1.37,.43,.58,.29,.86,.6,.86,.94,0,.41-.26,.62-.79,.65-1.18,.1-2.27,.42-3.28,.97-.98,.55-2.71,1.74-5.18,3.56-.26,.19-.47,.29-.61,.29s-.22-.05-.22-.14c0-.07,.06-.2,.18-.4,.07-.1,.22-.26,.43-.49,.22-.23,.52-.51,.9-.85,.38-.36,.76-.7,1.12-1.03,.36-.32,.72-.62,1.08-.88,.17-.1,.25-.2,.25-.32s-.17-.16-.5-.11c-.55,.1-1.04,.17-1.48,.23-.43,.06-.8,.1-1.12,.13-.29,.02-.62,.04-1.01,.04h-1.3c-.96,0-1.64-.08-2.05-.25-.46-.19-.88-.52-1.26-.97-.41-.48-.61-.8-.61-.97,0-.24,.13-.36,.4-.36,.05,0,.12,.02,.22,.07,.58,.48,1.19,.78,1.85,.9,.66,.12,1.45,.18,2.36,.18s2.23-.14,3.96-.43c1.73-.31,2.92-.64,3.56-.97,.31-.14,.6-.22,.86-.22Z"/><path class="cls-1" d="M565.79,232.42c5.54,1.13,9.01,2.21,10.4,3.24,1.42,1.06,2.12,1.82,2.12,2.3,0,.26-.16,.4-.47,.4-.53,0-1.34-.35-2.45-1.04-1.08-.7-2.45-1.37-4.1-2.02-1.66-.65-3.42-1.18-5.29-1.58,.1,.55,.17,1.06,.22,1.51,.05,.46,.07,.86,.07,1.22,0,1.66-.59,2.77-1.76,3.35-1.13,.6-2.45,.9-3.96,.9-1.82,0-3.43-.35-4.82-1.04-1.37-.67-2.05-1.67-2.05-2.99,0-.86,.32-1.68,.95-2.45,.64-.77,1.64-1.33,3.01-1.69,1.37-.38,2.62-.58,3.74-.58s2.06,.06,2.81,.18c-.22-1.97-.32-4.19-.32-6.66s.07-4.63,.22-6.41l.32-4.25c0-1.03-.48-1.91-1.44-2.63-.22-.17-.32-.32-.32-.47s.12-.22,.36-.22c.58,0,1.28,.24,2.12,.72,.86,.48,1.3,1.15,1.3,2.02,0,.46-.12,.92-.36,1.4-.24,.48-.4,2.29-.47,5.44,.43,.17,.99,.26,1.67,.29,.68,.02,1.39-.02,2.12-.13,.73-.11,1.44-.26,2.12-.47,.68-.2,1.23-.45,1.64-.74,.53-.36,1.04-.54,1.55-.54,.24,0,.5,.04,.77,.11,.28,.07,.53,.17,.76,.29,.23,.12,.41,.25,.56,.38,.14,.13,.22,.26,.22,.38,0,.38-.53,.65-1.58,.79-.53,.05-1.12,.13-1.76,.25-.65,.12-1.38,.26-2.2,.43-.82,.17-1.49,.29-2.03,.38s-.97,.13-1.28,.13c-.79,0-1.66-.23-2.59-.68-.07,4.51,0,8,.22,10.48Zm-1.4,1.01c-.5-.1-1.05-.17-1.64-.22-.59-.05-1.22-.07-1.89-.07-1.32,0-2.64,.28-3.96,.83-1.3,.55-1.94,1.33-1.94,2.34,0,.53,.16,1.07,.47,1.62,.31,.55,.94,.92,1.87,1.12,.48,.1,.94,.17,1.37,.22,.43,.05,.85,.07,1.26,.07,1.54,0,2.69-.28,3.47-.83,.78-.55,1.17-1.55,1.17-2.99,0-.29-.02-.61-.05-.95-.04-.35-.08-.73-.13-1.13Z"/><path class="cls-1" d="M611.91,226.12c0,2.83-1.32,4.99-3.96,6.48-2.62,1.46-5.88,2.2-9.79,2.2-.65,0-1.03-.03-1.15-.09-.12-.06-.18-.16-.18-.31s.05-.26,.14-.36c.1-.1,.19-.14,.29-.14,2.47-.1,4.7-.49,6.7-1.19,1.97-.67,3.44-1.54,4.43-2.59,.96-1.03,1.44-2.36,1.44-4s-.53-2.97-1.58-3.94c-1.06-.97-2.56-1.46-4.5-1.46-1.06,0-2.99,.42-5.8,1.26-2.71,.82-4.93,1.64-6.66,2.48-.55,.29-1.03,.43-1.44,.43s-.83-.32-1.26-.97-.65-1.12-.65-1.4,.12-.43,.36-.43c.12,0,.24,.06,.36,.18,.41,.38,.87,.58,1.39,.58s.97-.07,1.35-.22c1.73-.62,3.97-1.27,6.73-1.94,2.83-.72,4.94-1.08,6.34-1.08,2.28,0,4.08,.62,5.4,1.87,1.37,1.22,2.05,2.77,2.05,4.64Z"/><path class="cls-1" d="M647.59,213.8c.36,0,.85,.18,1.48,.54,.62,.36,.94,.71,.94,1.04,0,.29-.07,.49-.22,.61-.14,.12-.34,.2-.58,.23-.24,.04-.51,.04-.81,.02-.3-.02-.59-.04-.88-.04-1.73,0-3.28,.34-4.64,1.01-1.44,.7-3.11,1.8-5,3.31-1.94,1.51-3.4,3.1-4.37,4.75-.97,1.66-1.46,3.28-1.46,4.86,0,1.9,.64,3.48,1.91,4.75,1.27,1.25,2.94,1.87,5,1.87,.29,0,.59-.02,.92-.05s.64-.05,.95-.05c.46,0,.9,.05,1.33,.16,.43,.11,.82,.25,1.15,.41,.34,.17,.6,.37,.79,.59,.19,.23,.29,.46,.29,.7,0,.17-.06,.31-.18,.43-.1,.12-.41,.23-.94,.32-.53,.1-1.09,.14-1.69,.14-1.97,0-3.94-.42-5.9-1.26-1.9-.82-3.26-1.96-4.1-3.42-.79-1.46-1.19-2.96-1.19-4.5,0-2.4,.95-4.75,2.84-7.06,1.9-2.3,4.68-4.48,8.35-6.52,.31-.19,.47-.32,.47-.4s-.14-.11-.43-.11c-.48,0-1.36,.09-2.65,.27-1.28,.18-2.99,.44-5.13,.77-2.14,.34-3.84,.65-5.11,.94-1.27,.29-2.14,.53-2.59,.72-.34,.17-.65,.25-.94,.25-.5,0-1.14-.42-1.91-1.26-.77-.84-1.15-1.39-1.15-1.66,0-.29,.11-.43,.32-.43,.12,0,.34,.12,.65,.36,.36,.22,.73,.4,1.1,.56,.37,.16,.94,.23,1.71,.23s2.23-.18,4.39-.54c2.16-.36,5.16-.78,9-1.26,1.94-.24,3.49-.44,4.63-.61,1.14-.17,1.88-.3,2.21-.4,.72-.22,1.2-.32,1.44-.32Z"/><path class="cls-1" d="M663.96,234.29c.89,.17,2.07,.44,3.55,.83,1.48,.38,2.55,.65,3.22,.79-.53-1.37-.79-2.3-.79-2.81s.11-1.07,.32-1.69c.29-.86,.43-3.1,.43-6.7,0-2.33-.12-3.86-.36-4.61-.79,1.1-1.61,2.05-2.45,2.84s-1.38,1.19-1.62,1.19c-.1,0-.14-.05-.14-.16s.1-.27,.29-.49c1.03-1.37,2.09-3.13,3.17-5.29s1.62-3.62,1.62-4.39c0-.29-.05-.55-.14-.79-.1-.24-.14-.44-.14-.61s.13-.25,.38-.25,.78,.22,1.58,.67c.8,.44,1.21,.82,1.21,1.12s-.12,.55-.36,.76c-.24,.2-1.13,1.63-2.66,4.27,.5,.5,.81,1.18,.92,2.02,.11,.84,.16,2.44,.16,4.81s-.02,4.25-.07,5.67c1.2-.07,2.87-.28,5-.61l.14-2.81c-.89,.17-1.54,.25-1.96,.25s-.83-.04-1.24-.11c-.41-.07-.61-.22-.61-.45s.13-.35,.4-.38c.77-.1,1.94-.37,3.53-.83v-2.81c-.98,.22-1.71,.32-2.16,.32s-.84-.07-1.15-.22-.47-.27-.47-.38,.2-.21,.61-.31c1.01-.24,2.03-.53,3.06-.86-.1-1.37-.3-2.35-.61-2.95-.5,.1-.97,.14-1.4,.14s-.88-.04-1.35-.11c-.47-.07-.7-.17-.7-.31s.27-.25,.81-.36c.54-.11,1.81-.51,3.8-1.21s3.2-1.04,3.64-1.04,.74,.06,.92,.18c.18,.12,.27,.28,.27,.49s-.23,.44-.7,.7c-.47,.26-1.73,.66-3.8,1.19,.36,.19,.62,.35,.79,.49,.17,.13,.25,.28,.25,.43s-.04,.37-.11,.65c-.07,.28-.12,.64-.14,1.1,.79-.31,1.39-.47,1.8-.47s.71,.07,.9,.2c.19,.13,.29,.28,.29,.45,0,.29-.28,.55-.85,.77s-1.3,.49-2.21,.77v2.66c.74-.24,1.31-.36,1.71-.36s.72,.04,.97,.13,.38,.23,.38,.43-.23,.41-.7,.61c-.47,.2-1.27,.46-2.39,.77v2.88c1.78-.36,3.01-.54,3.71-.54s1.26,.16,1.69,.47,.65,.58,.65,.79c0,.34-.43,.52-1.3,.54-3.41,.07-6.13,.29-8.17,.65-.7,.12-1.27,.18-1.73,.18s-.97-.07-1.55-.22c-.14,1.66-.37,2.88-.68,3.67,4.08,.86,7.78,1.3,11.09,1.3,1.42,0,2.71-.05,3.89-.14l2.95-.29c.34,0,.5,.06,.5,.18s-.07,.23-.22,.32c-.14,.1-.85,.39-2.12,.88-1.27,.49-2.54,.95-3.82,1.37-1.27,.42-2.06,.67-2.38,.76-.31,.08-.67,.13-1.06,.13s-.93-.12-1.6-.36l-7.52-2.63c-2.23-.77-3.53-1.21-3.91-1.33-.37-.12-1.01-.26-1.91-.41-.9-.16-1.59-.23-2.07-.23s-.92,.08-1.33,.23c-.41,.16-1.02,.45-1.84,.88-.38,.22-.73,.32-1.04,.32s-.76-.18-1.33-.54-.86-.62-.86-.79,.15-.28,.45-.34c.3-.06,1.19-.29,2.68-.68s2.48-.57,2.99-.52c0-1.15-.32-2.17-.97-3.06-.41-.62-.61-1.32-.61-2.09s.07-1.39,.22-1.87c.14-.48,.22-.77,.22-.88s-.08-.16-.25-.16-.56,.13-1.17,.38c-.61,.25-1.16,.38-1.64,.38s-.86-.06-1.15-.18c-.29-.12-.43-.28-.43-.47s.26-.33,.79-.41c.53-.08,1.16-.29,1.91-.61,.74-.32,1.31-.67,1.69-1.03,.31-.29,.61-.43,.9-.43s.76,.17,1.42,.5c.66,.34,.99,.63,.99,.88s-.11,.49-.32,.7c-.98,.96-1.48,2.05-1.48,3.28,0,.48,.08,.91,.25,1.3,.55,1.22,.83,2.06,.83,2.52s-.05,.92-.14,1.4Zm.76-16.45c0,.91-.25,1.37-.76,1.37s-1.28-.57-2.34-1.71c-1.06-1.14-1.58-1.87-1.58-2.18,0-.12,.16-.18,.47-.18,1.25,0,2.26,.22,3.04,.65,.78,.43,1.17,1.12,1.17,2.05Zm15.19-3.35c0,.79-.28,1.19-.83,1.19-.24,0-.52-.16-.83-.47s-.79-.9-1.44-1.76c-.65-.86-.97-1.35-.97-1.46s.11-.16,.32-.16c.89,0,1.73,.22,2.54,.65,.8,.43,1.21,1.1,1.21,2.02Z"/><path class="cls-1" d="M700.54,226.37c-1.78,1.9-3.4,3.34-4.88,4.32-1.48,.98-2.48,1.48-3.01,1.48-.14,0-.22-.04-.22-.11,0-.14,.3-.46,.9-.94,.6-.48,1.3-1.11,2.11-1.89,.8-.78,1.61-1.61,2.43-2.48,.82-.88,1.51-1.69,2.07-2.45,.56-.76,1.04-1.47,1.44-2.14,.4-.67,.64-1.13,.72-1.39,.08-.25,.13-.53,.13-.85,0-.55,.18-.83,.54-.83s.82,.29,1.39,.86c.56,.58,.85,.97,.85,1.19s-.12,.41-.36,.58c-.62,.41-1.75,1.66-3.38,3.74,.84,.89,1.26,2,1.26,3.35l-.11,2.66c-.05,.84-.07,1.99-.07,3.46s-.13,2.63-.38,3.49c-.25,.86-.53,1.3-.83,1.3s-.58-.31-.83-.92c-.25-.61-.38-1.2-.38-1.76s.11-1.27,.32-2.11c.43-1.78,.65-3.43,.65-4.97s-.12-2.74-.36-3.6Zm5.15-12.46c0,.31-.26,.65-.79,1.03-.53,.37-1.38,1.15-2.56,2.32-2.26,2.16-3.79,3.44-4.61,3.83-.82,.4-1.38,.59-1.69,.59-.12,0-.18-.05-.18-.16s.2-.34,.61-.7c2.02-1.8,3.53-3.41,4.55-4.82,1.02-1.42,1.53-2.44,1.53-3.06l-.04-.54c0-.38,.16-.58,.47-.58s.84,.26,1.58,.77c.74,.52,1.12,.95,1.12,1.31Zm7.67,10.04c-2.06,.38-3.67,.79-4.82,1.22-.58,.19-1.07,.29-1.49,.29s-.9-.11-1.44-.32c-.54-.22-.81-.41-.81-.58s.23-.29,.68-.36c6.31-1.13,11.34-2.24,15.08-3.35,.38-.12,.83-.18,1.33-.18,.91,0,1.7,.17,2.38,.52,.67,.35,1.01,.67,1.01,.97s-.17,.53-.52,.68c-.35,.16-.81,.23-1.39,.23-2.66,0-5.58,.23-8.75,.68,.7,.43,1.21,.79,1.55,1.06,.34,.28,.5,.51,.5,.7s-.05,.4-.16,.61c-.11,.22-.16,.62-.16,1.22s.1,2.02,.31,4.25c.2,2.23,.31,3.82,.31,4.77s-.07,1.69-.22,2.21c-.14,.53-.39,1.11-.74,1.75-.35,.64-.63,1.06-.85,1.26-.22,.2-.46,.31-.72,.31s-.49-.17-.68-.5c-.43-.89-.86-1.57-1.28-2.03s-.89-.91-1.4-1.33c-.52-.42-.77-.7-.77-.83s.1-.2,.29-.2,.41,.04,.65,.11c1.08,.34,1.81,.5,2.18,.5s.64-.07,.81-.22,.29-.65,.38-1.51c.08-.86,.13-1.81,.13-2.84,0-2.38-.13-4.41-.4-6.1-.26-1.69-.59-2.69-.97-3.01Zm4.21-9c.53,0,.99,.08,1.39,.23,.4,.16,.59,.34,.59,.54s-.05,.38-.16,.52c-.11,.14-1.09,.48-2.93,1.01-1.85,.53-3.08,.83-3.69,.9-.61,.07-1.16,.11-1.64,.11s-.93-.07-1.35-.22c-.42-.14-.63-.31-.63-.5s.22-.32,.65-.4c1.01-.22,3.02-.85,6.05-1.91,.48-.19,1.06-.29,1.73-.29Z"/><path class="cls-1" d="M742.45,227.99c0,.17-.13,.48-.4,.94-.22,.38-.7,1.44-1.44,3.17-.36,.84-.66,1.55-.9,2.12-.24,.58-.42,1.03-.54,1.37-.22,.65-.32,1.09-.32,1.33,0,.26,.04,.49,.11,.68,.07,.19,.11,.38,.11,.58s-.08,.37-.23,.52c-.16,.16-.35,.23-.59,.23-.72,0-1.56-.47-2.52-1.4-.98-.91-1.84-2.45-2.56-4.61-.7-2.23-1.04-4.79-1.04-7.67,0-.96,.04-1.91,.11-2.86,.07-.95,.19-1.88,.36-2.79,.07-.38,.11-.74,.11-1.08,0-.91-.26-1.7-.79-2.38-.14-.17-.22-.34-.22-.52s.13-.27,.4-.27c.38,0,.96,.28,1.73,.83,.77,.55,1.15,1.08,1.15,1.58,0,.34-.14,.8-.43,1.4-.29,.6-.52,1.48-.68,2.63s-.25,2.5-.25,4.03,.12,3.02,.36,4.46c.24,1.44,.55,2.63,.94,3.56,.22,.46,.4,.81,.56,1.06,.16,.25,.3,.44,.43,.58,.13,.13,.26,.21,.4,.23,.13,.02,.27,.04,.41,.04,.53,0,.89-.2,1.08-.61l1.98-3.85c1.1-2.14,1.73-3.28,1.87-3.42,.14-.12,.32-.18,.52-.18s.31,.1,.31,.29Zm16.27,1.48c0,.84-.07,1.67-.22,2.48-.14,.82-.37,1.31-.67,1.49s-.58,.27-.85,.27c-.22,0-.37-.07-.47-.22-.1-.14-.14-.38-.14-.7s.02-.75,.05-1.28c.04-.53,.07-1.19,.09-1.98,0-2.93-.5-5.46-1.51-7.6-.96-2.11-2.57-3.44-4.82-4-.53-.1-.79-.3-.79-.61s.22-.47,.67-.47,1.28,.25,2.5,.76c.94,.34,1.78,.89,2.54,1.67,.76,.78,1.4,1.7,1.94,2.77s.95,2.24,1.24,3.51c.29,1.27,.43,2.57,.43,3.89Z"/><path class="cls-1" d="M776.14,219.24c1.08-.22,1.87-.43,2.36-.63,.49-.2,.88-.47,1.17-.81,.31-.36,.73-.54,1.26-.54s.92,.13,1.17,.38,.38,.5,.38,.74-.14,.47-.43,.68c-.22,.19-.95,.46-2.2,.79-.6,.14-1.24,.28-1.91,.41-.67,.13-1.38,.26-2.12,.38-.48,1.7-1.03,3.52-1.66,5.45-.62,1.93-1.32,4.01-2.09,6.25-1.56,4.44-2.44,6.79-2.63,7.06-.22,.31-.44,.47-.68,.47s-.43-.18-.58-.54c-.12-.36-.18-.83-.18-1.42s.19-1.16,.58-1.71c.41-.55,1.12-2.22,2.12-5,.53-1.39,1.06-2.94,1.6-4.64,.54-1.7,1.11-3.58,1.71-5.62-1.8,.29-3.24,.43-4.32,.43s-1.85-.32-2.3-.97c-.43-.65-.65-1.09-.65-1.31s.07-.34,.22-.34,.38,.14,.72,.43,.73,.5,1.19,.65c.46,.14,1.06,.22,1.8,.22,.38,0,.89-.04,1.51-.11s1.37-.19,2.23-.36c.67-2.33,1.01-3.83,1.01-4.5,0-1.01-.17-1.72-.5-2.12-.12-.12-.18-.25-.18-.4,0-.26,.13-.4,.4-.4s.78,.3,1.55,.9c.77,.62,1.15,1.13,1.15,1.51,0,.41-.16,.78-.47,1.12-.26,.31-.67,1.5-1.22,3.56Zm16.34,17.89c.48,0,.92,.14,1.33,.41,.41,.28,.61,.56,.61,.85,0,.31-.18,.55-.54,.72-.34,.17-.94,.34-1.8,.5s-1.84,.25-2.92,.25c-2.45,0-4.66-.42-6.62-1.26-1.92-.84-2.88-2.06-2.88-3.67,0-.36,.05-.7,.14-1.01,.1-.31,.22-.58,.36-.81,.14-.23,.29-.4,.43-.52,.14-.12,.26-.18,.36-.18,.19,0,.3,.05,.32,.14,.02,.1,0,.23-.05,.4-.06,.17-.13,.38-.2,.65s-.11,.55-.11,.86c0,1.08,.6,1.93,1.8,2.56,1.17,.6,2.77,.9,4.79,.9s3.37-.19,4.07-.58c.29-.14,.59-.22,.9-.22Zm1.58-16.16c0,.38-.28,.64-.83,.76-.58,.12-1.15,.31-1.73,.58-.6,.26-1.6,.95-2.99,2.05-.7,.55-1.24,.98-1.64,1.3-.4,.31-.64,.52-.74,.61-.17,.17-.32,.25-.47,.25-.17,0-.27-.05-.31-.14-.04-.1,.03-.27,.2-.52,.17-.25,.44-.59,.83-1.01,.38-.42,.92-.95,1.62-1.6,.91-.89,1.55-1.42,1.91-1.58,.36-.19,.54-.35,.54-.49s-.19-.2-.58-.2c-.53,0-1.05,.01-1.57,.04-.52,.02-1.05,.06-1.6,.11l-2.7,.29c-.31,0-.47-.1-.47-.29,0-.38,.65-.78,1.94-1.19,1.34-.41,2.87-.61,4.57-.61s2.86,.2,3.31,.61c.46,.38,.68,.73,.68,1.04Z"/><path class="cls-1" d="M828.38,228.35c0,1.54-.49,3.32-1.48,5.36-.98,2.06-2.45,3.67-4.39,4.82-1.99,1.2-4.25,1.8-6.77,1.8s-4.49-.68-5.83-2.03c-1.34-1.36-2.02-3.27-2.02-5.74,0-1.56,.07-4.21,.22-7.96,.1-1.87,.17-3.37,.23-4.48,.06-1.12,.11-1.87,.16-2.25,.1-.55,.16-1.04,.18-1.48,.02-.43,0-.83-.09-1.21s-.25-.74-.49-1.1c-.24-.36-.59-.74-1.04-1.15-.22-.17-.32-.34-.32-.52s.12-.27,.36-.27c.29,0,.79,.16,1.51,.47,.74,.31,1.3,.72,1.66,1.22,.36,.5,.54,1.15,.54,1.94,0,.72-.13,1.68-.4,2.88-.24,1.1-.46,2.77-.65,5-.1,1.1-.17,2.21-.22,3.33-.05,1.12-.07,2.26-.07,3.44,0,2.26,.17,3.95,.5,5.08,.33,1.08,.96,1.86,1.87,2.34,.91,.48,2.25,.72,4.03,.72,2.71,0,5.16-1.02,7.34-3.06,2.18-2.04,3.59-4.58,4.21-7.63,.05-.22,.12-.38,.22-.5,.1-.12,.2-.17,.31-.14,.11,.02,.2,.13,.29,.31,.08,.18,.13,.45,.13,.81Z"/><path class="cls-1" d="M854.59,233.06c3.62,1.18,6.01,2.2,7.16,3.06,1.22,.86,1.84,1.68,1.84,2.45,0,.43-.2,.65-.61,.65-.29,0-.6-.17-.94-.5-2.28-2.11-4.73-3.56-7.34-4.36,.14,.98,.22,1.58,.22,1.8,0,1.18-.61,2.14-1.84,2.88-1.22,.77-2.58,1.15-4.07,1.15s-2.99-.38-4.5-1.15c-1.13-.55-1.82-1.22-2.09-2-.26-.78-.14-1.52,.36-2.21,.5-.7,1.37-1.28,2.61-1.76,1.24-.48,2.79-.71,4.66-.68,1.08,0,2,.08,2.77,.25-.05-1.94-.09-3.43-.13-4.46-.04-1.03-.05-1.62-.05-1.76-1.2,.17-2.33,.29-3.38,.36-1.06,.07-2.05,.11-2.99,.11-1.87,0-3.11-.23-3.71-.68-.6-.46-.9-.95-.9-1.48,0-.19,.05-.39,.14-.59,.1-.2,.2-.36,.32-.47s.23-.13,.32-.07c.1,.06,.16,.25,.18,.56,.05,.67,.37,1.09,.97,1.26,.31,.07,.71,.13,1.19,.18,.48,.05,1.08,.07,1.8,.07s1.57-.03,2.54-.09c.97-.06,2.13-.16,3.47-.31-.02-.89-.04-1.87-.05-2.93-.01-1.07-.02-2.25-.02-3.55-4.8,.65-8.1,.97-9.9,.97-1.13,0-1.98-.29-2.56-.86-.55-.6-.83-.97-.83-1.12,0-.19,.05-.29,.16-.29s.21,.02,.31,.07c.96,.6,2.3,.9,4.03,.9s4.74-.29,8.82-.86c.02-.53,.04-1.01,.05-1.44,.01-.43,.02-.84,.02-1.22s-.02-.72-.07-1.01c-.05-.29-.13-.55-.25-.79-.12-.24-.29-.47-.5-.7-.22-.23-.49-.47-.83-.74-.22-.17-.32-.35-.32-.54s.16-.29,.47-.29,.97,.25,1.98,.76c1.03,.46,1.55,1.08,1.55,1.87,0,.29-.05,.54-.14,.76-.31,.82-.48,1.86-.5,3.13,1.22-.19,2.23-.35,3.02-.47s1.39-.23,1.8-.32c.41-.1,.78-.2,1.12-.32,.34-.12,.64-.25,.9-.4,.53-.29,1.01-.43,1.44-.43,.22,0,.43,.04,.65,.13,.22,.08,.41,.19,.59,.31,.18,.12,.33,.25,.45,.38,.12,.13,.18,.25,.18,.34,0,.24-.3,.44-.9,.61-.62,.19-3.71,.66-9.25,1.4-.05,1.2-.07,2.33-.07,3.4s.01,2.11,.04,3.11c1.3-.19,2.54-.47,3.73-.83,1.19-.36,2.11-.74,2.75-1.15,.29-.12,.59-.18,.9-.18,.38,0,.76,.12,1.13,.36,.37,.24,.56,.44,.56,.61,0,.14-.14,.29-.43,.43-.29,.17-1.26,.44-2.92,.83-1.63,.38-3.53,.74-5.69,1.08,.02,.91,.08,1.93,.18,3.06,.1,1.13,.23,2.38,.4,3.74Zm-1.73,.86c-1.2-.22-2.35-.32-3.46-.32-1.39-.02-2.55,.14-3.47,.49-.92,.35-1.57,.76-1.94,1.24-.37,.48-.47,.97-.29,1.48,.18,.5,.68,.91,1.49,1.22,.77,.41,1.61,.64,2.52,.7,.91,.06,1.76-.02,2.54-.23,.78-.22,1.43-.57,1.94-1.06,.52-.49,.76-1.1,.74-1.82l-.07-1.69Z"/><path class="cls-1" d="M890.87,217.87c1.8-.12,3.47-.26,5.02-.41,1.55-.16,2.98-.33,4.3-.52,.12-.02,.25-.04,.38-.04h.38c.72,0,1.34,.16,1.87,.47,.58,.29,.86,.54,.86,.76s-.12,.41-.36,.58c-.22,.17-.47,.25-.77,.25s-.61-.05-.92-.14c-.29-.1-1.18-.14-2.66-.14-.72,0-1.75,.04-3.1,.11-1.34,.07-3.01,.17-5,.29v3.2c0,.96,.01,1.82,.04,2.59,.48,.46,.85,1.22,1.12,2.3,.12,.53,.21,1.05,.27,1.57s.09,1.01,.09,1.49c0,2.26-.6,4.27-1.8,6.05-1.18,1.73-2.6,2.96-4.28,3.71-1.68,.77-2.94,1.15-3.78,1.15-.26,0-.4-.09-.4-.27s.17-.31,.5-.38c.98-.17,2.17-.7,3.56-1.58,1.37-.86,2.45-2.15,3.24-3.85,.82-1.66,1.22-3.47,1.22-5.44,0-.24,0-.47-.02-.68-.01-.22-.03-.42-.05-.61-.36,1.46-.98,2.6-1.85,3.42-.88,.82-1.97,1.22-3.29,1.22-1.15,0-2.09-.35-2.81-1.04-.72-.7-1.08-1.63-1.08-2.81,0-.38,.05-.81,.14-1.28,.1-.47,.24-.92,.43-1.37,.19-.44,.43-.86,.72-1.24,.29-.38,.64-.71,1.04-.97,.84-.53,1.76-.79,2.77-.79s1.99,.2,2.95,.61c.02-.96,.04-1.85,.04-2.66s-.02-1.57-.07-2.27c-4.51,.31-7.9,.59-10.17,.85-2.27,.25-3.47,.38-3.62,.38-.77,0-1.42-.34-1.94-1.01-.53-.67-.79-1.1-.79-1.3s.07-.29,.2-.29,.28,.08,.45,.25c.62,.62,1.67,.94,3.13,.94,.6,0,1.91-.1,3.94-.31,2.03-.2,4.95-.44,8.77-.7-.05-.89-.12-1.82-.22-2.81-.07-.98-.19-1.6-.36-1.84-.19-.24-.55-.53-1.08-.86-.19-.12-.29-.29-.29-.52s.14-.34,.43-.34c.7,0,1.44,.19,2.23,.58,.82,.38,1.22,.92,1.22,1.62,0,.31-.1,.64-.29,.97-.19,.29-.3,1.33-.32,3.13Zm-1.33,7.67c-.6-.67-1.43-1.01-2.48-1.01-.67,0-1.37,.17-2.09,.5-.67,.34-1.17,.77-1.49,1.3-.32,.53-.49,1.31-.49,2.34,0,2.09,.88,3.13,2.63,3.13,1.58,0,2.63-.72,3.13-2.16,.48-1.39,.74-2.76,.79-4.1Z"/><path class="cls-1" d="M915.5,230.15c1.22,0,2.23,.4,3.02,1.21s1.19,1.81,1.19,3.01-.4,2.2-1.19,3.01-1.8,1.21-3.02,1.21-2.23-.4-3.02-1.21-1.19-1.8-1.19-2.99,.41-2.19,1.24-3.01,1.82-1.22,2.97-1.22Zm0,7.34c.91,0,1.66-.3,2.25-.9s.88-1.34,.88-2.23-.29-1.63-.88-2.23c-.59-.6-1.33-.9-2.21-.9s-1.64,.31-2.25,.92c-.61,.61-.92,1.36-.92,2.23s.3,1.61,.9,2.21,1.34,.9,2.23,.9Z"/><path class="cls-1" d="M201.11,290.2c1.32-.89,2.8-1.6,4.43-2.12,1.7-.55,3.23-.83,4.57-.83,2.26,0,4.03,.65,5.33,1.96,1.3,1.31,1.94,3.08,1.94,5.31s-.83,3.97-2.48,5.29c-1.63,1.34-3.58,2.02-5.83,2.02-.72,0-1.35-.07-1.89-.2-.54-.13-.99-.3-1.35-.5-.36-.21-.64-.42-.83-.65-.19-.23-.29-.45-.29-.67s.08-.32,.25-.32,.32,.04,.47,.11c1.03,.55,2.11,.83,3.24,.83,1.78,0,3.32-.6,4.64-1.8,1.3-1.17,1.94-2.82,1.94-4.93,0-1.58-.46-2.83-1.37-3.74-.91-.91-2.12-1.37-3.64-1.37s-3.01,.26-4.64,.77c-1.63,.52-3.13,1.25-4.5,2.21,0,2.54,0,4.5,.02,5.87s.03,2.15,.05,2.34c.07,.41,.11,.89,.11,1.44,0,.6-.12,1.15-.36,1.66-.24,.53-.53,.79-.86,.79s-.54-.14-.61-.43c-.34-1.08-.68-1.84-1.04-2.27-.41-.43-1.06-1.04-1.94-1.84-.26-.26-.4-.46-.4-.58,0-.22,.12-.32,.36-.32s.47,.08,.68,.25c1.03,.82,1.69,1.22,1.98,1.22,.31,0,.44-.28,.4-.83v-.97c0-.7,.04-2.38,.11-5.04-3.72,3.29-6.26,5.69-7.63,7.2-.14,.17-.34,.25-.58,.25-.41,0-.61-.19-.61-.58,0-.41,.16-1,.47-1.76,.31-.77,.78-1.25,1.4-1.44,.31-.1,.65-.25,1.03-.45,.37-.2,.79-.46,1.24-.77,.46-.34,1.07-.82,1.84-1.46s1.73-1.46,2.88-2.47l.25-6.88c-1.66,.36-3.14,.62-4.45,.77-1.31,.16-2.29,.23-2.93,.23s-1.12-.26-1.48-.79c-.34-.55-.5-.91-.5-1.08,0-.29,.13-.43,.4-.43,.14,0,.31,.06,.5,.18,.58,.43,1.56,.65,2.95,.65s3.25-.31,5.58-.94c.07-1.58,.11-2.86,.11-3.82,0-.5-.02-.92-.05-1.24-.04-.32-.11-.61-.22-.86-.11-.25-.25-.47-.41-.65-.17-.18-.4-.38-.68-.59-.26-.19-.4-.41-.4-.65s.22-.36,.65-.36c.46,0,1.12,.22,1.98,.65,.89,.38,1.33,.96,1.33,1.73,0,.17-.06,.43-.18,.79-.1,.24-.29,1.76-.58,4.57,.5-.14,.96-.28,1.37-.41,.41-.13,.79-.28,1.13-.45,.35-.17,.67-.35,.97-.54,.3-.19,.62-.43,.95-.72,.46-.43,.86-.7,1.22-.79s.67-.11,.94-.04c.26,.07,.47,.19,.61,.34,.14,.16,.24,.28,.29,.38,0,.38-.63,.93-1.89,1.64-1.26,.71-3.16,1.4-5.71,2.07-.1,1.22-.17,2.33-.22,3.33-.05,1-.07,1.9-.07,2.72Zm11.48-11.2c.82,0,1.78,.24,2.88,.72,1.08,.46,1.9,1.03,2.47,1.73,.56,.7,.85,1.36,.85,1.98,0,.26-.11,.5-.32,.72-.22,.22-.43,.32-.65,.32-.19,0-.41-.12-.65-.36-.24-.24-.6-.36-1.08-.36s-.93,.06-1.35,.18c-.42,.12-.7,.18-.85,.18-.26,0-.27-.14-.02-.41,.25-.28,.8-.65,1.64-1.13,.24-.1,.36-.32,.36-.68,0-.34-.41-.72-1.22-1.15-.74-.41-1.6-.71-2.56-.9-.14-.02-.26-.08-.36-.18-.1-.1-.13-.19-.11-.29,.02-.1,.11-.18,.25-.25s.38-.11,.72-.11Z"/><path class="cls-1" d="M236,293.65c1.03,.79,1.88,1.55,2.54,2.29,.66,.73,.99,1.49,.99,2.29s-.18,1.19-.54,1.19c-.26,0-.55-.22-.86-.65-.84-1.2-1.88-2.46-3.13-3.78-1.54,1.68-3.11,2.97-4.72,3.87s-2.64,1.35-3.1,1.35c-.14,0-.22-.04-.22-.11,0-.17,.35-.47,1.04-.9,.7-.43,1.64-1.17,2.84-2.21,1.2-1.04,2.26-2.07,3.17-3.08-.74-.82-1.39-1.43-1.94-1.84-.48-.38-.72-.75-.72-1.1s.04-.74,.11-1.17l.43-2.48c-1.9,.5-3.13,.9-3.71,1.19s-1.06,.43-1.44,.43-.86-.23-1.44-.7c-.58-.47-.86-.84-.86-1.12s.3-.41,.9-.41l1.08,.07c.89,0,2.78-.24,5.69-.72,.65-3.79,.97-6.26,.97-7.42s-.12-1.93-.36-2.32c-.24-.4-.36-.71-.36-.94s.16-.34,.47-.34,.88,.25,1.71,.76,1.24,1.02,1.24,1.55c0,.26-.07,.54-.22,.83-.26,.58-.91,3.11-1.94,7.6l3.56-.61c.05-.43,.07-.84,.07-1.22l-.07-.9c0-.29,.11-.43,.34-.43s.64,.2,1.24,.59c.6,.4,.9,.8,.9,1.21,0,.19-.1,.44-.29,.76-.19,.31-.37,.83-.54,1.55-.67,2.9-1.62,5.22-2.84,6.95Zm1.08-7.67l-3.74,.94-.86,4c0,.19,.12,.36,.36,.5,.6,.38,1.26,.84,1.98,1.37,1.08-1.85,1.84-4.12,2.27-6.8Zm11.77,.9c2.18-.38,3.61-.65,4.27-.79,.66-.14,1.37-.22,2.12-.22s1.42,.22,1.98,.67c.56,.44,.85,.79,.85,1.03,0,.36-.58,.54-1.73,.54l-2.99-.07c-1.18,0-2.57,.05-4.18,.14,.36,1.68,.54,3.53,.54,5.54,0,3.84-.45,6.43-1.35,7.78-.9,1.34-1.59,2.02-2.07,2.02-.19,0-.38-.18-.58-.54-.19-.36-.56-.88-1.1-1.55s-1-1.18-1.39-1.51c-.38-.34-.58-.55-.58-.65s.08-.14,.23-.14,.53,.1,1.12,.31c.59,.2,1.13,.31,1.64,.31s.89-.23,1.17-.7c.28-.47,.52-1.22,.72-2.25,.2-1.03,.31-2.32,.31-3.85s-.11-3.06-.32-4.57c-1.78,.17-3.29,.4-4.55,.68-1.26,.29-2.1,.43-2.52,.43s-.8-.12-1.13-.36c-.34-.24-.5-.43-.5-.58s.38-.25,1.15-.31c.77-.06,3.2-.41,7.31-1.06-.31-1.42-.78-2.33-1.4-2.74s-.94-.7-.94-.86c0-.19,.25-.29,.74-.29s.95,.12,1.39,.36c.58-.72,1.22-1.66,1.94-2.81,.72-1.15,1.08-1.85,1.08-2.09s-.18-.36-.54-.36-1.17,.19-2.43,.58c-1.26,.38-2.23,.72-2.9,1.01-.29,.1-.63,.14-1.03,.14s-.89-.16-1.49-.47c-.6-.31-.9-.53-.9-.67s.43-.23,1.3-.29c.86-.06,2.08-.25,3.64-.56,1.56-.31,2.65-.61,3.28-.88,.62-.28,1.13-.41,1.53-.41s1.08,.28,2.05,.83c.97,.55,1.46,1.02,1.46,1.4,0,.29-.28,.54-.85,.74-.56,.2-1.19,.55-1.89,1.04-.7,.49-1.98,1.53-3.85,3.11,.55,.6,1.02,1.57,1.4,2.92Z"/><path class="cls-1" d="M281.21,286.13c.67-.17,1.25-.33,1.75-.49,.49-.16,.92-.31,1.28-.45,.36-.14,.67-.29,.94-.43,.26-.14,.52-.29,.76-.43,.5-.33,.97-.55,1.4-.65s.85-.14,1.26-.14c.82,0,1.22,.26,1.22,.79,0,.29-.11,.52-.32,.68-.22,.19-1.09,.55-2.63,1.08-.77,.26-1.56,.51-2.38,.74-.82,.23-1.67,.45-2.56,.67,.48,.91,1.01,1.84,1.6,2.79,.59,.95,1.23,1.93,1.93,2.93,.72,1.06,1.08,1.96,1.08,2.7-.02,.22-.07,.44-.13,.68-.06,.24-.17,.42-.32,.54-.16,.12-.37,.14-.63,.05-.26-.08-.61-.35-1.04-.81-.58-.6-1.62-1.1-3.13-1.51-1.56-.41-3.23-.61-5-.61s-3.38,.25-4.75,.76c-1.37,.5-2.05,1.46-2.05,2.88,0,.62,.16,1.24,.47,1.84,.31,.58,1.19,1.02,2.63,1.33,1.46,.34,2.98,.5,4.55,.5s3.01-.22,4.3-.65c.34-.12,.69-.19,1.06-.2,.37-.01,.71,.02,1.01,.09,.3,.07,.55,.19,.74,.36,.19,.17,.29,.38,.29,.65,0,.31-.14,.58-.43,.79-.26,.22-1.08,.38-2.45,.5-.67,.05-1.36,.09-2.07,.13-.71,.04-1.45,.05-2.21,.05s-1.54-.05-2.32-.14c-.78-.1-1.58-.24-2.39-.43-1.61-.36-2.78-.97-3.51-1.84-.73-.86-1.1-1.75-1.1-2.66s.38-1.82,1.15-2.66c.77-.86,1.85-1.49,3.24-1.87,1.39-.38,2.87-.58,4.43-.58,2.28,0,4.34,.4,6.19,1.19,.17,.07,.33,.11,.49,.11s.28-.03,.36-.09c.08-.06,.1-.16,.05-.29-.05-.13-.19-.29-.43-.49-.58-.5-1.63-2.39-3.17-5.65-2.21,.48-4.33,.88-6.37,1.19-2.06,.29-3.44,.43-4.14,.43-1.34,0-2.36-.28-3.06-.83-.67-.58-1.01-1.06-1.01-1.44,0-.19,.12-.29,.36-.29s.6,.2,1.08,.61c.48,.38,1.3,.58,2.45,.58,2.33,0,5.68-.54,10.04-1.62-.24-.53-.52-1.15-.83-1.87-.31-.72-.66-1.54-1.04-2.45-.6,.14-1.21,.28-1.82,.4-.61,.12-1.23,.23-1.85,.32-.62,.1-1.13,.17-1.51,.22-.38,.05-.65,.07-.79,.07-.53,0-1.01-.07-1.46-.2-.44-.13-.82-.3-1.13-.5-.31-.2-.55-.43-.72-.67-.17-.24-.25-.47-.25-.68,0-.17,.05-.25,.14-.25s.17,.01,.22,.04c.96,.55,2.05,.83,3.28,.83,.62,0,1.38-.07,2.27-.22,.89-.14,1.92-.35,3.1-.61l-1.33-3.28c-.1-.22-.2-.4-.31-.56-.11-.16-.24-.29-.4-.41-.16-.12-.35-.22-.59-.31-.24-.08-.54-.19-.9-.31-.24-.07-.36-.23-.36-.47,0-.5,.5-.76,1.51-.76,.72,0,1.36,.17,1.91,.52,.55,.35,.85,.79,.9,1.31,.05,.89,.38,2.17,1.01,3.85,1.03-.31,2.26-.92,3.67-1.84,.31-.24,.63-.38,.95-.41,.32-.04,.62,0,.88,.09,.26,.1,.47,.22,.63,.38,.16,.16,.23,.31,.23,.45,0,.17-.13,.35-.4,.54-.12,.1-.35,.22-.7,.36-.35,.14-.8,.34-1.35,.58-.55,.22-1.11,.42-1.67,.61-.56,.19-1.15,.37-1.75,.54,.31,.74,.63,1.47,.95,2.18,.32,.71,.67,1.41,1.03,2.11Z"/><path class="cls-1" d="M307.75,280.76c.84-.17,1.57-.4,2.18-.68,.61-.29,1.03-.55,1.24-.79,.29-.33,.76-.5,1.4-.5,.41,0,.77,.1,1.1,.29,.32,.19,.49,.37,.49,.54,0,.36-.72,.77-2.16,1.22s-3.01,.82-4.72,1.08c-.82,1.94-1.6,3.76-2.36,5.44-.76,1.68-1.49,3.26-2.21,4.75-1.46,2.98-2.27,4.56-2.41,4.75-.19,.19-.36,.29-.5,.29-.17,0-.32-.07-.45-.2-.13-.13-.2-.35-.2-.67,0-.34,.04-.73,.13-1.17,.08-.44,.2-.76,.34-.95,.34-.5,.74-1.16,1.21-1.96,.47-.8,.99-1.77,1.57-2.9,.58-1.15,1.14-2.32,1.69-3.49,.55-1.18,1.09-2.41,1.62-3.71-.12,.02-.25,.04-.38,.05-.13,.01-.26,.02-.38,.02-.89,0-1.7-.28-2.45-.83-.72-.53-1.08-.91-1.08-1.15,0-.22,.07-.32,.2-.32s.23,.04,.31,.11c.53,.46,1.1,.75,1.73,.88,.62,.13,1.45,.17,2.48,.13,.31-.77,.56-1.39,.74-1.87,.18-.48,.29-.82,.34-1.01,.14-.38,.22-.73,.22-1.04,0-.58-.18-1.04-.54-1.4-.05-.02-.1-.09-.14-.2-.05-.11-.04-.19,.02-.23,.06-.05,.2-.03,.41,.05,.22,.08,.56,.31,1.04,.67,.67,.46,1.01,.91,1.01,1.37s-.14,.9-.43,1.33c-.29,.48-.64,1.19-1.04,2.12Zm9.22,16.06c-.7-1.7-1.12-3.31-1.28-4.81-.16-1.5-.02-2.83,.4-3.98,.42-1.15,1.14-2.09,2.16-2.83,1.02-.73,2.35-1.19,3.98-1.39,.31-.02,.47-.11,.47-.25s-.26-.3-.79-.47c-.26-.1-.62-.2-1.08-.32-.46-.12-1.01-.25-1.66-.4-1.22-.31-2.03-.47-2.41-.47-.31,0-.47-.13-.47-.4,0-.12,.05-.21,.16-.27s.34-.09,.7-.09c1.3,0,2.7,.21,4.21,.61,1.51,.38,2.6,.86,3.28,1.42,.67,.56,1.01,1.04,1.01,1.42,0,.31-.16,.49-.47,.54-.31,.05-.68,.04-1.1-.04-.42-.07-.85-.17-1.3-.29-.44-.12-.8-.18-1.06-.18-1.2,0-2.3,.47-3.31,1.4-1.01,.94-1.51,2.32-1.51,4.14s.66,4.19,1.98,7.09c1.66,.46,2.92,.93,3.78,1.42,.86,.49,1.46,.94,1.78,1.33,.32,.4,.43,.73,.32,.99-.11,.26-.29,.4-.56,.4-.19,0-.35-.05-.47-.14-1.61-1.13-3.1-1.96-4.46-2.48,.1,1.32-.43,2.4-1.58,3.24-1.13,.84-2.69,1.26-4.68,1.26s-3.48-.35-4.61-1.04c-.55-.36-.96-.75-1.22-1.17-.26-.42-.4-.85-.4-1.3s.12-.87,.36-1.28c.24-.41,.6-.78,1.08-1.12,.96-.65,2.32-.97,4.07-.97,.86,0,1.69,.04,2.47,.11,.78,.07,1.52,.17,2.21,.29Zm.36,1.37c-1.85-.43-3.7-.65-5.54-.65-.98,0-1.77,.14-2.36,.43-.59,.29-1,.64-1.22,1.04-.23,.41-.26,.83-.11,1.28,.16,.44,.49,.82,.99,1.13,.7,.46,1.82,.68,3.38,.68s2.8-.29,3.64-.88c.84-.59,1.26-1.42,1.26-2.5,0-.24-.01-.42-.04-.54Z"/><path class="cls-1" d="M345.54,279.4c1.13,0,2.35,.77,3.67,2.3,.67,.77,1.33,1.5,1.98,2.2,.65,.7,1.31,1.37,1.98,2.03s1.36,1.32,2.05,1.98c.7,.66,1.44,1.35,2.23,2.07,.79,.7,1.45,1.27,1.96,1.73,.52,.46,.89,.78,1.13,.97,.46,.36,.97,.71,1.55,1.04,.53,.31,.96,.79,1.3,1.44,.31,.6,.47,1.07,.47,1.4,0,.48-.2,.72-.61,.72-.12,0-.32-.06-.61-.18-.17-.12-1.3-1.13-3.38-3.02-2.04-1.9-3.86-3.68-5.47-5.36-.82-.84-1.69-1.78-2.61-2.83s-1.93-2.18-3.01-3.4c-1.06-1.22-1.94-1.84-2.66-1.84-.43,0-.89,.24-1.37,.72-.43,.48-1.51,1.92-3.24,4.32-.84,1.22-1.57,2.3-2.2,3.22-.62,.92-1.14,1.7-1.55,2.32-.36,.55-.74,.83-1.13,.83s-.97-.31-1.71-.94c-.74-.62-1.12-1.09-1.12-1.4s.16-.47,.47-.47c.14,0,.32,.05,.52,.16,.2,.11,.43,.16,.67,.16,.72,0,1.42-.44,2.09-1.33,1.97-2.45,3.51-4.34,4.63-5.67,1.12-1.33,1.82-2.13,2.11-2.39,.55-.53,1.18-.79,1.87-.79Zm13.68-4.97c.46,0,.89,.08,1.31,.25s.79,.41,1.1,.72c.31,.31,.56,.67,.74,1.08,.18,.41,.27,.84,.27,1.3s-.08,.89-.25,1.3c-.17,.41-.41,.76-.72,1.06s-.67,.54-1.08,.72-.84,.27-1.3,.27-.89-.08-1.3-.25-.77-.41-1.08-.72c-.31-.31-.56-.67-.74-1.06-.18-.4-.27-.83-.27-1.31,0-.96,.3-1.76,.9-2.39,.6-.64,1.4-.95,2.41-.95Zm-.07,5.51c.6,0,1.12-.2,1.57-.61,.44-.41,.67-.9,.67-1.48s-.2-1.11-.61-1.53c-.41-.42-.91-.63-1.51-.63s-1.08,.2-1.51,.59c-.43,.4-.65,.89-.65,1.49s.2,1.08,.59,1.51c.4,.43,.88,.65,1.46,.65Z"/><path class="cls-1" d="M395.12,288.29c-1.15,0-2.66,.05-4.52,.14-1.86,.1-4.1,.24-6.71,.43-2.62,.19-4.7,.37-6.26,.54-1.56,.17-2.62,.34-3.17,.5-.43,.12-.77,.18-1.01,.18-.6,0-1.2-.32-1.8-.97-.62-.67-.94-1.14-.94-1.4,0-.31,.12-.47,.36-.47s.47,.11,.68,.32c.43,.36,1.19,.54,2.27,.54,.19,0,.41,0,.65-.02s.49-.03,.76-.05l7.92-.76c2.11-.19,3.8-.34,5.08-.43s2.15-.17,2.63-.22c.48-.02,.95-.06,1.4-.11,.46-.05,.87-.09,1.24-.13,.37-.04,.68-.07,.92-.11,.24-.04,.4-.07,.47-.09,.41-.14,.85-.22,1.33-.22s1.06,.24,1.73,.72c.7,.48,1.04,.91,1.04,1.28s-.43,.56-1.3,.56c-.48,0-.93-.04-1.35-.13s-.89-.13-1.42-.13Z"/><path class="cls-1" d="M423.13,290.23c2.33,1.2,4.42,2.5,6.26,3.89,1.9,1.42,3.12,2.51,3.67,3.28,.58,.77,.86,1.43,.86,1.98-.02,.36-.1,.67-.23,.94-.13,.26-.3,.44-.5,.54-.21,.1-.41,.1-.63,0-.22-.1-.42-.34-.61-.72-.89-1.58-2.2-3.2-3.92-4.86-1.75-1.7-3.61-3.1-5.58-4.18-3.07,3.67-6.06,6.34-8.96,7.99-2.93,1.63-4.78,2.45-5.54,2.45-.22,0-.32-.07-.32-.22,0-.22,.35-.53,1.04-.94,2.69-1.44,4.92-2.88,6.7-4.32,.89-.74,1.76-1.55,2.61-2.43,.85-.88,1.69-1.84,2.5-2.9,.84-1.08,1.6-2.14,2.27-3.17,.67-1.03,1.27-2.08,1.8-3.13,1.08-2.09,1.62-3.36,1.62-3.82,0-.26-.14-.4-.43-.4-.31,0-1.97,.42-4.97,1.26-1.49,.41-2.64,.73-3.46,.97-.82,.24-1.31,.4-1.48,.47-.34,.14-.62,.22-.86,.22-.53,0-1.07-.38-1.62-1.15-.55-.77-.83-1.27-.83-1.51s.1-.36,.29-.36,.37,.08,.54,.25c.46,.41,1.12,.61,1.98,.61,.22,0,.45-.01,.7-.04,.25-.02,.52-.06,.81-.11l3.89-.86c1.03-.24,1.9-.44,2.59-.61,.7-.17,1.25-.31,1.66-.43,.79-.26,1.34-.49,1.66-.68,.31-.24,.58-.36,.79-.36s.67,.25,1.37,.76c.7,.5,1.04,.88,1.04,1.13s-.18,.49-.54,.7c-.34,.19-.59,.39-.77,.59-.18,.2-.4,.58-.67,1.13-1.63,3.36-3.2,6.04-4.72,8.03Z"/><path class="cls-1" d="M465.64,278.42c.41,0,.95,.19,1.62,.58,.67,.36,1.01,.67,1.01,.94,0,.53-.31,.79-.94,.79l-1.55-.07c-1.15,0-2.29,.21-3.4,.63-1.12,.42-2.42,1.1-3.91,2.03-1.46,.94-2.7,1.91-3.69,2.93-1,1.02-1.77,2.15-2.32,3.4-.55,1.22-.83,2.44-.83,3.65s.3,2.36,.9,3.44c.31,.53,.7,1,1.17,1.4,.47,.41,.98,.76,1.53,1.04,.55,.29,1.13,.5,1.75,.65,.61,.14,1.22,.22,1.82,.22,.29,0,.59-.02,.92-.07,.32-.05,.65-.07,.99-.07,.46,0,.89,.05,1.31,.16,.42,.11,.79,.24,1.1,.4,.31,.16,.56,.34,.74,.54,.18,.2,.27,.4,.27,.59,0,.14-.05,.26-.14,.36-.1,.12-.42,.21-.97,.27s-1.08,.09-1.58,.09c-2.06,0-4.04-.4-5.94-1.19-.96-.38-1.79-.86-2.48-1.42s-1.27-1.19-1.73-1.87c-.46-.68-.79-1.4-1.01-2.16-.22-.76-.32-1.53-.32-2.32,0-2.23,.88-4.4,2.63-6.5,1.75-2.1,4.36-4.05,7.81-5.85,.19-.1,.29-.17,.29-.23s-.07-.09-.22-.09c-.17,0-.76,.08-1.78,.23s-2.47,.39-4.34,.7-3.54,.61-5,.9-2.75,.59-3.85,.9c-.26,.07-.5,.11-.72,.11-.65,0-1.37-.41-2.16-1.22-.41-.41-.7-.74-.88-1.01-.18-.26-.28-.47-.31-.63-.02-.16,0-.26,.09-.32,.08-.06,.2-.09,.34-.09,.17,0,.3,.05,.4,.14,.53,.38,1.02,.64,1.48,.77s1.06,.2,1.8,.2,2.29-.14,4.64-.43c1.2-.14,2.47-.31,3.8-.49,1.33-.18,2.75-.39,4.27-.63,1.51-.24,2.81-.46,3.89-.67,1.08-.2,1.97-.4,2.66-.59,.29-.1,.58-.14,.86-.14Zm-.04-3.74c.46,0,1.27,.44,2.45,1.33,1.2,.91,1.8,1.64,1.8,2.2,0,.38-.11,.67-.32,.85s-.46,.28-.74,.31c-.28,.02-.54-.04-.79-.18-.25-.14-.4-.35-.45-.61-.62-1.7-1.3-2.71-2.02-3.02-.24-.1-.36-.26-.36-.5s.14-.36,.43-.36Zm3.13-2.23c.17,0,.39,.03,.67,.09,.28,.06,.56,.14,.85,.23,.29,.1,.57,.21,.85,.34,.28,.13,.52,.27,.74,.41,.43,.29,.77,.6,1.03,.94s.38,.71,.38,1.12c0,.84-.3,1.26-.9,1.26-.24,0-.47-.08-.7-.23-.23-.16-.38-.35-.45-.59-.43-1.25-1.21-2.16-2.34-2.74-.36-.19-.54-.38-.54-.56s.14-.27,.43-.27Z"/><path class="cls-1" d="M504.23,298.19c.38,0,.7,.07,.94,.22,.24,.14,.41,.31,.52,.5,.11,.19,.15,.4,.13,.61-.02,.22-.12,.41-.29,.58-.24,.24-.94,.48-2.09,.72-1.15,.26-2.45,.46-3.89,.58-1.44,.12-2.88,.18-4.32,.18-5.11,0-8.47-.58-10.08-1.73-1.63-1.13-2.45-2.48-2.45-4.07,0-.96,.36-2.05,1.08-3.28,.74-1.25,1.26-1.87,1.55-1.87,.22,0,.32,.1,.32,.29,0,.05-.02,.12-.07,.22-1.01,1.44-1.51,2.82-1.51,4.14,0,1.25,.53,2.33,1.58,3.24,1.06,.91,3.32,1.37,6.8,1.37,1.08,0,2.14-.04,3.19-.11s2.08-.17,3.11-.29c2.04-.24,3.35-.52,3.92-.83,.53-.31,1.04-.47,1.55-.47Zm-5.87-19.62c.55,0,1.18,.2,1.87,.61,.7,.41,1.04,.83,1.04,1.26,0,.53-.52,.79-1.55,.79-.48,0-1.58,.42-3.31,1.26-.84,.41-1.58,.8-2.21,1.17-.64,.37-1.16,.73-1.57,1.06-.12,.1-.25,.14-.38,.14s-.2-.07-.2-.22c0-.19,.05-.34,.14-.43,.12-.12,.52-.44,1.19-.97,.67-.53,1.56-1.2,2.66-2.02,.19-.14,.29-.28,.29-.41s-.17-.2-.5-.2c-.17,0-.5,.02-1.01,.07-.5,.05-1.18,.12-2.02,.22-.84,.1-1.52,.17-2.03,.23-.52,.06-.87,.11-1.06,.16-.34,.07-.66,.11-.97,.11-.84,0-1.57-.35-2.2-1.04-.6-.7-.9-1.16-.9-1.4s.09-.36,.27-.36,.41,.13,.7,.4c.34,.29,.65,.48,.94,.58,.36,.12,1.09,.18,2.2,.18,.58,0,1.24-.02,2-.07,.76-.05,1.6-.12,2.54-.22,1.85-.22,2.9-.42,3.17-.61,.26-.19,.56-.29,.9-.29Zm7.81,1.37c0,.22-.07,.43-.22,.65-.14,.22-.31,.37-.5,.45-.19,.08-.39,.08-.59,0-.2-.08-.35-.31-.45-.67-.1-.43-.36-.94-.79-1.51-.41-.53-.77-.88-1.1-1.04-.32-.17-.49-.32-.49-.47,0-.24,.14-.36,.43-.36,.46,0,1.18,.34,2.16,1.01,1.03,.67,1.55,1.32,1.55,1.94Zm4.43-2.23c0,.19-.07,.38-.22,.56-.14,.18-.32,.32-.54,.41-.22,.1-.44,.11-.68,.05-.24-.06-.44-.25-.61-.56-.6-1.22-1.31-2.08-2.12-2.56-.19-.12-.29-.26-.29-.43s.14-.25,.43-.25c.58,0,1.39,.31,2.45,.94,1.06,.62,1.58,1.24,1.58,1.84Z"/><path class="cls-1" d="M527.09,278.35c-.26,1.06-.65,2.03-1.17,2.92-.52,.89-.95,1.33-1.3,1.33s-.52-.4-.52-1.19c0-.38,.1-.71,.31-.97,.2-.26,.47-.8,.81-1.62,.34-.82,.58-1.49,.72-2.02,.07-.22,.17-.32,.29-.32s.38,.25,.79,.76c1.51-.1,3.62-.37,6.34-.83,2.71-.46,4.19-.72,4.45-.79,.25-.07,.46-.11,.63-.11,.43,0,1.14,.4,2.12,1.19s1.48,1.34,1.48,1.66c0,.19-.2,.31-.61,.36-1.34,.19-2.59,.7-3.74,1.51-.26,.17-.47,.25-.61,.25s-.22-.07-.22-.22,.1-.38,.29-.72,.41-.74,.65-1.21c.24-.47,.36-.75,.36-.85,0-.26-.25-.4-.76-.4-.96,0-2.66,.18-5.11,.54,.74,.38,1.12,.67,1.12,.85s-.03,.38-.09,.61-.13,.74-.2,1.53c1.01-.24,1.7-.36,2.09-.36s.7,.1,.94,.31c.24,.2,.36,.36,.36,.47s-.07,.2-.22,.27c-.14,.07-.68,.22-1.62,.43-.94,.22-1.49,.34-1.66,.36-.02,.43-.04,1.07-.04,1.91,.7-.14,1.43-.33,2.21-.56,.78-.23,1.27-.34,1.46-.34,.41,0,1.06,.24,1.94,.72,.89,.48,1.33,.85,1.33,1.1s-.14,.49-.41,.72c-.28,.23-.57,.62-.88,1.19-.31,.56-.62,1.3-.92,2.21-.3,.91-.56,1.56-.77,1.94-.22,.38-.42,.58-.61,.58s-.4-.11-.61-.32c-.22-.22-.52-.32-.9-.32s-1.02,.07-1.91,.22c0,1.18-.01,1.91-.04,2.2,3-.46,4.74-.75,5.22-.88,.48-.13,.92-.2,1.33-.2s.95,.19,1.62,.58c.67,.38,1.01,.71,1.01,.97,0,.36-.46,.54-1.37,.54l-2.02-.07c-1.58,0-3.52,.1-5.8,.29-.07,3.05-.32,5.18-.76,6.41,1.54,.33,3,.5,4.39,.5s2.71-.04,3.96-.11l3.28-.14c.77,0,1.15,.12,1.15,.36,0,.12-.31,.3-.94,.54-.62,.24-2.09,.68-4.41,1.33-2.32,.65-3.68,.97-4.09,.97s-.72-.04-.94-.11-1.04-.43-2.48-1.08l-4.46-2.09c-2.88-1.34-4.86-2.2-5.94-2.57s-2.08-.56-2.99-.56-1.91,.34-2.99,1.01c-.17,.12-.32,.18-.47,.18s-.52-.25-1.13-.76-.92-.85-.92-1.03,.25-.27,.74-.27,1.51-.17,3.04-.5c.53-.1,.98-.14,1.35-.14s.82,.04,1.35,.11c0-.6-.07-1.13-.2-1.6-.13-.47-.37-1.04-.7-1.73-.34-.68-.5-1.43-.5-2.23s.06-1.49,.18-2.05c.12-.56,.18-.92,.18-1.08s-.08-.23-.23-.23-.46,.13-.9,.38-.94,.38-1.48,.38-1.06-.13-1.55-.38c-.49-.25-.74-.43-.74-.52s.12-.16,.36-.18c.72-.07,1.57-.31,2.56-.7,.98-.4,1.63-.76,1.94-1.1,.24-.19,.5-.29,.77-.29s.76,.14,1.44,.43c.68,.29,1.03,.52,1.03,.7s-.11,.39-.32,.63c-1.1,1.22-1.66,2.51-1.66,3.85,0,.41,.05,.82,.14,1.22,.55,2.28,.8,3.84,.76,4.68,.38,.1,1.14,.38,2.27,.86,4.13,1.78,6.91,2.81,8.35,3.1-.05-.72-.07-1.61-.07-2.68s.02-2.17,.07-3.29c-.74,.12-1.77,.35-3.08,.68-1.31,.34-2.13,.5-2.47,.5s-.82-.14-1.44-.41c-.62-.28-.94-.49-.94-.65s.32-.25,.97-.29c.65-.04,2.96-.37,6.95-.99,.05-1.06,.07-1.8,.07-2.23l-2.56,.47c-.1,.41-.25,.61-.45,.61s-.37-.12-.49-.36c-.12-.24-.29-.82-.5-1.73-.67-2.69-1.24-4.34-1.69-4.97-.12-.17-.18-.31-.18-.43,0-.24,.18-.36,.54-.36s.73,.05,1.12,.14c.86-.07,2.29-.25,4.28-.54v-1.8c-.7,.1-1.24,.14-1.64,.14s-.8-.07-1.22-.22c-.42-.14-.63-.28-.63-.4s.17-.22,.5-.29c1.44-.29,2.42-.5,2.95-.65-.07-1.58-.23-2.65-.47-3.2-1.03,.17-2.32,.35-3.85,.54Zm-9.5-.72c.65,0,1.31,.1,2,.31,.68,.2,1.18,.55,1.49,1.04,.31,.49,.47,.94,.47,1.35s-.08,.71-.23,.9c-.16,.19-.34,.29-.56,.29s-.43-.07-.65-.2c-.22-.13-.64-.54-1.26-1.22s-1.07-1.21-1.35-1.58c-.28-.37-.41-.61-.41-.72s.17-.16,.5-.16Zm13.86,10.73c-.5,.07-.92,.11-1.24,.11s-.6-.05-.83-.14c-.23-.1-.34-.2-.34-.32s.12-.2,.36-.25c.65-.1,1.33-.26,2.05-.5v-2.05c-1.61,.22-2.75,.36-3.42,.43,.38,2.04,.64,3.79,.76,5.26l2.63-.54c.02-.58,.04-1.24,.04-1.98Zm1.48-1.48c.53-.12,1-.18,1.4-.18,.74,0,1.12,.18,1.12,.54s-.84,.67-2.52,.94c0,.86-.01,1.49-.04,1.87,.98-.22,1.61-.32,1.87-.32s.43,.03,.5,.09c.07,.06,.13,.09,.18,.09,.22,0,.46-.65,.74-1.96,.28-1.31,.41-2.2,.41-2.68s-.24-.72-.72-.72-1.45,.14-2.92,.43l-.04,1.91Z"/><path class="cls-1" d="M556.54,289.37c-1.78,1.9-3.4,3.34-4.88,4.32-1.48,.98-2.48,1.48-3.01,1.48-.14,0-.22-.04-.22-.11,0-.14,.3-.46,.9-.94,.6-.48,1.3-1.11,2.11-1.89,.8-.78,1.61-1.61,2.43-2.48,.82-.88,1.51-1.69,2.07-2.45,.56-.76,1.04-1.47,1.44-2.14,.4-.67,.64-1.13,.72-1.39,.08-.25,.13-.53,.13-.85,0-.55,.18-.83,.54-.83s.82,.29,1.39,.86c.56,.58,.85,.97,.85,1.19s-.12,.41-.36,.58c-.62,.41-1.75,1.66-3.38,3.74,.84,.89,1.26,2,1.26,3.35l-.11,2.66c-.05,.84-.07,1.99-.07,3.46s-.13,2.63-.38,3.49-.53,1.3-.83,1.3-.58-.31-.83-.92-.38-1.2-.38-1.76,.11-1.27,.32-2.11c.43-1.78,.65-3.43,.65-4.97s-.12-2.74-.36-3.6Zm5.15-12.46c0,.31-.26,.65-.79,1.03-.53,.37-1.38,1.15-2.56,2.32-2.26,2.16-3.79,3.44-4.61,3.83-.82,.4-1.38,.59-1.69,.59-.12,0-.18-.05-.18-.16s.2-.34,.61-.7c2.02-1.8,3.53-3.41,4.55-4.82,1.02-1.42,1.53-2.44,1.53-3.06l-.04-.54c0-.38,.16-.58,.47-.58s.84,.26,1.58,.77c.74,.52,1.12,.95,1.12,1.31Zm7.67,10.04c-2.06,.38-3.67,.79-4.82,1.22-.58,.19-1.07,.29-1.49,.29s-.9-.11-1.44-.32-.81-.41-.81-.58,.23-.29,.68-.36c6.31-1.13,11.34-2.24,15.08-3.35,.38-.12,.83-.18,1.33-.18,.91,0,1.7,.17,2.38,.52,.67,.35,1.01,.67,1.01,.97s-.17,.53-.52,.68c-.35,.16-.81,.23-1.39,.23-2.66,0-5.58,.23-8.75,.68,.7,.43,1.21,.79,1.55,1.06s.5,.51,.5,.7-.05,.4-.16,.61c-.11,.22-.16,.62-.16,1.22s.1,2.02,.31,4.25c.2,2.23,.31,3.82,.31,4.77s-.07,1.69-.22,2.21c-.14,.53-.39,1.11-.74,1.75s-.63,1.06-.85,1.26-.46,.31-.72,.31-.49-.17-.68-.5c-.43-.89-.86-1.57-1.28-2.03s-.89-.91-1.4-1.33c-.52-.42-.77-.7-.77-.83s.1-.2,.29-.2,.41,.04,.65,.11c1.08,.34,1.81,.5,2.18,.5s.64-.07,.81-.22c.17-.14,.29-.65,.38-1.51,.08-.86,.13-1.81,.13-2.84,0-2.38-.13-4.41-.4-6.1-.26-1.69-.59-2.69-.97-3.01Zm4.21-9c.53,0,.99,.08,1.39,.23,.4,.16,.59,.34,.59,.54s-.05,.38-.16,.52c-.11,.14-1.09,.48-2.93,1.01-1.85,.53-3.08,.83-3.69,.9-.61,.07-1.16,.11-1.64,.11s-.93-.07-1.35-.22c-.42-.14-.63-.31-.63-.5s.22-.32,.65-.4c1.01-.22,3.02-.85,6.05-1.91,.48-.19,1.06-.29,1.73-.29Z"/><path class="cls-1" d="M608.56,302.54c0,.79-.24,1.19-.72,1.19-.31,0-.56-.17-.76-.5-.7-1.25-2.27-2.88-4.72-4.9-2.45-2.02-5.78-4.44-10.01-7.27-.62-.43-.94-1-.94-1.69,0-.53,.19-.98,.58-1.37,.19-.19,.95-.81,2.29-1.85s3.23-2.5,5.71-4.37c.36-.26,.78-.59,1.26-.99,.48-.4,1.02-.87,1.62-1.42,.6-.55,1.08-1,1.44-1.35,.36-.35,.6-.59,.72-.74,.24-.31,.36-.53,.36-.65,0-.31-.45-.59-1.33-.83-.26-.07-.41-.17-.45-.31-.04-.13-.01-.26,.07-.4s.22-.24,.4-.32,.38-.13,.59-.13c.65,0,1.43,.32,2.34,.97,.89,.6,1.33,1.13,1.33,1.58s-.43,.9-1.3,1.4c-.82,.48-1.8,1.16-2.95,2.05-.55,.43-1.27,.98-2.14,1.64s-1.93,1.43-3.15,2.32l-4.64,3.35c-.34,.24-.6,.43-.79,.58-.19,.14-.32,.26-.4,.36-.12,.17-.18,.38-.18,.63s.26,.55,.79,.88c5.35,3.43,8.81,5.74,10.37,6.91,1.54,1.15,2.69,2.11,3.46,2.88,.77,.77,1.15,1.55,1.15,2.34Z"/><path class="cls-1" d="M631.31,283.03c1.68-.41,2.86-.95,3.53-1.62,.29-.29,.59-.46,.92-.5,.32-.05,.62-.02,.9,.07,.28,.1,.51,.25,.7,.45,.19,.2,.29,.41,.29,.63,0,.26-.16,.48-.47,.65-.14,.1-.41,.21-.79,.34s-.89,.28-1.51,.45-1.26,.33-1.91,.49c-.65,.16-1.32,.29-2.02,.41-1.01,4.13-2.16,8.24-3.46,12.35-1.3,4.03-2.05,6.19-2.27,6.48-.19,.29-.43,.43-.72,.43s-.49-.19-.61-.58c-.12-.38-.18-.83-.18-1.35s.18-1.03,.54-1.53c.17-.24,.41-.77,.74-1.6s.7-1.91,1.13-3.24c.43-1.33,.91-2.89,1.42-4.68s1.06-3.79,1.64-5.99c-1.01,.17-1.87,.29-2.57,.38-.71,.08-1.27,.13-1.67,.13-.84,0-1.51-.31-2.02-.94-.48-.65-.72-1.1-.72-1.35s.12-.38,.36-.38c.07,0,.17,.05,.31,.14s.29,.2,.47,.32c.18,.12,.37,.24,.56,.36,.19,.12,.38,.22,.58,.29,.43,.12,.94,.18,1.51,.18,.67,0,1.86-.16,3.56-.47,.62-2.3,.94-3.77,.94-4.39,0-.98-.18-1.69-.54-2.12-.12-.12-.18-.26-.18-.43s.05-.3,.14-.4c.1-.1,.24-.14,.43-.14s.66,.28,1.4,.83c.74,.53,1.12,1.06,1.12,1.58,0,.29-.13,.73-.4,1.33-.12,.29-.28,.72-.47,1.3-.19,.58-.42,1.28-.68,2.12Zm16.99,17.64c.43,0,.83,.13,1.21,.4,.37,.26,.56,.5,.56,.72s-.13,.42-.4,.61c-.12,.07-.34,.16-.67,.27-.32,.11-.72,.2-1.19,.29-.47,.08-1,.16-1.58,.22-.59,.06-1.18,.09-1.78,.09-2.69,0-4.92-.41-6.7-1.22-1.8-.82-2.7-2-2.7-3.56,0-.34,.05-.65,.16-.94,.11-.29,.23-.54,.38-.76,.14-.22,.29-.39,.45-.52s.28-.2,.38-.2c.17,0,.26,.05,.29,.14,.02,.1,.01,.23-.04,.4s-.11,.38-.18,.63-.11,.53-.11,.85c0,1.15,.62,2.03,1.87,2.63,1.22,.6,2.82,.9,4.79,.9s3.37-.24,4.28-.72c.31-.14,.64-.22,.97-.22Zm.97-16.24c0,.41-.31,.65-.94,.72-.6,.07-1.14,.23-1.62,.49s-1.03,.63-1.66,1.13c-2.5,2.14-3.86,3.2-4.1,3.2-.07,0-.14-.04-.22-.11-.07-.07-.11-.14-.11-.22,0-.29,.68-1.07,2.05-2.34,1.39-1.27,2.28-2.02,2.66-2.23,.31-.17,.52-.31,.61-.41,.1-.11,.04-.19-.16-.23-.2-.05-.58-.06-1.12-.04-.54,.02-1.28,.08-2.21,.18l-3.28,.36c-.31,0-.47-.11-.47-.32,0-.41,.79-.82,2.38-1.22,1.54-.38,3.19-.58,4.97-.58,.55-.02,1.02,0,1.4,.09,.38,.08,.7,.2,.95,.36s.44,.34,.58,.54,.22,.41,.27,.63Zm-6.48-8.39c.82,0,1.74,.37,2.77,1.12,1.08,.72,1.62,1.33,1.62,1.84,0,.22-.07,.42-.22,.61-.14,.19-.31,.34-.5,.43s-.41,.11-.65,.04c-.24-.07-.44-.28-.61-.61-.65-1.27-1.52-2.14-2.63-2.59-.24-.1-.36-.24-.36-.43,0-.26,.19-.4,.58-.4Zm4.46-1.76c.36,0,.8,.1,1.31,.31,.52,.2,1.03,.49,1.53,.85,.98,.67,1.48,1.22,1.48,1.66,0,.22-.07,.43-.22,.65-.14,.22-.32,.38-.54,.49s-.44,.13-.67,.05c-.23-.07-.43-.28-.59-.61-.6-1.18-1.44-2-2.52-2.48-.24-.1-.36-.25-.36-.47,0-.29,.19-.43,.58-.43Z"/><path class="cls-1" d="M675.81,283.21c.55,.91,1.18,1.85,1.87,2.83,.7,.97,1.45,2,2.27,3.08,.53,.7,.98,1.31,1.35,1.84,.37,.53,.68,.98,.92,1.37,.48,.77,.72,1.5,.72,2.2s-.25,1.08-.76,1.08c-.36,0-.84-.3-1.44-.9-.58-.58-1.86-1.1-3.85-1.58-1.9-.46-3.84-.68-5.83-.68-2.42,0-4.1,.48-5.04,1.44-.91,.96-1.37,1.99-1.37,3.1,0,1.58,.78,2.74,2.34,3.46,1.54,.72,3.26,1.08,5.18,1.08s3.19-.22,3.89-.65c.7-.41,1.28-.61,1.76-.61,.24,0,.5,.04,.77,.13,.28,.08,.52,.2,.74,.34,.22,.14,.4,.29,.54,.45,.14,.16,.22,.31,.22,.45,0,.26-.13,.49-.4,.68-.29,.19-1.1,.4-2.45,.61-1.34,.24-2.62,.36-3.82,.36-2.62,0-5.03-.55-7.24-1.66-2.21-1.13-3.31-2.62-3.31-4.46,0-1.56,.82-2.94,2.45-4.14,1.61-1.18,3.71-1.76,6.3-1.76s5.32,.48,8.17,1.44c.38,.14,.64,.18,.77,.11,.13-.07,.05-.28-.23-.61-.91-1.08-1.86-2.32-2.84-3.73-.98-1.4-2.03-2.99-3.13-4.77-1.08,.34-2.22,.66-3.42,.97l-2.02,.5c-.24,.05-.53,.07-.86,.07-1.03,0-2.16-.19-3.38-.58-1.2-.38-2.05-.79-2.56-1.22-.36-.34-.58-.61-.67-.83s-.09-.37-.02-.47c.07-.1,.19-.13,.34-.11,.16,.02,.29,.11,.41,.25,1.18,.89,2.83,1.33,4.97,1.33s4.25-.4,6.41-1.19c-1.2-1.97-1.99-3.36-2.38-4.18-.19-.38-.38-.69-.56-.92-.18-.23-.38-.4-.59-.5-.22-.11-.46-.17-.72-.2-.26-.02-.58-.04-.94-.04-.72,0-1.08-.17-1.08-.5s.33-.62,1.01-.86c.72-.26,1.33-.4,1.84-.4,1.27,0,2.05,.62,2.34,1.87,.17,.62,.45,1.36,.85,2.21,.4,.85,.93,1.84,1.6,2.97,1.51-.67,2.84-1.42,4-2.23,.41-.31,.88-.47,1.4-.47s1,.09,1.49,.27c.49,.18,.74,.37,.74,.56s-.2,.42-.61,.68c-.19,.12-.49,.28-.9,.47-.41,.19-.92,.42-1.55,.68-.62,.26-1.24,.51-1.85,.74-.61,.23-1.23,.44-1.85,.63Z"/><path class="cls-1" d="M706.45,290.99c0,.17-.13,.48-.4,.94-.22,.38-.7,1.44-1.44,3.17-.36,.84-.66,1.55-.9,2.12-.24,.58-.42,1.03-.54,1.37-.22,.65-.32,1.09-.32,1.33,0,.26,.04,.49,.11,.68,.07,.19,.11,.38,.11,.58s-.08,.37-.23,.52c-.16,.16-.35,.23-.59,.23-.72,0-1.56-.47-2.52-1.4-.98-.91-1.84-2.45-2.56-4.61-.7-2.23-1.04-4.79-1.04-7.67,0-.96,.04-1.91,.11-2.86,.07-.95,.19-1.88,.36-2.79,.07-.38,.11-.74,.11-1.08,0-.91-.26-1.7-.79-2.38-.14-.17-.22-.34-.22-.52s.13-.27,.4-.27c.38,0,.96,.28,1.73,.83,.77,.55,1.15,1.08,1.15,1.58,0,.34-.14,.8-.43,1.4s-.52,1.48-.68,2.63c-.17,1.15-.25,2.5-.25,4.03s.12,3.02,.36,4.46c.24,1.44,.55,2.63,.94,3.56,.22,.46,.4,.81,.56,1.06,.16,.25,.3,.44,.43,.58,.13,.13,.26,.21,.4,.23,.13,.02,.27,.04,.41,.04,.53,0,.89-.2,1.08-.61l1.98-3.85c1.1-2.14,1.73-3.28,1.87-3.42,.14-.12,.32-.18,.52-.18s.31,.1,.31,.29Zm16.27,1.48c0,.84-.07,1.67-.22,2.48-.14,.82-.37,1.31-.67,1.49-.3,.18-.58,.27-.85,.27-.22,0-.37-.07-.47-.22-.1-.14-.14-.38-.14-.7s.02-.75,.05-1.28c.04-.53,.07-1.19,.09-1.98,0-2.93-.5-5.46-1.51-7.6-.96-2.11-2.57-3.44-4.82-4-.53-.1-.79-.3-.79-.61s.22-.47,.67-.47,1.28,.25,2.5,.76c.94,.34,1.78,.89,2.54,1.67,.76,.78,1.4,1.7,1.94,2.77,.54,1.07,.95,2.24,1.24,3.51,.29,1.27,.43,2.57,.43,3.89Z"/><path class="cls-1" d="M735.5,293.15c1.22,0,2.23,.4,3.02,1.21,.79,.8,1.19,1.81,1.19,3.01s-.4,2.2-1.19,3.01-1.8,1.21-3.02,1.21-2.23-.4-3.02-1.21-1.19-1.8-1.19-2.99,.41-2.19,1.24-3.01c.83-.82,1.82-1.22,2.97-1.22Zm0,7.34c.91,0,1.66-.3,2.25-.9s.88-1.34,.88-2.23-.29-1.63-.88-2.23-1.33-.9-2.21-.9-1.64,.31-2.25,.92-.92,1.36-.92,2.23,.3,1.61,.9,2.21,1.34,.9,2.23,.9Z"/></svg>