<?xml version="1.0" encoding="UTF-8"?><svg id="_イヤー_2" xmlns="http://www.w3.org/2000/svg" viewBox="0 0 182.92 507.64"><defs><style>.cls-1{fill:#fff;}.cls-2{fill:#3d3d3d;}.cls-3{opacity:.8;}</style></defs><g id="_イヤー_3"><g class="cls-3"><path class="cls-2" d="M50.46,420.69c-9.37,2.71-15.2,4.38-17.48,5-2.28,.62-4.32,.92-6.11,.92s-4.01-.58-6.66-1.76c-2.65-1.17-3.98-2.25-3.98-3.24s1.6-1.76,4.81-2.31c3.21-.55,8.23-1.85,15.08-3.88,6.85-2.04,14.49-4.75,22.94-8.14,8.45-3.39,13.78-5.09,16-5.09s4.04,.4,5.46,1.2c1.42,.8,2.13,1.79,2.13,2.96s-.93,2.22-2.77,3.15c-1.85,.92-9.68,3.92-23.5,8.97,3.95,2.34,5.92,4.25,5.92,5.73s-.56,3.27-1.67,5.37c7.4-.37,12.52,.22,15.35,1.76,2.84,1.54,4.25,3.42,4.25,5.64,0,1.23-.53,2.34-1.57,3.33-1.05,.99-2.07,3.27-3.05,6.85-.99,3.58-2.28,9.13-3.88,16.65-2.34,11.1-6.23,19.33-11.66,24.7-5.43,5.36-9.56,8.05-12.4,8.05-2.59,0-4.25-1.64-4.99-4.9-.74-3.27-2.65-6.87-5.74-10.82-.49-.62-.74-1.29-.74-2.04,0-1.23,.56-1.85,1.67-1.85,.49,0,.99,.12,1.48,.37,4.69,2.22,7.83,3.33,9.44,3.33s2.96-.43,4.07-1.29c1.11-.86,2.96-3.79,5.55-8.79,2.59-5,4.62-10.3,6.1-15.91,1.48-5.61,2.22-9.68,2.22-12.21s-.65-4.38-1.94-5.55c-1.29-1.17-3.36-2.37-6.2-3.61-11.35,19.61-21.74,32.65-31.17,39.13-9.44,6.48-15.7,9.71-18.78,9.71-.99,0-1.48-.34-1.48-1.02s.8-1.63,2.4-2.87c12.09-9.99,21.98-20.41,29.69-31.27,7.71-10.85,11.44-19.61,11.19-26.27Zm-2.41-51.8c2.22,0,5.64,.65,10.27,1.94s7.71,3.39,9.25,6.29c1.54,2.9,2.31,5.95,2.31,9.16,0,3.95-1.29,5.92-3.88,5.92-1.6,0-3.45-.92-5.55-2.78-2.1-1.85-5-5.3-8.69-10.36-3.7-5.06-5.55-8.02-5.55-8.88s.62-1.29,1.85-1.29Zm57.16,22.2c4.07-.12,13.5-3.02,28.31-8.69,3.45-1.36,6.84-2.04,10.17-2.04s5.76,.59,7.31,1.76c1.54,1.17,2.31,2.07,2.31,2.68s-1.05,1.39-3.14,2.31c-2.1,.93-8.11,2.75-18.04,5.46-9.93,2.71-16.13,4.07-18.59,4.07-3.58,0-7.34-.74-11.29-2.22-3.7,4.32-7,7.62-9.9,9.9-2.9,2.28-4.81,3.42-5.73,3.42s-1.39-.31-1.39-.92,.56-1.6,1.67-2.96c4.56-5.8,9-12.86,13.32-21.18,4.32-8.33,6.48-14.71,6.48-19.15,0-1.36-.19-2.53-.55-3.52-.37-.99-.56-1.97-.56-2.96s.89-1.48,2.68-1.48,4.62,.8,8.51,2.41c3.89,1.6,5.83,3.39,5.83,5.36,0,1.11-.74,2.47-2.22,4.07-1.48,1.6-3.49,4.78-6.01,9.53-2.53,4.75-5.58,9.47-9.16,14.15Zm21.09,60.68c5.3,5.06,11.59,9.43,18.87,13.13,7.28,3.7,18.56,7.77,33.86,12.21,2.59,.74,3.88,1.6,3.88,2.59,0,.49-.4,.86-1.2,1.11-.8,.25-4.84,.77-12.12,1.57-7.28,.8-12.46,1.2-15.54,1.2s-5.49-.49-7.22-1.48c-1.73-.99-4.81-3.7-9.25-8.14-4.44-4.44-9.68-10.24-15.72-17.39-6.17-6.78-13.13-13.88-20.91-21.27,.49,6.66,.74,13.97,.74,21.92s-.31,17.36-.92,28.21c10.36-7.03,16.4-11.1,18.13-12.21,1.73-1.11,3.11-1.67,4.16-1.67s1.57,.37,1.57,1.11-1.11,2.22-3.33,4.44c-7.77,7.77-15.6,16.71-23.5,26.83-1.85,2.47-3.55,3.7-5.09,3.7s-2.96-1.36-4.25-4.07c-1.3-2.71-1.94-5.15-1.94-7.31s.37-3.73,1.11-4.72c2.1-2.71,3.61-6.78,4.53-12.21,.92-5.43,1.39-13.38,1.39-23.86s-.25-17.23-.74-20.26c-.49-3.02-1.42-5.7-2.77-8.05-.62-1.11-.92-2.25-.92-3.42s.86-1.76,2.59-1.76,4.01,.86,6.84,2.59c7.03-3.33,12.55-6.44,16.56-9.34,4.01-2.9,6.2-5.3,6.57-7.21,.37-1.91,1.3-2.87,2.78-2.87s3.76,1.11,6.84,3.33c3.08,2.22,4.62,4.25,4.62,6.1,0,.62-.16,1.05-.46,1.29-.31,.25-2.07,.9-5.27,1.94-3.21,1.05-6.17,2.13-8.88,3.24-7.65,3.08-14.68,5.43-21.09,7.03,.25,.99,.37,1.79,.37,2.41,3.58,.86,11.29,7.15,23.12,18.87,8.14-9.62,12.21-16.9,12.21-21.83,0-2.34,1.17-3.51,3.52-3.51s5.15,.68,8.42,2.04c3.27,1.36,4.9,2.77,4.9,4.25,0,.62-.37,1.23-1.11,1.85-2.84,1.97-5.06,3.7-6.66,5.18-4.32,4.19-10.54,9-18.69,14.43Z"/></g><g class="cls-3"><path class="cls-2" d="M87.83,214.37c-6.29,.86-11.32,1.29-15.08,1.29s-7.22-.4-10.36-1.2c-3.15-.8-4.72-1.67-4.72-2.59s1.17-1.45,3.52-1.57c6.66-.49,15.48-1.85,26.46-4.07-.12-6.54-.56-11.16-1.3-13.88-.74-2.71-2.03-5.12-3.88-7.21-.99-1.23-1.48-2.4-1.48-3.52s1.11-1.67,3.33-1.67,5.52,.8,9.9,2.41c4.38,1.6,6.57,3.7,6.57,6.29,0,.74-.19,1.54-.56,2.4-1.11,2.59-1.73,6.97-1.85,13.14,6.29-1.36,11.07-2.47,14.34-3.33,3.27-.86,5.79-1.29,7.58-1.29s3.73,.43,5.83,1.29c2.1,.86,3.15,1.94,3.15,3.24s-1.45,2.44-4.35,3.42c-2.9,.99-11.75,2.65-26.55,4.99,.25,6.04,.37,10.92,.37,14.62,11.84-2.1,19.3-3.7,22.38-4.81,1.97-.74,3.95-1.11,5.92-1.11s5.33,1.42,10.08,4.25c4.75,2.84,7.12,5.18,7.12,7.03,0,.99-.68,2.13-2.04,3.42-1.36,1.29-2.56,3.08-3.61,5.36-1.05,2.28-2.34,6.04-3.88,11.29-1.54,5.24-3.39,9.74-5.55,13.5-2.16,3.76-4.35,5.64-6.57,5.64-1.48,0-2.59-.68-3.33-2.04-.62-.99-1.94-1.48-3.98-1.48s-7.56,.62-16.56,1.85v15.73c13.07-1.6,23.03-2.93,29.88-3.98,6.85-1.05,11.59-1.79,14.25-2.22,2.65-.43,5.24-.65,7.77-.65s5.61,1.23,9.25,3.7c3.64,2.47,5.46,4.69,5.46,6.66,0,2.22-2.1,3.15-6.29,2.78-10.61-1.11-19.89-1.67-27.84-1.67s-18.78,.74-32.47,2.22c0,17.02-.49,30.03-1.48,39.04-.99,9-2.4,13.5-4.25,13.5-.49,0-.99-.31-1.48-.92-.49-.62-.99-2.99-1.48-7.12-.49-4.13-.8-8.42-.92-12.86l-.19-30.71c-24.17,2.84-38.88,4.9-44.12,6.2-5.24,1.29-9.04,1.94-11.38,1.94s-5.03-.95-8.05-2.87c-3.02-1.91-4.53-3.3-4.53-4.16s.37-1.36,1.11-1.48c.74-.12,3.02-.18,6.85-.18s11.96-.62,24.42-1.85c12.46-1.23,24.36-2.65,35.71-4.25v-15.54l-20.17,3.15c.25,1.85-.74,2.77-2.96,2.77-.99,0-2.31-1.48-3.98-4.44s-3.05-6.72-4.16-11.29c-2.84-12.09-5.8-19.98-8.88-23.68-1.48-1.73-2.22-3.17-2.22-4.35s1.14-1.76,3.42-1.76,5.27,.49,8.97,1.48l29.04-4.62c-.12-4.81-.19-9.56-.19-14.25Zm.93,39.22c-3.95,.49-7.06,.74-9.34,.74s-3.98-.43-5.09-1.29c-1.11-.86-1.67-1.54-1.67-2.04s.86-.93,2.59-1.3c1.73-.37,6.17-1.42,13.32-3.15-.12-6.17-.25-10.36-.37-12.58-7.15,.99-15.54,2.59-25.16,4.81,1.73,8.76,3.45,18.69,5.18,29.79l20.54-2.96v-12.03Zm9.99-10.18c2.71-.49,5.86-.74,9.43-.74s5.37,.92,5.37,2.77c0,.99-.68,1.97-2.04,2.96-1.36,.99-5.61,2.16-12.76,3.52,.25,3.82,.25,7.89,0,12.21,11.59-1.73,17.64-2.53,18.13-2.41,1.85,.12,3.05-.28,3.61-1.2s1.63-4.72,3.24-11.38c1.6-6.66,2.41-11.1,2.41-13.32s-.37-3.64-1.11-4.25c-.74-.62-2.22-.92-4.44-.92-7.15,0-14.43,.55-21.83,1.67v11.1Z"/></g><g class="cls-3"><path class="cls-2" d="M60.63,36.6c-4.32,.74-8.45,1.11-12.4,1.11s-7.19-.58-9.71-1.76c-2.53-1.17-3.79-2.25-3.79-3.24,0-1.23,1.67-1.85,5-1.85,1.97,0,8.11-1.17,18.41-3.52,10.3-2.34,20.56-4.87,30.8-7.58,1.36-.37,3.45-.56,6.29-.56s5.52,.56,8.05,1.67c2.53,1.11,3.79,2.25,3.79,3.42s-.83,2.16-2.5,2.96c-1.67,.8-7.83,2.31-18.5,4.53-10.67,2.22-17.42,3.58-20.26,4.07,4.56,3.58,6.84,6.17,6.84,7.77s-.83,3.24-2.5,4.9-5.4,7-11.19,16c2.71,0,5.83-.43,9.34-1.29,3.51-.86,6.26-1.94,8.23-3.24,1.97-1.29,3.95-1.94,5.92-1.94s4.93,1.14,8.88,3.42c3.95,2.28,5.92,4.16,5.92,5.64,0,.99-1.02,2.31-3.05,3.98-2.04,1.67-4.29,6.32-6.75,13.97-1.97,5.43-5.4,12.55-10.27,21.37-4.87,8.82-11.19,16.65-18.96,23.5-7.77,6.84-15.23,11.99-22.39,15.45-7.15,3.45-11.9,5.18-14.25,5.18-.99,0-1.48-.37-1.48-1.11s1.48-2.04,4.44-3.89c12.21-7.15,22.51-15.79,30.9-25.9,8.39-10.11,14.55-20.41,18.5-30.9,3.95-10.48,5.92-16.65,5.92-18.5s-.49-2.77-1.48-2.77-3.21,.37-6.66,1.11c-3.45,.74-6.41,1.11-8.88,1.11s-4.62-.37-6.48-1.11c-3.21,5.3-6.97,10.11-11.29,14.43,7.65,2.59,12.55,4.87,14.71,6.84,2.16,1.97,3.24,4.81,3.24,8.51s-1.02,5.55-3.05,5.55-4.93-2.34-8.69-7.03c-3.76-4.69-6.57-8.63-8.42-11.84-2.96,2.84-6.32,5.77-10.08,8.79-3.76,3.02-6.14,4.53-7.12,4.53s-1.48-.34-1.48-1.02,.68-1.69,2.03-3.05c8.39-8.39,15.66-17.79,21.83-28.21,6.17-10.42,10.36-20.26,12.58-29.51Zm64.94,14.61c0,.74-.19,1.67-.56,2.78-.86,2.59-1.64,7.46-2.31,14.61-.68,7.15-1.02,12.95-1.02,17.39l.19,9.8c0,9.62-1.29,14.43-3.88,14.43-1.6,0-3.21-1.51-4.81-4.53-1.6-3.02-2.4-6.07-2.4-9.16,0-.86,.12-1.67,.37-2.4,1.73-6.78,2.59-14.86,2.59-24.24s-.68-17.14-2.04-23.31c-.12-.62-.19-1.17-.19-1.67,0-1.6,.71-2.4,2.13-2.4s3.76,.99,7.03,2.96c3.27,1.97,4.9,3.89,4.9,5.73Zm36.82-34.04c0,1.11-.74,2.96-2.22,5.55-.49,.86-1.05,4.25-1.66,10.17-.62,5.92-.93,10.85-.93,14.8,0,12.09,.31,26.64,.93,43.66l1.11,37.37c0,10.73-1.82,19.21-5.46,25.44-3.64,6.23-6.45,9.28-8.42,9.16-.99,0-1.97-.86-2.96-2.59-3.58-6.66-8.51-13.69-14.8-21.09-1.23-1.36-1.85-2.28-1.85-2.77s.31-.74,.92-.74,1.48,.19,2.59,.56c7.4,2.71,12.09,4.07,14.06,4.07,1.36,0,2.34-1.39,2.96-4.16,.62-2.77,1.11-9.99,1.48-21.64,.37-11.66,.55-24.57,.55-38.76,0-37.99-1.79-59.45-5.36-64.38-1.23-1.6-1.85-2.96-1.85-4.07s.95-1.67,2.87-1.67,5.39,1.36,10.45,4.07c5.06,2.71,7.59,5.06,7.59,7.03Z"/></g><path class="cls-1" d="M53.46,30.52c-4.32,.74-8.45,1.11-12.4,1.11s-7.19-.58-9.71-1.76c-2.53-1.17-3.79-2.25-3.79-3.24,0-1.23,1.67-1.85,5-1.85,1.97,0,8.11-1.17,18.41-3.52,10.3-2.34,20.56-4.87,30.8-7.58,1.36-.37,3.45-.56,6.29-.56s5.52,.56,8.05,1.67c2.53,1.11,3.79,2.25,3.79,3.42s-.83,2.16-2.5,2.96c-1.67,.8-7.83,2.31-18.5,4.53-10.67,2.22-17.42,3.58-20.26,4.07,4.56,3.58,6.84,6.17,6.84,7.77s-.83,3.24-2.5,4.9-5.4,7-11.19,16c2.71,0,5.83-.43,9.34-1.29,3.51-.86,6.26-1.94,8.23-3.24,1.97-1.29,3.95-1.94,5.92-1.94s4.93,1.14,8.88,3.42c3.95,2.28,5.92,4.16,5.92,5.64,0,.99-1.02,2.31-3.05,3.98-2.04,1.67-4.29,6.32-6.75,13.97-1.97,5.43-5.4,12.55-10.27,21.37-4.87,8.82-11.19,16.65-18.96,23.5-7.77,6.84-15.23,11.99-22.39,15.45-7.15,3.45-11.9,5.18-14.25,5.18-.99,0-1.48-.37-1.48-1.11s1.48-2.04,4.44-3.89c12.21-7.15,22.51-15.79,30.9-25.9,8.39-10.11,14.55-20.41,18.5-30.9,3.95-10.48,5.92-16.65,5.92-18.5s-.49-2.77-1.48-2.77-3.21,.37-6.66,1.11c-3.45,.74-6.41,1.11-8.88,1.11s-4.62-.37-6.48-1.11c-3.21,5.3-6.97,10.11-11.29,14.43,7.65,2.59,12.55,4.87,14.71,6.84,2.16,1.97,3.24,4.81,3.24,8.51s-1.02,5.55-3.05,5.55-4.93-2.34-8.69-7.03c-3.76-4.69-6.57-8.63-8.42-11.84-2.96,2.84-6.32,5.77-10.08,8.79-3.76,3.02-6.14,4.53-7.12,4.53s-1.48-.34-1.48-1.02,.68-1.69,2.03-3.05c8.39-8.39,15.66-17.79,21.83-28.21,6.17-10.42,10.36-20.26,12.58-29.51Zm64.94,14.61c0,.74-.18,1.67-.55,2.78-.86,2.59-1.64,7.46-2.31,14.61-.68,7.15-1.02,12.95-1.02,17.39l.18,9.8c0,9.62-1.29,14.43-3.88,14.43-1.6,0-3.21-1.51-4.81-4.53-1.6-3.02-2.41-6.07-2.41-9.16,0-.86,.12-1.67,.37-2.4,1.73-6.78,2.59-14.86,2.59-24.24s-.68-17.14-2.04-23.31c-.12-.62-.18-1.17-.18-1.67,0-1.6,.71-2.4,2.13-2.4s3.76,.99,7.03,2.96c3.27,1.97,4.9,3.89,4.9,5.73ZM155.21,11.1c0,1.11-.74,2.96-2.22,5.55-.49,.86-1.05,4.25-1.66,10.17-.62,5.92-.93,10.85-.93,14.8,0,12.09,.31,26.64,.93,43.66l1.11,37.37c0,10.73-1.82,19.21-5.46,25.44-3.64,6.23-6.45,9.28-8.42,9.16-.99,0-1.97-.86-2.96-2.59-3.58-6.66-8.51-13.69-14.8-21.09-1.23-1.36-1.85-2.28-1.85-2.77s.31-.74,.92-.74,1.48,.19,2.59,.56c7.4,2.71,12.09,4.07,14.06,4.07,1.36,0,2.34-1.39,2.96-4.16,.62-2.77,1.11-9.99,1.48-21.64,.37-11.66,.55-24.57,.55-38.76,0-37.99-1.79-59.45-5.36-64.38-1.23-1.6-1.85-2.96-1.85-4.07s.95-1.67,2.87-1.67,5.39,1.36,10.45,4.07c5.06,2.71,7.59,5.06,7.59,7.03Z"/><path class="cls-1" d="M80.66,208.29c-6.29,.86-11.32,1.29-15.08,1.29s-7.22-.4-10.36-1.2c-3.15-.8-4.72-1.67-4.72-2.59s1.17-1.45,3.52-1.57c6.66-.49,15.48-1.85,26.46-4.07-.12-6.54-.56-11.16-1.3-13.88-.74-2.71-2.03-5.12-3.88-7.21-.99-1.23-1.48-2.4-1.48-3.52s1.11-1.67,3.33-1.67,5.52,.8,9.9,2.41c4.38,1.6,6.57,3.7,6.57,6.29,0,.74-.18,1.54-.55,2.4-1.11,2.59-1.73,6.97-1.85,13.14,6.29-1.36,11.07-2.47,14.34-3.33,3.27-.86,5.8-1.29,7.58-1.29s3.73,.43,5.83,1.29c2.1,.86,3.14,1.94,3.14,3.24s-1.45,2.44-4.35,3.42c-2.9,.99-11.75,2.65-26.55,4.99,.25,6.04,.37,10.92,.37,14.62,11.84-2.1,19.3-3.7,22.39-4.81,1.97-.74,3.95-1.11,5.92-1.11s5.33,1.42,10.08,4.25c4.75,2.84,7.12,5.18,7.12,7.03,0,.99-.68,2.13-2.04,3.42-1.36,1.29-2.56,3.08-3.61,5.36-1.05,2.28-2.34,6.04-3.88,11.29-1.54,5.24-3.39,9.74-5.55,13.5-2.16,3.76-4.35,5.64-6.57,5.64-1.48,0-2.59-.68-3.33-2.04-.62-.99-1.94-1.48-3.98-1.48s-7.56,.62-16.56,1.85v15.73c13.07-1.6,23.03-2.93,29.88-3.98,6.84-1.05,11.59-1.79,14.25-2.22,2.65-.43,5.24-.65,7.77-.65s5.61,1.23,9.25,3.7c3.64,2.47,5.46,4.69,5.46,6.66,0,2.22-2.1,3.15-6.29,2.78-10.61-1.11-19.89-1.67-27.84-1.67s-18.78,.74-32.47,2.22c0,17.02-.49,30.03-1.48,39.04-.99,9-2.4,13.5-4.25,13.5-.49,0-.99-.31-1.48-.92-.49-.62-.99-2.99-1.48-7.12-.49-4.13-.8-8.42-.92-12.86l-.19-30.71c-24.17,2.84-38.88,4.9-44.12,6.2-5.24,1.29-9.04,1.94-11.38,1.94s-5.03-.95-8.05-2.87c-3.02-1.91-4.53-3.3-4.53-4.16s.37-1.36,1.11-1.48c.74-.12,3.02-.18,6.85-.18s11.96-.62,24.42-1.85c12.46-1.23,24.36-2.65,35.71-4.25v-15.54l-20.17,3.15c.25,1.85-.74,2.77-2.96,2.77-.99,0-2.31-1.48-3.98-4.44s-3.05-6.72-4.16-11.29c-2.84-12.09-5.8-19.98-8.88-23.68-1.48-1.73-2.22-3.17-2.22-4.35s1.14-1.76,3.42-1.76,5.27,.49,8.97,1.48l29.04-4.62c-.12-4.81-.19-9.56-.19-14.25Zm.93,39.22c-3.95,.49-7.06,.74-9.34,.74s-3.98-.43-5.09-1.29c-1.11-.86-1.67-1.54-1.67-2.04s.86-.92,2.59-1.29c1.73-.37,6.17-1.42,13.32-3.15-.12-6.17-.25-10.36-.37-12.58-7.15,.99-15.54,2.59-25.16,4.81,1.73,8.76,3.45,18.69,5.18,29.79l20.54-2.96v-12.03Zm9.99-10.18c2.71-.49,5.86-.74,9.44-.74s5.37,.92,5.37,2.77c0,.99-.68,1.97-2.04,2.96-1.36,.99-5.61,2.16-12.77,3.52,.25,3.82,.25,7.89,0,12.21,11.59-1.73,17.64-2.53,18.13-2.41,1.85,.12,3.05-.28,3.61-1.2,.55-.92,1.63-4.72,3.24-11.38,1.6-6.66,2.41-11.1,2.41-13.32s-.37-3.64-1.11-4.25c-.74-.62-2.22-.92-4.44-.92-7.15,0-14.43,.55-21.83,1.67v11.1Z"/><path class="cls-1" d="M43.29,414.61c-9.37,2.71-15.2,4.38-17.48,5-2.28,.62-4.32,.92-6.11,.92s-4.01-.58-6.66-1.76c-2.65-1.17-3.98-2.25-3.98-3.24s1.6-1.76,4.81-2.31c3.21-.55,8.23-1.85,15.08-3.88,6.85-2.04,14.49-4.75,22.94-8.14,8.45-3.39,13.78-5.09,16-5.09s4.04,.4,5.46,1.2c1.42,.8,2.13,1.79,2.13,2.96s-.93,2.22-2.77,3.15c-1.85,.92-9.68,3.92-23.5,8.97,3.95,2.34,5.92,4.25,5.92,5.73s-.56,3.27-1.67,5.37c7.4-.37,12.52,.22,15.35,1.76,2.84,1.54,4.25,3.42,4.25,5.64,0,1.23-.53,2.34-1.57,3.33-1.05,.99-2.07,3.27-3.05,6.85-.99,3.58-2.28,9.13-3.88,16.65-2.34,11.1-6.23,19.33-11.66,24.7-5.43,5.36-9.56,8.05-12.4,8.05-2.59,0-4.25-1.64-4.99-4.9-.74-3.27-2.65-6.87-5.74-10.82-.49-.62-.74-1.29-.74-2.04,0-1.23,.56-1.85,1.67-1.85,.49,0,.99,.12,1.48,.37,4.69,2.22,7.83,3.33,9.44,3.33s2.96-.43,4.07-1.29c1.11-.86,2.96-3.79,5.55-8.79,2.59-5,4.62-10.3,6.1-15.91,1.48-5.61,2.22-9.68,2.22-12.21s-.65-4.38-1.94-5.55c-1.29-1.17-3.36-2.37-6.2-3.61-11.35,19.61-21.74,32.65-31.17,39.13-9.44,6.48-15.7,9.71-18.78,9.71-.99,0-1.48-.34-1.48-1.02s.8-1.63,2.4-2.87c12.09-9.99,21.98-20.41,29.69-31.27,7.71-10.85,11.44-19.61,11.19-26.27Zm-2.41-51.8c2.22,0,5.64,.65,10.27,1.94s7.71,3.39,9.25,6.29c1.54,2.9,2.31,5.95,2.31,9.16,0,3.95-1.29,5.92-3.88,5.92-1.6,0-3.45-.92-5.55-2.78-2.1-1.85-5-5.3-8.69-10.36-3.7-5.06-5.55-8.02-5.55-8.88s.62-1.29,1.85-1.29Zm57.17,22.2c4.07-.12,13.5-3.02,28.3-8.69,3.45-1.36,6.84-2.04,10.17-2.04s5.76,.59,7.31,1.76c1.54,1.17,2.31,2.07,2.31,2.68s-1.05,1.39-3.14,2.31c-2.1,.93-8.11,2.75-18.04,5.46-9.93,2.71-16.13,4.07-18.59,4.07-3.58,0-7.34-.74-11.29-2.22-3.7,4.32-7,7.62-9.9,9.9-2.9,2.28-4.81,3.42-5.73,3.42s-1.39-.31-1.39-.92,.56-1.6,1.67-2.96c4.56-5.8,9-12.86,13.32-21.18,4.32-8.33,6.47-14.71,6.47-19.15,0-1.36-.18-2.53-.55-3.52-.37-.99-.55-1.97-.55-2.96s.89-1.48,2.68-1.48,4.62,.8,8.51,2.41c3.88,1.6,5.83,3.39,5.83,5.36,0,1.11-.74,2.47-2.22,4.07-1.48,1.6-3.49,4.78-6.01,9.53-2.53,4.75-5.58,9.47-9.16,14.15Zm21.09,60.68c5.3,5.06,11.59,9.43,18.87,13.13,7.27,3.7,18.56,7.77,33.85,12.21,2.59,.74,3.88,1.6,3.88,2.59,0,.49-.4,.86-1.2,1.11-.8,.25-4.84,.77-12.12,1.57-7.28,.8-12.46,1.2-15.54,1.2s-5.49-.49-7.21-1.48c-1.73-.99-4.81-3.7-9.25-8.14s-9.68-10.24-15.73-17.39c-6.17-6.78-13.13-13.88-20.9-21.27,.49,6.66,.74,13.97,.74,21.92s-.31,17.36-.92,28.21c10.36-7.03,16.4-11.1,18.13-12.21,1.73-1.11,3.11-1.67,4.16-1.67s1.57,.37,1.57,1.11-1.11,2.22-3.33,4.44c-7.77,7.77-15.6,16.71-23.49,26.83-1.85,2.47-3.55,3.7-5.09,3.7s-2.96-1.36-4.25-4.07c-1.3-2.71-1.94-5.15-1.94-7.31s.37-3.73,1.11-4.72c2.1-2.71,3.61-6.78,4.53-12.21,.93-5.43,1.39-13.38,1.39-23.86s-.25-17.23-.74-20.26c-.49-3.02-1.42-5.7-2.77-8.05-.62-1.11-.92-2.25-.92-3.42s.86-1.76,2.59-1.76,4.01,.86,6.84,2.59c7.03-3.33,12.55-6.44,16.56-9.34,4.01-2.9,6.2-5.3,6.57-7.21,.37-1.91,1.29-2.87,2.78-2.87s3.76,1.11,6.84,3.33c3.08,2.22,4.62,4.25,4.62,6.1,0,.62-.16,1.05-.46,1.29-.31,.25-2.07,.9-5.27,1.94-3.21,1.05-6.17,2.13-8.88,3.24-7.65,3.08-14.68,5.43-21.09,7.03,.25,.99,.37,1.79,.37,2.41,3.58,.86,11.29,7.15,23.12,18.87,8.14-9.62,12.21-16.9,12.21-21.83,0-2.34,1.17-3.51,3.51-3.51s5.15,.68,8.42,2.04c3.27,1.36,4.9,2.77,4.9,4.25,0,.62-.37,1.23-1.11,1.85-2.84,1.97-5.06,3.7-6.66,5.18-4.32,4.19-10.54,9-18.68,14.43Z"/></g></svg>